G04 #@! TF.GenerationSoftware,KiCad,Pcbnew,5.1.6+dfsg1-1*
G04 #@! TF.CreationDate,2020-11-01T22:24:16+03:00*
G04 #@! TF.ProjectId,WhitePill,57686974-6550-4696-9c6c-2e6b69636164,rev?*
G04 #@! TF.SameCoordinates,Original*
G04 #@! TF.FileFunction,Legend,Bot*
G04 #@! TF.FilePolarity,Positive*
%FSLAX46Y46*%
G04 Gerber Fmt 4.6, Leading zero omitted, Abs format (unit mm)*
G04 Created by KiCad (PCBNEW 5.1.6+dfsg1-1) date 2020-11-01 22:24:16*
%MOMM*%
%LPD*%
G01*
G04 APERTURE LIST*
%ADD10C,0.150000*%
%ADD11C,0.010000*%
%ADD12C,0.120000*%
G04 APERTURE END LIST*
D10*
X152637904Y-96337428D02*
X151876000Y-96337428D01*
X152256952Y-96718380D02*
X152256952Y-95956476D01*
X151495047Y-95718380D02*
X150876000Y-95718380D01*
X151209333Y-96099333D01*
X151066476Y-96099333D01*
X150971238Y-96146952D01*
X150923619Y-96194571D01*
X150876000Y-96289809D01*
X150876000Y-96527904D01*
X150923619Y-96623142D01*
X150971238Y-96670761D01*
X151066476Y-96718380D01*
X151352190Y-96718380D01*
X151447428Y-96670761D01*
X151495047Y-96623142D01*
X150590285Y-95718380D02*
X150256952Y-96718380D01*
X149923619Y-95718380D01*
X149685523Y-95718380D02*
X149066476Y-95718380D01*
X149399809Y-96099333D01*
X149256952Y-96099333D01*
X149161714Y-96146952D01*
X149114095Y-96194571D01*
X149066476Y-96289809D01*
X149066476Y-96527904D01*
X149114095Y-96623142D01*
X149161714Y-96670761D01*
X149256952Y-96718380D01*
X149542666Y-96718380D01*
X149637904Y-96670761D01*
X149685523Y-96623142D01*
X151987047Y-99210761D02*
X151844190Y-99258380D01*
X151606095Y-99258380D01*
X151510857Y-99210761D01*
X151463238Y-99163142D01*
X151415619Y-99067904D01*
X151415619Y-98972666D01*
X151463238Y-98877428D01*
X151510857Y-98829809D01*
X151606095Y-98782190D01*
X151796571Y-98734571D01*
X151891809Y-98686952D01*
X151939428Y-98639333D01*
X151987047Y-98544095D01*
X151987047Y-98448857D01*
X151939428Y-98353619D01*
X151891809Y-98306000D01*
X151796571Y-98258380D01*
X151558476Y-98258380D01*
X151415619Y-98306000D01*
X151082285Y-98258380D02*
X150844190Y-99258380D01*
X150653714Y-98544095D01*
X150463238Y-99258380D01*
X150225142Y-98258380D01*
X149844190Y-99258380D02*
X149844190Y-98258380D01*
X149177523Y-98258380D02*
X148987047Y-98258380D01*
X148891809Y-98306000D01*
X148796571Y-98401238D01*
X148748952Y-98591714D01*
X148748952Y-98925047D01*
X148796571Y-99115523D01*
X148891809Y-99210761D01*
X148987047Y-99258380D01*
X149177523Y-99258380D01*
X149272761Y-99210761D01*
X149368000Y-99115523D01*
X149415619Y-98925047D01*
X149415619Y-98591714D01*
X149368000Y-98401238D01*
X149272761Y-98306000D01*
X149177523Y-98258380D01*
X152629904Y-101750761D02*
X152487047Y-101798380D01*
X152248952Y-101798380D01*
X152153714Y-101750761D01*
X152106095Y-101703142D01*
X152058476Y-101607904D01*
X152058476Y-101512666D01*
X152106095Y-101417428D01*
X152153714Y-101369809D01*
X152248952Y-101322190D01*
X152439428Y-101274571D01*
X152534666Y-101226952D01*
X152582285Y-101179333D01*
X152629904Y-101084095D01*
X152629904Y-100988857D01*
X152582285Y-100893619D01*
X152534666Y-100846000D01*
X152439428Y-100798380D01*
X152201333Y-100798380D01*
X152058476Y-100846000D01*
X151725142Y-100798380D02*
X151487047Y-101798380D01*
X151296571Y-101084095D01*
X151106095Y-101798380D01*
X150868000Y-100798380D01*
X149915619Y-101703142D02*
X149963238Y-101750761D01*
X150106095Y-101798380D01*
X150201333Y-101798380D01*
X150344190Y-101750761D01*
X150439428Y-101655523D01*
X150487047Y-101560285D01*
X150534666Y-101369809D01*
X150534666Y-101226952D01*
X150487047Y-101036476D01*
X150439428Y-100941238D01*
X150344190Y-100846000D01*
X150201333Y-100798380D01*
X150106095Y-100798380D01*
X149963238Y-100846000D01*
X149915619Y-100893619D01*
X149010857Y-101798380D02*
X149487047Y-101798380D01*
X149487047Y-100798380D01*
X148677523Y-101798380D02*
X148677523Y-100798380D01*
X148106095Y-101798380D02*
X148534666Y-101226952D01*
X148106095Y-100798380D02*
X148677523Y-101369809D01*
X151383904Y-103640000D02*
X151479142Y-103592380D01*
X151622000Y-103592380D01*
X151764857Y-103640000D01*
X151860095Y-103735238D01*
X151907714Y-103830476D01*
X151955333Y-104020952D01*
X151955333Y-104163809D01*
X151907714Y-104354285D01*
X151860095Y-104449523D01*
X151764857Y-104544761D01*
X151622000Y-104592380D01*
X151526761Y-104592380D01*
X151383904Y-104544761D01*
X151336285Y-104497142D01*
X151336285Y-104163809D01*
X151526761Y-104163809D01*
X150907714Y-104592380D02*
X150907714Y-103592380D01*
X150336285Y-104592380D01*
X150336285Y-103592380D01*
X149860095Y-104592380D02*
X149860095Y-103592380D01*
X149622000Y-103592380D01*
X149479142Y-103640000D01*
X149383904Y-103735238D01*
X149336285Y-103830476D01*
X149288666Y-104020952D01*
X149288666Y-104163809D01*
X149336285Y-104354285D01*
X149383904Y-104449523D01*
X149479142Y-104544761D01*
X149622000Y-104592380D01*
X149860095Y-104592380D01*
D11*
G36*
X101438432Y-100996646D02*
G01*
X101541947Y-101025278D01*
X101636113Y-101051675D01*
X101717154Y-101074750D01*
X101781295Y-101093417D01*
X101824759Y-101106588D01*
X101843770Y-101113178D01*
X101844146Y-101113406D01*
X101833447Y-101119143D01*
X101797584Y-101131065D01*
X101740162Y-101148135D01*
X101664782Y-101169314D01*
X101575049Y-101193565D01*
X101475922Y-101219500D01*
X101373182Y-101246130D01*
X101278999Y-101270842D01*
X101197468Y-101292537D01*
X101132684Y-101310118D01*
X101088743Y-101322486D01*
X101070207Y-101328332D01*
X101059478Y-101335526D01*
X101052094Y-101349224D01*
X101047454Y-101373517D01*
X101044955Y-101412497D01*
X101043996Y-101470256D01*
X101043906Y-101507055D01*
X101044455Y-101576524D01*
X101046394Y-101624563D01*
X101050162Y-101654633D01*
X101056196Y-101670193D01*
X101064933Y-101674704D01*
X101065123Y-101674706D01*
X101082814Y-101670487D01*
X101126057Y-101658351D01*
X101192236Y-101639080D01*
X101278739Y-101613456D01*
X101382951Y-101582258D01*
X101502257Y-101546270D01*
X101634043Y-101506272D01*
X101775696Y-101463046D01*
X101872963Y-101433238D01*
X102659586Y-101191771D01*
X102685659Y-101374096D01*
X102702127Y-101489131D01*
X102715532Y-101581660D01*
X102726369Y-101653903D01*
X102735132Y-101708081D01*
X102742319Y-101746415D01*
X102748424Y-101771125D01*
X102753942Y-101784432D01*
X102759370Y-101788556D01*
X102765202Y-101785718D01*
X102771935Y-101778139D01*
X102774962Y-101774313D01*
X102783832Y-101760942D01*
X102789576Y-101744584D01*
X102792259Y-101721235D01*
X102791949Y-101686890D01*
X102788712Y-101637545D01*
X102782614Y-101569195D01*
X102778988Y-101531519D01*
X102771386Y-101454781D01*
X102763790Y-101380505D01*
X102756853Y-101314901D01*
X102751227Y-101264178D01*
X102748746Y-101243429D01*
X102739108Y-101167005D01*
X102793282Y-101152194D01*
X102847456Y-101137382D01*
X102847456Y-100950251D01*
X102847219Y-100878422D01*
X102846167Y-100828020D01*
X102843788Y-100795570D01*
X102839568Y-100777599D01*
X102832995Y-100770633D01*
X102823558Y-100771197D01*
X102821154Y-100771951D01*
X102761863Y-100790689D01*
X102721936Y-100800802D01*
X102705552Y-100801464D01*
X102702764Y-100788018D01*
X102698051Y-100752779D01*
X102691730Y-100698782D01*
X102684116Y-100629067D01*
X102675525Y-100546672D01*
X102666274Y-100454634D01*
X102656677Y-100355992D01*
X102647052Y-100253783D01*
X102637713Y-100151047D01*
X102636466Y-100137009D01*
X102615423Y-99835588D01*
X102603570Y-99512664D01*
X102600744Y-99170398D01*
X102606781Y-98810953D01*
X102621518Y-98436492D01*
X102644793Y-98049177D01*
X102676441Y-97651171D01*
X102716300Y-97244635D01*
X102764207Y-96831732D01*
X102819998Y-96414624D01*
X102883511Y-95995475D01*
X102954581Y-95576445D01*
X102998662Y-95337157D01*
X103024297Y-95204637D01*
X103053740Y-95056973D01*
X103086075Y-94898458D01*
X103120385Y-94733383D01*
X103155754Y-94566039D01*
X103191265Y-94400718D01*
X103226003Y-94241711D01*
X103259051Y-94093312D01*
X103289493Y-93959810D01*
X103316412Y-93845498D01*
X103322728Y-93819417D01*
X103327942Y-93791462D01*
X103321566Y-93781628D01*
X103299139Y-93783843D01*
X103296907Y-93784282D01*
X103262854Y-93790461D01*
X103211758Y-93799110D01*
X103167522Y-93806298D01*
X103074275Y-93821153D01*
X103058661Y-93885012D01*
X103005682Y-94113031D01*
X102952785Y-94362592D01*
X102900488Y-94630338D01*
X102849308Y-94912911D01*
X102799765Y-95206954D01*
X102752375Y-95509109D01*
X102707659Y-95816020D01*
X102666133Y-96124328D01*
X102628316Y-96430677D01*
X102594727Y-96731709D01*
X102565883Y-97024067D01*
X102554855Y-97148774D01*
X102542495Y-97295712D01*
X102532068Y-97424584D01*
X102523369Y-97539682D01*
X102516196Y-97645303D01*
X102510342Y-97745739D01*
X102505605Y-97845285D01*
X102501780Y-97948235D01*
X102498662Y-98058884D01*
X102496048Y-98181525D01*
X102493734Y-98320452D01*
X102491514Y-98479961D01*
X102491500Y-98481029D01*
X102489272Y-98786136D01*
X102491038Y-99072171D01*
X102497057Y-99344773D01*
X102507588Y-99609578D01*
X102522889Y-99872223D01*
X102543220Y-100138348D01*
X102568840Y-100413588D01*
X102589164Y-100606544D01*
X102614729Y-100839509D01*
X102475470Y-100883667D01*
X102336212Y-100927824D01*
X101697977Y-100728520D01*
X101566704Y-100687579D01*
X101444187Y-100649472D01*
X101333265Y-100615072D01*
X101236779Y-100585258D01*
X101157569Y-100560903D01*
X101098473Y-100542885D01*
X101062333Y-100532080D01*
X101051823Y-100529215D01*
X101049016Y-100540934D01*
X101046647Y-100573164D01*
X101044909Y-100621515D01*
X101043996Y-100681598D01*
X101043906Y-100708718D01*
X101043906Y-100888222D01*
X101438432Y-100996646D01*
G37*
X101438432Y-100996646D02*
X101541947Y-101025278D01*
X101636113Y-101051675D01*
X101717154Y-101074750D01*
X101781295Y-101093417D01*
X101824759Y-101106588D01*
X101843770Y-101113178D01*
X101844146Y-101113406D01*
X101833447Y-101119143D01*
X101797584Y-101131065D01*
X101740162Y-101148135D01*
X101664782Y-101169314D01*
X101575049Y-101193565D01*
X101475922Y-101219500D01*
X101373182Y-101246130D01*
X101278999Y-101270842D01*
X101197468Y-101292537D01*
X101132684Y-101310118D01*
X101088743Y-101322486D01*
X101070207Y-101328332D01*
X101059478Y-101335526D01*
X101052094Y-101349224D01*
X101047454Y-101373517D01*
X101044955Y-101412497D01*
X101043996Y-101470256D01*
X101043906Y-101507055D01*
X101044455Y-101576524D01*
X101046394Y-101624563D01*
X101050162Y-101654633D01*
X101056196Y-101670193D01*
X101064933Y-101674704D01*
X101065123Y-101674706D01*
X101082814Y-101670487D01*
X101126057Y-101658351D01*
X101192236Y-101639080D01*
X101278739Y-101613456D01*
X101382951Y-101582258D01*
X101502257Y-101546270D01*
X101634043Y-101506272D01*
X101775696Y-101463046D01*
X101872963Y-101433238D01*
X102659586Y-101191771D01*
X102685659Y-101374096D01*
X102702127Y-101489131D01*
X102715532Y-101581660D01*
X102726369Y-101653903D01*
X102735132Y-101708081D01*
X102742319Y-101746415D01*
X102748424Y-101771125D01*
X102753942Y-101784432D01*
X102759370Y-101788556D01*
X102765202Y-101785718D01*
X102771935Y-101778139D01*
X102774962Y-101774313D01*
X102783832Y-101760942D01*
X102789576Y-101744584D01*
X102792259Y-101721235D01*
X102791949Y-101686890D01*
X102788712Y-101637545D01*
X102782614Y-101569195D01*
X102778988Y-101531519D01*
X102771386Y-101454781D01*
X102763790Y-101380505D01*
X102756853Y-101314901D01*
X102751227Y-101264178D01*
X102748746Y-101243429D01*
X102739108Y-101167005D01*
X102793282Y-101152194D01*
X102847456Y-101137382D01*
X102847456Y-100950251D01*
X102847219Y-100878422D01*
X102846167Y-100828020D01*
X102843788Y-100795570D01*
X102839568Y-100777599D01*
X102832995Y-100770633D01*
X102823558Y-100771197D01*
X102821154Y-100771951D01*
X102761863Y-100790689D01*
X102721936Y-100800802D01*
X102705552Y-100801464D01*
X102702764Y-100788018D01*
X102698051Y-100752779D01*
X102691730Y-100698782D01*
X102684116Y-100629067D01*
X102675525Y-100546672D01*
X102666274Y-100454634D01*
X102656677Y-100355992D01*
X102647052Y-100253783D01*
X102637713Y-100151047D01*
X102636466Y-100137009D01*
X102615423Y-99835588D01*
X102603570Y-99512664D01*
X102600744Y-99170398D01*
X102606781Y-98810953D01*
X102621518Y-98436492D01*
X102644793Y-98049177D01*
X102676441Y-97651171D01*
X102716300Y-97244635D01*
X102764207Y-96831732D01*
X102819998Y-96414624D01*
X102883511Y-95995475D01*
X102954581Y-95576445D01*
X102998662Y-95337157D01*
X103024297Y-95204637D01*
X103053740Y-95056973D01*
X103086075Y-94898458D01*
X103120385Y-94733383D01*
X103155754Y-94566039D01*
X103191265Y-94400718D01*
X103226003Y-94241711D01*
X103259051Y-94093312D01*
X103289493Y-93959810D01*
X103316412Y-93845498D01*
X103322728Y-93819417D01*
X103327942Y-93791462D01*
X103321566Y-93781628D01*
X103299139Y-93783843D01*
X103296907Y-93784282D01*
X103262854Y-93790461D01*
X103211758Y-93799110D01*
X103167522Y-93806298D01*
X103074275Y-93821153D01*
X103058661Y-93885012D01*
X103005682Y-94113031D01*
X102952785Y-94362592D01*
X102900488Y-94630338D01*
X102849308Y-94912911D01*
X102799765Y-95206954D01*
X102752375Y-95509109D01*
X102707659Y-95816020D01*
X102666133Y-96124328D01*
X102628316Y-96430677D01*
X102594727Y-96731709D01*
X102565883Y-97024067D01*
X102554855Y-97148774D01*
X102542495Y-97295712D01*
X102532068Y-97424584D01*
X102523369Y-97539682D01*
X102516196Y-97645303D01*
X102510342Y-97745739D01*
X102505605Y-97845285D01*
X102501780Y-97948235D01*
X102498662Y-98058884D01*
X102496048Y-98181525D01*
X102493734Y-98320452D01*
X102491514Y-98479961D01*
X102491500Y-98481029D01*
X102489272Y-98786136D01*
X102491038Y-99072171D01*
X102497057Y-99344773D01*
X102507588Y-99609578D01*
X102522889Y-99872223D01*
X102543220Y-100138348D01*
X102568840Y-100413588D01*
X102589164Y-100606544D01*
X102614729Y-100839509D01*
X102475470Y-100883667D01*
X102336212Y-100927824D01*
X101697977Y-100728520D01*
X101566704Y-100687579D01*
X101444187Y-100649472D01*
X101333265Y-100615072D01*
X101236779Y-100585258D01*
X101157569Y-100560903D01*
X101098473Y-100542885D01*
X101062333Y-100532080D01*
X101051823Y-100529215D01*
X101049016Y-100540934D01*
X101046647Y-100573164D01*
X101044909Y-100621515D01*
X101043996Y-100681598D01*
X101043906Y-100708718D01*
X101043906Y-100888222D01*
X101438432Y-100996646D01*
G36*
X101024682Y-100163807D02*
G01*
X101037620Y-100227184D01*
X101061714Y-100306800D01*
X101091425Y-100368557D01*
X101130878Y-100419467D01*
X101173401Y-100458048D01*
X101200948Y-100479234D01*
X101227933Y-100496509D01*
X101257651Y-100510271D01*
X101293398Y-100520917D01*
X101338468Y-100528846D01*
X101396156Y-100534455D01*
X101469757Y-100538143D01*
X101562566Y-100540307D01*
X101677878Y-100541345D01*
X101818987Y-100541656D01*
X101865695Y-100541666D01*
X102366509Y-100541666D01*
X102366509Y-100205490D01*
X102228129Y-100205490D01*
X102277012Y-100159367D01*
X102339156Y-100083375D01*
X102382080Y-99994280D01*
X102403395Y-99899552D01*
X102400709Y-99806663D01*
X102396414Y-99786221D01*
X102360692Y-99702329D01*
X102299090Y-99629720D01*
X102213769Y-99570708D01*
X102179435Y-99554017D01*
X102116547Y-99535952D01*
X102036231Y-99526470D01*
X101968635Y-99525766D01*
X101968635Y-99869313D01*
X102018762Y-99876719D01*
X102062912Y-99902328D01*
X102067074Y-99905709D01*
X102093035Y-99930682D01*
X102106220Y-99956404D01*
X102110720Y-99992869D01*
X102111006Y-100012970D01*
X102104505Y-100073601D01*
X102081696Y-100127522D01*
X102071044Y-100144663D01*
X102031081Y-100205490D01*
X101748934Y-100205490D01*
X101756469Y-100165024D01*
X101763062Y-100127451D01*
X101770760Y-100080665D01*
X101773579Y-100062770D01*
X101793079Y-99983765D01*
X101824563Y-99926598D01*
X101869551Y-99889760D01*
X101929563Y-99871745D01*
X101968635Y-99869313D01*
X101968635Y-99525766D01*
X101949273Y-99525564D01*
X101866459Y-99533225D01*
X101798576Y-99549446D01*
X101786447Y-99554282D01*
X101709257Y-99599125D01*
X101645807Y-99660143D01*
X101595312Y-99738845D01*
X101556990Y-99836737D01*
X101530055Y-99955327D01*
X101515376Y-100075309D01*
X101508889Y-100136863D01*
X101500124Y-100176690D01*
X101486423Y-100197963D01*
X101465125Y-100203852D01*
X101433572Y-100197533D01*
X101417353Y-100192252D01*
X101373560Y-100164361D01*
X101341280Y-100117142D01*
X101320772Y-100054358D01*
X101312296Y-99979772D01*
X101316111Y-99897148D01*
X101332478Y-99810248D01*
X101361656Y-99722837D01*
X101381902Y-99678578D01*
X101396580Y-99646415D01*
X101404279Y-99623565D01*
X101404616Y-99620694D01*
X101390078Y-99614631D01*
X101348310Y-99610372D01*
X101282080Y-99608136D01*
X101240356Y-99607843D01*
X101076096Y-99607843D01*
X101059770Y-99673210D01*
X101025108Y-99851113D01*
X101013401Y-100014901D01*
X101024682Y-100163807D01*
G37*
X101024682Y-100163807D02*
X101037620Y-100227184D01*
X101061714Y-100306800D01*
X101091425Y-100368557D01*
X101130878Y-100419467D01*
X101173401Y-100458048D01*
X101200948Y-100479234D01*
X101227933Y-100496509D01*
X101257651Y-100510271D01*
X101293398Y-100520917D01*
X101338468Y-100528846D01*
X101396156Y-100534455D01*
X101469757Y-100538143D01*
X101562566Y-100540307D01*
X101677878Y-100541345D01*
X101818987Y-100541656D01*
X101865695Y-100541666D01*
X102366509Y-100541666D01*
X102366509Y-100205490D01*
X102228129Y-100205490D01*
X102277012Y-100159367D01*
X102339156Y-100083375D01*
X102382080Y-99994280D01*
X102403395Y-99899552D01*
X102400709Y-99806663D01*
X102396414Y-99786221D01*
X102360692Y-99702329D01*
X102299090Y-99629720D01*
X102213769Y-99570708D01*
X102179435Y-99554017D01*
X102116547Y-99535952D01*
X102036231Y-99526470D01*
X101968635Y-99525766D01*
X101968635Y-99869313D01*
X102018762Y-99876719D01*
X102062912Y-99902328D01*
X102067074Y-99905709D01*
X102093035Y-99930682D01*
X102106220Y-99956404D01*
X102110720Y-99992869D01*
X102111006Y-100012970D01*
X102104505Y-100073601D01*
X102081696Y-100127522D01*
X102071044Y-100144663D01*
X102031081Y-100205490D01*
X101748934Y-100205490D01*
X101756469Y-100165024D01*
X101763062Y-100127451D01*
X101770760Y-100080665D01*
X101773579Y-100062770D01*
X101793079Y-99983765D01*
X101824563Y-99926598D01*
X101869551Y-99889760D01*
X101929563Y-99871745D01*
X101968635Y-99869313D01*
X101968635Y-99525766D01*
X101949273Y-99525564D01*
X101866459Y-99533225D01*
X101798576Y-99549446D01*
X101786447Y-99554282D01*
X101709257Y-99599125D01*
X101645807Y-99660143D01*
X101595312Y-99738845D01*
X101556990Y-99836737D01*
X101530055Y-99955327D01*
X101515376Y-100075309D01*
X101508889Y-100136863D01*
X101500124Y-100176690D01*
X101486423Y-100197963D01*
X101465125Y-100203852D01*
X101433572Y-100197533D01*
X101417353Y-100192252D01*
X101373560Y-100164361D01*
X101341280Y-100117142D01*
X101320772Y-100054358D01*
X101312296Y-99979772D01*
X101316111Y-99897148D01*
X101332478Y-99810248D01*
X101361656Y-99722837D01*
X101381902Y-99678578D01*
X101396580Y-99646415D01*
X101404279Y-99623565D01*
X101404616Y-99620694D01*
X101390078Y-99614631D01*
X101348310Y-99610372D01*
X101282080Y-99608136D01*
X101240356Y-99607843D01*
X101076096Y-99607843D01*
X101059770Y-99673210D01*
X101025108Y-99851113D01*
X101013401Y-100014901D01*
X101024682Y-100163807D01*
G36*
X100626192Y-96840612D02*
G01*
X100628033Y-96949676D01*
X100629928Y-97036970D01*
X100632142Y-97105623D01*
X100634938Y-97158766D01*
X100638580Y-97199531D01*
X100643332Y-97231047D01*
X100649459Y-97256445D01*
X100657225Y-97278856D01*
X100664633Y-97296375D01*
X100713444Y-97381365D01*
X100775625Y-97444518D01*
X100853333Y-97487101D01*
X100948724Y-97510380D01*
X101038432Y-97515956D01*
X101149895Y-97505459D01*
X101245902Y-97473631D01*
X101326709Y-97420368D01*
X101359065Y-97388399D01*
X101411207Y-97330285D01*
X101438043Y-97389883D01*
X101471916Y-97446385D01*
X101518901Y-97500490D01*
X101571805Y-97545124D01*
X101623435Y-97573208D01*
X101624907Y-97573728D01*
X101671790Y-97583037D01*
X101747973Y-97588731D01*
X101853011Y-97590778D01*
X101859959Y-97590784D01*
X101937834Y-97590567D01*
X101992546Y-97589213D01*
X102030992Y-97585665D01*
X102060066Y-97578868D01*
X102086666Y-97567766D01*
X102117642Y-97551326D01*
X102170190Y-97516767D01*
X102221133Y-97474309D01*
X102240240Y-97454831D01*
X102275391Y-97411146D01*
X102304401Y-97364665D01*
X102327812Y-97312617D01*
X102346165Y-97252228D01*
X102360002Y-97180727D01*
X102369867Y-97095342D01*
X102376301Y-96993299D01*
X102379845Y-96871826D01*
X102381033Y-96734779D01*
X102381539Y-96457745D01*
X102054132Y-96457745D01*
X102054132Y-96818823D01*
X102048080Y-96958897D01*
X102044035Y-97026626D01*
X102037908Y-97075646D01*
X102028449Y-97112136D01*
X102014406Y-97142281D01*
X102009292Y-97150728D01*
X101964730Y-97197083D01*
X101904736Y-97226738D01*
X101836674Y-97238707D01*
X101767905Y-97232004D01*
X101705794Y-97205644D01*
X101689333Y-97193569D01*
X101657371Y-97159462D01*
X101635317Y-97116098D01*
X101621888Y-97059102D01*
X101615802Y-96984100D01*
X101615114Y-96940220D01*
X101615030Y-96818823D01*
X102054132Y-96818823D01*
X102054132Y-96457745D01*
X100953728Y-96457745D01*
X100953728Y-96818823D01*
X101314438Y-96818823D01*
X101314354Y-96909093D01*
X101312118Y-96961831D01*
X101306355Y-97011478D01*
X101298807Y-97045487D01*
X101268306Y-97096719D01*
X101218205Y-97129307D01*
X101150008Y-97142337D01*
X101138825Y-97142549D01*
X101062612Y-97134118D01*
X101006174Y-97109600D01*
X100972085Y-97070160D01*
X100970387Y-97066363D01*
X100962493Y-97035104D01*
X100956621Y-96988043D01*
X100953825Y-96934268D01*
X100953728Y-96922799D01*
X100953728Y-96818823D01*
X100953728Y-96457745D01*
X100620173Y-96457745D01*
X100626192Y-96840612D01*
G37*
X100626192Y-96840612D02*
X100628033Y-96949676D01*
X100629928Y-97036970D01*
X100632142Y-97105623D01*
X100634938Y-97158766D01*
X100638580Y-97199531D01*
X100643332Y-97231047D01*
X100649459Y-97256445D01*
X100657225Y-97278856D01*
X100664633Y-97296375D01*
X100713444Y-97381365D01*
X100775625Y-97444518D01*
X100853333Y-97487101D01*
X100948724Y-97510380D01*
X101038432Y-97515956D01*
X101149895Y-97505459D01*
X101245902Y-97473631D01*
X101326709Y-97420368D01*
X101359065Y-97388399D01*
X101411207Y-97330285D01*
X101438043Y-97389883D01*
X101471916Y-97446385D01*
X101518901Y-97500490D01*
X101571805Y-97545124D01*
X101623435Y-97573208D01*
X101624907Y-97573728D01*
X101671790Y-97583037D01*
X101747973Y-97588731D01*
X101853011Y-97590778D01*
X101859959Y-97590784D01*
X101937834Y-97590567D01*
X101992546Y-97589213D01*
X102030992Y-97585665D01*
X102060066Y-97578868D01*
X102086666Y-97567766D01*
X102117642Y-97551326D01*
X102170190Y-97516767D01*
X102221133Y-97474309D01*
X102240240Y-97454831D01*
X102275391Y-97411146D01*
X102304401Y-97364665D01*
X102327812Y-97312617D01*
X102346165Y-97252228D01*
X102360002Y-97180727D01*
X102369867Y-97095342D01*
X102376301Y-96993299D01*
X102379845Y-96871826D01*
X102381033Y-96734779D01*
X102381539Y-96457745D01*
X102054132Y-96457745D01*
X102054132Y-96818823D01*
X102048080Y-96958897D01*
X102044035Y-97026626D01*
X102037908Y-97075646D01*
X102028449Y-97112136D01*
X102014406Y-97142281D01*
X102009292Y-97150728D01*
X101964730Y-97197083D01*
X101904736Y-97226738D01*
X101836674Y-97238707D01*
X101767905Y-97232004D01*
X101705794Y-97205644D01*
X101689333Y-97193569D01*
X101657371Y-97159462D01*
X101635317Y-97116098D01*
X101621888Y-97059102D01*
X101615802Y-96984100D01*
X101615114Y-96940220D01*
X101615030Y-96818823D01*
X102054132Y-96818823D01*
X102054132Y-96457745D01*
X100953728Y-96457745D01*
X100953728Y-96818823D01*
X101314438Y-96818823D01*
X101314354Y-96909093D01*
X101312118Y-96961831D01*
X101306355Y-97011478D01*
X101298807Y-97045487D01*
X101268306Y-97096719D01*
X101218205Y-97129307D01*
X101150008Y-97142337D01*
X101138825Y-97142549D01*
X101062612Y-97134118D01*
X101006174Y-97109600D01*
X100972085Y-97070160D01*
X100970387Y-97066363D01*
X100962493Y-97035104D01*
X100956621Y-96988043D01*
X100953825Y-96934268D01*
X100953728Y-96922799D01*
X100953728Y-96818823D01*
X100953728Y-96457745D01*
X100620173Y-96457745D01*
X100626192Y-96840612D01*
G36*
X100655834Y-94350416D02*
G01*
X100657273Y-94460295D01*
X100658726Y-94548265D01*
X100660455Y-94617318D01*
X100662725Y-94670444D01*
X100665801Y-94710638D01*
X100669945Y-94740889D01*
X100675422Y-94764190D01*
X100682497Y-94783533D01*
X100691432Y-94801909D01*
X100696507Y-94811353D01*
X100744520Y-94876082D01*
X100812616Y-94937331D01*
X100891718Y-94988182D01*
X100972342Y-95021600D01*
X101055126Y-95037454D01*
X101153393Y-95044278D01*
X101254723Y-95042067D01*
X101346695Y-95030815D01*
X101385381Y-95021771D01*
X101466239Y-94988205D01*
X101545270Y-94937203D01*
X101613251Y-94875463D01*
X101648550Y-94830628D01*
X101674849Y-94782179D01*
X101694471Y-94725229D01*
X101708077Y-94656047D01*
X101716324Y-94570901D01*
X101719871Y-94466060D01*
X101720123Y-94425122D01*
X101720237Y-94241470D01*
X102366509Y-94241470D01*
X102366509Y-93955098D01*
X101419645Y-93955098D01*
X101419645Y-94241470D01*
X101419561Y-94400220D01*
X101418241Y-94465633D01*
X101414707Y-94526541D01*
X101409497Y-94576156D01*
X101403148Y-94607694D01*
X101403115Y-94607793D01*
X101370543Y-94664565D01*
X101319344Y-94707455D01*
X101255699Y-94735063D01*
X101185791Y-94745992D01*
X101115802Y-94738844D01*
X101051913Y-94712220D01*
X101026239Y-94693017D01*
X100998535Y-94666256D01*
X100978379Y-94639546D01*
X100964294Y-94608067D01*
X100954800Y-94566998D01*
X100948421Y-94511519D01*
X100943677Y-94436810D01*
X100942897Y-94421251D01*
X100934104Y-94241470D01*
X101419645Y-94241470D01*
X101419645Y-93955098D01*
X100650899Y-93955098D01*
X100655834Y-94350416D01*
G37*
X100655834Y-94350416D02*
X100657273Y-94460295D01*
X100658726Y-94548265D01*
X100660455Y-94617318D01*
X100662725Y-94670444D01*
X100665801Y-94710638D01*
X100669945Y-94740889D01*
X100675422Y-94764190D01*
X100682497Y-94783533D01*
X100691432Y-94801909D01*
X100696507Y-94811353D01*
X100744520Y-94876082D01*
X100812616Y-94937331D01*
X100891718Y-94988182D01*
X100972342Y-95021600D01*
X101055126Y-95037454D01*
X101153393Y-95044278D01*
X101254723Y-95042067D01*
X101346695Y-95030815D01*
X101385381Y-95021771D01*
X101466239Y-94988205D01*
X101545270Y-94937203D01*
X101613251Y-94875463D01*
X101648550Y-94830628D01*
X101674849Y-94782179D01*
X101694471Y-94725229D01*
X101708077Y-94656047D01*
X101716324Y-94570901D01*
X101719871Y-94466060D01*
X101720123Y-94425122D01*
X101720237Y-94241470D01*
X102366509Y-94241470D01*
X102366509Y-93955098D01*
X101419645Y-93955098D01*
X101419645Y-94241470D01*
X101419561Y-94400220D01*
X101418241Y-94465633D01*
X101414707Y-94526541D01*
X101409497Y-94576156D01*
X101403148Y-94607694D01*
X101403115Y-94607793D01*
X101370543Y-94664565D01*
X101319344Y-94707455D01*
X101255699Y-94735063D01*
X101185791Y-94745992D01*
X101115802Y-94738844D01*
X101051913Y-94712220D01*
X101026239Y-94693017D01*
X100998535Y-94666256D01*
X100978379Y-94639546D01*
X100964294Y-94608067D01*
X100954800Y-94566998D01*
X100948421Y-94511519D01*
X100943677Y-94436810D01*
X100942897Y-94421251D01*
X100934104Y-94241470D01*
X101419645Y-94241470D01*
X101419645Y-93955098D01*
X100650899Y-93955098D01*
X100655834Y-94350416D01*
G36*
X100623722Y-97875444D02*
G01*
X100627025Y-97926678D01*
X100631965Y-97966282D01*
X100638512Y-97989043D01*
X100641864Y-97992369D01*
X100660433Y-97996107D01*
X100705069Y-98004199D01*
X100772379Y-98016057D01*
X100858968Y-98031091D01*
X100961444Y-98048712D01*
X101076412Y-98068332D01*
X101200479Y-98089361D01*
X101205428Y-98090197D01*
X101328852Y-98111208D01*
X101442483Y-98130874D01*
X101543078Y-98148607D01*
X101627391Y-98163821D01*
X101692177Y-98175931D01*
X101734191Y-98184350D01*
X101750189Y-98188492D01*
X101750251Y-98188599D01*
X101736192Y-98192924D01*
X101696090Y-98202522D01*
X101633089Y-98216705D01*
X101550331Y-98234791D01*
X101450962Y-98256092D01*
X101338123Y-98279924D01*
X101214958Y-98305602D01*
X101186687Y-98311451D01*
X100623077Y-98427910D01*
X100623077Y-98794565D01*
X100814704Y-98832576D01*
X100885501Y-98846582D01*
X100978489Y-98864924D01*
X101086610Y-98886213D01*
X101202801Y-98909059D01*
X101320001Y-98932072D01*
X101378291Y-98943504D01*
X101479185Y-98963517D01*
X101569683Y-98981917D01*
X101645897Y-98997876D01*
X101703939Y-99010568D01*
X101739919Y-99019165D01*
X101750253Y-99022647D01*
X101736084Y-99026565D01*
X101695720Y-99035031D01*
X101632371Y-99047437D01*
X101549251Y-99063175D01*
X101449570Y-99081639D01*
X101336541Y-99102222D01*
X101213377Y-99124315D01*
X101197938Y-99127062D01*
X101073179Y-99149410D01*
X100957663Y-99170426D01*
X100854696Y-99189484D01*
X100767580Y-99205959D01*
X100699619Y-99219224D01*
X100654116Y-99228656D01*
X100634374Y-99233627D01*
X100633933Y-99233863D01*
X100630045Y-99248766D01*
X100627293Y-99283888D01*
X100625862Y-99334558D01*
X100625938Y-99396108D01*
X100626418Y-99422095D01*
X100630592Y-99601715D01*
X102358994Y-99238533D01*
X102358994Y-98831042D01*
X101837558Y-98718395D01*
X101718503Y-98692366D01*
X101609977Y-98668040D01*
X101515091Y-98646162D01*
X101436956Y-98627475D01*
X101378682Y-98612723D01*
X101343381Y-98602649D01*
X101334067Y-98598034D01*
X101352423Y-98593318D01*
X101396495Y-98583395D01*
X101462812Y-98569005D01*
X101547900Y-98550888D01*
X101648288Y-98529784D01*
X101760502Y-98506435D01*
X101859261Y-98486059D01*
X102366509Y-98381798D01*
X102366509Y-98178890D01*
X102365865Y-98097679D01*
X102363777Y-98038794D01*
X102360016Y-97999677D01*
X102354350Y-97977773D01*
X102347722Y-97970737D01*
X102326696Y-97965878D01*
X102280200Y-97955780D01*
X102211382Y-97941098D01*
X102123393Y-97922486D01*
X102019382Y-97900600D01*
X101902498Y-97876095D01*
X101775892Y-97849625D01*
X101642713Y-97821844D01*
X101506111Y-97793408D01*
X101369235Y-97764972D01*
X101235235Y-97737190D01*
X101107260Y-97710716D01*
X100988460Y-97686207D01*
X100881985Y-97664316D01*
X100790985Y-97645698D01*
X100718608Y-97631008D01*
X100668005Y-97620901D01*
X100642325Y-97616032D01*
X100639835Y-97615686D01*
X100632731Y-97627245D01*
X100627432Y-97658447D01*
X100623910Y-97704081D01*
X100622137Y-97758933D01*
X100622083Y-97817791D01*
X100623722Y-97875444D01*
G37*
X100623722Y-97875444D02*
X100627025Y-97926678D01*
X100631965Y-97966282D01*
X100638512Y-97989043D01*
X100641864Y-97992369D01*
X100660433Y-97996107D01*
X100705069Y-98004199D01*
X100772379Y-98016057D01*
X100858968Y-98031091D01*
X100961444Y-98048712D01*
X101076412Y-98068332D01*
X101200479Y-98089361D01*
X101205428Y-98090197D01*
X101328852Y-98111208D01*
X101442483Y-98130874D01*
X101543078Y-98148607D01*
X101627391Y-98163821D01*
X101692177Y-98175931D01*
X101734191Y-98184350D01*
X101750189Y-98188492D01*
X101750251Y-98188599D01*
X101736192Y-98192924D01*
X101696090Y-98202522D01*
X101633089Y-98216705D01*
X101550331Y-98234791D01*
X101450962Y-98256092D01*
X101338123Y-98279924D01*
X101214958Y-98305602D01*
X101186687Y-98311451D01*
X100623077Y-98427910D01*
X100623077Y-98794565D01*
X100814704Y-98832576D01*
X100885501Y-98846582D01*
X100978489Y-98864924D01*
X101086610Y-98886213D01*
X101202801Y-98909059D01*
X101320001Y-98932072D01*
X101378291Y-98943504D01*
X101479185Y-98963517D01*
X101569683Y-98981917D01*
X101645897Y-98997876D01*
X101703939Y-99010568D01*
X101739919Y-99019165D01*
X101750253Y-99022647D01*
X101736084Y-99026565D01*
X101695720Y-99035031D01*
X101632371Y-99047437D01*
X101549251Y-99063175D01*
X101449570Y-99081639D01*
X101336541Y-99102222D01*
X101213377Y-99124315D01*
X101197938Y-99127062D01*
X101073179Y-99149410D01*
X100957663Y-99170426D01*
X100854696Y-99189484D01*
X100767580Y-99205959D01*
X100699619Y-99219224D01*
X100654116Y-99228656D01*
X100634374Y-99233627D01*
X100633933Y-99233863D01*
X100630045Y-99248766D01*
X100627293Y-99283888D01*
X100625862Y-99334558D01*
X100625938Y-99396108D01*
X100626418Y-99422095D01*
X100630592Y-99601715D01*
X102358994Y-99238533D01*
X102358994Y-98831042D01*
X101837558Y-98718395D01*
X101718503Y-98692366D01*
X101609977Y-98668040D01*
X101515091Y-98646162D01*
X101436956Y-98627475D01*
X101378682Y-98612723D01*
X101343381Y-98602649D01*
X101334067Y-98598034D01*
X101352423Y-98593318D01*
X101396495Y-98583395D01*
X101462812Y-98569005D01*
X101547900Y-98550888D01*
X101648288Y-98529784D01*
X101760502Y-98506435D01*
X101859261Y-98486059D01*
X102366509Y-98381798D01*
X102366509Y-98178890D01*
X102365865Y-98097679D01*
X102363777Y-98038794D01*
X102360016Y-97999677D01*
X102354350Y-97977773D01*
X102347722Y-97970737D01*
X102326696Y-97965878D01*
X102280200Y-97955780D01*
X102211382Y-97941098D01*
X102123393Y-97922486D01*
X102019382Y-97900600D01*
X101902498Y-97876095D01*
X101775892Y-97849625D01*
X101642713Y-97821844D01*
X101506111Y-97793408D01*
X101369235Y-97764972D01*
X101235235Y-97737190D01*
X101107260Y-97710716D01*
X100988460Y-97686207D01*
X100881985Y-97664316D01*
X100790985Y-97645698D01*
X100718608Y-97631008D01*
X100668005Y-97620901D01*
X100642325Y-97616032D01*
X100639835Y-97615686D01*
X100632731Y-97627245D01*
X100627432Y-97658447D01*
X100623910Y-97704081D01*
X100622137Y-97758933D01*
X100622083Y-97817791D01*
X100623722Y-97875444D01*
G36*
X100668229Y-95841465D02*
G01*
X100675638Y-95922867D01*
X100689854Y-95987713D01*
X100732840Y-96087855D01*
X100794883Y-96187266D01*
X100869291Y-96275820D01*
X100898874Y-96304035D01*
X100936240Y-96337148D01*
X100963659Y-96357084D01*
X100986862Y-96362886D01*
X101011575Y-96353596D01*
X101043529Y-96328256D01*
X101088452Y-96285910D01*
X101105592Y-96269480D01*
X101181546Y-96196848D01*
X101121830Y-96137419D01*
X101043542Y-96043375D01*
X100990122Y-95943363D01*
X100962905Y-95841037D01*
X100963225Y-95740051D01*
X100967728Y-95715601D01*
X101004552Y-95611189D01*
X101064212Y-95521604D01*
X101144766Y-95448463D01*
X101244273Y-95393380D01*
X101360789Y-95357970D01*
X101407098Y-95350273D01*
X101538328Y-95344045D01*
X101659647Y-95360559D01*
X101768772Y-95398846D01*
X101863422Y-95457935D01*
X101941313Y-95536858D01*
X101978958Y-95593161D01*
X102002710Y-95637016D01*
X102017357Y-95672999D01*
X102025061Y-95710070D01*
X102027984Y-95757188D01*
X102028344Y-95797843D01*
X102027349Y-95856663D01*
X102022996Y-95899357D01*
X102013231Y-95934679D01*
X101995999Y-95971381D01*
X101981596Y-95997058D01*
X101946731Y-96049476D01*
X101904013Y-96102831D01*
X101870836Y-96137620D01*
X101842122Y-96164589D01*
X101825211Y-96184986D01*
X101821993Y-96203024D01*
X101834356Y-96222914D01*
X101864192Y-96248866D01*
X101913389Y-96285093D01*
X101948233Y-96310095D01*
X102033448Y-96371322D01*
X102118807Y-96280946D01*
X102193077Y-96195989D01*
X102246860Y-96118713D01*
X102284371Y-96042610D01*
X102297862Y-96004499D01*
X102315714Y-95927249D01*
X102326111Y-95838698D01*
X102328290Y-95750161D01*
X102321489Y-95672957D01*
X102320550Y-95667696D01*
X102282488Y-95539269D01*
X102219971Y-95423595D01*
X102135296Y-95322314D01*
X102030760Y-95237065D01*
X101908660Y-95169489D01*
X101771292Y-95121225D01*
X101620954Y-95093912D01*
X101508717Y-95088137D01*
X101386013Y-95092794D01*
X101279355Y-95108202D01*
X101176578Y-95136514D01*
X101121572Y-95156680D01*
X101005311Y-95215400D01*
X100900017Y-95294310D01*
X100809530Y-95389410D01*
X100737691Y-95496697D01*
X100690300Y-95606001D01*
X100675571Y-95673318D01*
X100668210Y-95755044D01*
X100668229Y-95841465D01*
G37*
X100668229Y-95841465D02*
X100675638Y-95922867D01*
X100689854Y-95987713D01*
X100732840Y-96087855D01*
X100794883Y-96187266D01*
X100869291Y-96275820D01*
X100898874Y-96304035D01*
X100936240Y-96337148D01*
X100963659Y-96357084D01*
X100986862Y-96362886D01*
X101011575Y-96353596D01*
X101043529Y-96328256D01*
X101088452Y-96285910D01*
X101105592Y-96269480D01*
X101181546Y-96196848D01*
X101121830Y-96137419D01*
X101043542Y-96043375D01*
X100990122Y-95943363D01*
X100962905Y-95841037D01*
X100963225Y-95740051D01*
X100967728Y-95715601D01*
X101004552Y-95611189D01*
X101064212Y-95521604D01*
X101144766Y-95448463D01*
X101244273Y-95393380D01*
X101360789Y-95357970D01*
X101407098Y-95350273D01*
X101538328Y-95344045D01*
X101659647Y-95360559D01*
X101768772Y-95398846D01*
X101863422Y-95457935D01*
X101941313Y-95536858D01*
X101978958Y-95593161D01*
X102002710Y-95637016D01*
X102017357Y-95672999D01*
X102025061Y-95710070D01*
X102027984Y-95757188D01*
X102028344Y-95797843D01*
X102027349Y-95856663D01*
X102022996Y-95899357D01*
X102013231Y-95934679D01*
X101995999Y-95971381D01*
X101981596Y-95997058D01*
X101946731Y-96049476D01*
X101904013Y-96102831D01*
X101870836Y-96137620D01*
X101842122Y-96164589D01*
X101825211Y-96184986D01*
X101821993Y-96203024D01*
X101834356Y-96222914D01*
X101864192Y-96248866D01*
X101913389Y-96285093D01*
X101948233Y-96310095D01*
X102033448Y-96371322D01*
X102118807Y-96280946D01*
X102193077Y-96195989D01*
X102246860Y-96118713D01*
X102284371Y-96042610D01*
X102297862Y-96004499D01*
X102315714Y-95927249D01*
X102326111Y-95838698D01*
X102328290Y-95750161D01*
X102321489Y-95672957D01*
X102320550Y-95667696D01*
X102282488Y-95539269D01*
X102219971Y-95423595D01*
X102135296Y-95322314D01*
X102030760Y-95237065D01*
X101908660Y-95169489D01*
X101771292Y-95121225D01*
X101620954Y-95093912D01*
X101508717Y-95088137D01*
X101386013Y-95092794D01*
X101279355Y-95108202D01*
X101176578Y-95136514D01*
X101121572Y-95156680D01*
X101005311Y-95215400D01*
X100900017Y-95294310D01*
X100809530Y-95389410D01*
X100737691Y-95496697D01*
X100690300Y-95606001D01*
X100675571Y-95673318D01*
X100668210Y-95755044D01*
X100668229Y-95841465D01*
G36*
X125219305Y-101521589D02*
G01*
X125148119Y-101538844D01*
X125049595Y-101582866D01*
X124991621Y-101656651D01*
X124985581Y-101670169D01*
X124958141Y-101785667D01*
X124987565Y-101880037D01*
X125055561Y-101950015D01*
X125133908Y-101988755D01*
X125236171Y-102010733D01*
X125342148Y-102015366D01*
X125431635Y-102002070D01*
X125484432Y-101970261D01*
X125488479Y-101962528D01*
X125501414Y-101892320D01*
X125506953Y-101787090D01*
X125506484Y-101758750D01*
X125412500Y-101758750D01*
X125412500Y-101917500D01*
X125285500Y-101917500D01*
X125157828Y-101895404D01*
X125094273Y-101853272D01*
X125051359Y-101795161D01*
X125056777Y-101740405D01*
X125064453Y-101724752D01*
X125133775Y-101655208D01*
X125242831Y-101610769D01*
X125335192Y-101600000D01*
X125381106Y-101605446D01*
X125404013Y-101632584D01*
X125411802Y-101697613D01*
X125412500Y-101758750D01*
X125506484Y-101758750D01*
X125505093Y-101674887D01*
X125495837Y-101583755D01*
X125488479Y-101554971D01*
X125441840Y-101517168D01*
X125348400Y-101505864D01*
X125219305Y-101521589D01*
G37*
X125219305Y-101521589D02*
X125148119Y-101538844D01*
X125049595Y-101582866D01*
X124991621Y-101656651D01*
X124985581Y-101670169D01*
X124958141Y-101785667D01*
X124987565Y-101880037D01*
X125055561Y-101950015D01*
X125133908Y-101988755D01*
X125236171Y-102010733D01*
X125342148Y-102015366D01*
X125431635Y-102002070D01*
X125484432Y-101970261D01*
X125488479Y-101962528D01*
X125501414Y-101892320D01*
X125506953Y-101787090D01*
X125506484Y-101758750D01*
X125412500Y-101758750D01*
X125412500Y-101917500D01*
X125285500Y-101917500D01*
X125157828Y-101895404D01*
X125094273Y-101853272D01*
X125051359Y-101795161D01*
X125056777Y-101740405D01*
X125064453Y-101724752D01*
X125133775Y-101655208D01*
X125242831Y-101610769D01*
X125335192Y-101600000D01*
X125381106Y-101605446D01*
X125404013Y-101632584D01*
X125411802Y-101697613D01*
X125412500Y-101758750D01*
X125506484Y-101758750D01*
X125505093Y-101674887D01*
X125495837Y-101583755D01*
X125488479Y-101554971D01*
X125441840Y-101517168D01*
X125348400Y-101505864D01*
X125219305Y-101521589D01*
G36*
X124355811Y-101519001D02*
G01*
X124278483Y-101536848D01*
X124245562Y-101560312D01*
X124258036Y-101584702D01*
X124320653Y-101597270D01*
X124407856Y-101600000D01*
X124522123Y-101608237D01*
X124593491Y-101630341D01*
X124614982Y-101662395D01*
X124583131Y-101698313D01*
X124519395Y-101719500D01*
X124452063Y-101726513D01*
X124388688Y-101736832D01*
X124364750Y-101758750D01*
X124391840Y-101782905D01*
X124441529Y-101790500D01*
X124547741Y-101803798D01*
X124608373Y-101840662D01*
X124618750Y-101871687D01*
X124592923Y-101900233D01*
X124512089Y-101917974D01*
X124438696Y-101923853D01*
X124328034Y-101936386D01*
X124259993Y-101958228D01*
X124245551Y-101973062D01*
X124256805Y-101995280D01*
X124313975Y-102007966D01*
X124424970Y-102012641D01*
X124452063Y-102012750D01*
X124564787Y-102009891D01*
X124651049Y-102002389D01*
X124692549Y-101991850D01*
X124692834Y-101991583D01*
X124705594Y-101947616D01*
X124712085Y-101862124D01*
X124712596Y-101756739D01*
X124707419Y-101653096D01*
X124696842Y-101572830D01*
X124686811Y-101542791D01*
X124642502Y-101520912D01*
X124558668Y-101510205D01*
X124456155Y-101509844D01*
X124355811Y-101519001D01*
G37*
X124355811Y-101519001D02*
X124278483Y-101536848D01*
X124245562Y-101560312D01*
X124258036Y-101584702D01*
X124320653Y-101597270D01*
X124407856Y-101600000D01*
X124522123Y-101608237D01*
X124593491Y-101630341D01*
X124614982Y-101662395D01*
X124583131Y-101698313D01*
X124519395Y-101719500D01*
X124452063Y-101726513D01*
X124388688Y-101736832D01*
X124364750Y-101758750D01*
X124391840Y-101782905D01*
X124441529Y-101790500D01*
X124547741Y-101803798D01*
X124608373Y-101840662D01*
X124618750Y-101871687D01*
X124592923Y-101900233D01*
X124512089Y-101917974D01*
X124438696Y-101923853D01*
X124328034Y-101936386D01*
X124259993Y-101958228D01*
X124245551Y-101973062D01*
X124256805Y-101995280D01*
X124313975Y-102007966D01*
X124424970Y-102012641D01*
X124452063Y-102012750D01*
X124564787Y-102009891D01*
X124651049Y-102002389D01*
X124692549Y-101991850D01*
X124692834Y-101991583D01*
X124705594Y-101947616D01*
X124712085Y-101862124D01*
X124712596Y-101756739D01*
X124707419Y-101653096D01*
X124696842Y-101572830D01*
X124686811Y-101542791D01*
X124642502Y-101520912D01*
X124558668Y-101510205D01*
X124456155Y-101509844D01*
X124355811Y-101519001D01*
G36*
X123562003Y-101533350D02*
G01*
X123561152Y-101533676D01*
X123498772Y-101569218D01*
X123492976Y-101599582D01*
X123536867Y-101618080D01*
X123623548Y-101618023D01*
X123645253Y-101615221D01*
X123749677Y-101609882D01*
X123841354Y-101621381D01*
X123856750Y-101626303D01*
X123936125Y-101656960D01*
X123846746Y-101691980D01*
X123756648Y-101718069D01*
X123687123Y-101727000D01*
X123606086Y-101745410D01*
X123529903Y-101790122D01*
X123481923Y-101845352D01*
X123475750Y-101869875D01*
X123505240Y-101932738D01*
X123586327Y-101980416D01*
X123707938Y-102007955D01*
X123795023Y-102012750D01*
X123896391Y-102009246D01*
X123970128Y-102000214D01*
X123994334Y-101991583D01*
X124014932Y-101954691D01*
X123985102Y-101931331D01*
X123900209Y-101919674D01*
X123806480Y-101917500D01*
X123681994Y-101910826D01*
X123618170Y-101892885D01*
X123615736Y-101866795D01*
X123675422Y-101835673D01*
X123780505Y-101806466D01*
X123879412Y-101781356D01*
X123954745Y-101757172D01*
X123976947Y-101747079D01*
X124011649Y-101693904D01*
X124005558Y-101622590D01*
X123967858Y-101568235D01*
X123891187Y-101533655D01*
X123779768Y-101514765D01*
X123660930Y-101513890D01*
X123562003Y-101533350D01*
G37*
X123562003Y-101533350D02*
X123561152Y-101533676D01*
X123498772Y-101569218D01*
X123492976Y-101599582D01*
X123536867Y-101618080D01*
X123623548Y-101618023D01*
X123645253Y-101615221D01*
X123749677Y-101609882D01*
X123841354Y-101621381D01*
X123856750Y-101626303D01*
X123936125Y-101656960D01*
X123846746Y-101691980D01*
X123756648Y-101718069D01*
X123687123Y-101727000D01*
X123606086Y-101745410D01*
X123529903Y-101790122D01*
X123481923Y-101845352D01*
X123475750Y-101869875D01*
X123505240Y-101932738D01*
X123586327Y-101980416D01*
X123707938Y-102007955D01*
X123795023Y-102012750D01*
X123896391Y-102009246D01*
X123970128Y-102000214D01*
X123994334Y-101991583D01*
X124014932Y-101954691D01*
X123985102Y-101931331D01*
X123900209Y-101919674D01*
X123806480Y-101917500D01*
X123681994Y-101910826D01*
X123618170Y-101892885D01*
X123615736Y-101866795D01*
X123675422Y-101835673D01*
X123780505Y-101806466D01*
X123879412Y-101781356D01*
X123954745Y-101757172D01*
X123976947Y-101747079D01*
X124011649Y-101693904D01*
X124005558Y-101622590D01*
X123967858Y-101568235D01*
X123891187Y-101533655D01*
X123779768Y-101514765D01*
X123660930Y-101513890D01*
X123562003Y-101533350D01*
G36*
X123154046Y-101577281D02*
G01*
X123143952Y-101683087D01*
X123142375Y-101764041D01*
X123147216Y-101900636D01*
X123162329Y-101979646D01*
X123183455Y-102005276D01*
X123204290Y-101997980D01*
X123215256Y-101952359D01*
X123217621Y-101859005D01*
X123215205Y-101769797D01*
X123204641Y-101629927D01*
X123188312Y-101551012D01*
X123170140Y-101533360D01*
X123154046Y-101577281D01*
G37*
X123154046Y-101577281D02*
X123143952Y-101683087D01*
X123142375Y-101764041D01*
X123147216Y-101900636D01*
X123162329Y-101979646D01*
X123183455Y-102005276D01*
X123204290Y-101997980D01*
X123215256Y-101952359D01*
X123217621Y-101859005D01*
X123215205Y-101769797D01*
X123204641Y-101629927D01*
X123188312Y-101551012D01*
X123170140Y-101533360D01*
X123154046Y-101577281D01*
G36*
X122397162Y-101536011D02*
G01*
X122348903Y-101572778D01*
X122362346Y-101598685D01*
X122437853Y-101613967D01*
X122524125Y-101618396D01*
X122660505Y-101635107D01*
X122743100Y-101680206D01*
X122776189Y-101756382D01*
X122777250Y-101777395D01*
X122749214Y-101854436D01*
X122667859Y-101901953D01*
X122543087Y-101917500D01*
X122457478Y-101908703D01*
X122416050Y-101887349D01*
X122425435Y-101860992D01*
X122475845Y-101840906D01*
X122542178Y-101813095D01*
X122551049Y-101784853D01*
X122507650Y-101766083D01*
X122435938Y-101764770D01*
X122354389Y-101778845D01*
X122316642Y-101811594D01*
X122305923Y-101852221D01*
X122320403Y-101935523D01*
X122351679Y-101971283D01*
X122433245Y-102001752D01*
X122546775Y-102010791D01*
X122664449Y-101998372D01*
X122745500Y-101971665D01*
X122832643Y-101901330D01*
X122880126Y-101808762D01*
X122879415Y-101713607D01*
X122868756Y-101687919D01*
X122818762Y-101616040D01*
X122780002Y-101577664D01*
X122695350Y-101539191D01*
X122582453Y-101517890D01*
X122471040Y-101516995D01*
X122397162Y-101536011D01*
G37*
X122397162Y-101536011D02*
X122348903Y-101572778D01*
X122362346Y-101598685D01*
X122437853Y-101613967D01*
X122524125Y-101618396D01*
X122660505Y-101635107D01*
X122743100Y-101680206D01*
X122776189Y-101756382D01*
X122777250Y-101777395D01*
X122749214Y-101854436D01*
X122667859Y-101901953D01*
X122543087Y-101917500D01*
X122457478Y-101908703D01*
X122416050Y-101887349D01*
X122425435Y-101860992D01*
X122475845Y-101840906D01*
X122542178Y-101813095D01*
X122551049Y-101784853D01*
X122507650Y-101766083D01*
X122435938Y-101764770D01*
X122354389Y-101778845D01*
X122316642Y-101811594D01*
X122305923Y-101852221D01*
X122320403Y-101935523D01*
X122351679Y-101971283D01*
X122433245Y-102001752D01*
X122546775Y-102010791D01*
X122664449Y-101998372D01*
X122745500Y-101971665D01*
X122832643Y-101901330D01*
X122880126Y-101808762D01*
X122879415Y-101713607D01*
X122868756Y-101687919D01*
X122818762Y-101616040D01*
X122780002Y-101577664D01*
X122695350Y-101539191D01*
X122582453Y-101517890D01*
X122471040Y-101516995D01*
X122397162Y-101536011D01*
G36*
X121536985Y-101549163D02*
G01*
X121523507Y-101622145D01*
X121515216Y-101720616D01*
X121512882Y-101825623D01*
X121517280Y-101918214D01*
X121529182Y-101979434D01*
X121535721Y-101990420D01*
X121577823Y-101987996D01*
X121659586Y-101936811D01*
X121759531Y-101855489D01*
X121951750Y-101688967D01*
X121951750Y-101800636D01*
X121957070Y-101891339D01*
X121969980Y-101959649D01*
X121971022Y-101962528D01*
X122003043Y-102004704D01*
X122038147Y-102010098D01*
X122051032Y-101988937D01*
X122059901Y-101902947D01*
X122063860Y-101793632D01*
X122063090Y-101682263D01*
X122057771Y-101590112D01*
X122048085Y-101538451D01*
X122047184Y-101536797D01*
X122020131Y-101526173D01*
X121967608Y-101551474D01*
X121882183Y-101616935D01*
X121833292Y-101658651D01*
X121742347Y-101735729D01*
X121670021Y-101793267D01*
X121629207Y-101821113D01*
X121625589Y-101822250D01*
X121612328Y-101793767D01*
X121600611Y-101721309D01*
X121596303Y-101671437D01*
X121584660Y-101583482D01*
X121565912Y-101529135D01*
X121554875Y-101520625D01*
X121536985Y-101549163D01*
G37*
X121536985Y-101549163D02*
X121523507Y-101622145D01*
X121515216Y-101720616D01*
X121512882Y-101825623D01*
X121517280Y-101918214D01*
X121529182Y-101979434D01*
X121535721Y-101990420D01*
X121577823Y-101987996D01*
X121659586Y-101936811D01*
X121759531Y-101855489D01*
X121951750Y-101688967D01*
X121951750Y-101800636D01*
X121957070Y-101891339D01*
X121969980Y-101959649D01*
X121971022Y-101962528D01*
X122003043Y-102004704D01*
X122038147Y-102010098D01*
X122051032Y-101988937D01*
X122059901Y-101902947D01*
X122063860Y-101793632D01*
X122063090Y-101682263D01*
X122057771Y-101590112D01*
X122048085Y-101538451D01*
X122047184Y-101536797D01*
X122020131Y-101526173D01*
X121967608Y-101551474D01*
X121882183Y-101616935D01*
X121833292Y-101658651D01*
X121742347Y-101735729D01*
X121670021Y-101793267D01*
X121629207Y-101821113D01*
X121625589Y-101822250D01*
X121612328Y-101793767D01*
X121600611Y-101721309D01*
X121596303Y-101671437D01*
X121584660Y-101583482D01*
X121565912Y-101529135D01*
X121554875Y-101520625D01*
X121536985Y-101549163D01*
G36*
X121009718Y-101511236D02*
G01*
X120881330Y-101522828D01*
X120804139Y-101543108D01*
X120784823Y-101560312D01*
X120797136Y-101584464D01*
X120859116Y-101597064D01*
X120951308Y-101600000D01*
X121053620Y-101602680D01*
X121106006Y-101613669D01*
X121121921Y-101637388D01*
X121120377Y-101655562D01*
X121086547Y-101698964D01*
X121000726Y-101720098D01*
X120991049Y-101720979D01*
X120905846Y-101737261D01*
X120875067Y-101761257D01*
X120900729Y-101783500D01*
X120975438Y-101794259D01*
X121053904Y-101795810D01*
X121101588Y-101794382D01*
X121102438Y-101794259D01*
X121121718Y-101817560D01*
X121126250Y-101854000D01*
X121118671Y-101890696D01*
X121085900Y-101909813D01*
X121012889Y-101916822D01*
X120951625Y-101917500D01*
X120846316Y-101921775D01*
X120792099Y-101936778D01*
X120777000Y-101965125D01*
X120790071Y-101991000D01*
X120837068Y-102005809D01*
X120929671Y-102012055D01*
X120999250Y-102012750D01*
X121221500Y-102012750D01*
X121221500Y-101501848D01*
X121009718Y-101511236D01*
G37*
X121009718Y-101511236D02*
X120881330Y-101522828D01*
X120804139Y-101543108D01*
X120784823Y-101560312D01*
X120797136Y-101584464D01*
X120859116Y-101597064D01*
X120951308Y-101600000D01*
X121053620Y-101602680D01*
X121106006Y-101613669D01*
X121121921Y-101637388D01*
X121120377Y-101655562D01*
X121086547Y-101698964D01*
X121000726Y-101720098D01*
X120991049Y-101720979D01*
X120905846Y-101737261D01*
X120875067Y-101761257D01*
X120900729Y-101783500D01*
X120975438Y-101794259D01*
X121053904Y-101795810D01*
X121101588Y-101794382D01*
X121102438Y-101794259D01*
X121121718Y-101817560D01*
X121126250Y-101854000D01*
X121118671Y-101890696D01*
X121085900Y-101909813D01*
X121012889Y-101916822D01*
X120951625Y-101917500D01*
X120846316Y-101921775D01*
X120792099Y-101936778D01*
X120777000Y-101965125D01*
X120790071Y-101991000D01*
X120837068Y-102005809D01*
X120929671Y-102012055D01*
X120999250Y-102012750D01*
X121221500Y-102012750D01*
X121221500Y-101501848D01*
X121009718Y-101511236D01*
G36*
X120320160Y-101527164D02*
G01*
X120160540Y-101551105D01*
X120050162Y-101608751D01*
X119991960Y-101698067D01*
X119983250Y-101760767D01*
X120005623Y-101872109D01*
X120075354Y-101948604D01*
X120196359Y-101993332D01*
X120295573Y-102006228D01*
X120410186Y-102010830D01*
X120475752Y-102002470D01*
X120505782Y-101979070D01*
X120508304Y-101973501D01*
X120516294Y-101918589D01*
X120516325Y-101917500D01*
X120427750Y-101917500D01*
X120303018Y-101917500D01*
X120204753Y-101904607D01*
X120133327Y-101872089D01*
X120128393Y-101867607D01*
X120084263Y-101790254D01*
X120089022Y-101710820D01*
X120119763Y-101668780D01*
X120175868Y-101642368D01*
X120265143Y-101618516D01*
X120294388Y-101613209D01*
X120427750Y-101591884D01*
X120427750Y-101917500D01*
X120516325Y-101917500D01*
X120519074Y-101822634D01*
X120516697Y-101723655D01*
X120507125Y-101520625D01*
X120320160Y-101527164D01*
G37*
X120320160Y-101527164D02*
X120160540Y-101551105D01*
X120050162Y-101608751D01*
X119991960Y-101698067D01*
X119983250Y-101760767D01*
X120005623Y-101872109D01*
X120075354Y-101948604D01*
X120196359Y-101993332D01*
X120295573Y-102006228D01*
X120410186Y-102010830D01*
X120475752Y-102002470D01*
X120505782Y-101979070D01*
X120508304Y-101973501D01*
X120516294Y-101918589D01*
X120516325Y-101917500D01*
X120427750Y-101917500D01*
X120303018Y-101917500D01*
X120204753Y-101904607D01*
X120133327Y-101872089D01*
X120128393Y-101867607D01*
X120084263Y-101790254D01*
X120089022Y-101710820D01*
X120119763Y-101668780D01*
X120175868Y-101642368D01*
X120265143Y-101618516D01*
X120294388Y-101613209D01*
X120427750Y-101591884D01*
X120427750Y-101917500D01*
X120516325Y-101917500D01*
X120519074Y-101822634D01*
X120516697Y-101723655D01*
X120507125Y-101520625D01*
X120320160Y-101527164D01*
G36*
X118453051Y-101529999D02*
G01*
X118450666Y-101571318D01*
X118471340Y-101650859D01*
X118507712Y-101751105D01*
X118552422Y-101854539D01*
X118598106Y-101943644D01*
X118637405Y-102000904D01*
X118655927Y-102012750D01*
X118689306Y-101987837D01*
X118733151Y-101926933D01*
X118738540Y-101917700D01*
X118779197Y-101853937D01*
X118807509Y-101822997D01*
X118809592Y-101822450D01*
X118835352Y-101846762D01*
X118876294Y-101906632D01*
X118882825Y-101917500D01*
X118927021Y-101981257D01*
X118961296Y-102012196D01*
X118964345Y-102012750D01*
X118988597Y-101985981D01*
X119030190Y-101915022D01*
X119081091Y-101813889D01*
X119093259Y-101787858D01*
X119149441Y-101654380D01*
X119172007Y-101569422D01*
X119163950Y-101529999D01*
X119132795Y-101531729D01*
X119087709Y-101589036D01*
X119044595Y-101667507D01*
X118995585Y-101759587D01*
X118963937Y-101801959D01*
X118940831Y-101802766D01*
X118923042Y-101779742D01*
X118873267Y-101703658D01*
X118848188Y-101668687D01*
X118818630Y-101639789D01*
X118788867Y-101645439D01*
X118748697Y-101692984D01*
X118693959Y-101779742D01*
X118671391Y-101805731D01*
X118647169Y-101796515D01*
X118612472Y-101743952D01*
X118572406Y-101667507D01*
X118515530Y-101567817D01*
X118474482Y-101525890D01*
X118453051Y-101529999D01*
G37*
X118453051Y-101529999D02*
X118450666Y-101571318D01*
X118471340Y-101650859D01*
X118507712Y-101751105D01*
X118552422Y-101854539D01*
X118598106Y-101943644D01*
X118637405Y-102000904D01*
X118655927Y-102012750D01*
X118689306Y-101987837D01*
X118733151Y-101926933D01*
X118738540Y-101917700D01*
X118779197Y-101853937D01*
X118807509Y-101822997D01*
X118809592Y-101822450D01*
X118835352Y-101846762D01*
X118876294Y-101906632D01*
X118882825Y-101917500D01*
X118927021Y-101981257D01*
X118961296Y-102012196D01*
X118964345Y-102012750D01*
X118988597Y-101985981D01*
X119030190Y-101915022D01*
X119081091Y-101813889D01*
X119093259Y-101787858D01*
X119149441Y-101654380D01*
X119172007Y-101569422D01*
X119163950Y-101529999D01*
X119132795Y-101531729D01*
X119087709Y-101589036D01*
X119044595Y-101667507D01*
X118995585Y-101759587D01*
X118963937Y-101801959D01*
X118940831Y-101802766D01*
X118923042Y-101779742D01*
X118873267Y-101703658D01*
X118848188Y-101668687D01*
X118818630Y-101639789D01*
X118788867Y-101645439D01*
X118748697Y-101692984D01*
X118693959Y-101779742D01*
X118671391Y-101805731D01*
X118647169Y-101796515D01*
X118612472Y-101743952D01*
X118572406Y-101667507D01*
X118515530Y-101567817D01*
X118474482Y-101525890D01*
X118453051Y-101529999D01*
G36*
X118133921Y-101537647D02*
G01*
X118133813Y-101547083D01*
X118137763Y-101587287D01*
X118140606Y-101672819D01*
X118141749Y-101785511D01*
X118141750Y-101790500D01*
X118145946Y-101904508D01*
X118157190Y-101983287D01*
X118173470Y-102012749D01*
X118173500Y-102012750D01*
X118189179Y-101983019D01*
X118200212Y-101901744D01*
X118205128Y-101780803D01*
X118205250Y-101756104D01*
X118202552Y-101622459D01*
X118193586Y-101544104D01*
X118177045Y-101513020D01*
X118165563Y-101512687D01*
X118133921Y-101537647D01*
G37*
X118133921Y-101537647D02*
X118133813Y-101547083D01*
X118137763Y-101587287D01*
X118140606Y-101672819D01*
X118141749Y-101785511D01*
X118141750Y-101790500D01*
X118145946Y-101904508D01*
X118157190Y-101983287D01*
X118173470Y-102012749D01*
X118173500Y-102012750D01*
X118189179Y-101983019D01*
X118200212Y-101901744D01*
X118205128Y-101780803D01*
X118205250Y-101756104D01*
X118202552Y-101622459D01*
X118193586Y-101544104D01*
X118177045Y-101513020D01*
X118165563Y-101512687D01*
X118133921Y-101537647D01*
G36*
X117461592Y-101512827D02*
G01*
X117422525Y-101525839D01*
X117411525Y-101549447D01*
X117411500Y-101551090D01*
X117433925Y-101586885D01*
X117507046Y-101599797D01*
X117522625Y-101600000D01*
X117633750Y-101600000D01*
X117633750Y-101806375D01*
X117636930Y-101922133D01*
X117648291Y-101986473D01*
X117670567Y-102011238D01*
X117681375Y-102012750D01*
X117708089Y-101998972D01*
X117722937Y-101949741D01*
X117728652Y-101853211D01*
X117729000Y-101806375D01*
X117729000Y-101600000D01*
X117842771Y-101600000D01*
X117923127Y-101591004D01*
X117944288Y-101563551D01*
X117943403Y-101560312D01*
X117902622Y-101535921D01*
X117799269Y-101519214D01*
X117670882Y-101511403D01*
X117540464Y-101508613D01*
X117461592Y-101512827D01*
G37*
X117461592Y-101512827D02*
X117422525Y-101525839D01*
X117411525Y-101549447D01*
X117411500Y-101551090D01*
X117433925Y-101586885D01*
X117507046Y-101599797D01*
X117522625Y-101600000D01*
X117633750Y-101600000D01*
X117633750Y-101806375D01*
X117636930Y-101922133D01*
X117648291Y-101986473D01*
X117670567Y-102011238D01*
X117681375Y-102012750D01*
X117708089Y-101998972D01*
X117722937Y-101949741D01*
X117728652Y-101853211D01*
X117729000Y-101806375D01*
X117729000Y-101600000D01*
X117842771Y-101600000D01*
X117923127Y-101591004D01*
X117944288Y-101563551D01*
X117943403Y-101560312D01*
X117902622Y-101535921D01*
X117799269Y-101519214D01*
X117670882Y-101511403D01*
X117540464Y-101508613D01*
X117461592Y-101512827D01*
G36*
X117160683Y-101531407D02*
G01*
X117135412Y-101584983D01*
X117125750Y-101660586D01*
X117115163Y-101693437D01*
X117073725Y-101709636D01*
X116986920Y-101713804D01*
X116959366Y-101713552D01*
X116861871Y-101709758D01*
X116810206Y-101695770D01*
X116786702Y-101662152D01*
X116776492Y-101615875D01*
X116756737Y-101542375D01*
X116735691Y-101526181D01*
X116716587Y-101561261D01*
X116702656Y-101641582D01*
X116697128Y-101761112D01*
X116697125Y-101764041D01*
X116702435Y-101900544D01*
X116717882Y-101982083D01*
X116734658Y-102004094D01*
X116764106Y-101985558D01*
X116781837Y-101915869D01*
X116782283Y-101911489D01*
X116791619Y-101849853D01*
X116815657Y-101817495D01*
X116871486Y-101803197D01*
X116956933Y-101796852D01*
X117053172Y-101792975D01*
X117103065Y-101801863D01*
X117123660Y-101832576D01*
X117131558Y-101889657D01*
X117149591Y-101964023D01*
X117179521Y-102004325D01*
X117181313Y-102005013D01*
X117202765Y-101994068D01*
X117215410Y-101938627D01*
X117220654Y-101830703D01*
X117221000Y-101779144D01*
X117217476Y-101662103D01*
X117208163Y-101571700D01*
X117194950Y-101524978D01*
X117192577Y-101522681D01*
X117160683Y-101531407D01*
G37*
X117160683Y-101531407D02*
X117135412Y-101584983D01*
X117125750Y-101660586D01*
X117115163Y-101693437D01*
X117073725Y-101709636D01*
X116986920Y-101713804D01*
X116959366Y-101713552D01*
X116861871Y-101709758D01*
X116810206Y-101695770D01*
X116786702Y-101662152D01*
X116776492Y-101615875D01*
X116756737Y-101542375D01*
X116735691Y-101526181D01*
X116716587Y-101561261D01*
X116702656Y-101641582D01*
X116697128Y-101761112D01*
X116697125Y-101764041D01*
X116702435Y-101900544D01*
X116717882Y-101982083D01*
X116734658Y-102004094D01*
X116764106Y-101985558D01*
X116781837Y-101915869D01*
X116782283Y-101911489D01*
X116791619Y-101849853D01*
X116815657Y-101817495D01*
X116871486Y-101803197D01*
X116956933Y-101796852D01*
X117053172Y-101792975D01*
X117103065Y-101801863D01*
X117123660Y-101832576D01*
X117131558Y-101889657D01*
X117149591Y-101964023D01*
X117179521Y-102004325D01*
X117181313Y-102005013D01*
X117202765Y-101994068D01*
X117215410Y-101938627D01*
X117220654Y-101830703D01*
X117221000Y-101779144D01*
X117217476Y-101662103D01*
X117208163Y-101571700D01*
X117194950Y-101524978D01*
X117192577Y-101522681D01*
X117160683Y-101531407D01*
G36*
X122524663Y-97677123D02*
G01*
X122410904Y-97741154D01*
X122366446Y-97774884D01*
X122328918Y-97806261D01*
X122297732Y-97840674D01*
X122272304Y-97883509D01*
X122252046Y-97940155D01*
X122236372Y-98015997D01*
X122224695Y-98116425D01*
X122216429Y-98246824D01*
X122210989Y-98412582D01*
X122207786Y-98619087D01*
X122206236Y-98871726D01*
X122205751Y-99175886D01*
X122205746Y-99536954D01*
X122205750Y-99625954D01*
X122205751Y-101242812D01*
X122304969Y-101262656D01*
X122355136Y-101266401D01*
X122460473Y-101269637D01*
X122613262Y-101272364D01*
X122805784Y-101274588D01*
X123030322Y-101276309D01*
X123279157Y-101277532D01*
X123544571Y-101278258D01*
X123818846Y-101278492D01*
X124094265Y-101278236D01*
X124363107Y-101277492D01*
X124617657Y-101276264D01*
X124850195Y-101274555D01*
X125053003Y-101272367D01*
X125218363Y-101269703D01*
X125338557Y-101266567D01*
X125405867Y-101262961D01*
X125415902Y-101261487D01*
X125445038Y-101237236D01*
X125465999Y-101175547D01*
X125481830Y-101065539D01*
X125487340Y-101006380D01*
X125492918Y-100905303D01*
X125493555Y-100884193D01*
X125277140Y-100884193D01*
X125246253Y-100908080D01*
X125171147Y-100924828D01*
X125061359Y-100933409D01*
X124926429Y-100932796D01*
X124775895Y-100921961D01*
X124704863Y-100913375D01*
X124617512Y-100898908D01*
X124580014Y-100880043D01*
X124579085Y-100845592D01*
X124589307Y-100816058D01*
X124600889Y-100754541D01*
X124610328Y-100645295D01*
X124616615Y-100504080D01*
X124618750Y-100355635D01*
X124618750Y-99972654D01*
X124376973Y-100302139D01*
X124253705Y-100473708D01*
X124163984Y-100608215D01*
X124100797Y-100717458D01*
X124057127Y-100813231D01*
X124034690Y-100877687D01*
X124020577Y-100901391D01*
X123988448Y-100917295D01*
X123927525Y-100926900D01*
X123827030Y-100931705D01*
X123676183Y-100933212D01*
X123635497Y-100933250D01*
X123488206Y-100931740D01*
X123367279Y-100927628D01*
X123284969Y-100921535D01*
X123253530Y-100914084D01*
X123253500Y-100913843D01*
X123272172Y-100880901D01*
X123320639Y-100815104D01*
X123374983Y-100747156D01*
X123425655Y-100682510D01*
X123502573Y-100580453D01*
X123598186Y-100451397D01*
X123704937Y-100305758D01*
X123815274Y-100153948D01*
X123921643Y-100006381D01*
X124016488Y-99873473D01*
X124092258Y-99765635D01*
X124141396Y-99693283D01*
X124153422Y-99674011D01*
X124140612Y-99639853D01*
X124093785Y-99565836D01*
X124019729Y-99460751D01*
X123925233Y-99333394D01*
X123817084Y-99192557D01*
X123787615Y-99155270D01*
X123047125Y-99155270D01*
X123047125Y-100922642D01*
X122892121Y-100929707D01*
X122762957Y-100929614D01*
X122619611Y-100921085D01*
X122567471Y-100915575D01*
X122470815Y-100901073D01*
X122425347Y-100884516D01*
X122418941Y-100858993D01*
X122428789Y-100836527D01*
X122437775Y-100788419D01*
X122445600Y-100684831D01*
X122451979Y-100533778D01*
X122456626Y-100343274D01*
X122459257Y-100121334D01*
X122459750Y-99966962D01*
X122459750Y-99155250D01*
X122753438Y-99155260D01*
X123047125Y-99155270D01*
X123787615Y-99155270D01*
X123702072Y-99047035D01*
X123586985Y-98905620D01*
X123478611Y-98777105D01*
X123383739Y-98670285D01*
X123354655Y-98639312D01*
X123240613Y-98520249D01*
X123624615Y-98520249D01*
X123786066Y-98520701D01*
X123895088Y-98523436D01*
X123962750Y-98530525D01*
X124000123Y-98544038D01*
X124018278Y-98566045D01*
X124027529Y-98595604D01*
X124053224Y-98647305D01*
X124110743Y-98737377D01*
X124192380Y-98854497D01*
X124290427Y-98987342D01*
X124324659Y-99032167D01*
X124602875Y-99393375D01*
X124612999Y-99251060D01*
X124617394Y-99126389D01*
X124615737Y-98982381D01*
X124609044Y-98836787D01*
X124598333Y-98707358D01*
X124584620Y-98611847D01*
X124574327Y-98575812D01*
X124567951Y-98552076D01*
X124581615Y-98536242D01*
X124625093Y-98526732D01*
X124708158Y-98521964D01*
X124840586Y-98520360D01*
X124918096Y-98520249D01*
X125075405Y-98520760D01*
X125178928Y-98523474D01*
X125238376Y-98530161D01*
X125263460Y-98542593D01*
X125263892Y-98562540D01*
X125254868Y-98581662D01*
X125246106Y-98628701D01*
X125238655Y-98728743D01*
X125232518Y-98872965D01*
X125227698Y-99052543D01*
X125224196Y-99258654D01*
X125222015Y-99482474D01*
X125221157Y-99715180D01*
X125221624Y-99947947D01*
X125223419Y-100171954D01*
X125226545Y-100378374D01*
X125231003Y-100558387D01*
X125236795Y-100703167D01*
X125243925Y-100803891D01*
X125252394Y-100851736D01*
X125254268Y-100854195D01*
X125277140Y-100884193D01*
X125493555Y-100884193D01*
X125497566Y-100751473D01*
X125501285Y-100554505D01*
X125504075Y-100324015D01*
X125505939Y-100069619D01*
X125506877Y-99800934D01*
X125506889Y-99527575D01*
X125505977Y-99259158D01*
X125504143Y-99005300D01*
X125501386Y-98775615D01*
X125497708Y-98579721D01*
X125493111Y-98427233D01*
X125487594Y-98327767D01*
X125487059Y-98321812D01*
X125473878Y-98182241D01*
X123036228Y-98182241D01*
X123002841Y-98292100D01*
X122933564Y-98374552D01*
X122843736Y-98430448D01*
X122754449Y-98456408D01*
X122745500Y-98456750D01*
X122658750Y-98435468D01*
X122567045Y-98382321D01*
X122557437Y-98374552D01*
X122479294Y-98274561D01*
X122453740Y-98162906D01*
X122475439Y-98053936D01*
X122539051Y-97962003D01*
X122639242Y-97901456D01*
X122739421Y-97885250D01*
X122867283Y-97910675D01*
X122963002Y-97977801D01*
X123021133Y-98072899D01*
X123036228Y-98182241D01*
X125473878Y-98182241D01*
X125466818Y-98107499D01*
X124380003Y-98107500D01*
X123293188Y-98107500D01*
X123273110Y-98007111D01*
X123227753Y-97906498D01*
X123141432Y-97802315D01*
X123033017Y-97712252D01*
X122921379Y-97654005D01*
X122886583Y-97644693D01*
X122698902Y-97635765D01*
X122524663Y-97677123D01*
G37*
X122524663Y-97677123D02*
X122410904Y-97741154D01*
X122366446Y-97774884D01*
X122328918Y-97806261D01*
X122297732Y-97840674D01*
X122272304Y-97883509D01*
X122252046Y-97940155D01*
X122236372Y-98015997D01*
X122224695Y-98116425D01*
X122216429Y-98246824D01*
X122210989Y-98412582D01*
X122207786Y-98619087D01*
X122206236Y-98871726D01*
X122205751Y-99175886D01*
X122205746Y-99536954D01*
X122205750Y-99625954D01*
X122205751Y-101242812D01*
X122304969Y-101262656D01*
X122355136Y-101266401D01*
X122460473Y-101269637D01*
X122613262Y-101272364D01*
X122805784Y-101274588D01*
X123030322Y-101276309D01*
X123279157Y-101277532D01*
X123544571Y-101278258D01*
X123818846Y-101278492D01*
X124094265Y-101278236D01*
X124363107Y-101277492D01*
X124617657Y-101276264D01*
X124850195Y-101274555D01*
X125053003Y-101272367D01*
X125218363Y-101269703D01*
X125338557Y-101266567D01*
X125405867Y-101262961D01*
X125415902Y-101261487D01*
X125445038Y-101237236D01*
X125465999Y-101175547D01*
X125481830Y-101065539D01*
X125487340Y-101006380D01*
X125492918Y-100905303D01*
X125493555Y-100884193D01*
X125277140Y-100884193D01*
X125246253Y-100908080D01*
X125171147Y-100924828D01*
X125061359Y-100933409D01*
X124926429Y-100932796D01*
X124775895Y-100921961D01*
X124704863Y-100913375D01*
X124617512Y-100898908D01*
X124580014Y-100880043D01*
X124579085Y-100845592D01*
X124589307Y-100816058D01*
X124600889Y-100754541D01*
X124610328Y-100645295D01*
X124616615Y-100504080D01*
X124618750Y-100355635D01*
X124618750Y-99972654D01*
X124376973Y-100302139D01*
X124253705Y-100473708D01*
X124163984Y-100608215D01*
X124100797Y-100717458D01*
X124057127Y-100813231D01*
X124034690Y-100877687D01*
X124020577Y-100901391D01*
X123988448Y-100917295D01*
X123927525Y-100926900D01*
X123827030Y-100931705D01*
X123676183Y-100933212D01*
X123635497Y-100933250D01*
X123488206Y-100931740D01*
X123367279Y-100927628D01*
X123284969Y-100921535D01*
X123253530Y-100914084D01*
X123253500Y-100913843D01*
X123272172Y-100880901D01*
X123320639Y-100815104D01*
X123374983Y-100747156D01*
X123425655Y-100682510D01*
X123502573Y-100580453D01*
X123598186Y-100451397D01*
X123704937Y-100305758D01*
X123815274Y-100153948D01*
X123921643Y-100006381D01*
X124016488Y-99873473D01*
X124092258Y-99765635D01*
X124141396Y-99693283D01*
X124153422Y-99674011D01*
X124140612Y-99639853D01*
X124093785Y-99565836D01*
X124019729Y-99460751D01*
X123925233Y-99333394D01*
X123817084Y-99192557D01*
X123787615Y-99155270D01*
X123047125Y-99155270D01*
X123047125Y-100922642D01*
X122892121Y-100929707D01*
X122762957Y-100929614D01*
X122619611Y-100921085D01*
X122567471Y-100915575D01*
X122470815Y-100901073D01*
X122425347Y-100884516D01*
X122418941Y-100858993D01*
X122428789Y-100836527D01*
X122437775Y-100788419D01*
X122445600Y-100684831D01*
X122451979Y-100533778D01*
X122456626Y-100343274D01*
X122459257Y-100121334D01*
X122459750Y-99966962D01*
X122459750Y-99155250D01*
X122753438Y-99155260D01*
X123047125Y-99155270D01*
X123787615Y-99155270D01*
X123702072Y-99047035D01*
X123586985Y-98905620D01*
X123478611Y-98777105D01*
X123383739Y-98670285D01*
X123354655Y-98639312D01*
X123240613Y-98520249D01*
X123624615Y-98520249D01*
X123786066Y-98520701D01*
X123895088Y-98523436D01*
X123962750Y-98530525D01*
X124000123Y-98544038D01*
X124018278Y-98566045D01*
X124027529Y-98595604D01*
X124053224Y-98647305D01*
X124110743Y-98737377D01*
X124192380Y-98854497D01*
X124290427Y-98987342D01*
X124324659Y-99032167D01*
X124602875Y-99393375D01*
X124612999Y-99251060D01*
X124617394Y-99126389D01*
X124615737Y-98982381D01*
X124609044Y-98836787D01*
X124598333Y-98707358D01*
X124584620Y-98611847D01*
X124574327Y-98575812D01*
X124567951Y-98552076D01*
X124581615Y-98536242D01*
X124625093Y-98526732D01*
X124708158Y-98521964D01*
X124840586Y-98520360D01*
X124918096Y-98520249D01*
X125075405Y-98520760D01*
X125178928Y-98523474D01*
X125238376Y-98530161D01*
X125263460Y-98542593D01*
X125263892Y-98562540D01*
X125254868Y-98581662D01*
X125246106Y-98628701D01*
X125238655Y-98728743D01*
X125232518Y-98872965D01*
X125227698Y-99052543D01*
X125224196Y-99258654D01*
X125222015Y-99482474D01*
X125221157Y-99715180D01*
X125221624Y-99947947D01*
X125223419Y-100171954D01*
X125226545Y-100378374D01*
X125231003Y-100558387D01*
X125236795Y-100703167D01*
X125243925Y-100803891D01*
X125252394Y-100851736D01*
X125254268Y-100854195D01*
X125277140Y-100884193D01*
X125493555Y-100884193D01*
X125497566Y-100751473D01*
X125501285Y-100554505D01*
X125504075Y-100324015D01*
X125505939Y-100069619D01*
X125506877Y-99800934D01*
X125506889Y-99527575D01*
X125505977Y-99259158D01*
X125504143Y-99005300D01*
X125501386Y-98775615D01*
X125497708Y-98579721D01*
X125493111Y-98427233D01*
X125487594Y-98327767D01*
X125487059Y-98321812D01*
X125473878Y-98182241D01*
X123036228Y-98182241D01*
X123002841Y-98292100D01*
X122933564Y-98374552D01*
X122843736Y-98430448D01*
X122754449Y-98456408D01*
X122745500Y-98456750D01*
X122658750Y-98435468D01*
X122567045Y-98382321D01*
X122557437Y-98374552D01*
X122479294Y-98274561D01*
X122453740Y-98162906D01*
X122475439Y-98053936D01*
X122539051Y-97962003D01*
X122639242Y-97901456D01*
X122739421Y-97885250D01*
X122867283Y-97910675D01*
X122963002Y-97977801D01*
X123021133Y-98072899D01*
X123036228Y-98182241D01*
X125473878Y-98182241D01*
X125466818Y-98107499D01*
X124380003Y-98107500D01*
X123293188Y-98107500D01*
X123273110Y-98007111D01*
X123227753Y-97906498D01*
X123141432Y-97802315D01*
X123033017Y-97712252D01*
X122921379Y-97654005D01*
X122886583Y-97644693D01*
X122698902Y-97635765D01*
X122524663Y-97677123D01*
G36*
X120744358Y-98512967D02*
G01*
X120471275Y-98593979D01*
X120403068Y-98622535D01*
X120237247Y-98695717D01*
X120352626Y-98869921D01*
X120415364Y-98963332D01*
X120465701Y-99035904D01*
X120491150Y-99069934D01*
X120528567Y-99069227D01*
X120596753Y-99037824D01*
X120634203Y-99014372D01*
X120786000Y-98944935D01*
X120939977Y-98935342D01*
X121087193Y-98982918D01*
X121218706Y-99084988D01*
X121314400Y-99217857D01*
X121367028Y-99357018D01*
X121399891Y-99536187D01*
X121411272Y-99734495D01*
X121399459Y-99931070D01*
X121381530Y-100035057D01*
X121316241Y-100213648D01*
X121214749Y-100352857D01*
X121086426Y-100448512D01*
X120940648Y-100496440D01*
X120786789Y-100492471D01*
X120634222Y-100432431D01*
X120577229Y-100393022D01*
X120513435Y-100349065D01*
X120470115Y-100330021D01*
X120469356Y-100330000D01*
X120440769Y-100355370D01*
X120391210Y-100422256D01*
X120330823Y-100516818D01*
X120323884Y-100528437D01*
X120206166Y-100726875D01*
X120419515Y-100830062D01*
X120530825Y-100880792D01*
X120622842Y-100911580D01*
X120719276Y-100927294D01*
X120843840Y-100932801D01*
X120922111Y-100933250D01*
X121068832Y-100930984D01*
X121174969Y-100921099D01*
X121263368Y-100898962D01*
X121356873Y-100859938D01*
X121408947Y-100834513D01*
X121612204Y-100698351D01*
X121777456Y-100514721D01*
X121901208Y-100289455D01*
X121979968Y-100028388D01*
X122005714Y-99837875D01*
X122001725Y-99532706D01*
X121942445Y-99256500D01*
X121828440Y-99010951D01*
X121660274Y-98797756D01*
X121658587Y-98796060D01*
X121457692Y-98634346D01*
X121238040Y-98533216D01*
X121000104Y-98492734D01*
X120744358Y-98512967D01*
G37*
X120744358Y-98512967D02*
X120471275Y-98593979D01*
X120403068Y-98622535D01*
X120237247Y-98695717D01*
X120352626Y-98869921D01*
X120415364Y-98963332D01*
X120465701Y-99035904D01*
X120491150Y-99069934D01*
X120528567Y-99069227D01*
X120596753Y-99037824D01*
X120634203Y-99014372D01*
X120786000Y-98944935D01*
X120939977Y-98935342D01*
X121087193Y-98982918D01*
X121218706Y-99084988D01*
X121314400Y-99217857D01*
X121367028Y-99357018D01*
X121399891Y-99536187D01*
X121411272Y-99734495D01*
X121399459Y-99931070D01*
X121381530Y-100035057D01*
X121316241Y-100213648D01*
X121214749Y-100352857D01*
X121086426Y-100448512D01*
X120940648Y-100496440D01*
X120786789Y-100492471D01*
X120634222Y-100432431D01*
X120577229Y-100393022D01*
X120513435Y-100349065D01*
X120470115Y-100330021D01*
X120469356Y-100330000D01*
X120440769Y-100355370D01*
X120391210Y-100422256D01*
X120330823Y-100516818D01*
X120323884Y-100528437D01*
X120206166Y-100726875D01*
X120419515Y-100830062D01*
X120530825Y-100880792D01*
X120622842Y-100911580D01*
X120719276Y-100927294D01*
X120843840Y-100932801D01*
X120922111Y-100933250D01*
X121068832Y-100930984D01*
X121174969Y-100921099D01*
X121263368Y-100898962D01*
X121356873Y-100859938D01*
X121408947Y-100834513D01*
X121612204Y-100698351D01*
X121777456Y-100514721D01*
X121901208Y-100289455D01*
X121979968Y-100028388D01*
X122005714Y-99837875D01*
X122001725Y-99532706D01*
X121942445Y-99256500D01*
X121828440Y-99010951D01*
X121660274Y-98797756D01*
X121658587Y-98796060D01*
X121457692Y-98634346D01*
X121238040Y-98533216D01*
X121000104Y-98492734D01*
X120744358Y-98512967D01*
G36*
X119108164Y-99147261D02*
G01*
X118929264Y-99214067D01*
X118788457Y-99318865D01*
X118694405Y-99456571D01*
X118678343Y-99498149D01*
X118664571Y-99567585D01*
X118651760Y-99682721D01*
X118640268Y-99832241D01*
X118630453Y-100004824D01*
X118622670Y-100189154D01*
X118617279Y-100373911D01*
X118614635Y-100547778D01*
X118615096Y-100699437D01*
X118619019Y-100817569D01*
X118626762Y-100890856D01*
X118633821Y-100908951D01*
X118679377Y-100920424D01*
X118769758Y-100928901D01*
X118886302Y-100932704D01*
X118898785Y-100932763D01*
X119020607Y-100931077D01*
X119093192Y-100923040D01*
X119130743Y-100905126D01*
X119147460Y-100873811D01*
X119148264Y-100870847D01*
X119161212Y-100833395D01*
X119184734Y-100824953D01*
X119236613Y-100845522D01*
X119286902Y-100870847D01*
X119420624Y-100914066D01*
X119583554Y-100931534D01*
X119746475Y-100922368D01*
X119873700Y-100888590D01*
X120000900Y-100801598D01*
X120105660Y-100669921D01*
X120177331Y-100511272D01*
X120203125Y-100356233D01*
X119665750Y-100356233D01*
X119644957Y-100442757D01*
X119613205Y-100494187D01*
X119536183Y-100538119D01*
X119429883Y-100551198D01*
X119320883Y-100532773D01*
X119260065Y-100502824D01*
X119215698Y-100458363D01*
X119194576Y-100392501D01*
X119189500Y-100292518D01*
X119189500Y-100131636D01*
X119363633Y-100146077D01*
X119517817Y-100176275D01*
X119618211Y-100236202D01*
X119663260Y-100324777D01*
X119665750Y-100356233D01*
X120203125Y-100356233D01*
X120205267Y-100343362D01*
X120205323Y-100336917D01*
X120176199Y-100196313D01*
X120095978Y-100059784D01*
X119976396Y-99940560D01*
X119829194Y-99851874D01*
X119749689Y-99823336D01*
X119646044Y-99802772D01*
X119511802Y-99787046D01*
X119403813Y-99780659D01*
X119289963Y-99775895D01*
X119225631Y-99766121D01*
X119196835Y-99746278D01*
X119189594Y-99711308D01*
X119189500Y-99703129D01*
X119216335Y-99606772D01*
X119290707Y-99541741D01*
X119403422Y-99510842D01*
X119545284Y-99516878D01*
X119681625Y-99553040D01*
X119764542Y-99581466D01*
X119819899Y-99597786D01*
X119828528Y-99599271D01*
X119849904Y-99573227D01*
X119884886Y-99507866D01*
X119924384Y-99423175D01*
X119959306Y-99339142D01*
X119980564Y-99275755D01*
X119983250Y-99259067D01*
X119954273Y-99239386D01*
X119877402Y-99214709D01*
X119767732Y-99188105D01*
X119640353Y-99162642D01*
X119510361Y-99141387D01*
X119392846Y-99127409D01*
X119316500Y-99123529D01*
X119108164Y-99147261D01*
G37*
X119108164Y-99147261D02*
X118929264Y-99214067D01*
X118788457Y-99318865D01*
X118694405Y-99456571D01*
X118678343Y-99498149D01*
X118664571Y-99567585D01*
X118651760Y-99682721D01*
X118640268Y-99832241D01*
X118630453Y-100004824D01*
X118622670Y-100189154D01*
X118617279Y-100373911D01*
X118614635Y-100547778D01*
X118615096Y-100699437D01*
X118619019Y-100817569D01*
X118626762Y-100890856D01*
X118633821Y-100908951D01*
X118679377Y-100920424D01*
X118769758Y-100928901D01*
X118886302Y-100932704D01*
X118898785Y-100932763D01*
X119020607Y-100931077D01*
X119093192Y-100923040D01*
X119130743Y-100905126D01*
X119147460Y-100873811D01*
X119148264Y-100870847D01*
X119161212Y-100833395D01*
X119184734Y-100824953D01*
X119236613Y-100845522D01*
X119286902Y-100870847D01*
X119420624Y-100914066D01*
X119583554Y-100931534D01*
X119746475Y-100922368D01*
X119873700Y-100888590D01*
X120000900Y-100801598D01*
X120105660Y-100669921D01*
X120177331Y-100511272D01*
X120203125Y-100356233D01*
X119665750Y-100356233D01*
X119644957Y-100442757D01*
X119613205Y-100494187D01*
X119536183Y-100538119D01*
X119429883Y-100551198D01*
X119320883Y-100532773D01*
X119260065Y-100502824D01*
X119215698Y-100458363D01*
X119194576Y-100392501D01*
X119189500Y-100292518D01*
X119189500Y-100131636D01*
X119363633Y-100146077D01*
X119517817Y-100176275D01*
X119618211Y-100236202D01*
X119663260Y-100324777D01*
X119665750Y-100356233D01*
X120203125Y-100356233D01*
X120205267Y-100343362D01*
X120205323Y-100336917D01*
X120176199Y-100196313D01*
X120095978Y-100059784D01*
X119976396Y-99940560D01*
X119829194Y-99851874D01*
X119749689Y-99823336D01*
X119646044Y-99802772D01*
X119511802Y-99787046D01*
X119403813Y-99780659D01*
X119289963Y-99775895D01*
X119225631Y-99766121D01*
X119196835Y-99746278D01*
X119189594Y-99711308D01*
X119189500Y-99703129D01*
X119216335Y-99606772D01*
X119290707Y-99541741D01*
X119403422Y-99510842D01*
X119545284Y-99516878D01*
X119681625Y-99553040D01*
X119764542Y-99581466D01*
X119819899Y-99597786D01*
X119828528Y-99599271D01*
X119849904Y-99573227D01*
X119884886Y-99507866D01*
X119924384Y-99423175D01*
X119959306Y-99339142D01*
X119980564Y-99275755D01*
X119983250Y-99259067D01*
X119954273Y-99239386D01*
X119877402Y-99214709D01*
X119767732Y-99188105D01*
X119640353Y-99162642D01*
X119510361Y-99141387D01*
X119392846Y-99127409D01*
X119316500Y-99123529D01*
X119108164Y-99147261D01*
G36*
X116744317Y-99575937D02*
G01*
X116743731Y-99850137D01*
X116742249Y-100106402D01*
X116739984Y-100337308D01*
X116737048Y-100535435D01*
X116733556Y-100693359D01*
X116729619Y-100803659D01*
X116725351Y-100858911D01*
X116724739Y-100861812D01*
X116718286Y-100895446D01*
X116728424Y-100916415D01*
X116766469Y-100927712D01*
X116843736Y-100932325D01*
X116971539Y-100933245D01*
X116995047Y-100933250D01*
X117131853Y-100932214D01*
X117217182Y-100927350D01*
X117263047Y-100916022D01*
X117281460Y-100895596D01*
X117284500Y-100869750D01*
X117288024Y-100823400D01*
X117307770Y-100811228D01*
X117357504Y-100833221D01*
X117418671Y-100869631D01*
X117537217Y-100914574D01*
X117687399Y-100934451D01*
X117843585Y-100929104D01*
X117980143Y-100898378D01*
X118033157Y-100873385D01*
X118166530Y-100763700D01*
X118281246Y-100617817D01*
X118357744Y-100461372D01*
X118364566Y-100439104D01*
X118383297Y-100328033D01*
X118392424Y-100172873D01*
X118392271Y-100155274D01*
X117823328Y-100155274D01*
X117814534Y-100278714D01*
X117790371Y-100367556D01*
X117748042Y-100435870D01*
X117724507Y-100461493D01*
X117661369Y-100506080D01*
X117581476Y-100515891D01*
X117533569Y-100511165D01*
X117440824Y-100490831D01*
X117371110Y-100462001D01*
X117362630Y-100455966D01*
X117342486Y-100425101D01*
X117328796Y-100365426D01*
X117320563Y-100267303D01*
X117316789Y-100121094D01*
X117316250Y-100007826D01*
X117316250Y-99598178D01*
X117401777Y-99565661D01*
X117543026Y-99534779D01*
X117655449Y-99560451D01*
X117738991Y-99642623D01*
X117793599Y-99781242D01*
X117819220Y-99976254D01*
X117819549Y-99983163D01*
X117823328Y-100155274D01*
X118392271Y-100155274D01*
X118390852Y-99992465D01*
X118390714Y-99988983D01*
X118362698Y-99724809D01*
X118301063Y-99511921D01*
X118204368Y-99346863D01*
X118073212Y-99227522D01*
X117901509Y-99150258D01*
X117711965Y-99127084D01*
X117522055Y-99159316D01*
X117463782Y-99181669D01*
X117316250Y-99246929D01*
X117316250Y-98865627D01*
X117318902Y-98711038D01*
X117326113Y-98575513D01*
X117336767Y-98474089D01*
X117349118Y-98422912D01*
X117360634Y-98395104D01*
X117352445Y-98377270D01*
X117314277Y-98367200D01*
X117235857Y-98362688D01*
X117106911Y-98361526D01*
X117063368Y-98361500D01*
X116744750Y-98361500D01*
X116744317Y-99575937D01*
G37*
X116744317Y-99575937D02*
X116743731Y-99850137D01*
X116742249Y-100106402D01*
X116739984Y-100337308D01*
X116737048Y-100535435D01*
X116733556Y-100693359D01*
X116729619Y-100803659D01*
X116725351Y-100858911D01*
X116724739Y-100861812D01*
X116718286Y-100895446D01*
X116728424Y-100916415D01*
X116766469Y-100927712D01*
X116843736Y-100932325D01*
X116971539Y-100933245D01*
X116995047Y-100933250D01*
X117131853Y-100932214D01*
X117217182Y-100927350D01*
X117263047Y-100916022D01*
X117281460Y-100895596D01*
X117284500Y-100869750D01*
X117288024Y-100823400D01*
X117307770Y-100811228D01*
X117357504Y-100833221D01*
X117418671Y-100869631D01*
X117537217Y-100914574D01*
X117687399Y-100934451D01*
X117843585Y-100929104D01*
X117980143Y-100898378D01*
X118033157Y-100873385D01*
X118166530Y-100763700D01*
X118281246Y-100617817D01*
X118357744Y-100461372D01*
X118364566Y-100439104D01*
X118383297Y-100328033D01*
X118392424Y-100172873D01*
X118392271Y-100155274D01*
X117823328Y-100155274D01*
X117814534Y-100278714D01*
X117790371Y-100367556D01*
X117748042Y-100435870D01*
X117724507Y-100461493D01*
X117661369Y-100506080D01*
X117581476Y-100515891D01*
X117533569Y-100511165D01*
X117440824Y-100490831D01*
X117371110Y-100462001D01*
X117362630Y-100455966D01*
X117342486Y-100425101D01*
X117328796Y-100365426D01*
X117320563Y-100267303D01*
X117316789Y-100121094D01*
X117316250Y-100007826D01*
X117316250Y-99598178D01*
X117401777Y-99565661D01*
X117543026Y-99534779D01*
X117655449Y-99560451D01*
X117738991Y-99642623D01*
X117793599Y-99781242D01*
X117819220Y-99976254D01*
X117819549Y-99983163D01*
X117823328Y-100155274D01*
X118392271Y-100155274D01*
X118390852Y-99992465D01*
X118390714Y-99988983D01*
X118362698Y-99724809D01*
X118301063Y-99511921D01*
X118204368Y-99346863D01*
X118073212Y-99227522D01*
X117901509Y-99150258D01*
X117711965Y-99127084D01*
X117522055Y-99159316D01*
X117463782Y-99181669D01*
X117316250Y-99246929D01*
X117316250Y-98865627D01*
X117318902Y-98711038D01*
X117326113Y-98575513D01*
X117336767Y-98474089D01*
X117349118Y-98422912D01*
X117360634Y-98395104D01*
X117352445Y-98377270D01*
X117314277Y-98367200D01*
X117235857Y-98362688D01*
X117106911Y-98361526D01*
X117063368Y-98361500D01*
X116744750Y-98361500D01*
X116744317Y-99575937D01*
D12*
X116889600Y-104423978D02*
X116889600Y-103906822D01*
X115469600Y-104423978D02*
X115469600Y-103906822D01*
X106093522Y-96267200D02*
X106610678Y-96267200D01*
X106093522Y-97687200D02*
X106610678Y-97687200D01*
X107415400Y-99588822D02*
X107415400Y-100105978D01*
X105995400Y-99588822D02*
X105995400Y-100105978D01*
X121360000Y-104398578D02*
X121360000Y-103881422D01*
X119940000Y-104398578D02*
X119940000Y-103881422D01*
X102691000Y-103449622D02*
X102691000Y-103966778D01*
X101271000Y-103449622D02*
X101271000Y-103966778D01*
X141461560Y-99684098D02*
X141461560Y-99166942D01*
X140041560Y-99684098D02*
X140041560Y-99166942D01*
X117654000Y-104423978D02*
X117654000Y-103906822D01*
X119074000Y-104423978D02*
X119074000Y-103906822D01*
X123646000Y-104398578D02*
X123646000Y-103881422D01*
X122226000Y-104398578D02*
X122226000Y-103881422D01*
X125932000Y-104398578D02*
X125932000Y-103881422D01*
X124512000Y-104398578D02*
X124512000Y-103881422D01*
X113138478Y-105688200D02*
X112621322Y-105688200D01*
X113138478Y-104268200D02*
X112621322Y-104268200D01*
X132788922Y-104014200D02*
X133306078Y-104014200D01*
X132788922Y-105434200D02*
X133306078Y-105434200D01*
X130551422Y-95960000D02*
X131068578Y-95960000D01*
X130551422Y-94540000D02*
X131068578Y-94540000D01*
X143127660Y-104478562D02*
X143127660Y-104995718D01*
X144547660Y-104478562D02*
X144547660Y-104995718D01*
X136729400Y-100105978D02*
X136729400Y-99588822D01*
X138149400Y-100105978D02*
X138149400Y-99588822D01*
X106116622Y-95604400D02*
X106633778Y-95604400D01*
X106116622Y-94184400D02*
X106633778Y-94184400D01*
X118156222Y-94514600D02*
X118673378Y-94514600D01*
X118156222Y-95934600D02*
X118673378Y-95934600D01*
X104341200Y-103596121D02*
X104341200Y-103921679D01*
X105361200Y-103596121D02*
X105361200Y-103921679D01*
X118158522Y-98042800D02*
X118675678Y-98042800D01*
X118158522Y-96622800D02*
X118675678Y-96622800D01*
X134545000Y-100105978D02*
X134545000Y-99588822D01*
X135965000Y-100105978D02*
X135965000Y-99588822D01*
X140107600Y-95728022D02*
X140107600Y-96245178D01*
X141527600Y-95728022D02*
X141527600Y-96245178D01*
X140408922Y-104242800D02*
X140926078Y-104242800D01*
X140408922Y-105662800D02*
X140926078Y-105662800D01*
X109416000Y-104184400D02*
X109416000Y-103384400D01*
X105976000Y-104184400D02*
X105976000Y-103384400D01*
X111985400Y-100584400D02*
X113785400Y-100584400D01*
X113785400Y-103804400D02*
X111335400Y-103804400D01*
M02*
