G04 #@! TF.GenerationSoftware,KiCad,Pcbnew,5.1.6+dfsg1-1*
G04 #@! TF.CreationDate,2020-11-01T22:24:16+03:00*
G04 #@! TF.ProjectId,WhitePill,57686974-6550-4696-9c6c-2e6b69636164,rev?*
G04 #@! TF.SameCoordinates,Original*
G04 #@! TF.FileFunction,Soldermask,Top*
G04 #@! TF.FilePolarity,Negative*
%FSLAX46Y46*%
G04 Gerber Fmt 4.6, Leading zero omitted, Abs format (unit mm)*
G04 Created by KiCad (PCBNEW 5.1.6+dfsg1-1) date 2020-11-01 22:24:16*
%MOMM*%
%LPD*%
G01*
G04 APERTURE LIST*
%ADD10C,0.100000*%
G04 APERTURE END LIST*
D10*
G36*
X151676000Y-108521000D02*
G01*
X149874000Y-108521000D01*
X149874000Y-106719000D01*
X151676000Y-106719000D01*
X151676000Y-108521000D01*
G37*
G36*
X128028512Y-106723927D02*
G01*
X128177812Y-106753624D01*
X128341784Y-106821544D01*
X128489354Y-106920147D01*
X128614853Y-107045646D01*
X128713456Y-107193216D01*
X128781376Y-107357188D01*
X128816000Y-107531259D01*
X128816000Y-107708741D01*
X128781376Y-107882812D01*
X128713456Y-108046784D01*
X128614853Y-108194354D01*
X128489354Y-108319853D01*
X128341784Y-108418456D01*
X128177812Y-108486376D01*
X128028512Y-108516073D01*
X128003742Y-108521000D01*
X127826258Y-108521000D01*
X127801488Y-108516073D01*
X127652188Y-108486376D01*
X127488216Y-108418456D01*
X127340646Y-108319853D01*
X127215147Y-108194354D01*
X127116544Y-108046784D01*
X127048624Y-107882812D01*
X127014000Y-107708741D01*
X127014000Y-107531259D01*
X127048624Y-107357188D01*
X127116544Y-107193216D01*
X127215147Y-107045646D01*
X127340646Y-106920147D01*
X127488216Y-106821544D01*
X127652188Y-106753624D01*
X127801488Y-106723927D01*
X127826258Y-106719000D01*
X128003742Y-106719000D01*
X128028512Y-106723927D01*
G37*
G36*
X107708512Y-106723927D02*
G01*
X107857812Y-106753624D01*
X108021784Y-106821544D01*
X108169354Y-106920147D01*
X108294853Y-107045646D01*
X108393456Y-107193216D01*
X108461376Y-107357188D01*
X108496000Y-107531259D01*
X108496000Y-107708741D01*
X108461376Y-107882812D01*
X108393456Y-108046784D01*
X108294853Y-108194354D01*
X108169354Y-108319853D01*
X108021784Y-108418456D01*
X107857812Y-108486376D01*
X107708512Y-108516073D01*
X107683742Y-108521000D01*
X107506258Y-108521000D01*
X107481488Y-108516073D01*
X107332188Y-108486376D01*
X107168216Y-108418456D01*
X107020646Y-108319853D01*
X106895147Y-108194354D01*
X106796544Y-108046784D01*
X106728624Y-107882812D01*
X106694000Y-107708741D01*
X106694000Y-107531259D01*
X106728624Y-107357188D01*
X106796544Y-107193216D01*
X106895147Y-107045646D01*
X107020646Y-106920147D01*
X107168216Y-106821544D01*
X107332188Y-106753624D01*
X107481488Y-106723927D01*
X107506258Y-106719000D01*
X107683742Y-106719000D01*
X107708512Y-106723927D01*
G37*
G36*
X105168512Y-106723927D02*
G01*
X105317812Y-106753624D01*
X105481784Y-106821544D01*
X105629354Y-106920147D01*
X105754853Y-107045646D01*
X105853456Y-107193216D01*
X105921376Y-107357188D01*
X105956000Y-107531259D01*
X105956000Y-107708741D01*
X105921376Y-107882812D01*
X105853456Y-108046784D01*
X105754853Y-108194354D01*
X105629354Y-108319853D01*
X105481784Y-108418456D01*
X105317812Y-108486376D01*
X105168512Y-108516073D01*
X105143742Y-108521000D01*
X104966258Y-108521000D01*
X104941488Y-108516073D01*
X104792188Y-108486376D01*
X104628216Y-108418456D01*
X104480646Y-108319853D01*
X104355147Y-108194354D01*
X104256544Y-108046784D01*
X104188624Y-107882812D01*
X104154000Y-107708741D01*
X104154000Y-107531259D01*
X104188624Y-107357188D01*
X104256544Y-107193216D01*
X104355147Y-107045646D01*
X104480646Y-106920147D01*
X104628216Y-106821544D01*
X104792188Y-106753624D01*
X104941488Y-106723927D01*
X104966258Y-106719000D01*
X105143742Y-106719000D01*
X105168512Y-106723927D01*
G37*
G36*
X102628512Y-106723927D02*
G01*
X102777812Y-106753624D01*
X102941784Y-106821544D01*
X103089354Y-106920147D01*
X103214853Y-107045646D01*
X103313456Y-107193216D01*
X103381376Y-107357188D01*
X103416000Y-107531259D01*
X103416000Y-107708741D01*
X103381376Y-107882812D01*
X103313456Y-108046784D01*
X103214853Y-108194354D01*
X103089354Y-108319853D01*
X102941784Y-108418456D01*
X102777812Y-108486376D01*
X102628512Y-108516073D01*
X102603742Y-108521000D01*
X102426258Y-108521000D01*
X102401488Y-108516073D01*
X102252188Y-108486376D01*
X102088216Y-108418456D01*
X101940646Y-108319853D01*
X101815147Y-108194354D01*
X101716544Y-108046784D01*
X101648624Y-107882812D01*
X101614000Y-107708741D01*
X101614000Y-107531259D01*
X101648624Y-107357188D01*
X101716544Y-107193216D01*
X101815147Y-107045646D01*
X101940646Y-106920147D01*
X102088216Y-106821544D01*
X102252188Y-106753624D01*
X102401488Y-106723927D01*
X102426258Y-106719000D01*
X102603742Y-106719000D01*
X102628512Y-106723927D01*
G37*
G36*
X110248512Y-106723927D02*
G01*
X110397812Y-106753624D01*
X110561784Y-106821544D01*
X110709354Y-106920147D01*
X110834853Y-107045646D01*
X110933456Y-107193216D01*
X111001376Y-107357188D01*
X111036000Y-107531259D01*
X111036000Y-107708741D01*
X111001376Y-107882812D01*
X110933456Y-108046784D01*
X110834853Y-108194354D01*
X110709354Y-108319853D01*
X110561784Y-108418456D01*
X110397812Y-108486376D01*
X110248512Y-108516073D01*
X110223742Y-108521000D01*
X110046258Y-108521000D01*
X110021488Y-108516073D01*
X109872188Y-108486376D01*
X109708216Y-108418456D01*
X109560646Y-108319853D01*
X109435147Y-108194354D01*
X109336544Y-108046784D01*
X109268624Y-107882812D01*
X109234000Y-107708741D01*
X109234000Y-107531259D01*
X109268624Y-107357188D01*
X109336544Y-107193216D01*
X109435147Y-107045646D01*
X109560646Y-106920147D01*
X109708216Y-106821544D01*
X109872188Y-106753624D01*
X110021488Y-106723927D01*
X110046258Y-106719000D01*
X110223742Y-106719000D01*
X110248512Y-106723927D01*
G37*
G36*
X112788512Y-106723927D02*
G01*
X112937812Y-106753624D01*
X113101784Y-106821544D01*
X113249354Y-106920147D01*
X113374853Y-107045646D01*
X113473456Y-107193216D01*
X113541376Y-107357188D01*
X113576000Y-107531259D01*
X113576000Y-107708741D01*
X113541376Y-107882812D01*
X113473456Y-108046784D01*
X113374853Y-108194354D01*
X113249354Y-108319853D01*
X113101784Y-108418456D01*
X112937812Y-108486376D01*
X112788512Y-108516073D01*
X112763742Y-108521000D01*
X112586258Y-108521000D01*
X112561488Y-108516073D01*
X112412188Y-108486376D01*
X112248216Y-108418456D01*
X112100646Y-108319853D01*
X111975147Y-108194354D01*
X111876544Y-108046784D01*
X111808624Y-107882812D01*
X111774000Y-107708741D01*
X111774000Y-107531259D01*
X111808624Y-107357188D01*
X111876544Y-107193216D01*
X111975147Y-107045646D01*
X112100646Y-106920147D01*
X112248216Y-106821544D01*
X112412188Y-106753624D01*
X112561488Y-106723927D01*
X112586258Y-106719000D01*
X112763742Y-106719000D01*
X112788512Y-106723927D01*
G37*
G36*
X115328512Y-106723927D02*
G01*
X115477812Y-106753624D01*
X115641784Y-106821544D01*
X115789354Y-106920147D01*
X115914853Y-107045646D01*
X116013456Y-107193216D01*
X116081376Y-107357188D01*
X116116000Y-107531259D01*
X116116000Y-107708741D01*
X116081376Y-107882812D01*
X116013456Y-108046784D01*
X115914853Y-108194354D01*
X115789354Y-108319853D01*
X115641784Y-108418456D01*
X115477812Y-108486376D01*
X115328512Y-108516073D01*
X115303742Y-108521000D01*
X115126258Y-108521000D01*
X115101488Y-108516073D01*
X114952188Y-108486376D01*
X114788216Y-108418456D01*
X114640646Y-108319853D01*
X114515147Y-108194354D01*
X114416544Y-108046784D01*
X114348624Y-107882812D01*
X114314000Y-107708741D01*
X114314000Y-107531259D01*
X114348624Y-107357188D01*
X114416544Y-107193216D01*
X114515147Y-107045646D01*
X114640646Y-106920147D01*
X114788216Y-106821544D01*
X114952188Y-106753624D01*
X115101488Y-106723927D01*
X115126258Y-106719000D01*
X115303742Y-106719000D01*
X115328512Y-106723927D01*
G37*
G36*
X117868512Y-106723927D02*
G01*
X118017812Y-106753624D01*
X118181784Y-106821544D01*
X118329354Y-106920147D01*
X118454853Y-107045646D01*
X118553456Y-107193216D01*
X118621376Y-107357188D01*
X118656000Y-107531259D01*
X118656000Y-107708741D01*
X118621376Y-107882812D01*
X118553456Y-108046784D01*
X118454853Y-108194354D01*
X118329354Y-108319853D01*
X118181784Y-108418456D01*
X118017812Y-108486376D01*
X117868512Y-108516073D01*
X117843742Y-108521000D01*
X117666258Y-108521000D01*
X117641488Y-108516073D01*
X117492188Y-108486376D01*
X117328216Y-108418456D01*
X117180646Y-108319853D01*
X117055147Y-108194354D01*
X116956544Y-108046784D01*
X116888624Y-107882812D01*
X116854000Y-107708741D01*
X116854000Y-107531259D01*
X116888624Y-107357188D01*
X116956544Y-107193216D01*
X117055147Y-107045646D01*
X117180646Y-106920147D01*
X117328216Y-106821544D01*
X117492188Y-106753624D01*
X117641488Y-106723927D01*
X117666258Y-106719000D01*
X117843742Y-106719000D01*
X117868512Y-106723927D01*
G37*
G36*
X120408512Y-106723927D02*
G01*
X120557812Y-106753624D01*
X120721784Y-106821544D01*
X120869354Y-106920147D01*
X120994853Y-107045646D01*
X121093456Y-107193216D01*
X121161376Y-107357188D01*
X121196000Y-107531259D01*
X121196000Y-107708741D01*
X121161376Y-107882812D01*
X121093456Y-108046784D01*
X120994853Y-108194354D01*
X120869354Y-108319853D01*
X120721784Y-108418456D01*
X120557812Y-108486376D01*
X120408512Y-108516073D01*
X120383742Y-108521000D01*
X120206258Y-108521000D01*
X120181488Y-108516073D01*
X120032188Y-108486376D01*
X119868216Y-108418456D01*
X119720646Y-108319853D01*
X119595147Y-108194354D01*
X119496544Y-108046784D01*
X119428624Y-107882812D01*
X119394000Y-107708741D01*
X119394000Y-107531259D01*
X119428624Y-107357188D01*
X119496544Y-107193216D01*
X119595147Y-107045646D01*
X119720646Y-106920147D01*
X119868216Y-106821544D01*
X120032188Y-106753624D01*
X120181488Y-106723927D01*
X120206258Y-106719000D01*
X120383742Y-106719000D01*
X120408512Y-106723927D01*
G37*
G36*
X122948512Y-106723927D02*
G01*
X123097812Y-106753624D01*
X123261784Y-106821544D01*
X123409354Y-106920147D01*
X123534853Y-107045646D01*
X123633456Y-107193216D01*
X123701376Y-107357188D01*
X123736000Y-107531259D01*
X123736000Y-107708741D01*
X123701376Y-107882812D01*
X123633456Y-108046784D01*
X123534853Y-108194354D01*
X123409354Y-108319853D01*
X123261784Y-108418456D01*
X123097812Y-108486376D01*
X122948512Y-108516073D01*
X122923742Y-108521000D01*
X122746258Y-108521000D01*
X122721488Y-108516073D01*
X122572188Y-108486376D01*
X122408216Y-108418456D01*
X122260646Y-108319853D01*
X122135147Y-108194354D01*
X122036544Y-108046784D01*
X121968624Y-107882812D01*
X121934000Y-107708741D01*
X121934000Y-107531259D01*
X121968624Y-107357188D01*
X122036544Y-107193216D01*
X122135147Y-107045646D01*
X122260646Y-106920147D01*
X122408216Y-106821544D01*
X122572188Y-106753624D01*
X122721488Y-106723927D01*
X122746258Y-106719000D01*
X122923742Y-106719000D01*
X122948512Y-106723927D01*
G37*
G36*
X130568512Y-106723927D02*
G01*
X130717812Y-106753624D01*
X130881784Y-106821544D01*
X131029354Y-106920147D01*
X131154853Y-107045646D01*
X131253456Y-107193216D01*
X131321376Y-107357188D01*
X131356000Y-107531259D01*
X131356000Y-107708741D01*
X131321376Y-107882812D01*
X131253456Y-108046784D01*
X131154853Y-108194354D01*
X131029354Y-108319853D01*
X130881784Y-108418456D01*
X130717812Y-108486376D01*
X130568512Y-108516073D01*
X130543742Y-108521000D01*
X130366258Y-108521000D01*
X130341488Y-108516073D01*
X130192188Y-108486376D01*
X130028216Y-108418456D01*
X129880646Y-108319853D01*
X129755147Y-108194354D01*
X129656544Y-108046784D01*
X129588624Y-107882812D01*
X129554000Y-107708741D01*
X129554000Y-107531259D01*
X129588624Y-107357188D01*
X129656544Y-107193216D01*
X129755147Y-107045646D01*
X129880646Y-106920147D01*
X130028216Y-106821544D01*
X130192188Y-106753624D01*
X130341488Y-106723927D01*
X130366258Y-106719000D01*
X130543742Y-106719000D01*
X130568512Y-106723927D01*
G37*
G36*
X133108512Y-106723927D02*
G01*
X133257812Y-106753624D01*
X133421784Y-106821544D01*
X133569354Y-106920147D01*
X133694853Y-107045646D01*
X133793456Y-107193216D01*
X133861376Y-107357188D01*
X133896000Y-107531259D01*
X133896000Y-107708741D01*
X133861376Y-107882812D01*
X133793456Y-108046784D01*
X133694853Y-108194354D01*
X133569354Y-108319853D01*
X133421784Y-108418456D01*
X133257812Y-108486376D01*
X133108512Y-108516073D01*
X133083742Y-108521000D01*
X132906258Y-108521000D01*
X132881488Y-108516073D01*
X132732188Y-108486376D01*
X132568216Y-108418456D01*
X132420646Y-108319853D01*
X132295147Y-108194354D01*
X132196544Y-108046784D01*
X132128624Y-107882812D01*
X132094000Y-107708741D01*
X132094000Y-107531259D01*
X132128624Y-107357188D01*
X132196544Y-107193216D01*
X132295147Y-107045646D01*
X132420646Y-106920147D01*
X132568216Y-106821544D01*
X132732188Y-106753624D01*
X132881488Y-106723927D01*
X132906258Y-106719000D01*
X133083742Y-106719000D01*
X133108512Y-106723927D01*
G37*
G36*
X135648512Y-106723927D02*
G01*
X135797812Y-106753624D01*
X135961784Y-106821544D01*
X136109354Y-106920147D01*
X136234853Y-107045646D01*
X136333456Y-107193216D01*
X136401376Y-107357188D01*
X136436000Y-107531259D01*
X136436000Y-107708741D01*
X136401376Y-107882812D01*
X136333456Y-108046784D01*
X136234853Y-108194354D01*
X136109354Y-108319853D01*
X135961784Y-108418456D01*
X135797812Y-108486376D01*
X135648512Y-108516073D01*
X135623742Y-108521000D01*
X135446258Y-108521000D01*
X135421488Y-108516073D01*
X135272188Y-108486376D01*
X135108216Y-108418456D01*
X134960646Y-108319853D01*
X134835147Y-108194354D01*
X134736544Y-108046784D01*
X134668624Y-107882812D01*
X134634000Y-107708741D01*
X134634000Y-107531259D01*
X134668624Y-107357188D01*
X134736544Y-107193216D01*
X134835147Y-107045646D01*
X134960646Y-106920147D01*
X135108216Y-106821544D01*
X135272188Y-106753624D01*
X135421488Y-106723927D01*
X135446258Y-106719000D01*
X135623742Y-106719000D01*
X135648512Y-106723927D01*
G37*
G36*
X138188512Y-106723927D02*
G01*
X138337812Y-106753624D01*
X138501784Y-106821544D01*
X138649354Y-106920147D01*
X138774853Y-107045646D01*
X138873456Y-107193216D01*
X138941376Y-107357188D01*
X138976000Y-107531259D01*
X138976000Y-107708741D01*
X138941376Y-107882812D01*
X138873456Y-108046784D01*
X138774853Y-108194354D01*
X138649354Y-108319853D01*
X138501784Y-108418456D01*
X138337812Y-108486376D01*
X138188512Y-108516073D01*
X138163742Y-108521000D01*
X137986258Y-108521000D01*
X137961488Y-108516073D01*
X137812188Y-108486376D01*
X137648216Y-108418456D01*
X137500646Y-108319853D01*
X137375147Y-108194354D01*
X137276544Y-108046784D01*
X137208624Y-107882812D01*
X137174000Y-107708741D01*
X137174000Y-107531259D01*
X137208624Y-107357188D01*
X137276544Y-107193216D01*
X137375147Y-107045646D01*
X137500646Y-106920147D01*
X137648216Y-106821544D01*
X137812188Y-106753624D01*
X137961488Y-106723927D01*
X137986258Y-106719000D01*
X138163742Y-106719000D01*
X138188512Y-106723927D01*
G37*
G36*
X140728512Y-106723927D02*
G01*
X140877812Y-106753624D01*
X141041784Y-106821544D01*
X141189354Y-106920147D01*
X141314853Y-107045646D01*
X141413456Y-107193216D01*
X141481376Y-107357188D01*
X141516000Y-107531259D01*
X141516000Y-107708741D01*
X141481376Y-107882812D01*
X141413456Y-108046784D01*
X141314853Y-108194354D01*
X141189354Y-108319853D01*
X141041784Y-108418456D01*
X140877812Y-108486376D01*
X140728512Y-108516073D01*
X140703742Y-108521000D01*
X140526258Y-108521000D01*
X140501488Y-108516073D01*
X140352188Y-108486376D01*
X140188216Y-108418456D01*
X140040646Y-108319853D01*
X139915147Y-108194354D01*
X139816544Y-108046784D01*
X139748624Y-107882812D01*
X139714000Y-107708741D01*
X139714000Y-107531259D01*
X139748624Y-107357188D01*
X139816544Y-107193216D01*
X139915147Y-107045646D01*
X140040646Y-106920147D01*
X140188216Y-106821544D01*
X140352188Y-106753624D01*
X140501488Y-106723927D01*
X140526258Y-106719000D01*
X140703742Y-106719000D01*
X140728512Y-106723927D01*
G37*
G36*
X143268512Y-106723927D02*
G01*
X143417812Y-106753624D01*
X143581784Y-106821544D01*
X143729354Y-106920147D01*
X143854853Y-107045646D01*
X143953456Y-107193216D01*
X144021376Y-107357188D01*
X144056000Y-107531259D01*
X144056000Y-107708741D01*
X144021376Y-107882812D01*
X143953456Y-108046784D01*
X143854853Y-108194354D01*
X143729354Y-108319853D01*
X143581784Y-108418456D01*
X143417812Y-108486376D01*
X143268512Y-108516073D01*
X143243742Y-108521000D01*
X143066258Y-108521000D01*
X143041488Y-108516073D01*
X142892188Y-108486376D01*
X142728216Y-108418456D01*
X142580646Y-108319853D01*
X142455147Y-108194354D01*
X142356544Y-108046784D01*
X142288624Y-107882812D01*
X142254000Y-107708741D01*
X142254000Y-107531259D01*
X142288624Y-107357188D01*
X142356544Y-107193216D01*
X142455147Y-107045646D01*
X142580646Y-106920147D01*
X142728216Y-106821544D01*
X142892188Y-106753624D01*
X143041488Y-106723927D01*
X143066258Y-106719000D01*
X143243742Y-106719000D01*
X143268512Y-106723927D01*
G37*
G36*
X145808512Y-106723927D02*
G01*
X145957812Y-106753624D01*
X146121784Y-106821544D01*
X146269354Y-106920147D01*
X146394853Y-107045646D01*
X146493456Y-107193216D01*
X146561376Y-107357188D01*
X146596000Y-107531259D01*
X146596000Y-107708741D01*
X146561376Y-107882812D01*
X146493456Y-108046784D01*
X146394853Y-108194354D01*
X146269354Y-108319853D01*
X146121784Y-108418456D01*
X145957812Y-108486376D01*
X145808512Y-108516073D01*
X145783742Y-108521000D01*
X145606258Y-108521000D01*
X145581488Y-108516073D01*
X145432188Y-108486376D01*
X145268216Y-108418456D01*
X145120646Y-108319853D01*
X144995147Y-108194354D01*
X144896544Y-108046784D01*
X144828624Y-107882812D01*
X144794000Y-107708741D01*
X144794000Y-107531259D01*
X144828624Y-107357188D01*
X144896544Y-107193216D01*
X144995147Y-107045646D01*
X145120646Y-106920147D01*
X145268216Y-106821544D01*
X145432188Y-106753624D01*
X145581488Y-106723927D01*
X145606258Y-106719000D01*
X145783742Y-106719000D01*
X145808512Y-106723927D01*
G37*
G36*
X148348512Y-106723927D02*
G01*
X148497812Y-106753624D01*
X148661784Y-106821544D01*
X148809354Y-106920147D01*
X148934853Y-107045646D01*
X149033456Y-107193216D01*
X149101376Y-107357188D01*
X149136000Y-107531259D01*
X149136000Y-107708741D01*
X149101376Y-107882812D01*
X149033456Y-108046784D01*
X148934853Y-108194354D01*
X148809354Y-108319853D01*
X148661784Y-108418456D01*
X148497812Y-108486376D01*
X148348512Y-108516073D01*
X148323742Y-108521000D01*
X148146258Y-108521000D01*
X148121488Y-108516073D01*
X147972188Y-108486376D01*
X147808216Y-108418456D01*
X147660646Y-108319853D01*
X147535147Y-108194354D01*
X147436544Y-108046784D01*
X147368624Y-107882812D01*
X147334000Y-107708741D01*
X147334000Y-107531259D01*
X147368624Y-107357188D01*
X147436544Y-107193216D01*
X147535147Y-107045646D01*
X147660646Y-106920147D01*
X147808216Y-106821544D01*
X147972188Y-106753624D01*
X148121488Y-106723927D01*
X148146258Y-106719000D01*
X148323742Y-106719000D01*
X148348512Y-106723927D01*
G37*
G36*
X125488512Y-106723927D02*
G01*
X125637812Y-106753624D01*
X125801784Y-106821544D01*
X125949354Y-106920147D01*
X126074853Y-107045646D01*
X126173456Y-107193216D01*
X126241376Y-107357188D01*
X126276000Y-107531259D01*
X126276000Y-107708741D01*
X126241376Y-107882812D01*
X126173456Y-108046784D01*
X126074853Y-108194354D01*
X125949354Y-108319853D01*
X125801784Y-108418456D01*
X125637812Y-108486376D01*
X125488512Y-108516073D01*
X125463742Y-108521000D01*
X125286258Y-108521000D01*
X125261488Y-108516073D01*
X125112188Y-108486376D01*
X124948216Y-108418456D01*
X124800646Y-108319853D01*
X124675147Y-108194354D01*
X124576544Y-108046784D01*
X124508624Y-107882812D01*
X124474000Y-107708741D01*
X124474000Y-107531259D01*
X124508624Y-107357188D01*
X124576544Y-107193216D01*
X124675147Y-107045646D01*
X124800646Y-106920147D01*
X124948216Y-106821544D01*
X125112188Y-106753624D01*
X125261488Y-106723927D01*
X125286258Y-106719000D01*
X125463742Y-106719000D01*
X125488512Y-106723927D01*
G37*
G36*
X128050746Y-100316169D02*
G01*
X128057761Y-100318297D01*
X128064227Y-100321754D01*
X128074661Y-100330316D01*
X129127348Y-101383003D01*
X129135910Y-101393437D01*
X129139367Y-101399903D01*
X129141495Y-101406918D01*
X129142213Y-101414213D01*
X129141495Y-101421508D01*
X129139367Y-101428523D01*
X129135910Y-101434989D01*
X129127348Y-101445423D01*
X128905511Y-101667260D01*
X128895077Y-101675822D01*
X128888610Y-101679279D01*
X128873674Y-101683810D01*
X128851035Y-101693187D01*
X128830661Y-101706801D01*
X128813334Y-101724128D01*
X128799720Y-101744503D01*
X128790344Y-101767140D01*
X128785813Y-101782076D01*
X128782356Y-101788543D01*
X128773794Y-101798977D01*
X128551957Y-102020814D01*
X128541523Y-102029376D01*
X128535057Y-102032833D01*
X128520120Y-102037364D01*
X128497481Y-102046742D01*
X128477107Y-102060356D01*
X128459780Y-102077683D01*
X128446167Y-102098058D01*
X128436791Y-102120693D01*
X128432260Y-102135630D01*
X128428803Y-102142096D01*
X128420241Y-102152530D01*
X128198404Y-102374367D01*
X128187970Y-102382929D01*
X128181503Y-102386386D01*
X128166567Y-102390917D01*
X128143928Y-102400294D01*
X128123554Y-102413908D01*
X128106227Y-102431235D01*
X128092613Y-102451610D01*
X128083237Y-102474247D01*
X128078706Y-102489183D01*
X128075249Y-102495650D01*
X128066687Y-102506084D01*
X127844850Y-102727921D01*
X127834416Y-102736483D01*
X127827950Y-102739940D01*
X127813013Y-102744471D01*
X127790374Y-102753849D01*
X127770000Y-102767463D01*
X127752673Y-102784790D01*
X127739060Y-102805165D01*
X127729684Y-102827800D01*
X127725153Y-102842737D01*
X127721696Y-102849203D01*
X127713134Y-102859637D01*
X127491297Y-103081474D01*
X127480863Y-103090036D01*
X127474397Y-103093493D01*
X127459460Y-103098024D01*
X127436821Y-103107402D01*
X127416447Y-103121016D01*
X127399120Y-103138343D01*
X127385507Y-103158718D01*
X127376131Y-103181353D01*
X127371600Y-103196290D01*
X127368143Y-103202756D01*
X127359581Y-103213190D01*
X127137744Y-103435027D01*
X127127310Y-103443589D01*
X127120843Y-103447046D01*
X127105907Y-103451577D01*
X127083268Y-103460954D01*
X127062894Y-103474568D01*
X127045567Y-103491895D01*
X127031953Y-103512270D01*
X127022577Y-103534907D01*
X127018046Y-103549843D01*
X127014589Y-103556310D01*
X127006027Y-103566744D01*
X126784190Y-103788581D01*
X126773756Y-103797143D01*
X126767290Y-103800600D01*
X126752353Y-103805131D01*
X126729714Y-103814509D01*
X126709340Y-103828123D01*
X126692013Y-103845450D01*
X126678400Y-103865825D01*
X126669024Y-103888460D01*
X126664493Y-103903397D01*
X126661036Y-103909863D01*
X126652474Y-103920297D01*
X126430637Y-104142134D01*
X126420203Y-104150696D01*
X126413737Y-104154153D01*
X126398800Y-104158684D01*
X126376161Y-104168062D01*
X126355787Y-104181676D01*
X126338460Y-104199003D01*
X126324847Y-104219378D01*
X126315471Y-104242013D01*
X126310940Y-104256950D01*
X126307483Y-104263416D01*
X126298921Y-104273850D01*
X126077084Y-104495687D01*
X126066650Y-104504249D01*
X126060183Y-104507706D01*
X126045247Y-104512237D01*
X126022608Y-104521614D01*
X126002234Y-104535228D01*
X125984907Y-104552555D01*
X125971293Y-104572930D01*
X125961917Y-104595567D01*
X125957386Y-104610503D01*
X125953929Y-104616970D01*
X125945367Y-104627404D01*
X125723530Y-104849241D01*
X125713096Y-104857803D01*
X125706630Y-104861260D01*
X125691693Y-104865791D01*
X125669054Y-104875169D01*
X125648680Y-104888783D01*
X125631353Y-104906110D01*
X125617740Y-104926485D01*
X125608364Y-104949120D01*
X125603833Y-104964057D01*
X125600376Y-104970523D01*
X125591814Y-104980957D01*
X125369977Y-105202794D01*
X125359543Y-105211356D01*
X125353076Y-105214813D01*
X125338140Y-105219344D01*
X125315501Y-105228721D01*
X125295127Y-105242335D01*
X125277800Y-105259662D01*
X125264186Y-105280037D01*
X125254810Y-105302674D01*
X125250279Y-105317610D01*
X125246822Y-105324077D01*
X125238260Y-105334511D01*
X125016423Y-105556348D01*
X125005989Y-105564910D01*
X124999523Y-105568367D01*
X124992508Y-105570495D01*
X124985213Y-105571213D01*
X124977918Y-105570495D01*
X124970903Y-105568367D01*
X124964437Y-105564910D01*
X124954003Y-105556348D01*
X123901316Y-104503661D01*
X123892754Y-104493227D01*
X123889297Y-104486761D01*
X123887169Y-104479746D01*
X123886451Y-104472451D01*
X123887169Y-104465156D01*
X123889297Y-104458141D01*
X123892754Y-104451675D01*
X123901316Y-104441241D01*
X124123153Y-104219404D01*
X124133587Y-104210842D01*
X124140054Y-104207385D01*
X124154990Y-104202854D01*
X124177629Y-104193477D01*
X124198003Y-104179863D01*
X124215330Y-104162536D01*
X124228944Y-104142161D01*
X124238320Y-104119524D01*
X124242851Y-104104588D01*
X124246308Y-104098121D01*
X124254870Y-104087687D01*
X124476707Y-103865850D01*
X124487141Y-103857288D01*
X124493607Y-103853831D01*
X124508544Y-103849300D01*
X124531183Y-103839922D01*
X124551557Y-103826308D01*
X124568884Y-103808981D01*
X124582497Y-103788606D01*
X124591873Y-103765971D01*
X124596404Y-103751034D01*
X124599861Y-103744568D01*
X124608423Y-103734134D01*
X124830260Y-103512297D01*
X124840694Y-103503735D01*
X124847161Y-103500278D01*
X124862097Y-103495747D01*
X124884736Y-103486370D01*
X124905110Y-103472756D01*
X124922437Y-103455429D01*
X124936051Y-103435054D01*
X124945427Y-103412417D01*
X124949958Y-103397481D01*
X124953415Y-103391014D01*
X124961977Y-103380580D01*
X125183814Y-103158743D01*
X125194248Y-103150181D01*
X125200714Y-103146724D01*
X125215651Y-103142193D01*
X125238290Y-103132815D01*
X125258664Y-103119201D01*
X125275991Y-103101874D01*
X125289604Y-103081499D01*
X125298980Y-103058864D01*
X125303511Y-103043927D01*
X125306968Y-103037461D01*
X125315530Y-103027027D01*
X125537367Y-102805190D01*
X125547801Y-102796628D01*
X125554267Y-102793171D01*
X125569204Y-102788640D01*
X125591843Y-102779262D01*
X125612217Y-102765648D01*
X125629544Y-102748321D01*
X125643157Y-102727946D01*
X125652533Y-102705311D01*
X125657064Y-102690374D01*
X125660521Y-102683908D01*
X125669083Y-102673474D01*
X125890920Y-102451637D01*
X125901354Y-102443075D01*
X125907821Y-102439618D01*
X125922757Y-102435087D01*
X125945396Y-102425710D01*
X125965770Y-102412096D01*
X125983097Y-102394769D01*
X125996711Y-102374394D01*
X126006087Y-102351757D01*
X126010618Y-102336821D01*
X126014075Y-102330354D01*
X126022637Y-102319920D01*
X126244474Y-102098083D01*
X126254908Y-102089521D01*
X126261374Y-102086064D01*
X126276311Y-102081533D01*
X126298950Y-102072155D01*
X126319324Y-102058541D01*
X126336651Y-102041214D01*
X126350264Y-102020839D01*
X126359640Y-101998204D01*
X126364171Y-101983267D01*
X126367628Y-101976801D01*
X126376190Y-101966367D01*
X126598027Y-101744530D01*
X126608461Y-101735968D01*
X126614927Y-101732511D01*
X126629864Y-101727980D01*
X126652503Y-101718602D01*
X126672877Y-101704988D01*
X126690204Y-101687661D01*
X126703817Y-101667286D01*
X126713193Y-101644651D01*
X126717724Y-101629714D01*
X126721181Y-101623248D01*
X126729743Y-101612814D01*
X126951580Y-101390977D01*
X126962014Y-101382415D01*
X126968481Y-101378958D01*
X126983417Y-101374427D01*
X127006056Y-101365050D01*
X127026430Y-101351436D01*
X127043757Y-101334109D01*
X127057371Y-101313734D01*
X127066747Y-101291097D01*
X127071278Y-101276161D01*
X127074735Y-101269694D01*
X127083297Y-101259260D01*
X127305134Y-101037423D01*
X127315568Y-101028861D01*
X127322034Y-101025404D01*
X127336971Y-101020873D01*
X127359610Y-101011495D01*
X127379984Y-100997881D01*
X127397311Y-100980554D01*
X127410924Y-100960179D01*
X127420300Y-100937544D01*
X127424831Y-100922607D01*
X127428288Y-100916141D01*
X127436850Y-100905707D01*
X127658687Y-100683870D01*
X127669121Y-100675308D01*
X127675588Y-100671851D01*
X127690524Y-100667320D01*
X127713163Y-100657943D01*
X127733537Y-100644329D01*
X127750864Y-100627002D01*
X127764478Y-100606627D01*
X127773854Y-100583990D01*
X127778385Y-100569054D01*
X127781842Y-100562587D01*
X127790404Y-100552153D01*
X128012241Y-100330316D01*
X128022675Y-100321754D01*
X128029141Y-100318297D01*
X128036156Y-100316169D01*
X128043451Y-100315451D01*
X128050746Y-100316169D01*
G37*
G36*
X119105844Y-100316169D02*
G01*
X119112859Y-100318297D01*
X119119325Y-100321754D01*
X119129759Y-100330316D01*
X119351596Y-100552153D01*
X119360158Y-100562587D01*
X119363615Y-100569054D01*
X119368146Y-100583990D01*
X119377523Y-100606629D01*
X119391137Y-100627003D01*
X119408464Y-100644330D01*
X119428839Y-100657944D01*
X119451476Y-100667320D01*
X119466412Y-100671851D01*
X119472879Y-100675308D01*
X119483313Y-100683870D01*
X119705150Y-100905707D01*
X119713712Y-100916141D01*
X119717169Y-100922607D01*
X119721700Y-100937544D01*
X119731078Y-100960183D01*
X119744692Y-100980557D01*
X119762019Y-100997884D01*
X119782394Y-101011497D01*
X119805029Y-101020873D01*
X119819966Y-101025404D01*
X119826432Y-101028861D01*
X119836866Y-101037423D01*
X120058703Y-101259260D01*
X120067265Y-101269694D01*
X120070722Y-101276161D01*
X120075253Y-101291097D01*
X120084630Y-101313736D01*
X120098244Y-101334110D01*
X120115571Y-101351437D01*
X120135946Y-101365051D01*
X120158583Y-101374427D01*
X120173519Y-101378958D01*
X120179986Y-101382415D01*
X120190420Y-101390977D01*
X120412257Y-101612814D01*
X120420819Y-101623248D01*
X120424276Y-101629714D01*
X120428807Y-101644651D01*
X120438185Y-101667290D01*
X120451799Y-101687664D01*
X120469126Y-101704991D01*
X120489501Y-101718604D01*
X120512136Y-101727980D01*
X120527073Y-101732511D01*
X120533539Y-101735968D01*
X120543973Y-101744530D01*
X120765810Y-101966367D01*
X120774372Y-101976801D01*
X120777829Y-101983267D01*
X120782360Y-101998204D01*
X120791738Y-102020843D01*
X120805352Y-102041217D01*
X120822679Y-102058544D01*
X120843054Y-102072157D01*
X120865689Y-102081533D01*
X120880626Y-102086064D01*
X120887092Y-102089521D01*
X120897526Y-102098083D01*
X121119363Y-102319920D01*
X121127925Y-102330354D01*
X121131382Y-102336821D01*
X121135913Y-102351757D01*
X121145290Y-102374396D01*
X121158904Y-102394770D01*
X121176231Y-102412097D01*
X121196606Y-102425711D01*
X121219243Y-102435087D01*
X121234179Y-102439618D01*
X121240646Y-102443075D01*
X121251080Y-102451637D01*
X121472917Y-102673474D01*
X121481479Y-102683908D01*
X121484936Y-102690374D01*
X121489467Y-102705311D01*
X121498845Y-102727950D01*
X121512459Y-102748324D01*
X121529786Y-102765651D01*
X121550161Y-102779264D01*
X121572796Y-102788640D01*
X121587733Y-102793171D01*
X121594199Y-102796628D01*
X121604633Y-102805190D01*
X121826470Y-103027027D01*
X121835032Y-103037461D01*
X121838489Y-103043927D01*
X121843020Y-103058864D01*
X121852398Y-103081503D01*
X121866012Y-103101877D01*
X121883339Y-103119204D01*
X121903714Y-103132817D01*
X121926349Y-103142193D01*
X121941286Y-103146724D01*
X121947752Y-103150181D01*
X121958186Y-103158743D01*
X122180023Y-103380580D01*
X122188585Y-103391014D01*
X122192042Y-103397481D01*
X122196573Y-103412417D01*
X122205950Y-103435056D01*
X122219564Y-103455430D01*
X122236891Y-103472757D01*
X122257266Y-103486371D01*
X122279903Y-103495747D01*
X122294839Y-103500278D01*
X122301306Y-103503735D01*
X122311740Y-103512297D01*
X122533577Y-103734134D01*
X122542139Y-103744568D01*
X122545596Y-103751034D01*
X122550127Y-103765971D01*
X122559505Y-103788610D01*
X122573119Y-103808984D01*
X122590446Y-103826311D01*
X122610821Y-103839924D01*
X122633456Y-103849300D01*
X122648393Y-103853831D01*
X122654859Y-103857288D01*
X122665293Y-103865850D01*
X122887130Y-104087687D01*
X122895692Y-104098121D01*
X122899149Y-104104588D01*
X122903680Y-104119524D01*
X122913057Y-104142163D01*
X122926671Y-104162537D01*
X122943998Y-104179864D01*
X122964373Y-104193478D01*
X122987010Y-104202854D01*
X123001946Y-104207385D01*
X123008413Y-104210842D01*
X123018847Y-104219404D01*
X123240684Y-104441241D01*
X123249246Y-104451675D01*
X123252703Y-104458141D01*
X123254831Y-104465156D01*
X123255549Y-104472451D01*
X123254831Y-104479746D01*
X123252703Y-104486761D01*
X123249246Y-104493227D01*
X123240684Y-104503661D01*
X122187997Y-105556348D01*
X122177563Y-105564910D01*
X122171097Y-105568367D01*
X122164082Y-105570495D01*
X122156787Y-105571213D01*
X122149492Y-105570495D01*
X122142477Y-105568367D01*
X122136011Y-105564910D01*
X122125577Y-105556348D01*
X121903740Y-105334511D01*
X121895178Y-105324077D01*
X121891721Y-105317610D01*
X121887190Y-105302674D01*
X121877813Y-105280035D01*
X121864199Y-105259661D01*
X121846872Y-105242334D01*
X121826497Y-105228720D01*
X121803860Y-105219344D01*
X121788924Y-105214813D01*
X121782457Y-105211356D01*
X121772023Y-105202794D01*
X121550186Y-104980957D01*
X121541624Y-104970523D01*
X121538167Y-104964057D01*
X121533636Y-104949120D01*
X121524258Y-104926481D01*
X121510644Y-104906107D01*
X121493317Y-104888780D01*
X121472942Y-104875167D01*
X121450307Y-104865791D01*
X121435370Y-104861260D01*
X121428904Y-104857803D01*
X121418470Y-104849241D01*
X121196633Y-104627404D01*
X121188071Y-104616970D01*
X121184614Y-104610503D01*
X121180083Y-104595567D01*
X121170706Y-104572928D01*
X121157092Y-104552554D01*
X121139765Y-104535227D01*
X121119390Y-104521613D01*
X121096753Y-104512237D01*
X121081817Y-104507706D01*
X121075350Y-104504249D01*
X121064916Y-104495687D01*
X120843079Y-104273850D01*
X120834517Y-104263416D01*
X120831060Y-104256950D01*
X120826529Y-104242013D01*
X120817151Y-104219374D01*
X120803537Y-104199000D01*
X120786210Y-104181673D01*
X120765835Y-104168060D01*
X120743200Y-104158684D01*
X120728263Y-104154153D01*
X120721797Y-104150696D01*
X120711363Y-104142134D01*
X120489526Y-103920297D01*
X120480964Y-103909863D01*
X120477507Y-103903397D01*
X120472976Y-103888460D01*
X120463598Y-103865821D01*
X120449984Y-103845447D01*
X120432657Y-103828120D01*
X120412282Y-103814507D01*
X120389647Y-103805131D01*
X120374710Y-103800600D01*
X120368244Y-103797143D01*
X120357810Y-103788581D01*
X120135973Y-103566744D01*
X120127411Y-103556310D01*
X120123954Y-103549843D01*
X120119423Y-103534907D01*
X120110046Y-103512268D01*
X120096432Y-103491894D01*
X120079105Y-103474567D01*
X120058730Y-103460953D01*
X120036093Y-103451577D01*
X120021157Y-103447046D01*
X120014690Y-103443589D01*
X120004256Y-103435027D01*
X119782419Y-103213190D01*
X119773857Y-103202756D01*
X119770400Y-103196290D01*
X119765869Y-103181353D01*
X119756491Y-103158714D01*
X119742877Y-103138340D01*
X119725550Y-103121013D01*
X119705175Y-103107400D01*
X119682540Y-103098024D01*
X119667603Y-103093493D01*
X119661137Y-103090036D01*
X119650703Y-103081474D01*
X119428866Y-102859637D01*
X119420304Y-102849203D01*
X119416847Y-102842737D01*
X119412316Y-102827800D01*
X119402938Y-102805161D01*
X119389324Y-102784787D01*
X119371997Y-102767460D01*
X119351622Y-102753847D01*
X119328987Y-102744471D01*
X119314050Y-102739940D01*
X119307584Y-102736483D01*
X119297150Y-102727921D01*
X119075313Y-102506084D01*
X119066751Y-102495650D01*
X119063294Y-102489183D01*
X119058763Y-102474247D01*
X119049386Y-102451608D01*
X119035772Y-102431234D01*
X119018445Y-102413907D01*
X118998070Y-102400293D01*
X118975433Y-102390917D01*
X118960497Y-102386386D01*
X118954030Y-102382929D01*
X118943596Y-102374367D01*
X118721759Y-102152530D01*
X118713197Y-102142096D01*
X118709740Y-102135630D01*
X118705209Y-102120693D01*
X118695831Y-102098054D01*
X118682217Y-102077680D01*
X118664890Y-102060353D01*
X118644515Y-102046740D01*
X118621880Y-102037364D01*
X118606943Y-102032833D01*
X118600477Y-102029376D01*
X118590043Y-102020814D01*
X118368206Y-101798977D01*
X118359644Y-101788543D01*
X118356187Y-101782076D01*
X118351656Y-101767140D01*
X118342279Y-101744501D01*
X118328665Y-101724127D01*
X118311338Y-101706800D01*
X118290963Y-101693186D01*
X118268326Y-101683810D01*
X118253390Y-101679279D01*
X118246923Y-101675822D01*
X118236489Y-101667260D01*
X118014652Y-101445423D01*
X118006090Y-101434989D01*
X118002633Y-101428523D01*
X118000505Y-101421508D01*
X117999787Y-101414213D01*
X118000505Y-101406918D01*
X118002633Y-101399903D01*
X118006090Y-101393437D01*
X118014652Y-101383003D01*
X119067339Y-100330316D01*
X119077773Y-100321754D01*
X119084239Y-100318297D01*
X119091254Y-100316169D01*
X119098549Y-100315451D01*
X119105844Y-100316169D01*
G37*
G36*
X144018268Y-104403565D02*
G01*
X144056938Y-104415296D01*
X144092577Y-104434346D01*
X144123817Y-104459983D01*
X144149454Y-104491223D01*
X144168504Y-104526862D01*
X144180235Y-104565532D01*
X144184800Y-104611888D01*
X144184800Y-105263112D01*
X144180235Y-105309468D01*
X144168504Y-105348138D01*
X144149454Y-105383777D01*
X144123817Y-105415017D01*
X144092577Y-105440654D01*
X144056938Y-105459704D01*
X144018268Y-105471435D01*
X143971912Y-105476000D01*
X142895688Y-105476000D01*
X142849332Y-105471435D01*
X142810662Y-105459704D01*
X142775023Y-105440654D01*
X142743783Y-105415017D01*
X142718146Y-105383777D01*
X142699096Y-105348138D01*
X142687365Y-105309468D01*
X142682800Y-105263112D01*
X142682800Y-104611888D01*
X142687365Y-104565532D01*
X142699096Y-104526862D01*
X142718146Y-104491223D01*
X142743783Y-104459983D01*
X142775023Y-104434346D01*
X142810662Y-104415296D01*
X142849332Y-104403565D01*
X142895688Y-104399000D01*
X143971912Y-104399000D01*
X144018268Y-104403565D01*
G37*
G36*
X102460000Y-104951000D02*
G01*
X100458000Y-104951000D01*
X100458000Y-102949000D01*
X102460000Y-102949000D01*
X102460000Y-104951000D01*
G37*
G36*
X146773112Y-102905727D02*
G01*
X146922412Y-102935424D01*
X147086384Y-103003344D01*
X147233954Y-103101947D01*
X147359453Y-103227446D01*
X147458056Y-103375016D01*
X147525976Y-103538988D01*
X147560600Y-103713059D01*
X147560600Y-103890541D01*
X147525976Y-104064612D01*
X147458056Y-104228584D01*
X147359453Y-104376154D01*
X147233954Y-104501653D01*
X147086384Y-104600256D01*
X146922412Y-104668176D01*
X146773112Y-104697873D01*
X146748342Y-104702800D01*
X146570858Y-104702800D01*
X146546088Y-104697873D01*
X146396788Y-104668176D01*
X146232816Y-104600256D01*
X146085246Y-104501653D01*
X145959747Y-104376154D01*
X145861144Y-104228584D01*
X145793224Y-104064612D01*
X145758600Y-103890541D01*
X145758600Y-103713059D01*
X145793224Y-103538988D01*
X145861144Y-103375016D01*
X145959747Y-103227446D01*
X146085246Y-103101947D01*
X146232816Y-103003344D01*
X146396788Y-102935424D01*
X146546088Y-102905727D01*
X146570858Y-102900800D01*
X146748342Y-102900800D01*
X146773112Y-102905727D01*
G37*
G36*
X116664200Y-104356800D02*
G01*
X115062200Y-104356800D01*
X115062200Y-102754800D01*
X116664200Y-102754800D01*
X116664200Y-104356800D01*
G37*
G36*
X108864200Y-104356800D02*
G01*
X107262200Y-104356800D01*
X107262200Y-102754800D01*
X108864200Y-102754800D01*
X108864200Y-104356800D01*
G37*
G36*
X144018268Y-102528565D02*
G01*
X144056938Y-102540296D01*
X144092577Y-102559346D01*
X144123817Y-102584983D01*
X144149454Y-102616223D01*
X144168504Y-102651862D01*
X144180235Y-102690532D01*
X144184800Y-102736888D01*
X144184800Y-103388112D01*
X144180235Y-103434468D01*
X144168504Y-103473138D01*
X144149454Y-103508777D01*
X144123817Y-103540017D01*
X144092577Y-103565654D01*
X144056938Y-103584704D01*
X144018268Y-103596435D01*
X143971912Y-103601000D01*
X142895688Y-103601000D01*
X142849332Y-103596435D01*
X142810662Y-103584704D01*
X142775023Y-103565654D01*
X142743783Y-103540017D01*
X142718146Y-103508777D01*
X142699096Y-103473138D01*
X142687365Y-103434468D01*
X142682800Y-103388112D01*
X142682800Y-102736888D01*
X142687365Y-102690532D01*
X142699096Y-102651862D01*
X142718146Y-102616223D01*
X142743783Y-102584983D01*
X142775023Y-102559346D01*
X142810662Y-102540296D01*
X142849332Y-102528565D01*
X142895688Y-102524000D01*
X143971912Y-102524000D01*
X144018268Y-102528565D01*
G37*
G36*
X141230866Y-102055127D02*
G01*
X141284785Y-102071483D01*
X141334467Y-102098039D01*
X141378019Y-102133781D01*
X141413761Y-102177333D01*
X141440317Y-102227015D01*
X141456673Y-102280934D01*
X141462800Y-102343141D01*
X141462800Y-103156859D01*
X141456673Y-103219066D01*
X141440317Y-103272985D01*
X141413761Y-103322667D01*
X141378019Y-103366219D01*
X141334467Y-103401961D01*
X141284785Y-103428517D01*
X141230866Y-103444873D01*
X141168659Y-103451000D01*
X139754941Y-103451000D01*
X139692734Y-103444873D01*
X139638815Y-103428517D01*
X139589133Y-103401961D01*
X139545581Y-103366219D01*
X139509839Y-103322667D01*
X139483283Y-103272985D01*
X139466927Y-103219066D01*
X139460800Y-103156859D01*
X139460800Y-102343141D01*
X139466927Y-102280934D01*
X139483283Y-102227015D01*
X139509839Y-102177333D01*
X139545581Y-102133781D01*
X139589133Y-102098039D01*
X139638815Y-102071483D01*
X139692734Y-102055127D01*
X139754941Y-102049000D01*
X141168659Y-102049000D01*
X141230866Y-102055127D01*
G37*
G36*
X138030866Y-102055127D02*
G01*
X138084785Y-102071483D01*
X138134467Y-102098039D01*
X138178019Y-102133781D01*
X138213761Y-102177333D01*
X138240317Y-102227015D01*
X138256673Y-102280934D01*
X138262800Y-102343141D01*
X138262800Y-103156859D01*
X138256673Y-103219066D01*
X138240317Y-103272985D01*
X138213761Y-103322667D01*
X138178019Y-103366219D01*
X138134467Y-103401961D01*
X138084785Y-103428517D01*
X138030866Y-103444873D01*
X137968659Y-103451000D01*
X136554941Y-103451000D01*
X136492734Y-103444873D01*
X136438815Y-103428517D01*
X136389133Y-103401961D01*
X136345581Y-103366219D01*
X136309839Y-103322667D01*
X136283283Y-103272985D01*
X136266927Y-103219066D01*
X136260800Y-103156859D01*
X136260800Y-102343141D01*
X136266927Y-102280934D01*
X136283283Y-102227015D01*
X136309839Y-102177333D01*
X136345581Y-102133781D01*
X136389133Y-102098039D01*
X136438815Y-102071483D01*
X136492734Y-102055127D01*
X136554941Y-102049000D01*
X137968659Y-102049000D01*
X138030866Y-102055127D01*
G37*
G36*
X133253442Y-101591781D02*
G01*
X133399214Y-101652162D01*
X133399216Y-101652163D01*
X133530408Y-101739822D01*
X133641978Y-101851392D01*
X133715651Y-101961653D01*
X133729638Y-101982586D01*
X133790019Y-102128358D01*
X133820800Y-102283107D01*
X133820800Y-102440893D01*
X133790019Y-102595642D01*
X133729638Y-102741414D01*
X133729637Y-102741416D01*
X133641978Y-102872608D01*
X133530408Y-102984178D01*
X133399216Y-103071837D01*
X133399215Y-103071838D01*
X133399214Y-103071838D01*
X133253442Y-103132219D01*
X133098693Y-103163000D01*
X132940907Y-103163000D01*
X132786158Y-103132219D01*
X132640386Y-103071838D01*
X132640385Y-103071838D01*
X132640384Y-103071837D01*
X132509192Y-102984178D01*
X132397622Y-102872608D01*
X132309963Y-102741416D01*
X132309962Y-102741414D01*
X132249581Y-102595642D01*
X132218800Y-102440893D01*
X132218800Y-102283107D01*
X132249581Y-102128358D01*
X132309962Y-101982586D01*
X132323949Y-101961653D01*
X132397622Y-101851392D01*
X132509192Y-101739822D01*
X132640384Y-101652163D01*
X132640386Y-101652162D01*
X132786158Y-101591781D01*
X132940907Y-101561000D01*
X133098693Y-101561000D01*
X133253442Y-101591781D01*
G37*
G36*
X103704091Y-97686528D02*
G01*
X103763420Y-97711103D01*
X103816810Y-97746777D01*
X103862223Y-97792190D01*
X103897897Y-97845580D01*
X103922472Y-97904909D01*
X103935000Y-97967892D01*
X103935000Y-98032108D01*
X103922472Y-98095091D01*
X103897897Y-98154420D01*
X103862223Y-98207810D01*
X103834420Y-98235613D01*
X103818875Y-98254555D01*
X103807324Y-98276166D01*
X103800211Y-98299615D01*
X103797809Y-98324001D01*
X103800211Y-98348387D01*
X103807324Y-98371836D01*
X103818875Y-98393447D01*
X103834420Y-98412389D01*
X103853362Y-98427934D01*
X103874973Y-98439485D01*
X103898422Y-98446598D01*
X103922808Y-98449000D01*
X105310000Y-98449000D01*
X105310000Y-101551000D01*
X103922808Y-101551000D01*
X103898422Y-101553402D01*
X103874973Y-101560515D01*
X103853362Y-101572066D01*
X103834420Y-101587611D01*
X103818875Y-101606553D01*
X103807324Y-101628164D01*
X103800211Y-101651613D01*
X103797809Y-101675999D01*
X103800211Y-101700385D01*
X103807324Y-101723834D01*
X103818875Y-101745445D01*
X103834420Y-101764387D01*
X103862223Y-101792190D01*
X103897897Y-101845580D01*
X103922472Y-101904909D01*
X103935000Y-101967892D01*
X103935000Y-102032108D01*
X103922472Y-102095091D01*
X103897897Y-102154420D01*
X103862223Y-102207810D01*
X103816810Y-102253223D01*
X103763420Y-102288897D01*
X103706027Y-102312670D01*
X103704091Y-102313472D01*
X103641108Y-102326000D01*
X103576892Y-102326000D01*
X103513909Y-102313472D01*
X103511973Y-102312670D01*
X103454580Y-102288897D01*
X103401190Y-102253223D01*
X103355777Y-102207810D01*
X103320103Y-102154420D01*
X103295528Y-102095091D01*
X103283000Y-102032108D01*
X103283000Y-101967892D01*
X103295528Y-101904909D01*
X103320103Y-101845580D01*
X103355777Y-101792190D01*
X103383580Y-101764387D01*
X103399125Y-101745445D01*
X103410676Y-101723834D01*
X103417789Y-101700385D01*
X103420191Y-101675999D01*
X103417789Y-101651613D01*
X103410676Y-101628164D01*
X103408000Y-101623157D01*
X103408000Y-98376843D01*
X103410676Y-98371836D01*
X103417789Y-98348387D01*
X103420191Y-98324001D01*
X103417789Y-98299615D01*
X103410676Y-98276166D01*
X103399125Y-98254555D01*
X103383580Y-98235613D01*
X103355777Y-98207810D01*
X103320103Y-98154420D01*
X103295528Y-98095091D01*
X103283000Y-98032108D01*
X103283000Y-97967892D01*
X103295528Y-97904909D01*
X103320103Y-97845580D01*
X103355777Y-97792190D01*
X103401190Y-97746777D01*
X103454580Y-97711103D01*
X103513909Y-97686528D01*
X103576892Y-97674000D01*
X103641108Y-97674000D01*
X103704091Y-97686528D01*
G37*
G36*
X102460000Y-102201000D02*
G01*
X100458000Y-102201000D01*
X100458000Y-100199000D01*
X102460000Y-100199000D01*
X102460000Y-102201000D01*
G37*
G36*
X146773112Y-100365727D02*
G01*
X146922412Y-100395424D01*
X147086384Y-100463344D01*
X147233954Y-100561947D01*
X147359453Y-100687446D01*
X147458056Y-100835016D01*
X147525976Y-100998988D01*
X147541548Y-101077277D01*
X147560600Y-101173058D01*
X147560600Y-101350542D01*
X147557714Y-101365050D01*
X147525976Y-101524612D01*
X147458056Y-101688584D01*
X147359453Y-101836154D01*
X147233954Y-101961653D01*
X147086384Y-102060256D01*
X146922412Y-102128176D01*
X146773112Y-102157873D01*
X146748342Y-102162800D01*
X146570858Y-102162800D01*
X146546088Y-102157873D01*
X146396788Y-102128176D01*
X146232816Y-102060256D01*
X146085246Y-101961653D01*
X145959747Y-101836154D01*
X145861144Y-101688584D01*
X145793224Y-101524612D01*
X145761486Y-101365050D01*
X145758600Y-101350542D01*
X145758600Y-101173058D01*
X145777652Y-101077277D01*
X145793224Y-100998988D01*
X145861144Y-100835016D01*
X145959747Y-100687446D01*
X146085246Y-100561947D01*
X146232816Y-100463344D01*
X146396788Y-100395424D01*
X146546088Y-100365727D01*
X146570858Y-100360800D01*
X146748342Y-100360800D01*
X146773112Y-100365727D01*
G37*
G36*
X102460000Y-99801000D02*
G01*
X100458000Y-99801000D01*
X100458000Y-97799000D01*
X102460000Y-97799000D01*
X102460000Y-99801000D01*
G37*
G36*
X114663429Y-97934515D02*
G01*
X114816812Y-97965024D01*
X114980784Y-98032944D01*
X115128354Y-98131547D01*
X115253853Y-98257046D01*
X115352456Y-98404616D01*
X115420376Y-98568588D01*
X115443783Y-98686266D01*
X115455000Y-98742658D01*
X115455000Y-98920142D01*
X115452000Y-98935222D01*
X115420376Y-99094212D01*
X115352456Y-99258184D01*
X115253853Y-99405754D01*
X115128354Y-99531253D01*
X114980784Y-99629856D01*
X114816812Y-99697776D01*
X114667512Y-99727473D01*
X114642742Y-99732400D01*
X114465258Y-99732400D01*
X114440488Y-99727473D01*
X114291188Y-99697776D01*
X114127216Y-99629856D01*
X113979646Y-99531253D01*
X113854147Y-99405754D01*
X113755544Y-99258184D01*
X113687624Y-99094212D01*
X113656000Y-98935222D01*
X113653000Y-98920142D01*
X113653000Y-98742658D01*
X113664217Y-98686266D01*
X113687624Y-98568588D01*
X113755544Y-98404616D01*
X113854147Y-98257046D01*
X113979646Y-98131547D01*
X114127216Y-98032944D01*
X114291188Y-97965024D01*
X114444571Y-97934515D01*
X114465258Y-97930400D01*
X114642742Y-97930400D01*
X114663429Y-97934515D01*
G37*
G36*
X112123429Y-97934515D02*
G01*
X112276812Y-97965024D01*
X112440784Y-98032944D01*
X112588354Y-98131547D01*
X112713853Y-98257046D01*
X112812456Y-98404616D01*
X112880376Y-98568588D01*
X112903783Y-98686266D01*
X112915000Y-98742658D01*
X112915000Y-98920142D01*
X112912000Y-98935222D01*
X112880376Y-99094212D01*
X112812456Y-99258184D01*
X112713853Y-99405754D01*
X112588354Y-99531253D01*
X112440784Y-99629856D01*
X112276812Y-99697776D01*
X112127512Y-99727473D01*
X112102742Y-99732400D01*
X111925258Y-99732400D01*
X111900488Y-99727473D01*
X111751188Y-99697776D01*
X111587216Y-99629856D01*
X111439646Y-99531253D01*
X111314147Y-99405754D01*
X111215544Y-99258184D01*
X111147624Y-99094212D01*
X111116000Y-98935222D01*
X111113000Y-98920142D01*
X111113000Y-98742658D01*
X111124217Y-98686266D01*
X111147624Y-98568588D01*
X111215544Y-98404616D01*
X111314147Y-98257046D01*
X111439646Y-98131547D01*
X111587216Y-98032944D01*
X111751188Y-97965024D01*
X111904571Y-97934515D01*
X111925258Y-97930400D01*
X112102742Y-97930400D01*
X112123429Y-97934515D01*
G37*
G36*
X109583429Y-97934515D02*
G01*
X109736812Y-97965024D01*
X109900784Y-98032944D01*
X110048354Y-98131547D01*
X110173853Y-98257046D01*
X110272456Y-98404616D01*
X110340376Y-98568588D01*
X110363783Y-98686266D01*
X110375000Y-98742658D01*
X110375000Y-98920142D01*
X110372000Y-98935222D01*
X110340376Y-99094212D01*
X110272456Y-99258184D01*
X110173853Y-99405754D01*
X110048354Y-99531253D01*
X109900784Y-99629856D01*
X109736812Y-99697776D01*
X109587512Y-99727473D01*
X109562742Y-99732400D01*
X109385258Y-99732400D01*
X109360488Y-99727473D01*
X109211188Y-99697776D01*
X109047216Y-99629856D01*
X108899646Y-99531253D01*
X108774147Y-99405754D01*
X108675544Y-99258184D01*
X108607624Y-99094212D01*
X108576000Y-98935222D01*
X108573000Y-98920142D01*
X108573000Y-98742658D01*
X108584217Y-98686266D01*
X108607624Y-98568588D01*
X108675544Y-98404616D01*
X108774147Y-98257046D01*
X108899646Y-98131547D01*
X109047216Y-98032944D01*
X109211188Y-97965024D01*
X109364571Y-97934515D01*
X109385258Y-97930400D01*
X109562742Y-97930400D01*
X109583429Y-97934515D01*
G37*
G36*
X122164082Y-94429505D02*
G01*
X122171097Y-94431633D01*
X122177563Y-94435090D01*
X122187997Y-94443652D01*
X123240684Y-95496339D01*
X123249246Y-95506773D01*
X123252703Y-95513239D01*
X123254831Y-95520254D01*
X123255549Y-95527549D01*
X123254831Y-95534844D01*
X123252703Y-95541859D01*
X123249246Y-95548325D01*
X123240684Y-95558759D01*
X123018847Y-95780596D01*
X123008413Y-95789158D01*
X123001946Y-95792615D01*
X122987010Y-95797146D01*
X122964371Y-95806523D01*
X122943997Y-95820137D01*
X122926670Y-95837464D01*
X122913056Y-95857839D01*
X122903680Y-95880476D01*
X122899149Y-95895412D01*
X122895692Y-95901879D01*
X122887130Y-95912313D01*
X122665293Y-96134150D01*
X122654859Y-96142712D01*
X122648393Y-96146169D01*
X122633456Y-96150700D01*
X122610817Y-96160078D01*
X122590443Y-96173692D01*
X122573116Y-96191019D01*
X122559503Y-96211394D01*
X122550127Y-96234029D01*
X122545596Y-96248966D01*
X122542139Y-96255432D01*
X122533577Y-96265866D01*
X122311740Y-96487703D01*
X122301306Y-96496265D01*
X122294839Y-96499722D01*
X122279903Y-96504253D01*
X122257264Y-96513630D01*
X122236890Y-96527244D01*
X122219563Y-96544571D01*
X122205949Y-96564946D01*
X122196573Y-96587583D01*
X122192042Y-96602519D01*
X122188585Y-96608986D01*
X122180023Y-96619420D01*
X121958186Y-96841257D01*
X121947752Y-96849819D01*
X121941286Y-96853276D01*
X121926349Y-96857807D01*
X121903710Y-96867185D01*
X121883336Y-96880799D01*
X121866009Y-96898126D01*
X121852396Y-96918501D01*
X121843020Y-96941136D01*
X121838489Y-96956073D01*
X121835032Y-96962539D01*
X121826470Y-96972973D01*
X121604633Y-97194810D01*
X121594199Y-97203372D01*
X121587733Y-97206829D01*
X121572796Y-97211360D01*
X121550157Y-97220738D01*
X121529783Y-97234352D01*
X121512456Y-97251679D01*
X121498843Y-97272054D01*
X121489467Y-97294689D01*
X121484936Y-97309626D01*
X121481479Y-97316092D01*
X121472917Y-97326526D01*
X121251080Y-97548363D01*
X121240646Y-97556925D01*
X121234179Y-97560382D01*
X121219243Y-97564913D01*
X121196604Y-97574290D01*
X121176230Y-97587904D01*
X121158903Y-97605231D01*
X121145289Y-97625606D01*
X121135913Y-97648243D01*
X121131382Y-97663179D01*
X121127925Y-97669646D01*
X121119363Y-97680080D01*
X120897526Y-97901917D01*
X120887092Y-97910479D01*
X120880626Y-97913936D01*
X120865689Y-97918467D01*
X120843050Y-97927845D01*
X120822676Y-97941459D01*
X120805349Y-97958786D01*
X120791736Y-97979161D01*
X120782360Y-98001796D01*
X120777829Y-98016733D01*
X120774372Y-98023199D01*
X120765810Y-98033633D01*
X120543973Y-98255470D01*
X120533539Y-98264032D01*
X120527073Y-98267489D01*
X120512136Y-98272020D01*
X120489497Y-98281398D01*
X120469123Y-98295012D01*
X120451796Y-98312339D01*
X120438183Y-98332714D01*
X120428807Y-98355349D01*
X120424276Y-98370286D01*
X120420819Y-98376752D01*
X120412257Y-98387186D01*
X120190420Y-98609023D01*
X120179986Y-98617585D01*
X120173519Y-98621042D01*
X120158583Y-98625573D01*
X120135944Y-98634950D01*
X120115570Y-98648564D01*
X120098243Y-98665891D01*
X120084629Y-98686266D01*
X120075253Y-98708903D01*
X120070722Y-98723839D01*
X120067265Y-98730306D01*
X120058703Y-98740740D01*
X119836866Y-98962577D01*
X119826432Y-98971139D01*
X119819966Y-98974596D01*
X119805029Y-98979127D01*
X119782390Y-98988505D01*
X119762016Y-99002119D01*
X119744689Y-99019446D01*
X119731076Y-99039821D01*
X119721700Y-99062456D01*
X119717169Y-99077393D01*
X119713712Y-99083859D01*
X119705150Y-99094293D01*
X119483313Y-99316130D01*
X119472879Y-99324692D01*
X119466412Y-99328149D01*
X119451476Y-99332680D01*
X119428837Y-99342057D01*
X119408463Y-99355671D01*
X119391136Y-99372998D01*
X119377522Y-99393373D01*
X119368146Y-99416010D01*
X119363615Y-99430946D01*
X119360158Y-99437413D01*
X119351596Y-99447847D01*
X119129759Y-99669684D01*
X119119325Y-99678246D01*
X119112859Y-99681703D01*
X119105844Y-99683831D01*
X119098549Y-99684549D01*
X119091254Y-99683831D01*
X119084239Y-99681703D01*
X119077773Y-99678246D01*
X119067339Y-99669684D01*
X118014652Y-98616997D01*
X118006090Y-98606563D01*
X118002633Y-98600097D01*
X118000505Y-98593082D01*
X117999787Y-98585787D01*
X118000505Y-98578492D01*
X118002633Y-98571477D01*
X118006090Y-98565011D01*
X118014652Y-98554577D01*
X118236489Y-98332740D01*
X118246923Y-98324178D01*
X118253390Y-98320721D01*
X118268326Y-98316190D01*
X118290965Y-98306813D01*
X118311339Y-98293199D01*
X118328666Y-98275872D01*
X118342280Y-98255497D01*
X118351656Y-98232860D01*
X118356187Y-98217924D01*
X118359644Y-98211457D01*
X118368206Y-98201023D01*
X118590043Y-97979186D01*
X118600477Y-97970624D01*
X118606943Y-97967167D01*
X118621880Y-97962636D01*
X118644519Y-97953258D01*
X118664893Y-97939644D01*
X118682220Y-97922317D01*
X118695833Y-97901942D01*
X118705209Y-97879307D01*
X118709740Y-97864370D01*
X118713197Y-97857904D01*
X118721759Y-97847470D01*
X118943596Y-97625633D01*
X118954030Y-97617071D01*
X118960497Y-97613614D01*
X118975433Y-97609083D01*
X118998072Y-97599706D01*
X119018446Y-97586092D01*
X119035773Y-97568765D01*
X119049387Y-97548390D01*
X119058763Y-97525753D01*
X119063294Y-97510817D01*
X119066751Y-97504350D01*
X119075313Y-97493916D01*
X119297150Y-97272079D01*
X119307584Y-97263517D01*
X119314050Y-97260060D01*
X119328987Y-97255529D01*
X119351626Y-97246151D01*
X119372000Y-97232537D01*
X119389327Y-97215210D01*
X119402940Y-97194835D01*
X119412316Y-97172200D01*
X119416847Y-97157263D01*
X119420304Y-97150797D01*
X119428866Y-97140363D01*
X119650703Y-96918526D01*
X119661137Y-96909964D01*
X119667603Y-96906507D01*
X119682540Y-96901976D01*
X119705179Y-96892598D01*
X119725553Y-96878984D01*
X119742880Y-96861657D01*
X119756493Y-96841282D01*
X119765869Y-96818647D01*
X119770400Y-96803710D01*
X119773857Y-96797244D01*
X119782419Y-96786810D01*
X120004256Y-96564973D01*
X120014690Y-96556411D01*
X120021157Y-96552954D01*
X120036093Y-96548423D01*
X120058732Y-96539046D01*
X120079106Y-96525432D01*
X120096433Y-96508105D01*
X120110047Y-96487730D01*
X120119423Y-96465093D01*
X120123954Y-96450157D01*
X120127411Y-96443690D01*
X120135973Y-96433256D01*
X120357810Y-96211419D01*
X120368244Y-96202857D01*
X120374710Y-96199400D01*
X120389647Y-96194869D01*
X120412286Y-96185491D01*
X120432660Y-96171877D01*
X120449987Y-96154550D01*
X120463600Y-96134175D01*
X120472976Y-96111540D01*
X120477507Y-96096603D01*
X120480964Y-96090137D01*
X120489526Y-96079703D01*
X120711363Y-95857866D01*
X120721797Y-95849304D01*
X120728263Y-95845847D01*
X120743200Y-95841316D01*
X120765839Y-95831938D01*
X120786213Y-95818324D01*
X120803540Y-95800997D01*
X120817153Y-95780622D01*
X120826529Y-95757987D01*
X120831060Y-95743050D01*
X120834517Y-95736584D01*
X120843079Y-95726150D01*
X121064916Y-95504313D01*
X121075350Y-95495751D01*
X121081817Y-95492294D01*
X121096753Y-95487763D01*
X121119392Y-95478386D01*
X121139766Y-95464772D01*
X121157093Y-95447445D01*
X121170707Y-95427070D01*
X121180083Y-95404433D01*
X121184614Y-95389497D01*
X121188071Y-95383030D01*
X121196633Y-95372596D01*
X121418470Y-95150759D01*
X121428904Y-95142197D01*
X121435370Y-95138740D01*
X121450307Y-95134209D01*
X121472946Y-95124831D01*
X121493320Y-95111217D01*
X121510647Y-95093890D01*
X121524260Y-95073515D01*
X121533636Y-95050880D01*
X121538167Y-95035943D01*
X121541624Y-95029477D01*
X121550186Y-95019043D01*
X121772023Y-94797206D01*
X121782457Y-94788644D01*
X121788924Y-94785187D01*
X121803860Y-94780656D01*
X121826499Y-94771279D01*
X121846873Y-94757665D01*
X121864200Y-94740338D01*
X121877814Y-94719963D01*
X121887190Y-94697326D01*
X121891721Y-94682390D01*
X121895178Y-94675923D01*
X121903740Y-94665489D01*
X122125577Y-94443652D01*
X122136011Y-94435090D01*
X122142477Y-94431633D01*
X122149492Y-94429505D01*
X122156787Y-94428787D01*
X122164082Y-94429505D01*
G37*
G36*
X124992508Y-94429505D02*
G01*
X124999523Y-94431633D01*
X125005989Y-94435090D01*
X125016423Y-94443652D01*
X125238260Y-94665489D01*
X125246822Y-94675923D01*
X125250279Y-94682390D01*
X125254810Y-94697326D01*
X125264187Y-94719965D01*
X125277801Y-94740339D01*
X125295128Y-94757666D01*
X125315503Y-94771280D01*
X125338140Y-94780656D01*
X125353076Y-94785187D01*
X125359543Y-94788644D01*
X125369977Y-94797206D01*
X125591814Y-95019043D01*
X125600376Y-95029477D01*
X125603833Y-95035943D01*
X125608364Y-95050880D01*
X125617742Y-95073519D01*
X125631356Y-95093893D01*
X125648683Y-95111220D01*
X125669058Y-95124833D01*
X125691693Y-95134209D01*
X125706630Y-95138740D01*
X125713096Y-95142197D01*
X125723530Y-95150759D01*
X125945367Y-95372596D01*
X125953929Y-95383030D01*
X125957386Y-95389497D01*
X125961917Y-95404433D01*
X125971294Y-95427072D01*
X125984908Y-95447446D01*
X126002235Y-95464773D01*
X126022610Y-95478387D01*
X126045247Y-95487763D01*
X126060183Y-95492294D01*
X126066650Y-95495751D01*
X126077084Y-95504313D01*
X126298921Y-95726150D01*
X126307483Y-95736584D01*
X126310940Y-95743050D01*
X126315471Y-95757987D01*
X126324849Y-95780626D01*
X126338463Y-95801000D01*
X126355790Y-95818327D01*
X126376165Y-95831940D01*
X126398800Y-95841316D01*
X126413737Y-95845847D01*
X126420203Y-95849304D01*
X126430637Y-95857866D01*
X126652474Y-96079703D01*
X126661036Y-96090137D01*
X126664493Y-96096603D01*
X126669024Y-96111540D01*
X126678402Y-96134179D01*
X126692016Y-96154553D01*
X126709343Y-96171880D01*
X126729718Y-96185493D01*
X126752353Y-96194869D01*
X126767290Y-96199400D01*
X126773756Y-96202857D01*
X126784190Y-96211419D01*
X127006027Y-96433256D01*
X127014589Y-96443690D01*
X127018046Y-96450157D01*
X127022577Y-96465093D01*
X127031954Y-96487732D01*
X127045568Y-96508106D01*
X127062895Y-96525433D01*
X127083270Y-96539047D01*
X127105907Y-96548423D01*
X127120843Y-96552954D01*
X127127310Y-96556411D01*
X127137744Y-96564973D01*
X127359581Y-96786810D01*
X127368143Y-96797244D01*
X127371600Y-96803710D01*
X127376131Y-96818647D01*
X127385509Y-96841286D01*
X127399123Y-96861660D01*
X127416450Y-96878987D01*
X127436825Y-96892600D01*
X127459460Y-96901976D01*
X127474397Y-96906507D01*
X127480863Y-96909964D01*
X127491297Y-96918526D01*
X127713134Y-97140363D01*
X127721696Y-97150797D01*
X127725153Y-97157263D01*
X127729684Y-97172200D01*
X127739062Y-97194839D01*
X127752676Y-97215213D01*
X127770003Y-97232540D01*
X127790378Y-97246153D01*
X127813013Y-97255529D01*
X127827950Y-97260060D01*
X127834416Y-97263517D01*
X127844850Y-97272079D01*
X128066687Y-97493916D01*
X128075249Y-97504350D01*
X128078706Y-97510817D01*
X128083237Y-97525753D01*
X128092614Y-97548392D01*
X128106228Y-97568766D01*
X128123555Y-97586093D01*
X128143930Y-97599707D01*
X128166567Y-97609083D01*
X128181503Y-97613614D01*
X128187970Y-97617071D01*
X128198404Y-97625633D01*
X128420241Y-97847470D01*
X128428803Y-97857904D01*
X128432260Y-97864370D01*
X128436791Y-97879307D01*
X128446169Y-97901946D01*
X128459783Y-97922320D01*
X128477110Y-97939647D01*
X128497485Y-97953260D01*
X128520120Y-97962636D01*
X128535057Y-97967167D01*
X128541523Y-97970624D01*
X128551957Y-97979186D01*
X128773794Y-98201023D01*
X128782356Y-98211457D01*
X128785813Y-98217924D01*
X128790344Y-98232860D01*
X128799721Y-98255499D01*
X128813335Y-98275873D01*
X128830662Y-98293200D01*
X128851037Y-98306814D01*
X128873674Y-98316190D01*
X128888610Y-98320721D01*
X128895077Y-98324178D01*
X128905511Y-98332740D01*
X129127348Y-98554577D01*
X129135910Y-98565011D01*
X129139367Y-98571477D01*
X129141495Y-98578492D01*
X129142213Y-98585787D01*
X129141495Y-98593082D01*
X129139367Y-98600097D01*
X129135910Y-98606563D01*
X129127348Y-98616997D01*
X128074661Y-99669684D01*
X128064227Y-99678246D01*
X128057761Y-99681703D01*
X128050746Y-99683831D01*
X128043451Y-99684549D01*
X128036156Y-99683831D01*
X128029141Y-99681703D01*
X128022675Y-99678246D01*
X128012241Y-99669684D01*
X127790404Y-99447847D01*
X127781842Y-99437413D01*
X127778385Y-99430946D01*
X127773854Y-99416010D01*
X127764477Y-99393371D01*
X127750863Y-99372997D01*
X127733536Y-99355670D01*
X127713161Y-99342056D01*
X127690524Y-99332680D01*
X127675588Y-99328149D01*
X127669121Y-99324692D01*
X127658687Y-99316130D01*
X127436850Y-99094293D01*
X127428288Y-99083859D01*
X127424831Y-99077393D01*
X127420300Y-99062456D01*
X127410922Y-99039817D01*
X127397308Y-99019443D01*
X127379981Y-99002116D01*
X127359606Y-98988503D01*
X127336971Y-98979127D01*
X127322034Y-98974596D01*
X127315568Y-98971139D01*
X127305134Y-98962577D01*
X127083297Y-98740740D01*
X127074735Y-98730306D01*
X127071278Y-98723839D01*
X127066747Y-98708903D01*
X127057370Y-98686264D01*
X127043756Y-98665890D01*
X127026429Y-98648563D01*
X127006054Y-98634949D01*
X126983417Y-98625573D01*
X126968481Y-98621042D01*
X126962014Y-98617585D01*
X126951580Y-98609023D01*
X126729743Y-98387186D01*
X126721181Y-98376752D01*
X126717724Y-98370286D01*
X126713193Y-98355349D01*
X126703815Y-98332710D01*
X126690201Y-98312336D01*
X126672874Y-98295009D01*
X126652499Y-98281396D01*
X126629864Y-98272020D01*
X126614927Y-98267489D01*
X126608461Y-98264032D01*
X126598027Y-98255470D01*
X126376190Y-98033633D01*
X126367628Y-98023199D01*
X126364171Y-98016733D01*
X126359640Y-98001796D01*
X126350262Y-97979157D01*
X126336648Y-97958783D01*
X126319321Y-97941456D01*
X126298946Y-97927843D01*
X126276311Y-97918467D01*
X126261374Y-97913936D01*
X126254908Y-97910479D01*
X126244474Y-97901917D01*
X126022637Y-97680080D01*
X126014075Y-97669646D01*
X126010618Y-97663179D01*
X126006087Y-97648243D01*
X125996710Y-97625604D01*
X125983096Y-97605230D01*
X125965769Y-97587903D01*
X125945394Y-97574289D01*
X125922757Y-97564913D01*
X125907821Y-97560382D01*
X125901354Y-97556925D01*
X125890920Y-97548363D01*
X125669083Y-97326526D01*
X125660521Y-97316092D01*
X125657064Y-97309626D01*
X125652533Y-97294689D01*
X125643155Y-97272050D01*
X125629541Y-97251676D01*
X125612214Y-97234349D01*
X125591839Y-97220736D01*
X125569204Y-97211360D01*
X125554267Y-97206829D01*
X125547801Y-97203372D01*
X125537367Y-97194810D01*
X125315530Y-96972973D01*
X125306968Y-96962539D01*
X125303511Y-96956073D01*
X125298980Y-96941136D01*
X125289602Y-96918497D01*
X125275988Y-96898123D01*
X125258661Y-96880796D01*
X125238286Y-96867183D01*
X125215651Y-96857807D01*
X125200714Y-96853276D01*
X125194248Y-96849819D01*
X125183814Y-96841257D01*
X124961977Y-96619420D01*
X124953415Y-96608986D01*
X124949958Y-96602519D01*
X124945427Y-96587583D01*
X124936050Y-96564944D01*
X124922436Y-96544570D01*
X124905109Y-96527243D01*
X124884734Y-96513629D01*
X124862097Y-96504253D01*
X124847161Y-96499722D01*
X124840694Y-96496265D01*
X124830260Y-96487703D01*
X124608423Y-96265866D01*
X124599861Y-96255432D01*
X124596404Y-96248966D01*
X124591873Y-96234029D01*
X124582495Y-96211390D01*
X124568881Y-96191016D01*
X124551554Y-96173689D01*
X124531179Y-96160076D01*
X124508544Y-96150700D01*
X124493607Y-96146169D01*
X124487141Y-96142712D01*
X124476707Y-96134150D01*
X124254870Y-95912313D01*
X124246308Y-95901879D01*
X124242851Y-95895412D01*
X124238320Y-95880476D01*
X124228943Y-95857837D01*
X124215329Y-95837463D01*
X124198002Y-95820136D01*
X124177627Y-95806522D01*
X124154990Y-95797146D01*
X124140054Y-95792615D01*
X124133587Y-95789158D01*
X124123153Y-95780596D01*
X123901316Y-95558759D01*
X123892754Y-95548325D01*
X123889297Y-95541859D01*
X123887169Y-95534844D01*
X123886451Y-95527549D01*
X123887169Y-95520254D01*
X123889297Y-95513239D01*
X123892754Y-95506773D01*
X123901316Y-95496339D01*
X124954003Y-94443652D01*
X124964437Y-94435090D01*
X124970903Y-94431633D01*
X124977918Y-94429505D01*
X124985213Y-94428787D01*
X124992508Y-94429505D01*
G37*
G36*
X146773112Y-97825727D02*
G01*
X146922412Y-97855424D01*
X147086384Y-97923344D01*
X147233954Y-98021947D01*
X147359453Y-98147446D01*
X147458056Y-98295016D01*
X147525976Y-98458988D01*
X147560600Y-98633059D01*
X147560600Y-98810541D01*
X147525976Y-98984612D01*
X147458056Y-99148584D01*
X147359453Y-99296154D01*
X147233954Y-99421653D01*
X147086384Y-99520256D01*
X146922412Y-99588176D01*
X146773112Y-99617873D01*
X146748342Y-99622800D01*
X146570858Y-99622800D01*
X146546088Y-99617873D01*
X146396788Y-99588176D01*
X146232816Y-99520256D01*
X146085246Y-99421653D01*
X145959747Y-99296154D01*
X145861144Y-99148584D01*
X145793224Y-98984612D01*
X145758600Y-98810541D01*
X145758600Y-98633059D01*
X145793224Y-98458988D01*
X145861144Y-98295016D01*
X145959747Y-98147446D01*
X146085246Y-98021947D01*
X146232816Y-97923344D01*
X146396788Y-97855424D01*
X146546088Y-97825727D01*
X146570858Y-97820800D01*
X146748342Y-97820800D01*
X146773112Y-97825727D01*
G37*
G36*
X133253442Y-96711781D02*
G01*
X133375127Y-96762185D01*
X133399216Y-96772163D01*
X133530408Y-96859822D01*
X133641978Y-96971392D01*
X133729637Y-97102584D01*
X133729638Y-97102586D01*
X133790019Y-97248358D01*
X133820800Y-97403107D01*
X133820800Y-97560893D01*
X133790019Y-97715642D01*
X133729638Y-97861414D01*
X133729637Y-97861416D01*
X133641978Y-97992608D01*
X133530408Y-98104178D01*
X133399216Y-98191837D01*
X133399215Y-98191838D01*
X133399214Y-98191838D01*
X133253442Y-98252219D01*
X133098693Y-98283000D01*
X132940907Y-98283000D01*
X132786158Y-98252219D01*
X132640386Y-98191838D01*
X132640385Y-98191838D01*
X132640384Y-98191837D01*
X132509192Y-98104178D01*
X132397622Y-97992608D01*
X132309963Y-97861416D01*
X132309962Y-97861414D01*
X132249581Y-97715642D01*
X132218800Y-97560893D01*
X132218800Y-97403107D01*
X132249581Y-97248358D01*
X132309962Y-97102586D01*
X132309963Y-97102584D01*
X132397622Y-96971392D01*
X132509192Y-96859822D01*
X132640384Y-96772163D01*
X132664473Y-96762185D01*
X132786158Y-96711781D01*
X132940907Y-96681000D01*
X133098693Y-96681000D01*
X133253442Y-96711781D01*
G37*
G36*
X141230866Y-96555127D02*
G01*
X141284785Y-96571483D01*
X141334467Y-96598039D01*
X141378019Y-96633781D01*
X141413761Y-96677333D01*
X141440317Y-96727015D01*
X141456673Y-96780934D01*
X141462800Y-96843141D01*
X141462800Y-97656859D01*
X141456673Y-97719066D01*
X141440317Y-97772985D01*
X141413761Y-97822667D01*
X141378019Y-97866219D01*
X141334467Y-97901961D01*
X141284785Y-97928517D01*
X141230866Y-97944873D01*
X141168659Y-97951000D01*
X139754941Y-97951000D01*
X139692734Y-97944873D01*
X139638815Y-97928517D01*
X139589133Y-97901961D01*
X139545581Y-97866219D01*
X139509839Y-97822667D01*
X139483283Y-97772985D01*
X139466927Y-97719066D01*
X139460800Y-97656859D01*
X139460800Y-96843141D01*
X139466927Y-96780934D01*
X139483283Y-96727015D01*
X139509839Y-96677333D01*
X139545581Y-96633781D01*
X139589133Y-96598039D01*
X139638815Y-96571483D01*
X139692734Y-96555127D01*
X139754941Y-96549000D01*
X141168659Y-96549000D01*
X141230866Y-96555127D01*
G37*
G36*
X138030866Y-96555127D02*
G01*
X138084785Y-96571483D01*
X138134467Y-96598039D01*
X138178019Y-96633781D01*
X138213761Y-96677333D01*
X138240317Y-96727015D01*
X138256673Y-96780934D01*
X138262800Y-96843141D01*
X138262800Y-97656859D01*
X138256673Y-97719066D01*
X138240317Y-97772985D01*
X138213761Y-97822667D01*
X138178019Y-97866219D01*
X138134467Y-97901961D01*
X138084785Y-97928517D01*
X138030866Y-97944873D01*
X137968659Y-97951000D01*
X136554941Y-97951000D01*
X136492734Y-97944873D01*
X136438815Y-97928517D01*
X136389133Y-97901961D01*
X136345581Y-97866219D01*
X136309839Y-97822667D01*
X136283283Y-97772985D01*
X136266927Y-97719066D01*
X136260800Y-97656859D01*
X136260800Y-96843141D01*
X136266927Y-96780934D01*
X136283283Y-96727015D01*
X136309839Y-96677333D01*
X136345581Y-96633781D01*
X136389133Y-96598039D01*
X136438815Y-96571483D01*
X136492734Y-96555127D01*
X136554941Y-96549000D01*
X137968659Y-96549000D01*
X138030866Y-96555127D01*
G37*
G36*
X144018268Y-96403565D02*
G01*
X144056938Y-96415296D01*
X144092577Y-96434346D01*
X144123817Y-96459983D01*
X144149454Y-96491223D01*
X144168504Y-96526862D01*
X144180235Y-96565532D01*
X144184800Y-96611888D01*
X144184800Y-97263112D01*
X144180235Y-97309468D01*
X144168504Y-97348138D01*
X144149454Y-97383777D01*
X144123817Y-97415017D01*
X144092577Y-97440654D01*
X144056938Y-97459704D01*
X144018268Y-97471435D01*
X143971912Y-97476000D01*
X142895688Y-97476000D01*
X142849332Y-97471435D01*
X142810662Y-97459704D01*
X142775023Y-97440654D01*
X142743783Y-97415017D01*
X142718146Y-97383777D01*
X142699096Y-97348138D01*
X142687365Y-97309468D01*
X142682800Y-97263112D01*
X142682800Y-96611888D01*
X142687365Y-96565532D01*
X142699096Y-96526862D01*
X142718146Y-96491223D01*
X142743783Y-96459983D01*
X142775023Y-96434346D01*
X142810662Y-96415296D01*
X142849332Y-96403565D01*
X142895688Y-96399000D01*
X143971912Y-96399000D01*
X144018268Y-96403565D01*
G37*
G36*
X115455000Y-97192400D02*
G01*
X113653000Y-97192400D01*
X113653000Y-95390400D01*
X115455000Y-95390400D01*
X115455000Y-97192400D01*
G37*
G36*
X112127512Y-95395327D02*
G01*
X112276812Y-95425024D01*
X112440784Y-95492944D01*
X112588354Y-95591547D01*
X112713853Y-95717046D01*
X112812456Y-95864616D01*
X112880376Y-96028588D01*
X112904401Y-96149373D01*
X112913715Y-96196196D01*
X112915000Y-96202659D01*
X112915000Y-96380141D01*
X112880376Y-96554212D01*
X112812456Y-96718184D01*
X112713853Y-96865754D01*
X112588354Y-96991253D01*
X112440784Y-97089856D01*
X112276812Y-97157776D01*
X112127512Y-97187473D01*
X112102742Y-97192400D01*
X111925258Y-97192400D01*
X111900488Y-97187473D01*
X111751188Y-97157776D01*
X111587216Y-97089856D01*
X111439646Y-96991253D01*
X111314147Y-96865754D01*
X111215544Y-96718184D01*
X111147624Y-96554212D01*
X111113000Y-96380141D01*
X111113000Y-96202659D01*
X111114286Y-96196196D01*
X111123599Y-96149373D01*
X111147624Y-96028588D01*
X111215544Y-95864616D01*
X111314147Y-95717046D01*
X111439646Y-95591547D01*
X111587216Y-95492944D01*
X111751188Y-95425024D01*
X111900488Y-95395327D01*
X111925258Y-95390400D01*
X112102742Y-95390400D01*
X112127512Y-95395327D01*
G37*
G36*
X109587512Y-95395327D02*
G01*
X109736812Y-95425024D01*
X109900784Y-95492944D01*
X110048354Y-95591547D01*
X110173853Y-95717046D01*
X110272456Y-95864616D01*
X110340376Y-96028588D01*
X110364401Y-96149373D01*
X110373715Y-96196196D01*
X110375000Y-96202659D01*
X110375000Y-96380141D01*
X110340376Y-96554212D01*
X110272456Y-96718184D01*
X110173853Y-96865754D01*
X110048354Y-96991253D01*
X109900784Y-97089856D01*
X109736812Y-97157776D01*
X109587512Y-97187473D01*
X109562742Y-97192400D01*
X109385258Y-97192400D01*
X109360488Y-97187473D01*
X109211188Y-97157776D01*
X109047216Y-97089856D01*
X108899646Y-96991253D01*
X108774147Y-96865754D01*
X108675544Y-96718184D01*
X108607624Y-96554212D01*
X108573000Y-96380141D01*
X108573000Y-96202659D01*
X108574286Y-96196196D01*
X108583599Y-96149373D01*
X108607624Y-96028588D01*
X108675544Y-95864616D01*
X108774147Y-95717046D01*
X108899646Y-95591547D01*
X109047216Y-95492944D01*
X109211188Y-95425024D01*
X109360488Y-95395327D01*
X109385258Y-95390400D01*
X109562742Y-95390400D01*
X109587512Y-95395327D01*
G37*
G36*
X147560600Y-97082800D02*
G01*
X145758600Y-97082800D01*
X145758600Y-95280800D01*
X147560600Y-95280800D01*
X147560600Y-97082800D01*
G37*
G36*
X102460000Y-97051000D02*
G01*
X100458000Y-97051000D01*
X100458000Y-95049000D01*
X102460000Y-95049000D01*
X102460000Y-97051000D01*
G37*
G36*
X144018268Y-94528565D02*
G01*
X144056938Y-94540296D01*
X144092577Y-94559346D01*
X144123817Y-94584983D01*
X144149454Y-94616223D01*
X144168504Y-94651862D01*
X144180235Y-94690532D01*
X144184800Y-94736888D01*
X144184800Y-95388112D01*
X144180235Y-95434468D01*
X144168504Y-95473138D01*
X144149454Y-95508777D01*
X144123817Y-95540017D01*
X144092577Y-95565654D01*
X144056938Y-95584704D01*
X144018268Y-95596435D01*
X143971912Y-95601000D01*
X142895688Y-95601000D01*
X142849332Y-95596435D01*
X142810662Y-95584704D01*
X142775023Y-95565654D01*
X142743783Y-95540017D01*
X142718146Y-95508777D01*
X142699096Y-95473138D01*
X142687365Y-95434468D01*
X142682800Y-95388112D01*
X142682800Y-94736888D01*
X142687365Y-94690532D01*
X142699096Y-94651862D01*
X142718146Y-94616223D01*
X142743783Y-94584983D01*
X142775023Y-94559346D01*
X142810662Y-94540296D01*
X142849332Y-94528565D01*
X142895688Y-94524000D01*
X143971912Y-94524000D01*
X144018268Y-94528565D01*
G37*
G36*
X133108512Y-91483927D02*
G01*
X133257812Y-91513624D01*
X133421784Y-91581544D01*
X133569354Y-91680147D01*
X133694853Y-91805646D01*
X133793456Y-91953216D01*
X133861376Y-92117188D01*
X133896000Y-92291259D01*
X133896000Y-92468741D01*
X133861376Y-92642812D01*
X133793456Y-92806784D01*
X133694853Y-92954354D01*
X133569354Y-93079853D01*
X133421784Y-93178456D01*
X133257812Y-93246376D01*
X133108512Y-93276073D01*
X133083742Y-93281000D01*
X132906258Y-93281000D01*
X132881488Y-93276073D01*
X132732188Y-93246376D01*
X132568216Y-93178456D01*
X132420646Y-93079853D01*
X132295147Y-92954354D01*
X132196544Y-92806784D01*
X132128624Y-92642812D01*
X132094000Y-92468741D01*
X132094000Y-92291259D01*
X132128624Y-92117188D01*
X132196544Y-91953216D01*
X132295147Y-91805646D01*
X132420646Y-91680147D01*
X132568216Y-91581544D01*
X132732188Y-91513624D01*
X132881488Y-91483927D01*
X132906258Y-91479000D01*
X133083742Y-91479000D01*
X133108512Y-91483927D01*
G37*
G36*
X135648512Y-91483927D02*
G01*
X135797812Y-91513624D01*
X135961784Y-91581544D01*
X136109354Y-91680147D01*
X136234853Y-91805646D01*
X136333456Y-91953216D01*
X136401376Y-92117188D01*
X136436000Y-92291259D01*
X136436000Y-92468741D01*
X136401376Y-92642812D01*
X136333456Y-92806784D01*
X136234853Y-92954354D01*
X136109354Y-93079853D01*
X135961784Y-93178456D01*
X135797812Y-93246376D01*
X135648512Y-93276073D01*
X135623742Y-93281000D01*
X135446258Y-93281000D01*
X135421488Y-93276073D01*
X135272188Y-93246376D01*
X135108216Y-93178456D01*
X134960646Y-93079853D01*
X134835147Y-92954354D01*
X134736544Y-92806784D01*
X134668624Y-92642812D01*
X134634000Y-92468741D01*
X134634000Y-92291259D01*
X134668624Y-92117188D01*
X134736544Y-91953216D01*
X134835147Y-91805646D01*
X134960646Y-91680147D01*
X135108216Y-91581544D01*
X135272188Y-91513624D01*
X135421488Y-91483927D01*
X135446258Y-91479000D01*
X135623742Y-91479000D01*
X135648512Y-91483927D01*
G37*
G36*
X138188512Y-91483927D02*
G01*
X138337812Y-91513624D01*
X138501784Y-91581544D01*
X138649354Y-91680147D01*
X138774853Y-91805646D01*
X138873456Y-91953216D01*
X138941376Y-92117188D01*
X138976000Y-92291259D01*
X138976000Y-92468741D01*
X138941376Y-92642812D01*
X138873456Y-92806784D01*
X138774853Y-92954354D01*
X138649354Y-93079853D01*
X138501784Y-93178456D01*
X138337812Y-93246376D01*
X138188512Y-93276073D01*
X138163742Y-93281000D01*
X137986258Y-93281000D01*
X137961488Y-93276073D01*
X137812188Y-93246376D01*
X137648216Y-93178456D01*
X137500646Y-93079853D01*
X137375147Y-92954354D01*
X137276544Y-92806784D01*
X137208624Y-92642812D01*
X137174000Y-92468741D01*
X137174000Y-92291259D01*
X137208624Y-92117188D01*
X137276544Y-91953216D01*
X137375147Y-91805646D01*
X137500646Y-91680147D01*
X137648216Y-91581544D01*
X137812188Y-91513624D01*
X137961488Y-91483927D01*
X137986258Y-91479000D01*
X138163742Y-91479000D01*
X138188512Y-91483927D01*
G37*
G36*
X140728512Y-91483927D02*
G01*
X140877812Y-91513624D01*
X141041784Y-91581544D01*
X141189354Y-91680147D01*
X141314853Y-91805646D01*
X141413456Y-91953216D01*
X141481376Y-92117188D01*
X141516000Y-92291259D01*
X141516000Y-92468741D01*
X141481376Y-92642812D01*
X141413456Y-92806784D01*
X141314853Y-92954354D01*
X141189354Y-93079853D01*
X141041784Y-93178456D01*
X140877812Y-93246376D01*
X140728512Y-93276073D01*
X140703742Y-93281000D01*
X140526258Y-93281000D01*
X140501488Y-93276073D01*
X140352188Y-93246376D01*
X140188216Y-93178456D01*
X140040646Y-93079853D01*
X139915147Y-92954354D01*
X139816544Y-92806784D01*
X139748624Y-92642812D01*
X139714000Y-92468741D01*
X139714000Y-92291259D01*
X139748624Y-92117188D01*
X139816544Y-91953216D01*
X139915147Y-91805646D01*
X140040646Y-91680147D01*
X140188216Y-91581544D01*
X140352188Y-91513624D01*
X140501488Y-91483927D01*
X140526258Y-91479000D01*
X140703742Y-91479000D01*
X140728512Y-91483927D01*
G37*
G36*
X143268512Y-91483927D02*
G01*
X143417812Y-91513624D01*
X143581784Y-91581544D01*
X143729354Y-91680147D01*
X143854853Y-91805646D01*
X143953456Y-91953216D01*
X144021376Y-92117188D01*
X144056000Y-92291259D01*
X144056000Y-92468741D01*
X144021376Y-92642812D01*
X143953456Y-92806784D01*
X143854853Y-92954354D01*
X143729354Y-93079853D01*
X143581784Y-93178456D01*
X143417812Y-93246376D01*
X143268512Y-93276073D01*
X143243742Y-93281000D01*
X143066258Y-93281000D01*
X143041488Y-93276073D01*
X142892188Y-93246376D01*
X142728216Y-93178456D01*
X142580646Y-93079853D01*
X142455147Y-92954354D01*
X142356544Y-92806784D01*
X142288624Y-92642812D01*
X142254000Y-92468741D01*
X142254000Y-92291259D01*
X142288624Y-92117188D01*
X142356544Y-91953216D01*
X142455147Y-91805646D01*
X142580646Y-91680147D01*
X142728216Y-91581544D01*
X142892188Y-91513624D01*
X143041488Y-91483927D01*
X143066258Y-91479000D01*
X143243742Y-91479000D01*
X143268512Y-91483927D01*
G37*
G36*
X145808512Y-91483927D02*
G01*
X145957812Y-91513624D01*
X146121784Y-91581544D01*
X146269354Y-91680147D01*
X146394853Y-91805646D01*
X146493456Y-91953216D01*
X146561376Y-92117188D01*
X146596000Y-92291259D01*
X146596000Y-92468741D01*
X146561376Y-92642812D01*
X146493456Y-92806784D01*
X146394853Y-92954354D01*
X146269354Y-93079853D01*
X146121784Y-93178456D01*
X145957812Y-93246376D01*
X145808512Y-93276073D01*
X145783742Y-93281000D01*
X145606258Y-93281000D01*
X145581488Y-93276073D01*
X145432188Y-93246376D01*
X145268216Y-93178456D01*
X145120646Y-93079853D01*
X144995147Y-92954354D01*
X144896544Y-92806784D01*
X144828624Y-92642812D01*
X144794000Y-92468741D01*
X144794000Y-92291259D01*
X144828624Y-92117188D01*
X144896544Y-91953216D01*
X144995147Y-91805646D01*
X145120646Y-91680147D01*
X145268216Y-91581544D01*
X145432188Y-91513624D01*
X145581488Y-91483927D01*
X145606258Y-91479000D01*
X145783742Y-91479000D01*
X145808512Y-91483927D01*
G37*
G36*
X148348512Y-91483927D02*
G01*
X148497812Y-91513624D01*
X148661784Y-91581544D01*
X148809354Y-91680147D01*
X148934853Y-91805646D01*
X149033456Y-91953216D01*
X149101376Y-92117188D01*
X149136000Y-92291259D01*
X149136000Y-92468741D01*
X149101376Y-92642812D01*
X149033456Y-92806784D01*
X148934853Y-92954354D01*
X148809354Y-93079853D01*
X148661784Y-93178456D01*
X148497812Y-93246376D01*
X148348512Y-93276073D01*
X148323742Y-93281000D01*
X148146258Y-93281000D01*
X148121488Y-93276073D01*
X147972188Y-93246376D01*
X147808216Y-93178456D01*
X147660646Y-93079853D01*
X147535147Y-92954354D01*
X147436544Y-92806784D01*
X147368624Y-92642812D01*
X147334000Y-92468741D01*
X147334000Y-92291259D01*
X147368624Y-92117188D01*
X147436544Y-91953216D01*
X147535147Y-91805646D01*
X147660646Y-91680147D01*
X147808216Y-91581544D01*
X147972188Y-91513624D01*
X148121488Y-91483927D01*
X148146258Y-91479000D01*
X148323742Y-91479000D01*
X148348512Y-91483927D01*
G37*
G36*
X151676000Y-93281000D02*
G01*
X149874000Y-93281000D01*
X149874000Y-91479000D01*
X151676000Y-91479000D01*
X151676000Y-93281000D01*
G37*
G36*
X102628512Y-91483927D02*
G01*
X102777812Y-91513624D01*
X102941784Y-91581544D01*
X103089354Y-91680147D01*
X103214853Y-91805646D01*
X103313456Y-91953216D01*
X103381376Y-92117188D01*
X103416000Y-92291259D01*
X103416000Y-92468741D01*
X103381376Y-92642812D01*
X103313456Y-92806784D01*
X103214853Y-92954354D01*
X103089354Y-93079853D01*
X102941784Y-93178456D01*
X102777812Y-93246376D01*
X102628512Y-93276073D01*
X102603742Y-93281000D01*
X102426258Y-93281000D01*
X102401488Y-93276073D01*
X102252188Y-93246376D01*
X102088216Y-93178456D01*
X101940646Y-93079853D01*
X101815147Y-92954354D01*
X101716544Y-92806784D01*
X101648624Y-92642812D01*
X101614000Y-92468741D01*
X101614000Y-92291259D01*
X101648624Y-92117188D01*
X101716544Y-91953216D01*
X101815147Y-91805646D01*
X101940646Y-91680147D01*
X102088216Y-91581544D01*
X102252188Y-91513624D01*
X102401488Y-91483927D01*
X102426258Y-91479000D01*
X102603742Y-91479000D01*
X102628512Y-91483927D01*
G37*
G36*
X107708512Y-91483927D02*
G01*
X107857812Y-91513624D01*
X108021784Y-91581544D01*
X108169354Y-91680147D01*
X108294853Y-91805646D01*
X108393456Y-91953216D01*
X108461376Y-92117188D01*
X108496000Y-92291259D01*
X108496000Y-92468741D01*
X108461376Y-92642812D01*
X108393456Y-92806784D01*
X108294853Y-92954354D01*
X108169354Y-93079853D01*
X108021784Y-93178456D01*
X107857812Y-93246376D01*
X107708512Y-93276073D01*
X107683742Y-93281000D01*
X107506258Y-93281000D01*
X107481488Y-93276073D01*
X107332188Y-93246376D01*
X107168216Y-93178456D01*
X107020646Y-93079853D01*
X106895147Y-92954354D01*
X106796544Y-92806784D01*
X106728624Y-92642812D01*
X106694000Y-92468741D01*
X106694000Y-92291259D01*
X106728624Y-92117188D01*
X106796544Y-91953216D01*
X106895147Y-91805646D01*
X107020646Y-91680147D01*
X107168216Y-91581544D01*
X107332188Y-91513624D01*
X107481488Y-91483927D01*
X107506258Y-91479000D01*
X107683742Y-91479000D01*
X107708512Y-91483927D01*
G37*
G36*
X110248512Y-91483927D02*
G01*
X110397812Y-91513624D01*
X110561784Y-91581544D01*
X110709354Y-91680147D01*
X110834853Y-91805646D01*
X110933456Y-91953216D01*
X111001376Y-92117188D01*
X111036000Y-92291259D01*
X111036000Y-92468741D01*
X111001376Y-92642812D01*
X110933456Y-92806784D01*
X110834853Y-92954354D01*
X110709354Y-93079853D01*
X110561784Y-93178456D01*
X110397812Y-93246376D01*
X110248512Y-93276073D01*
X110223742Y-93281000D01*
X110046258Y-93281000D01*
X110021488Y-93276073D01*
X109872188Y-93246376D01*
X109708216Y-93178456D01*
X109560646Y-93079853D01*
X109435147Y-92954354D01*
X109336544Y-92806784D01*
X109268624Y-92642812D01*
X109234000Y-92468741D01*
X109234000Y-92291259D01*
X109268624Y-92117188D01*
X109336544Y-91953216D01*
X109435147Y-91805646D01*
X109560646Y-91680147D01*
X109708216Y-91581544D01*
X109872188Y-91513624D01*
X110021488Y-91483927D01*
X110046258Y-91479000D01*
X110223742Y-91479000D01*
X110248512Y-91483927D01*
G37*
G36*
X112788512Y-91483927D02*
G01*
X112937812Y-91513624D01*
X113101784Y-91581544D01*
X113249354Y-91680147D01*
X113374853Y-91805646D01*
X113473456Y-91953216D01*
X113541376Y-92117188D01*
X113576000Y-92291259D01*
X113576000Y-92468741D01*
X113541376Y-92642812D01*
X113473456Y-92806784D01*
X113374853Y-92954354D01*
X113249354Y-93079853D01*
X113101784Y-93178456D01*
X112937812Y-93246376D01*
X112788512Y-93276073D01*
X112763742Y-93281000D01*
X112586258Y-93281000D01*
X112561488Y-93276073D01*
X112412188Y-93246376D01*
X112248216Y-93178456D01*
X112100646Y-93079853D01*
X111975147Y-92954354D01*
X111876544Y-92806784D01*
X111808624Y-92642812D01*
X111774000Y-92468741D01*
X111774000Y-92291259D01*
X111808624Y-92117188D01*
X111876544Y-91953216D01*
X111975147Y-91805646D01*
X112100646Y-91680147D01*
X112248216Y-91581544D01*
X112412188Y-91513624D01*
X112561488Y-91483927D01*
X112586258Y-91479000D01*
X112763742Y-91479000D01*
X112788512Y-91483927D01*
G37*
G36*
X115328512Y-91483927D02*
G01*
X115477812Y-91513624D01*
X115641784Y-91581544D01*
X115789354Y-91680147D01*
X115914853Y-91805646D01*
X116013456Y-91953216D01*
X116081376Y-92117188D01*
X116116000Y-92291259D01*
X116116000Y-92468741D01*
X116081376Y-92642812D01*
X116013456Y-92806784D01*
X115914853Y-92954354D01*
X115789354Y-93079853D01*
X115641784Y-93178456D01*
X115477812Y-93246376D01*
X115328512Y-93276073D01*
X115303742Y-93281000D01*
X115126258Y-93281000D01*
X115101488Y-93276073D01*
X114952188Y-93246376D01*
X114788216Y-93178456D01*
X114640646Y-93079853D01*
X114515147Y-92954354D01*
X114416544Y-92806784D01*
X114348624Y-92642812D01*
X114314000Y-92468741D01*
X114314000Y-92291259D01*
X114348624Y-92117188D01*
X114416544Y-91953216D01*
X114515147Y-91805646D01*
X114640646Y-91680147D01*
X114788216Y-91581544D01*
X114952188Y-91513624D01*
X115101488Y-91483927D01*
X115126258Y-91479000D01*
X115303742Y-91479000D01*
X115328512Y-91483927D01*
G37*
G36*
X117868512Y-91483927D02*
G01*
X118017812Y-91513624D01*
X118181784Y-91581544D01*
X118329354Y-91680147D01*
X118454853Y-91805646D01*
X118553456Y-91953216D01*
X118621376Y-92117188D01*
X118656000Y-92291259D01*
X118656000Y-92468741D01*
X118621376Y-92642812D01*
X118553456Y-92806784D01*
X118454853Y-92954354D01*
X118329354Y-93079853D01*
X118181784Y-93178456D01*
X118017812Y-93246376D01*
X117868512Y-93276073D01*
X117843742Y-93281000D01*
X117666258Y-93281000D01*
X117641488Y-93276073D01*
X117492188Y-93246376D01*
X117328216Y-93178456D01*
X117180646Y-93079853D01*
X117055147Y-92954354D01*
X116956544Y-92806784D01*
X116888624Y-92642812D01*
X116854000Y-92468741D01*
X116854000Y-92291259D01*
X116888624Y-92117188D01*
X116956544Y-91953216D01*
X117055147Y-91805646D01*
X117180646Y-91680147D01*
X117328216Y-91581544D01*
X117492188Y-91513624D01*
X117641488Y-91483927D01*
X117666258Y-91479000D01*
X117843742Y-91479000D01*
X117868512Y-91483927D01*
G37*
G36*
X130568512Y-91483927D02*
G01*
X130717812Y-91513624D01*
X130881784Y-91581544D01*
X131029354Y-91680147D01*
X131154853Y-91805646D01*
X131253456Y-91953216D01*
X131321376Y-92117188D01*
X131356000Y-92291259D01*
X131356000Y-92468741D01*
X131321376Y-92642812D01*
X131253456Y-92806784D01*
X131154853Y-92954354D01*
X131029354Y-93079853D01*
X130881784Y-93178456D01*
X130717812Y-93246376D01*
X130568512Y-93276073D01*
X130543742Y-93281000D01*
X130366258Y-93281000D01*
X130341488Y-93276073D01*
X130192188Y-93246376D01*
X130028216Y-93178456D01*
X129880646Y-93079853D01*
X129755147Y-92954354D01*
X129656544Y-92806784D01*
X129588624Y-92642812D01*
X129554000Y-92468741D01*
X129554000Y-92291259D01*
X129588624Y-92117188D01*
X129656544Y-91953216D01*
X129755147Y-91805646D01*
X129880646Y-91680147D01*
X130028216Y-91581544D01*
X130192188Y-91513624D01*
X130341488Y-91483927D01*
X130366258Y-91479000D01*
X130543742Y-91479000D01*
X130568512Y-91483927D01*
G37*
G36*
X120408512Y-91483927D02*
G01*
X120557812Y-91513624D01*
X120721784Y-91581544D01*
X120869354Y-91680147D01*
X120994853Y-91805646D01*
X121093456Y-91953216D01*
X121161376Y-92117188D01*
X121196000Y-92291259D01*
X121196000Y-92468741D01*
X121161376Y-92642812D01*
X121093456Y-92806784D01*
X120994853Y-92954354D01*
X120869354Y-93079853D01*
X120721784Y-93178456D01*
X120557812Y-93246376D01*
X120408512Y-93276073D01*
X120383742Y-93281000D01*
X120206258Y-93281000D01*
X120181488Y-93276073D01*
X120032188Y-93246376D01*
X119868216Y-93178456D01*
X119720646Y-93079853D01*
X119595147Y-92954354D01*
X119496544Y-92806784D01*
X119428624Y-92642812D01*
X119394000Y-92468741D01*
X119394000Y-92291259D01*
X119428624Y-92117188D01*
X119496544Y-91953216D01*
X119595147Y-91805646D01*
X119720646Y-91680147D01*
X119868216Y-91581544D01*
X120032188Y-91513624D01*
X120181488Y-91483927D01*
X120206258Y-91479000D01*
X120383742Y-91479000D01*
X120408512Y-91483927D01*
G37*
G36*
X122948512Y-91483927D02*
G01*
X123097812Y-91513624D01*
X123261784Y-91581544D01*
X123409354Y-91680147D01*
X123534853Y-91805646D01*
X123633456Y-91953216D01*
X123701376Y-92117188D01*
X123736000Y-92291259D01*
X123736000Y-92468741D01*
X123701376Y-92642812D01*
X123633456Y-92806784D01*
X123534853Y-92954354D01*
X123409354Y-93079853D01*
X123261784Y-93178456D01*
X123097812Y-93246376D01*
X122948512Y-93276073D01*
X122923742Y-93281000D01*
X122746258Y-93281000D01*
X122721488Y-93276073D01*
X122572188Y-93246376D01*
X122408216Y-93178456D01*
X122260646Y-93079853D01*
X122135147Y-92954354D01*
X122036544Y-92806784D01*
X121968624Y-92642812D01*
X121934000Y-92468741D01*
X121934000Y-92291259D01*
X121968624Y-92117188D01*
X122036544Y-91953216D01*
X122135147Y-91805646D01*
X122260646Y-91680147D01*
X122408216Y-91581544D01*
X122572188Y-91513624D01*
X122721488Y-91483927D01*
X122746258Y-91479000D01*
X122923742Y-91479000D01*
X122948512Y-91483927D01*
G37*
G36*
X105168512Y-91483927D02*
G01*
X105317812Y-91513624D01*
X105481784Y-91581544D01*
X105629354Y-91680147D01*
X105754853Y-91805646D01*
X105853456Y-91953216D01*
X105921376Y-92117188D01*
X105956000Y-92291259D01*
X105956000Y-92468741D01*
X105921376Y-92642812D01*
X105853456Y-92806784D01*
X105754853Y-92954354D01*
X105629354Y-93079853D01*
X105481784Y-93178456D01*
X105317812Y-93246376D01*
X105168512Y-93276073D01*
X105143742Y-93281000D01*
X104966258Y-93281000D01*
X104941488Y-93276073D01*
X104792188Y-93246376D01*
X104628216Y-93178456D01*
X104480646Y-93079853D01*
X104355147Y-92954354D01*
X104256544Y-92806784D01*
X104188624Y-92642812D01*
X104154000Y-92468741D01*
X104154000Y-92291259D01*
X104188624Y-92117188D01*
X104256544Y-91953216D01*
X104355147Y-91805646D01*
X104480646Y-91680147D01*
X104628216Y-91581544D01*
X104792188Y-91513624D01*
X104941488Y-91483927D01*
X104966258Y-91479000D01*
X105143742Y-91479000D01*
X105168512Y-91483927D01*
G37*
G36*
X128028512Y-91483927D02*
G01*
X128177812Y-91513624D01*
X128341784Y-91581544D01*
X128489354Y-91680147D01*
X128614853Y-91805646D01*
X128713456Y-91953216D01*
X128781376Y-92117188D01*
X128816000Y-92291259D01*
X128816000Y-92468741D01*
X128781376Y-92642812D01*
X128713456Y-92806784D01*
X128614853Y-92954354D01*
X128489354Y-93079853D01*
X128341784Y-93178456D01*
X128177812Y-93246376D01*
X128028512Y-93276073D01*
X128003742Y-93281000D01*
X127826258Y-93281000D01*
X127801488Y-93276073D01*
X127652188Y-93246376D01*
X127488216Y-93178456D01*
X127340646Y-93079853D01*
X127215147Y-92954354D01*
X127116544Y-92806784D01*
X127048624Y-92642812D01*
X127014000Y-92468741D01*
X127014000Y-92291259D01*
X127048624Y-92117188D01*
X127116544Y-91953216D01*
X127215147Y-91805646D01*
X127340646Y-91680147D01*
X127488216Y-91581544D01*
X127652188Y-91513624D01*
X127801488Y-91483927D01*
X127826258Y-91479000D01*
X128003742Y-91479000D01*
X128028512Y-91483927D01*
G37*
G36*
X125488512Y-91483927D02*
G01*
X125637812Y-91513624D01*
X125801784Y-91581544D01*
X125949354Y-91680147D01*
X126074853Y-91805646D01*
X126173456Y-91953216D01*
X126241376Y-92117188D01*
X126276000Y-92291259D01*
X126276000Y-92468741D01*
X126241376Y-92642812D01*
X126173456Y-92806784D01*
X126074853Y-92954354D01*
X125949354Y-93079853D01*
X125801784Y-93178456D01*
X125637812Y-93246376D01*
X125488512Y-93276073D01*
X125463742Y-93281000D01*
X125286258Y-93281000D01*
X125261488Y-93276073D01*
X125112188Y-93246376D01*
X124948216Y-93178456D01*
X124800646Y-93079853D01*
X124675147Y-92954354D01*
X124576544Y-92806784D01*
X124508624Y-92642812D01*
X124474000Y-92468741D01*
X124474000Y-92291259D01*
X124508624Y-92117188D01*
X124576544Y-91953216D01*
X124675147Y-91805646D01*
X124800646Y-91680147D01*
X124948216Y-91581544D01*
X125112188Y-91513624D01*
X125261488Y-91483927D01*
X125286258Y-91479000D01*
X125463742Y-91479000D01*
X125488512Y-91483927D01*
G37*
M02*
