G04 #@! TF.GenerationSoftware,KiCad,Pcbnew,5.1.6+dfsg1-1*
G04 #@! TF.CreationDate,2020-11-01T22:24:16+03:00*
G04 #@! TF.ProjectId,WhitePill,57686974-6550-4696-9c6c-2e6b69636164,rev?*
G04 #@! TF.SameCoordinates,Original*
G04 #@! TF.FileFunction,Soldermask,Bot*
G04 #@! TF.FilePolarity,Negative*
%FSLAX46Y46*%
G04 Gerber Fmt 4.6, Leading zero omitted, Abs format (unit mm)*
G04 Created by KiCad (PCBNEW 5.1.6+dfsg1-1) date 2020-11-01 22:24:16*
%MOMM*%
%LPD*%
G01*
G04 APERTURE LIST*
%ADD10C,0.100000*%
G04 APERTURE END LIST*
D10*
G36*
X151676000Y-108521000D02*
G01*
X149874000Y-108521000D01*
X149874000Y-106719000D01*
X151676000Y-106719000D01*
X151676000Y-108521000D01*
G37*
G36*
X105168512Y-106723927D02*
G01*
X105317812Y-106753624D01*
X105481784Y-106821544D01*
X105629354Y-106920147D01*
X105754853Y-107045646D01*
X105853456Y-107193216D01*
X105921376Y-107357188D01*
X105956000Y-107531259D01*
X105956000Y-107708741D01*
X105921376Y-107882812D01*
X105853456Y-108046784D01*
X105754853Y-108194354D01*
X105629354Y-108319853D01*
X105481784Y-108418456D01*
X105317812Y-108486376D01*
X105168512Y-108516073D01*
X105143742Y-108521000D01*
X104966258Y-108521000D01*
X104941488Y-108516073D01*
X104792188Y-108486376D01*
X104628216Y-108418456D01*
X104480646Y-108319853D01*
X104355147Y-108194354D01*
X104256544Y-108046784D01*
X104188624Y-107882812D01*
X104154000Y-107708741D01*
X104154000Y-107531259D01*
X104188624Y-107357188D01*
X104256544Y-107193216D01*
X104355147Y-107045646D01*
X104480646Y-106920147D01*
X104628216Y-106821544D01*
X104792188Y-106753624D01*
X104941488Y-106723927D01*
X104966258Y-106719000D01*
X105143742Y-106719000D01*
X105168512Y-106723927D01*
G37*
G36*
X128028512Y-106723927D02*
G01*
X128177812Y-106753624D01*
X128341784Y-106821544D01*
X128489354Y-106920147D01*
X128614853Y-107045646D01*
X128713456Y-107193216D01*
X128781376Y-107357188D01*
X128816000Y-107531259D01*
X128816000Y-107708741D01*
X128781376Y-107882812D01*
X128713456Y-108046784D01*
X128614853Y-108194354D01*
X128489354Y-108319853D01*
X128341784Y-108418456D01*
X128177812Y-108486376D01*
X128028512Y-108516073D01*
X128003742Y-108521000D01*
X127826258Y-108521000D01*
X127801488Y-108516073D01*
X127652188Y-108486376D01*
X127488216Y-108418456D01*
X127340646Y-108319853D01*
X127215147Y-108194354D01*
X127116544Y-108046784D01*
X127048624Y-107882812D01*
X127014000Y-107708741D01*
X127014000Y-107531259D01*
X127048624Y-107357188D01*
X127116544Y-107193216D01*
X127215147Y-107045646D01*
X127340646Y-106920147D01*
X127488216Y-106821544D01*
X127652188Y-106753624D01*
X127801488Y-106723927D01*
X127826258Y-106719000D01*
X128003742Y-106719000D01*
X128028512Y-106723927D01*
G37*
G36*
X125488512Y-106723927D02*
G01*
X125637812Y-106753624D01*
X125801784Y-106821544D01*
X125949354Y-106920147D01*
X126074853Y-107045646D01*
X126173456Y-107193216D01*
X126241376Y-107357188D01*
X126276000Y-107531259D01*
X126276000Y-107708741D01*
X126241376Y-107882812D01*
X126173456Y-108046784D01*
X126074853Y-108194354D01*
X125949354Y-108319853D01*
X125801784Y-108418456D01*
X125637812Y-108486376D01*
X125488512Y-108516073D01*
X125463742Y-108521000D01*
X125286258Y-108521000D01*
X125261488Y-108516073D01*
X125112188Y-108486376D01*
X124948216Y-108418456D01*
X124800646Y-108319853D01*
X124675147Y-108194354D01*
X124576544Y-108046784D01*
X124508624Y-107882812D01*
X124474000Y-107708741D01*
X124474000Y-107531259D01*
X124508624Y-107357188D01*
X124576544Y-107193216D01*
X124675147Y-107045646D01*
X124800646Y-106920147D01*
X124948216Y-106821544D01*
X125112188Y-106753624D01*
X125261488Y-106723927D01*
X125286258Y-106719000D01*
X125463742Y-106719000D01*
X125488512Y-106723927D01*
G37*
G36*
X122948512Y-106723927D02*
G01*
X123097812Y-106753624D01*
X123261784Y-106821544D01*
X123409354Y-106920147D01*
X123534853Y-107045646D01*
X123633456Y-107193216D01*
X123701376Y-107357188D01*
X123736000Y-107531259D01*
X123736000Y-107708741D01*
X123701376Y-107882812D01*
X123633456Y-108046784D01*
X123534853Y-108194354D01*
X123409354Y-108319853D01*
X123261784Y-108418456D01*
X123097812Y-108486376D01*
X122948512Y-108516073D01*
X122923742Y-108521000D01*
X122746258Y-108521000D01*
X122721488Y-108516073D01*
X122572188Y-108486376D01*
X122408216Y-108418456D01*
X122260646Y-108319853D01*
X122135147Y-108194354D01*
X122036544Y-108046784D01*
X121968624Y-107882812D01*
X121934000Y-107708741D01*
X121934000Y-107531259D01*
X121968624Y-107357188D01*
X122036544Y-107193216D01*
X122135147Y-107045646D01*
X122260646Y-106920147D01*
X122408216Y-106821544D01*
X122572188Y-106753624D01*
X122721488Y-106723927D01*
X122746258Y-106719000D01*
X122923742Y-106719000D01*
X122948512Y-106723927D01*
G37*
G36*
X120408512Y-106723927D02*
G01*
X120557812Y-106753624D01*
X120721784Y-106821544D01*
X120869354Y-106920147D01*
X120994853Y-107045646D01*
X121093456Y-107193216D01*
X121161376Y-107357188D01*
X121196000Y-107531259D01*
X121196000Y-107708741D01*
X121161376Y-107882812D01*
X121093456Y-108046784D01*
X120994853Y-108194354D01*
X120869354Y-108319853D01*
X120721784Y-108418456D01*
X120557812Y-108486376D01*
X120408512Y-108516073D01*
X120383742Y-108521000D01*
X120206258Y-108521000D01*
X120181488Y-108516073D01*
X120032188Y-108486376D01*
X119868216Y-108418456D01*
X119720646Y-108319853D01*
X119595147Y-108194354D01*
X119496544Y-108046784D01*
X119428624Y-107882812D01*
X119394000Y-107708741D01*
X119394000Y-107531259D01*
X119428624Y-107357188D01*
X119496544Y-107193216D01*
X119595147Y-107045646D01*
X119720646Y-106920147D01*
X119868216Y-106821544D01*
X120032188Y-106753624D01*
X120181488Y-106723927D01*
X120206258Y-106719000D01*
X120383742Y-106719000D01*
X120408512Y-106723927D01*
G37*
G36*
X117868512Y-106723927D02*
G01*
X118017812Y-106753624D01*
X118181784Y-106821544D01*
X118329354Y-106920147D01*
X118454853Y-107045646D01*
X118553456Y-107193216D01*
X118621376Y-107357188D01*
X118656000Y-107531259D01*
X118656000Y-107708741D01*
X118621376Y-107882812D01*
X118553456Y-108046784D01*
X118454853Y-108194354D01*
X118329354Y-108319853D01*
X118181784Y-108418456D01*
X118017812Y-108486376D01*
X117868512Y-108516073D01*
X117843742Y-108521000D01*
X117666258Y-108521000D01*
X117641488Y-108516073D01*
X117492188Y-108486376D01*
X117328216Y-108418456D01*
X117180646Y-108319853D01*
X117055147Y-108194354D01*
X116956544Y-108046784D01*
X116888624Y-107882812D01*
X116854000Y-107708741D01*
X116854000Y-107531259D01*
X116888624Y-107357188D01*
X116956544Y-107193216D01*
X117055147Y-107045646D01*
X117180646Y-106920147D01*
X117328216Y-106821544D01*
X117492188Y-106753624D01*
X117641488Y-106723927D01*
X117666258Y-106719000D01*
X117843742Y-106719000D01*
X117868512Y-106723927D01*
G37*
G36*
X115328512Y-106723927D02*
G01*
X115477812Y-106753624D01*
X115641784Y-106821544D01*
X115789354Y-106920147D01*
X115914853Y-107045646D01*
X116013456Y-107193216D01*
X116081376Y-107357188D01*
X116116000Y-107531259D01*
X116116000Y-107708741D01*
X116081376Y-107882812D01*
X116013456Y-108046784D01*
X115914853Y-108194354D01*
X115789354Y-108319853D01*
X115641784Y-108418456D01*
X115477812Y-108486376D01*
X115328512Y-108516073D01*
X115303742Y-108521000D01*
X115126258Y-108521000D01*
X115101488Y-108516073D01*
X114952188Y-108486376D01*
X114788216Y-108418456D01*
X114640646Y-108319853D01*
X114515147Y-108194354D01*
X114416544Y-108046784D01*
X114348624Y-107882812D01*
X114314000Y-107708741D01*
X114314000Y-107531259D01*
X114348624Y-107357188D01*
X114416544Y-107193216D01*
X114515147Y-107045646D01*
X114640646Y-106920147D01*
X114788216Y-106821544D01*
X114952188Y-106753624D01*
X115101488Y-106723927D01*
X115126258Y-106719000D01*
X115303742Y-106719000D01*
X115328512Y-106723927D01*
G37*
G36*
X112788512Y-106723927D02*
G01*
X112937812Y-106753624D01*
X113101784Y-106821544D01*
X113249354Y-106920147D01*
X113374853Y-107045646D01*
X113473456Y-107193216D01*
X113541376Y-107357188D01*
X113576000Y-107531259D01*
X113576000Y-107708741D01*
X113541376Y-107882812D01*
X113473456Y-108046784D01*
X113374853Y-108194354D01*
X113249354Y-108319853D01*
X113101784Y-108418456D01*
X112937812Y-108486376D01*
X112788512Y-108516073D01*
X112763742Y-108521000D01*
X112586258Y-108521000D01*
X112561488Y-108516073D01*
X112412188Y-108486376D01*
X112248216Y-108418456D01*
X112100646Y-108319853D01*
X111975147Y-108194354D01*
X111876544Y-108046784D01*
X111808624Y-107882812D01*
X111774000Y-107708741D01*
X111774000Y-107531259D01*
X111808624Y-107357188D01*
X111876544Y-107193216D01*
X111975147Y-107045646D01*
X112100646Y-106920147D01*
X112248216Y-106821544D01*
X112412188Y-106753624D01*
X112561488Y-106723927D01*
X112586258Y-106719000D01*
X112763742Y-106719000D01*
X112788512Y-106723927D01*
G37*
G36*
X110248512Y-106723927D02*
G01*
X110397812Y-106753624D01*
X110561784Y-106821544D01*
X110709354Y-106920147D01*
X110834853Y-107045646D01*
X110933456Y-107193216D01*
X111001376Y-107357188D01*
X111036000Y-107531259D01*
X111036000Y-107708741D01*
X111001376Y-107882812D01*
X110933456Y-108046784D01*
X110834853Y-108194354D01*
X110709354Y-108319853D01*
X110561784Y-108418456D01*
X110397812Y-108486376D01*
X110248512Y-108516073D01*
X110223742Y-108521000D01*
X110046258Y-108521000D01*
X110021488Y-108516073D01*
X109872188Y-108486376D01*
X109708216Y-108418456D01*
X109560646Y-108319853D01*
X109435147Y-108194354D01*
X109336544Y-108046784D01*
X109268624Y-107882812D01*
X109234000Y-107708741D01*
X109234000Y-107531259D01*
X109268624Y-107357188D01*
X109336544Y-107193216D01*
X109435147Y-107045646D01*
X109560646Y-106920147D01*
X109708216Y-106821544D01*
X109872188Y-106753624D01*
X110021488Y-106723927D01*
X110046258Y-106719000D01*
X110223742Y-106719000D01*
X110248512Y-106723927D01*
G37*
G36*
X107708512Y-106723927D02*
G01*
X107857812Y-106753624D01*
X108021784Y-106821544D01*
X108169354Y-106920147D01*
X108294853Y-107045646D01*
X108393456Y-107193216D01*
X108461376Y-107357188D01*
X108496000Y-107531259D01*
X108496000Y-107708741D01*
X108461376Y-107882812D01*
X108393456Y-108046784D01*
X108294853Y-108194354D01*
X108169354Y-108319853D01*
X108021784Y-108418456D01*
X107857812Y-108486376D01*
X107708512Y-108516073D01*
X107683742Y-108521000D01*
X107506258Y-108521000D01*
X107481488Y-108516073D01*
X107332188Y-108486376D01*
X107168216Y-108418456D01*
X107020646Y-108319853D01*
X106895147Y-108194354D01*
X106796544Y-108046784D01*
X106728624Y-107882812D01*
X106694000Y-107708741D01*
X106694000Y-107531259D01*
X106728624Y-107357188D01*
X106796544Y-107193216D01*
X106895147Y-107045646D01*
X107020646Y-106920147D01*
X107168216Y-106821544D01*
X107332188Y-106753624D01*
X107481488Y-106723927D01*
X107506258Y-106719000D01*
X107683742Y-106719000D01*
X107708512Y-106723927D01*
G37*
G36*
X130568512Y-106723927D02*
G01*
X130717812Y-106753624D01*
X130881784Y-106821544D01*
X131029354Y-106920147D01*
X131154853Y-107045646D01*
X131253456Y-107193216D01*
X131321376Y-107357188D01*
X131356000Y-107531259D01*
X131356000Y-107708741D01*
X131321376Y-107882812D01*
X131253456Y-108046784D01*
X131154853Y-108194354D01*
X131029354Y-108319853D01*
X130881784Y-108418456D01*
X130717812Y-108486376D01*
X130568512Y-108516073D01*
X130543742Y-108521000D01*
X130366258Y-108521000D01*
X130341488Y-108516073D01*
X130192188Y-108486376D01*
X130028216Y-108418456D01*
X129880646Y-108319853D01*
X129755147Y-108194354D01*
X129656544Y-108046784D01*
X129588624Y-107882812D01*
X129554000Y-107708741D01*
X129554000Y-107531259D01*
X129588624Y-107357188D01*
X129656544Y-107193216D01*
X129755147Y-107045646D01*
X129880646Y-106920147D01*
X130028216Y-106821544D01*
X130192188Y-106753624D01*
X130341488Y-106723927D01*
X130366258Y-106719000D01*
X130543742Y-106719000D01*
X130568512Y-106723927D01*
G37*
G36*
X102628512Y-106723927D02*
G01*
X102777812Y-106753624D01*
X102941784Y-106821544D01*
X103089354Y-106920147D01*
X103214853Y-107045646D01*
X103313456Y-107193216D01*
X103381376Y-107357188D01*
X103416000Y-107531259D01*
X103416000Y-107708741D01*
X103381376Y-107882812D01*
X103313456Y-108046784D01*
X103214853Y-108194354D01*
X103089354Y-108319853D01*
X102941784Y-108418456D01*
X102777812Y-108486376D01*
X102628512Y-108516073D01*
X102603742Y-108521000D01*
X102426258Y-108521000D01*
X102401488Y-108516073D01*
X102252188Y-108486376D01*
X102088216Y-108418456D01*
X101940646Y-108319853D01*
X101815147Y-108194354D01*
X101716544Y-108046784D01*
X101648624Y-107882812D01*
X101614000Y-107708741D01*
X101614000Y-107531259D01*
X101648624Y-107357188D01*
X101716544Y-107193216D01*
X101815147Y-107045646D01*
X101940646Y-106920147D01*
X102088216Y-106821544D01*
X102252188Y-106753624D01*
X102401488Y-106723927D01*
X102426258Y-106719000D01*
X102603742Y-106719000D01*
X102628512Y-106723927D01*
G37*
G36*
X148348512Y-106723927D02*
G01*
X148497812Y-106753624D01*
X148661784Y-106821544D01*
X148809354Y-106920147D01*
X148934853Y-107045646D01*
X149033456Y-107193216D01*
X149101376Y-107357188D01*
X149136000Y-107531259D01*
X149136000Y-107708741D01*
X149101376Y-107882812D01*
X149033456Y-108046784D01*
X148934853Y-108194354D01*
X148809354Y-108319853D01*
X148661784Y-108418456D01*
X148497812Y-108486376D01*
X148348512Y-108516073D01*
X148323742Y-108521000D01*
X148146258Y-108521000D01*
X148121488Y-108516073D01*
X147972188Y-108486376D01*
X147808216Y-108418456D01*
X147660646Y-108319853D01*
X147535147Y-108194354D01*
X147436544Y-108046784D01*
X147368624Y-107882812D01*
X147334000Y-107708741D01*
X147334000Y-107531259D01*
X147368624Y-107357188D01*
X147436544Y-107193216D01*
X147535147Y-107045646D01*
X147660646Y-106920147D01*
X147808216Y-106821544D01*
X147972188Y-106753624D01*
X148121488Y-106723927D01*
X148146258Y-106719000D01*
X148323742Y-106719000D01*
X148348512Y-106723927D01*
G37*
G36*
X145808512Y-106723927D02*
G01*
X145957812Y-106753624D01*
X146121784Y-106821544D01*
X146269354Y-106920147D01*
X146394853Y-107045646D01*
X146493456Y-107193216D01*
X146561376Y-107357188D01*
X146596000Y-107531259D01*
X146596000Y-107708741D01*
X146561376Y-107882812D01*
X146493456Y-108046784D01*
X146394853Y-108194354D01*
X146269354Y-108319853D01*
X146121784Y-108418456D01*
X145957812Y-108486376D01*
X145808512Y-108516073D01*
X145783742Y-108521000D01*
X145606258Y-108521000D01*
X145581488Y-108516073D01*
X145432188Y-108486376D01*
X145268216Y-108418456D01*
X145120646Y-108319853D01*
X144995147Y-108194354D01*
X144896544Y-108046784D01*
X144828624Y-107882812D01*
X144794000Y-107708741D01*
X144794000Y-107531259D01*
X144828624Y-107357188D01*
X144896544Y-107193216D01*
X144995147Y-107045646D01*
X145120646Y-106920147D01*
X145268216Y-106821544D01*
X145432188Y-106753624D01*
X145581488Y-106723927D01*
X145606258Y-106719000D01*
X145783742Y-106719000D01*
X145808512Y-106723927D01*
G37*
G36*
X143268512Y-106723927D02*
G01*
X143417812Y-106753624D01*
X143581784Y-106821544D01*
X143729354Y-106920147D01*
X143854853Y-107045646D01*
X143953456Y-107193216D01*
X144021376Y-107357188D01*
X144056000Y-107531259D01*
X144056000Y-107708741D01*
X144021376Y-107882812D01*
X143953456Y-108046784D01*
X143854853Y-108194354D01*
X143729354Y-108319853D01*
X143581784Y-108418456D01*
X143417812Y-108486376D01*
X143268512Y-108516073D01*
X143243742Y-108521000D01*
X143066258Y-108521000D01*
X143041488Y-108516073D01*
X142892188Y-108486376D01*
X142728216Y-108418456D01*
X142580646Y-108319853D01*
X142455147Y-108194354D01*
X142356544Y-108046784D01*
X142288624Y-107882812D01*
X142254000Y-107708741D01*
X142254000Y-107531259D01*
X142288624Y-107357188D01*
X142356544Y-107193216D01*
X142455147Y-107045646D01*
X142580646Y-106920147D01*
X142728216Y-106821544D01*
X142892188Y-106753624D01*
X143041488Y-106723927D01*
X143066258Y-106719000D01*
X143243742Y-106719000D01*
X143268512Y-106723927D01*
G37*
G36*
X138188512Y-106723927D02*
G01*
X138337812Y-106753624D01*
X138501784Y-106821544D01*
X138649354Y-106920147D01*
X138774853Y-107045646D01*
X138873456Y-107193216D01*
X138941376Y-107357188D01*
X138976000Y-107531259D01*
X138976000Y-107708741D01*
X138941376Y-107882812D01*
X138873456Y-108046784D01*
X138774853Y-108194354D01*
X138649354Y-108319853D01*
X138501784Y-108418456D01*
X138337812Y-108486376D01*
X138188512Y-108516073D01*
X138163742Y-108521000D01*
X137986258Y-108521000D01*
X137961488Y-108516073D01*
X137812188Y-108486376D01*
X137648216Y-108418456D01*
X137500646Y-108319853D01*
X137375147Y-108194354D01*
X137276544Y-108046784D01*
X137208624Y-107882812D01*
X137174000Y-107708741D01*
X137174000Y-107531259D01*
X137208624Y-107357188D01*
X137276544Y-107193216D01*
X137375147Y-107045646D01*
X137500646Y-106920147D01*
X137648216Y-106821544D01*
X137812188Y-106753624D01*
X137961488Y-106723927D01*
X137986258Y-106719000D01*
X138163742Y-106719000D01*
X138188512Y-106723927D01*
G37*
G36*
X135648512Y-106723927D02*
G01*
X135797812Y-106753624D01*
X135961784Y-106821544D01*
X136109354Y-106920147D01*
X136234853Y-107045646D01*
X136333456Y-107193216D01*
X136401376Y-107357188D01*
X136436000Y-107531259D01*
X136436000Y-107708741D01*
X136401376Y-107882812D01*
X136333456Y-108046784D01*
X136234853Y-108194354D01*
X136109354Y-108319853D01*
X135961784Y-108418456D01*
X135797812Y-108486376D01*
X135648512Y-108516073D01*
X135623742Y-108521000D01*
X135446258Y-108521000D01*
X135421488Y-108516073D01*
X135272188Y-108486376D01*
X135108216Y-108418456D01*
X134960646Y-108319853D01*
X134835147Y-108194354D01*
X134736544Y-108046784D01*
X134668624Y-107882812D01*
X134634000Y-107708741D01*
X134634000Y-107531259D01*
X134668624Y-107357188D01*
X134736544Y-107193216D01*
X134835147Y-107045646D01*
X134960646Y-106920147D01*
X135108216Y-106821544D01*
X135272188Y-106753624D01*
X135421488Y-106723927D01*
X135446258Y-106719000D01*
X135623742Y-106719000D01*
X135648512Y-106723927D01*
G37*
G36*
X133108512Y-106723927D02*
G01*
X133257812Y-106753624D01*
X133421784Y-106821544D01*
X133569354Y-106920147D01*
X133694853Y-107045646D01*
X133793456Y-107193216D01*
X133861376Y-107357188D01*
X133896000Y-107531259D01*
X133896000Y-107708741D01*
X133861376Y-107882812D01*
X133793456Y-108046784D01*
X133694853Y-108194354D01*
X133569354Y-108319853D01*
X133421784Y-108418456D01*
X133257812Y-108486376D01*
X133108512Y-108516073D01*
X133083742Y-108521000D01*
X132906258Y-108521000D01*
X132881488Y-108516073D01*
X132732188Y-108486376D01*
X132568216Y-108418456D01*
X132420646Y-108319853D01*
X132295147Y-108194354D01*
X132196544Y-108046784D01*
X132128624Y-107882812D01*
X132094000Y-107708741D01*
X132094000Y-107531259D01*
X132128624Y-107357188D01*
X132196544Y-107193216D01*
X132295147Y-107045646D01*
X132420646Y-106920147D01*
X132568216Y-106821544D01*
X132732188Y-106753624D01*
X132881488Y-106723927D01*
X132906258Y-106719000D01*
X133083742Y-106719000D01*
X133108512Y-106723927D01*
G37*
G36*
X140728512Y-106723927D02*
G01*
X140877812Y-106753624D01*
X141041784Y-106821544D01*
X141189354Y-106920147D01*
X141314853Y-107045646D01*
X141413456Y-107193216D01*
X141481376Y-107357188D01*
X141516000Y-107531259D01*
X141516000Y-107708741D01*
X141481376Y-107882812D01*
X141413456Y-108046784D01*
X141314853Y-108194354D01*
X141189354Y-108319853D01*
X141041784Y-108418456D01*
X140877812Y-108486376D01*
X140728512Y-108516073D01*
X140703742Y-108521000D01*
X140526258Y-108521000D01*
X140501488Y-108516073D01*
X140352188Y-108486376D01*
X140188216Y-108418456D01*
X140040646Y-108319853D01*
X139915147Y-108194354D01*
X139816544Y-108046784D01*
X139748624Y-107882812D01*
X139714000Y-107708741D01*
X139714000Y-107531259D01*
X139748624Y-107357188D01*
X139816544Y-107193216D01*
X139915147Y-107045646D01*
X140040646Y-106920147D01*
X140188216Y-106821544D01*
X140352188Y-106753624D01*
X140501488Y-106723927D01*
X140526258Y-106719000D01*
X140703742Y-106719000D01*
X140728512Y-106723927D01*
G37*
G36*
X144422128Y-105140705D02*
G01*
X144460798Y-105152436D01*
X144496437Y-105171486D01*
X144527677Y-105197123D01*
X144553314Y-105228363D01*
X144572364Y-105264002D01*
X144584095Y-105302672D01*
X144588660Y-105349028D01*
X144588660Y-106000252D01*
X144584095Y-106046608D01*
X144572364Y-106085278D01*
X144553314Y-106120917D01*
X144527677Y-106152157D01*
X144496437Y-106177794D01*
X144460798Y-106196844D01*
X144422128Y-106208575D01*
X144375772Y-106213140D01*
X143299548Y-106213140D01*
X143253192Y-106208575D01*
X143214522Y-106196844D01*
X143178883Y-106177794D01*
X143147643Y-106152157D01*
X143122006Y-106120917D01*
X143102956Y-106085278D01*
X143091225Y-106046608D01*
X143086660Y-106000252D01*
X143086660Y-105349028D01*
X143091225Y-105302672D01*
X143102956Y-105264002D01*
X143122006Y-105228363D01*
X143147643Y-105197123D01*
X143178883Y-105171486D01*
X143214522Y-105152436D01*
X143253192Y-105140705D01*
X143299548Y-105136140D01*
X144375772Y-105136140D01*
X144422128Y-105140705D01*
G37*
G36*
X112314368Y-104231765D02*
G01*
X112353038Y-104243496D01*
X112388677Y-104262546D01*
X112419917Y-104288183D01*
X112445554Y-104319423D01*
X112464604Y-104355062D01*
X112476335Y-104393732D01*
X112480900Y-104440088D01*
X112480900Y-105516312D01*
X112476335Y-105562668D01*
X112464604Y-105601338D01*
X112445554Y-105636977D01*
X112419917Y-105668217D01*
X112388677Y-105693854D01*
X112353038Y-105712904D01*
X112314368Y-105724635D01*
X112268012Y-105729200D01*
X111616788Y-105729200D01*
X111570432Y-105724635D01*
X111531762Y-105712904D01*
X111496123Y-105693854D01*
X111464883Y-105668217D01*
X111439246Y-105636977D01*
X111420196Y-105601338D01*
X111408465Y-105562668D01*
X111403900Y-105516312D01*
X111403900Y-104440088D01*
X111408465Y-104393732D01*
X111420196Y-104355062D01*
X111439246Y-104319423D01*
X111464883Y-104288183D01*
X111496123Y-104262546D01*
X111531762Y-104243496D01*
X111570432Y-104231765D01*
X111616788Y-104227200D01*
X112268012Y-104227200D01*
X112314368Y-104231765D01*
G37*
G36*
X114189368Y-104231765D02*
G01*
X114228038Y-104243496D01*
X114263677Y-104262546D01*
X114294917Y-104288183D01*
X114320554Y-104319423D01*
X114339604Y-104355062D01*
X114351335Y-104393732D01*
X114355900Y-104440088D01*
X114355900Y-105516312D01*
X114351335Y-105562668D01*
X114339604Y-105601338D01*
X114320554Y-105636977D01*
X114294917Y-105668217D01*
X114263677Y-105693854D01*
X114228038Y-105712904D01*
X114189368Y-105724635D01*
X114143012Y-105729200D01*
X113491788Y-105729200D01*
X113445432Y-105724635D01*
X113406762Y-105712904D01*
X113371123Y-105693854D01*
X113339883Y-105668217D01*
X113314246Y-105636977D01*
X113295196Y-105601338D01*
X113283465Y-105562668D01*
X113278900Y-105516312D01*
X113278900Y-104440088D01*
X113283465Y-104393732D01*
X113295196Y-104355062D01*
X113314246Y-104319423D01*
X113339883Y-104288183D01*
X113371123Y-104262546D01*
X113406762Y-104243496D01*
X113445432Y-104231765D01*
X113491788Y-104227200D01*
X114143012Y-104227200D01*
X114189368Y-104231765D01*
G37*
G36*
X140101968Y-104206365D02*
G01*
X140140638Y-104218096D01*
X140176277Y-104237146D01*
X140207517Y-104262783D01*
X140233154Y-104294023D01*
X140252204Y-104329662D01*
X140263935Y-104368332D01*
X140268500Y-104414688D01*
X140268500Y-105490912D01*
X140263935Y-105537268D01*
X140252204Y-105575938D01*
X140233154Y-105611577D01*
X140207517Y-105642817D01*
X140176277Y-105668454D01*
X140140638Y-105687504D01*
X140101968Y-105699235D01*
X140055612Y-105703800D01*
X139404388Y-105703800D01*
X139358032Y-105699235D01*
X139319362Y-105687504D01*
X139283723Y-105668454D01*
X139252483Y-105642817D01*
X139226846Y-105611577D01*
X139207796Y-105575938D01*
X139196065Y-105537268D01*
X139191500Y-105490912D01*
X139191500Y-104414688D01*
X139196065Y-104368332D01*
X139207796Y-104329662D01*
X139226846Y-104294023D01*
X139252483Y-104262783D01*
X139283723Y-104237146D01*
X139319362Y-104218096D01*
X139358032Y-104206365D01*
X139404388Y-104201800D01*
X140055612Y-104201800D01*
X140101968Y-104206365D01*
G37*
G36*
X141976968Y-104206365D02*
G01*
X142015638Y-104218096D01*
X142051277Y-104237146D01*
X142082517Y-104262783D01*
X142108154Y-104294023D01*
X142127204Y-104329662D01*
X142138935Y-104368332D01*
X142143500Y-104414688D01*
X142143500Y-105490912D01*
X142138935Y-105537268D01*
X142127204Y-105575938D01*
X142108154Y-105611577D01*
X142082517Y-105642817D01*
X142051277Y-105668454D01*
X142015638Y-105687504D01*
X141976968Y-105699235D01*
X141930612Y-105703800D01*
X141279388Y-105703800D01*
X141233032Y-105699235D01*
X141194362Y-105687504D01*
X141158723Y-105668454D01*
X141127483Y-105642817D01*
X141101846Y-105611577D01*
X141082796Y-105575938D01*
X141071065Y-105537268D01*
X141066500Y-105490912D01*
X141066500Y-104414688D01*
X141071065Y-104368332D01*
X141082796Y-104329662D01*
X141101846Y-104294023D01*
X141127483Y-104262783D01*
X141158723Y-104237146D01*
X141194362Y-104218096D01*
X141233032Y-104206365D01*
X141279388Y-104201800D01*
X141930612Y-104201800D01*
X141976968Y-104206365D01*
G37*
G36*
X118948468Y-104568965D02*
G01*
X118987138Y-104580696D01*
X119022777Y-104599746D01*
X119054017Y-104625383D01*
X119079654Y-104656623D01*
X119098704Y-104692262D01*
X119110435Y-104730932D01*
X119115000Y-104777288D01*
X119115000Y-105428512D01*
X119110435Y-105474868D01*
X119098704Y-105513538D01*
X119079654Y-105549177D01*
X119054017Y-105580417D01*
X119022777Y-105606054D01*
X118987138Y-105625104D01*
X118948468Y-105636835D01*
X118902112Y-105641400D01*
X117825888Y-105641400D01*
X117779532Y-105636835D01*
X117740862Y-105625104D01*
X117705223Y-105606054D01*
X117673983Y-105580417D01*
X117648346Y-105549177D01*
X117629296Y-105513538D01*
X117617565Y-105474868D01*
X117613000Y-105428512D01*
X117613000Y-104777288D01*
X117617565Y-104730932D01*
X117629296Y-104692262D01*
X117648346Y-104656623D01*
X117673983Y-104625383D01*
X117705223Y-104599746D01*
X117740862Y-104580696D01*
X117779532Y-104568965D01*
X117825888Y-104564400D01*
X118902112Y-104564400D01*
X118948468Y-104568965D01*
G37*
G36*
X116764068Y-104568965D02*
G01*
X116802738Y-104580696D01*
X116838377Y-104599746D01*
X116869617Y-104625383D01*
X116895254Y-104656623D01*
X116914304Y-104692262D01*
X116926035Y-104730932D01*
X116930600Y-104777288D01*
X116930600Y-105428512D01*
X116926035Y-105474868D01*
X116914304Y-105513538D01*
X116895254Y-105549177D01*
X116869617Y-105580417D01*
X116838377Y-105606054D01*
X116802738Y-105625104D01*
X116764068Y-105636835D01*
X116717712Y-105641400D01*
X115641488Y-105641400D01*
X115595132Y-105636835D01*
X115556462Y-105625104D01*
X115520823Y-105606054D01*
X115489583Y-105580417D01*
X115463946Y-105549177D01*
X115444896Y-105513538D01*
X115433165Y-105474868D01*
X115428600Y-105428512D01*
X115428600Y-104777288D01*
X115433165Y-104730932D01*
X115444896Y-104692262D01*
X115463946Y-104656623D01*
X115489583Y-104625383D01*
X115520823Y-104599746D01*
X115556462Y-104580696D01*
X115595132Y-104568965D01*
X115641488Y-104564400D01*
X116717712Y-104564400D01*
X116764068Y-104568965D01*
G37*
G36*
X121234468Y-104543565D02*
G01*
X121273138Y-104555296D01*
X121308777Y-104574346D01*
X121340017Y-104599983D01*
X121365654Y-104631223D01*
X121384704Y-104666862D01*
X121396435Y-104705532D01*
X121401000Y-104751888D01*
X121401000Y-105403112D01*
X121396435Y-105449468D01*
X121384704Y-105488138D01*
X121365654Y-105523777D01*
X121340017Y-105555017D01*
X121308777Y-105580654D01*
X121273138Y-105599704D01*
X121234468Y-105611435D01*
X121188112Y-105616000D01*
X120111888Y-105616000D01*
X120065532Y-105611435D01*
X120026862Y-105599704D01*
X119991223Y-105580654D01*
X119959983Y-105555017D01*
X119934346Y-105523777D01*
X119915296Y-105488138D01*
X119903565Y-105449468D01*
X119899000Y-105403112D01*
X119899000Y-104751888D01*
X119903565Y-104705532D01*
X119915296Y-104666862D01*
X119934346Y-104631223D01*
X119959983Y-104599983D01*
X119991223Y-104574346D01*
X120026862Y-104555296D01*
X120065532Y-104543565D01*
X120111888Y-104539000D01*
X121188112Y-104539000D01*
X121234468Y-104543565D01*
G37*
G36*
X123520468Y-104543565D02*
G01*
X123559138Y-104555296D01*
X123594777Y-104574346D01*
X123626017Y-104599983D01*
X123651654Y-104631223D01*
X123670704Y-104666862D01*
X123682435Y-104705532D01*
X123687000Y-104751888D01*
X123687000Y-105403112D01*
X123682435Y-105449468D01*
X123670704Y-105488138D01*
X123651654Y-105523777D01*
X123626017Y-105555017D01*
X123594777Y-105580654D01*
X123559138Y-105599704D01*
X123520468Y-105611435D01*
X123474112Y-105616000D01*
X122397888Y-105616000D01*
X122351532Y-105611435D01*
X122312862Y-105599704D01*
X122277223Y-105580654D01*
X122245983Y-105555017D01*
X122220346Y-105523777D01*
X122201296Y-105488138D01*
X122189565Y-105449468D01*
X122185000Y-105403112D01*
X122185000Y-104751888D01*
X122189565Y-104705532D01*
X122201296Y-104666862D01*
X122220346Y-104631223D01*
X122245983Y-104599983D01*
X122277223Y-104574346D01*
X122312862Y-104555296D01*
X122351532Y-104543565D01*
X122397888Y-104539000D01*
X123474112Y-104539000D01*
X123520468Y-104543565D01*
G37*
G36*
X125806468Y-104543565D02*
G01*
X125845138Y-104555296D01*
X125880777Y-104574346D01*
X125912017Y-104599983D01*
X125937654Y-104631223D01*
X125956704Y-104666862D01*
X125968435Y-104705532D01*
X125973000Y-104751888D01*
X125973000Y-105403112D01*
X125968435Y-105449468D01*
X125956704Y-105488138D01*
X125937654Y-105523777D01*
X125912017Y-105555017D01*
X125880777Y-105580654D01*
X125845138Y-105599704D01*
X125806468Y-105611435D01*
X125760112Y-105616000D01*
X124683888Y-105616000D01*
X124637532Y-105611435D01*
X124598862Y-105599704D01*
X124563223Y-105580654D01*
X124531983Y-105555017D01*
X124506346Y-105523777D01*
X124487296Y-105488138D01*
X124475565Y-105449468D01*
X124471000Y-105403112D01*
X124471000Y-104751888D01*
X124475565Y-104705532D01*
X124487296Y-104666862D01*
X124506346Y-104631223D01*
X124531983Y-104599983D01*
X124563223Y-104574346D01*
X124598862Y-104555296D01*
X124637532Y-104543565D01*
X124683888Y-104539000D01*
X125760112Y-104539000D01*
X125806468Y-104543565D01*
G37*
G36*
X132481968Y-103977765D02*
G01*
X132520638Y-103989496D01*
X132556277Y-104008546D01*
X132587517Y-104034183D01*
X132613154Y-104065423D01*
X132632204Y-104101062D01*
X132643935Y-104139732D01*
X132648500Y-104186088D01*
X132648500Y-105262312D01*
X132643935Y-105308668D01*
X132632204Y-105347338D01*
X132613154Y-105382977D01*
X132587517Y-105414217D01*
X132556277Y-105439854D01*
X132520638Y-105458904D01*
X132481968Y-105470635D01*
X132435612Y-105475200D01*
X131784388Y-105475200D01*
X131738032Y-105470635D01*
X131699362Y-105458904D01*
X131663723Y-105439854D01*
X131632483Y-105414217D01*
X131606846Y-105382977D01*
X131587796Y-105347338D01*
X131576065Y-105308668D01*
X131571500Y-105262312D01*
X131571500Y-104186088D01*
X131576065Y-104139732D01*
X131587796Y-104101062D01*
X131606846Y-104065423D01*
X131632483Y-104034183D01*
X131663723Y-104008546D01*
X131699362Y-103989496D01*
X131738032Y-103977765D01*
X131784388Y-103973200D01*
X132435612Y-103973200D01*
X132481968Y-103977765D01*
G37*
G36*
X134356968Y-103977765D02*
G01*
X134395638Y-103989496D01*
X134431277Y-104008546D01*
X134462517Y-104034183D01*
X134488154Y-104065423D01*
X134507204Y-104101062D01*
X134518935Y-104139732D01*
X134523500Y-104186088D01*
X134523500Y-105262312D01*
X134518935Y-105308668D01*
X134507204Y-105347338D01*
X134488154Y-105382977D01*
X134462517Y-105414217D01*
X134431277Y-105439854D01*
X134395638Y-105458904D01*
X134356968Y-105470635D01*
X134310612Y-105475200D01*
X133659388Y-105475200D01*
X133613032Y-105470635D01*
X133574362Y-105458904D01*
X133538723Y-105439854D01*
X133507483Y-105414217D01*
X133481846Y-105382977D01*
X133462796Y-105347338D01*
X133451065Y-105308668D01*
X133446500Y-105262312D01*
X133446500Y-104186088D01*
X133451065Y-104139732D01*
X133462796Y-104101062D01*
X133481846Y-104065423D01*
X133507483Y-104034183D01*
X133538723Y-104008546D01*
X133574362Y-103989496D01*
X133613032Y-103977765D01*
X133659388Y-103973200D01*
X134310612Y-103973200D01*
X134356968Y-103977765D01*
G37*
G36*
X102565468Y-104111765D02*
G01*
X102604138Y-104123496D01*
X102639777Y-104142546D01*
X102671017Y-104168183D01*
X102696653Y-104199421D01*
X102715704Y-104235062D01*
X102727435Y-104273732D01*
X102732000Y-104320088D01*
X102732000Y-104971312D01*
X102727435Y-105017668D01*
X102715704Y-105056338D01*
X102696654Y-105091977D01*
X102671017Y-105123217D01*
X102639777Y-105148854D01*
X102604138Y-105167904D01*
X102565468Y-105179635D01*
X102519112Y-105184200D01*
X101442888Y-105184200D01*
X101396532Y-105179635D01*
X101357862Y-105167904D01*
X101322223Y-105148854D01*
X101290983Y-105123217D01*
X101265346Y-105091977D01*
X101246296Y-105056338D01*
X101234565Y-105017668D01*
X101230000Y-104971312D01*
X101230000Y-104320088D01*
X101234565Y-104273732D01*
X101246296Y-104235062D01*
X101265347Y-104199421D01*
X101290983Y-104168183D01*
X101322223Y-104142546D01*
X101357862Y-104123496D01*
X101396532Y-104111765D01*
X101442888Y-104107200D01*
X102519112Y-104107200D01*
X102565468Y-104111765D01*
G37*
G36*
X106747000Y-105135400D02*
G01*
X106245000Y-105135400D01*
X106245000Y-104133400D01*
X106747000Y-104133400D01*
X106747000Y-105135400D01*
G37*
G36*
X108347000Y-105135400D02*
G01*
X107845000Y-105135400D01*
X107845000Y-104133400D01*
X108347000Y-104133400D01*
X108347000Y-105135400D01*
G37*
G36*
X107547000Y-105135400D02*
G01*
X107045000Y-105135400D01*
X107045000Y-104133400D01*
X107547000Y-104133400D01*
X107547000Y-105135400D01*
G37*
G36*
X109147000Y-105135400D02*
G01*
X108645000Y-105135400D01*
X108645000Y-104133400D01*
X109147000Y-104133400D01*
X109147000Y-105135400D01*
G37*
G36*
X105230791Y-104061985D02*
G01*
X105264769Y-104072293D01*
X105296090Y-104089034D01*
X105323539Y-104111561D01*
X105346066Y-104139010D01*
X105362807Y-104170331D01*
X105373115Y-104204309D01*
X105377200Y-104245790D01*
X105377200Y-104847010D01*
X105373115Y-104888491D01*
X105362807Y-104922469D01*
X105346066Y-104953790D01*
X105323539Y-104981239D01*
X105296090Y-105003766D01*
X105264769Y-105020507D01*
X105230791Y-105030815D01*
X105189310Y-105034900D01*
X104513090Y-105034900D01*
X104471609Y-105030815D01*
X104437631Y-105020507D01*
X104406310Y-105003766D01*
X104378861Y-104981239D01*
X104356334Y-104953790D01*
X104339593Y-104922469D01*
X104329285Y-104888491D01*
X104325200Y-104847010D01*
X104325200Y-104245790D01*
X104329285Y-104204309D01*
X104339593Y-104170331D01*
X104356334Y-104139010D01*
X104378861Y-104111561D01*
X104406310Y-104089034D01*
X104437631Y-104072293D01*
X104471609Y-104061985D01*
X104513090Y-104057900D01*
X105189310Y-104057900D01*
X105230791Y-104061985D01*
G37*
G36*
X146773112Y-102905727D02*
G01*
X146922412Y-102935424D01*
X147086384Y-103003344D01*
X147233954Y-103101947D01*
X147359453Y-103227446D01*
X147458056Y-103375016D01*
X147525976Y-103538988D01*
X147560600Y-103713059D01*
X147560600Y-103890541D01*
X147525976Y-104064612D01*
X147458056Y-104228584D01*
X147359453Y-104376154D01*
X147233954Y-104501653D01*
X147086384Y-104600256D01*
X146922412Y-104668176D01*
X146773112Y-104697873D01*
X146748342Y-104702800D01*
X146570858Y-104702800D01*
X146546088Y-104697873D01*
X146396788Y-104668176D01*
X146232816Y-104600256D01*
X146085246Y-104501653D01*
X145959747Y-104376154D01*
X145861144Y-104228584D01*
X145793224Y-104064612D01*
X145758600Y-103890541D01*
X145758600Y-103713059D01*
X145793224Y-103538988D01*
X145861144Y-103375016D01*
X145959747Y-103227446D01*
X146085246Y-103101947D01*
X146232816Y-103003344D01*
X146396788Y-102935424D01*
X146546088Y-102905727D01*
X146570858Y-102900800D01*
X146748342Y-102900800D01*
X146773112Y-102905727D01*
G37*
G36*
X144422128Y-103265705D02*
G01*
X144460798Y-103277436D01*
X144496437Y-103296486D01*
X144527677Y-103322123D01*
X144553314Y-103353363D01*
X144572364Y-103389002D01*
X144584095Y-103427672D01*
X144588660Y-103474028D01*
X144588660Y-104125252D01*
X144584095Y-104171608D01*
X144572364Y-104210278D01*
X144553314Y-104245917D01*
X144527677Y-104277157D01*
X144496437Y-104302794D01*
X144460798Y-104321844D01*
X144422128Y-104333575D01*
X144375772Y-104338140D01*
X143299548Y-104338140D01*
X143253192Y-104333575D01*
X143214522Y-104321844D01*
X143178883Y-104302794D01*
X143147643Y-104277157D01*
X143122006Y-104245917D01*
X143102956Y-104210278D01*
X143091225Y-104171608D01*
X143086660Y-104125252D01*
X143086660Y-103474028D01*
X143091225Y-103427672D01*
X143102956Y-103389002D01*
X143122006Y-103353363D01*
X143147643Y-103322123D01*
X143178883Y-103296486D01*
X143214522Y-103277436D01*
X143253192Y-103265705D01*
X143299548Y-103261140D01*
X144375772Y-103261140D01*
X144422128Y-103265705D01*
G37*
G36*
X116764068Y-102693965D02*
G01*
X116802738Y-102705696D01*
X116838377Y-102724746D01*
X116869617Y-102750383D01*
X116895254Y-102781623D01*
X116914304Y-102817262D01*
X116926035Y-102855932D01*
X116930600Y-102902288D01*
X116930600Y-103553512D01*
X116926035Y-103599868D01*
X116914304Y-103638538D01*
X116895254Y-103674177D01*
X116869617Y-103705417D01*
X116838377Y-103731054D01*
X116802738Y-103750104D01*
X116764068Y-103761835D01*
X116717712Y-103766400D01*
X115641488Y-103766400D01*
X115595132Y-103761835D01*
X115556462Y-103750104D01*
X115520823Y-103731054D01*
X115489583Y-103705417D01*
X115463946Y-103674177D01*
X115444896Y-103638538D01*
X115433165Y-103599868D01*
X115428600Y-103553512D01*
X115428600Y-102902288D01*
X115433165Y-102855932D01*
X115444896Y-102817262D01*
X115463946Y-102781623D01*
X115489583Y-102750383D01*
X115520823Y-102724746D01*
X115556462Y-102705696D01*
X115595132Y-102693965D01*
X115641488Y-102689400D01*
X116717712Y-102689400D01*
X116764068Y-102693965D01*
G37*
G36*
X118948468Y-102693965D02*
G01*
X118987138Y-102705696D01*
X119022777Y-102724746D01*
X119054017Y-102750383D01*
X119079654Y-102781623D01*
X119098704Y-102817262D01*
X119110435Y-102855932D01*
X119115000Y-102902288D01*
X119115000Y-103553512D01*
X119110435Y-103599868D01*
X119098704Y-103638538D01*
X119079654Y-103674177D01*
X119054017Y-103705417D01*
X119022777Y-103731054D01*
X118987138Y-103750104D01*
X118948468Y-103761835D01*
X118902112Y-103766400D01*
X117825888Y-103766400D01*
X117779532Y-103761835D01*
X117740862Y-103750104D01*
X117705223Y-103731054D01*
X117673983Y-103705417D01*
X117648346Y-103674177D01*
X117629296Y-103638538D01*
X117617565Y-103599868D01*
X117613000Y-103553512D01*
X117613000Y-102902288D01*
X117617565Y-102855932D01*
X117629296Y-102817262D01*
X117648346Y-102781623D01*
X117673983Y-102750383D01*
X117705223Y-102724746D01*
X117740862Y-102705696D01*
X117779532Y-102693965D01*
X117825888Y-102689400D01*
X118902112Y-102689400D01*
X118948468Y-102693965D01*
G37*
G36*
X125806468Y-102668565D02*
G01*
X125845138Y-102680296D01*
X125880777Y-102699346D01*
X125912017Y-102724983D01*
X125937654Y-102756223D01*
X125956704Y-102791862D01*
X125968435Y-102830532D01*
X125973000Y-102876888D01*
X125973000Y-103528112D01*
X125968435Y-103574468D01*
X125956704Y-103613138D01*
X125937654Y-103648777D01*
X125912017Y-103680017D01*
X125880777Y-103705654D01*
X125845138Y-103724704D01*
X125806468Y-103736435D01*
X125760112Y-103741000D01*
X124683888Y-103741000D01*
X124637532Y-103736435D01*
X124598862Y-103724704D01*
X124563223Y-103705654D01*
X124531983Y-103680017D01*
X124506346Y-103648777D01*
X124487296Y-103613138D01*
X124475565Y-103574468D01*
X124471000Y-103528112D01*
X124471000Y-102876888D01*
X124475565Y-102830532D01*
X124487296Y-102791862D01*
X124506346Y-102756223D01*
X124531983Y-102724983D01*
X124563223Y-102699346D01*
X124598862Y-102680296D01*
X124637532Y-102668565D01*
X124683888Y-102664000D01*
X125760112Y-102664000D01*
X125806468Y-102668565D01*
G37*
G36*
X123520468Y-102668565D02*
G01*
X123559138Y-102680296D01*
X123594777Y-102699346D01*
X123626017Y-102724983D01*
X123651654Y-102756223D01*
X123670704Y-102791862D01*
X123682435Y-102830532D01*
X123687000Y-102876888D01*
X123687000Y-103528112D01*
X123682435Y-103574468D01*
X123670704Y-103613138D01*
X123651654Y-103648777D01*
X123626017Y-103680017D01*
X123594777Y-103705654D01*
X123559138Y-103724704D01*
X123520468Y-103736435D01*
X123474112Y-103741000D01*
X122397888Y-103741000D01*
X122351532Y-103736435D01*
X122312862Y-103724704D01*
X122277223Y-103705654D01*
X122245983Y-103680017D01*
X122220346Y-103648777D01*
X122201296Y-103613138D01*
X122189565Y-103574468D01*
X122185000Y-103528112D01*
X122185000Y-102876888D01*
X122189565Y-102830532D01*
X122201296Y-102791862D01*
X122220346Y-102756223D01*
X122245983Y-102724983D01*
X122277223Y-102699346D01*
X122312862Y-102680296D01*
X122351532Y-102668565D01*
X122397888Y-102664000D01*
X123474112Y-102664000D01*
X123520468Y-102668565D01*
G37*
G36*
X121234468Y-102668565D02*
G01*
X121273138Y-102680296D01*
X121308777Y-102699346D01*
X121340017Y-102724983D01*
X121365654Y-102756223D01*
X121384704Y-102791862D01*
X121396435Y-102830532D01*
X121401000Y-102876888D01*
X121401000Y-103528112D01*
X121396435Y-103574468D01*
X121384704Y-103613138D01*
X121365654Y-103648777D01*
X121340017Y-103680017D01*
X121308777Y-103705654D01*
X121273138Y-103724704D01*
X121234468Y-103736435D01*
X121188112Y-103741000D01*
X120111888Y-103741000D01*
X120065532Y-103736435D01*
X120026862Y-103724704D01*
X119991223Y-103705654D01*
X119959983Y-103680017D01*
X119934346Y-103648777D01*
X119915296Y-103613138D01*
X119903565Y-103574468D01*
X119899000Y-103528112D01*
X119899000Y-102876888D01*
X119903565Y-102830532D01*
X119915296Y-102791862D01*
X119934346Y-102756223D01*
X119959983Y-102724983D01*
X119991223Y-102699346D01*
X120026862Y-102680296D01*
X120065532Y-102668565D01*
X120111888Y-102664000D01*
X121188112Y-102664000D01*
X121234468Y-102668565D01*
G37*
G36*
X114566400Y-103520400D02*
G01*
X113404400Y-103520400D01*
X113404400Y-102768400D01*
X114566400Y-102768400D01*
X114566400Y-103520400D01*
G37*
G36*
X112366400Y-103520400D02*
G01*
X111204400Y-103520400D01*
X111204400Y-100868400D01*
X112366400Y-100868400D01*
X112366400Y-103520400D01*
G37*
G36*
X105230791Y-102486985D02*
G01*
X105264769Y-102497293D01*
X105296090Y-102514034D01*
X105323539Y-102536561D01*
X105346066Y-102564010D01*
X105362807Y-102595331D01*
X105373115Y-102629309D01*
X105377200Y-102670790D01*
X105377200Y-103272010D01*
X105373115Y-103313491D01*
X105362807Y-103347469D01*
X105346066Y-103378790D01*
X105323539Y-103406239D01*
X105296090Y-103428766D01*
X105264769Y-103445507D01*
X105230791Y-103455815D01*
X105189310Y-103459900D01*
X104513090Y-103459900D01*
X104471609Y-103455815D01*
X104437631Y-103445507D01*
X104406310Y-103428766D01*
X104378861Y-103406239D01*
X104356334Y-103378790D01*
X104339593Y-103347469D01*
X104329285Y-103313491D01*
X104325200Y-103272010D01*
X104325200Y-102670790D01*
X104329285Y-102629309D01*
X104339593Y-102595331D01*
X104356334Y-102564010D01*
X104378861Y-102536561D01*
X104406310Y-102514034D01*
X104437631Y-102497293D01*
X104471609Y-102486985D01*
X104513090Y-102482900D01*
X105189310Y-102482900D01*
X105230791Y-102486985D01*
G37*
G36*
X109147000Y-103435400D02*
G01*
X108645000Y-103435400D01*
X108645000Y-102433400D01*
X109147000Y-102433400D01*
X109147000Y-103435400D01*
G37*
G36*
X108347000Y-103435400D02*
G01*
X107845000Y-103435400D01*
X107845000Y-102433400D01*
X108347000Y-102433400D01*
X108347000Y-103435400D01*
G37*
G36*
X107547000Y-103435400D02*
G01*
X107045000Y-103435400D01*
X107045000Y-102433400D01*
X107547000Y-102433400D01*
X107547000Y-103435400D01*
G37*
G36*
X106747000Y-103435400D02*
G01*
X106245000Y-103435400D01*
X106245000Y-102433400D01*
X106747000Y-102433400D01*
X106747000Y-103435400D01*
G37*
G36*
X102565468Y-102236765D02*
G01*
X102604138Y-102248496D01*
X102639777Y-102267546D01*
X102671017Y-102293183D01*
X102696654Y-102324423D01*
X102715704Y-102360062D01*
X102727435Y-102398732D01*
X102732000Y-102445088D01*
X102732000Y-103096312D01*
X102727435Y-103142668D01*
X102715704Y-103181338D01*
X102696654Y-103216977D01*
X102671017Y-103248217D01*
X102639777Y-103273854D01*
X102604138Y-103292904D01*
X102565468Y-103304635D01*
X102519112Y-103309200D01*
X101442888Y-103309200D01*
X101396532Y-103304635D01*
X101357862Y-103292904D01*
X101322223Y-103273854D01*
X101290983Y-103248217D01*
X101265346Y-103216977D01*
X101246296Y-103181338D01*
X101234565Y-103142668D01*
X101230000Y-103096312D01*
X101230000Y-102445088D01*
X101234565Y-102398732D01*
X101246296Y-102360062D01*
X101265346Y-102324423D01*
X101290983Y-102293183D01*
X101322223Y-102267546D01*
X101357862Y-102248496D01*
X101396532Y-102236765D01*
X101442888Y-102232200D01*
X102519112Y-102232200D01*
X102565468Y-102236765D01*
G37*
G36*
X133253442Y-101591781D02*
G01*
X133399214Y-101652162D01*
X133399216Y-101652163D01*
X133530408Y-101739822D01*
X133641978Y-101851392D01*
X133715651Y-101961653D01*
X133729638Y-101982586D01*
X133790019Y-102128358D01*
X133820800Y-102283107D01*
X133820800Y-102440893D01*
X133790019Y-102595642D01*
X133736542Y-102724746D01*
X133729637Y-102741416D01*
X133641978Y-102872608D01*
X133530408Y-102984178D01*
X133399216Y-103071837D01*
X133399215Y-103071838D01*
X133399214Y-103071838D01*
X133253442Y-103132219D01*
X133098693Y-103163000D01*
X132940907Y-103163000D01*
X132786158Y-103132219D01*
X132640386Y-103071838D01*
X132640385Y-103071838D01*
X132640384Y-103071837D01*
X132509192Y-102984178D01*
X132397622Y-102872608D01*
X132309963Y-102741416D01*
X132303058Y-102724746D01*
X132249581Y-102595642D01*
X132218800Y-102440893D01*
X132218800Y-102283107D01*
X132249581Y-102128358D01*
X132309962Y-101982586D01*
X132323949Y-101961653D01*
X132397622Y-101851392D01*
X132509192Y-101739822D01*
X132640384Y-101652163D01*
X132640386Y-101652162D01*
X132786158Y-101591781D01*
X132940907Y-101561000D01*
X133098693Y-101561000D01*
X133253442Y-101591781D01*
G37*
G36*
X103704091Y-101686528D02*
G01*
X103763420Y-101711103D01*
X103816810Y-101746777D01*
X103862223Y-101792190D01*
X103897897Y-101845580D01*
X103922472Y-101904909D01*
X103935000Y-101967892D01*
X103935000Y-102032108D01*
X103922472Y-102095091D01*
X103897897Y-102154420D01*
X103862223Y-102207810D01*
X103816810Y-102253223D01*
X103763420Y-102288897D01*
X103704091Y-102313472D01*
X103641108Y-102326000D01*
X103576892Y-102326000D01*
X103513909Y-102313472D01*
X103454580Y-102288897D01*
X103401190Y-102253223D01*
X103355777Y-102207810D01*
X103320103Y-102154420D01*
X103295528Y-102095091D01*
X103283000Y-102032108D01*
X103283000Y-101967892D01*
X103295528Y-101904909D01*
X103320103Y-101845580D01*
X103355777Y-101792190D01*
X103401190Y-101746777D01*
X103454580Y-101711103D01*
X103513909Y-101686528D01*
X103576892Y-101674000D01*
X103641108Y-101674000D01*
X103704091Y-101686528D01*
G37*
G36*
X146773112Y-100365727D02*
G01*
X146922412Y-100395424D01*
X147086384Y-100463344D01*
X147233954Y-100561947D01*
X147359453Y-100687446D01*
X147458056Y-100835016D01*
X147525976Y-100998988D01*
X147547396Y-101106678D01*
X147557380Y-101156868D01*
X147560600Y-101173059D01*
X147560600Y-101350541D01*
X147525976Y-101524612D01*
X147458056Y-101688584D01*
X147359453Y-101836154D01*
X147233954Y-101961653D01*
X147086384Y-102060256D01*
X146922412Y-102128176D01*
X146773112Y-102157873D01*
X146748342Y-102162800D01*
X146570858Y-102162800D01*
X146546088Y-102157873D01*
X146396788Y-102128176D01*
X146232816Y-102060256D01*
X146085246Y-101961653D01*
X145959747Y-101836154D01*
X145861144Y-101688584D01*
X145793224Y-101524612D01*
X145758600Y-101350541D01*
X145758600Y-101173059D01*
X145761821Y-101156868D01*
X145771804Y-101106678D01*
X145793224Y-100998988D01*
X145861144Y-100835016D01*
X145959747Y-100687446D01*
X146085246Y-100561947D01*
X146232816Y-100463344D01*
X146396788Y-100395424D01*
X146546088Y-100365727D01*
X146570858Y-100360800D01*
X146748342Y-100360800D01*
X146773112Y-100365727D01*
G37*
G36*
X114566400Y-101620400D02*
G01*
X113404400Y-101620400D01*
X113404400Y-100868400D01*
X114566400Y-100868400D01*
X114566400Y-101620400D01*
G37*
G36*
X107289868Y-100250965D02*
G01*
X107328538Y-100262696D01*
X107364177Y-100281746D01*
X107395417Y-100307383D01*
X107421054Y-100338623D01*
X107440104Y-100374262D01*
X107451835Y-100412932D01*
X107456400Y-100459288D01*
X107456400Y-101110512D01*
X107451835Y-101156868D01*
X107440104Y-101195538D01*
X107421054Y-101231177D01*
X107395417Y-101262417D01*
X107364177Y-101288054D01*
X107328538Y-101307104D01*
X107289868Y-101318835D01*
X107243512Y-101323400D01*
X106167288Y-101323400D01*
X106120932Y-101318835D01*
X106082262Y-101307104D01*
X106046623Y-101288054D01*
X106015383Y-101262417D01*
X105989746Y-101231177D01*
X105970696Y-101195538D01*
X105958965Y-101156868D01*
X105954400Y-101110512D01*
X105954400Y-100459288D01*
X105958965Y-100412932D01*
X105970696Y-100374262D01*
X105989746Y-100338623D01*
X106015383Y-100307383D01*
X106046623Y-100281746D01*
X106082262Y-100262696D01*
X106120932Y-100250965D01*
X106167288Y-100246400D01*
X107243512Y-100246400D01*
X107289868Y-100250965D01*
G37*
G36*
X135839468Y-100250965D02*
G01*
X135878138Y-100262696D01*
X135913777Y-100281746D01*
X135945017Y-100307383D01*
X135970654Y-100338623D01*
X135989704Y-100374262D01*
X136001435Y-100412932D01*
X136006000Y-100459288D01*
X136006000Y-101110512D01*
X136001435Y-101156868D01*
X135989704Y-101195538D01*
X135970654Y-101231177D01*
X135945017Y-101262417D01*
X135913777Y-101288054D01*
X135878138Y-101307104D01*
X135839468Y-101318835D01*
X135793112Y-101323400D01*
X134716888Y-101323400D01*
X134670532Y-101318835D01*
X134631862Y-101307104D01*
X134596223Y-101288054D01*
X134564983Y-101262417D01*
X134539346Y-101231177D01*
X134520296Y-101195538D01*
X134508565Y-101156868D01*
X134504000Y-101110512D01*
X134504000Y-100459288D01*
X134508565Y-100412932D01*
X134520296Y-100374262D01*
X134539346Y-100338623D01*
X134564983Y-100307383D01*
X134596223Y-100281746D01*
X134631862Y-100262696D01*
X134670532Y-100250965D01*
X134716888Y-100246400D01*
X135793112Y-100246400D01*
X135839468Y-100250965D01*
G37*
G36*
X138023868Y-100250965D02*
G01*
X138062538Y-100262696D01*
X138098177Y-100281746D01*
X138129417Y-100307383D01*
X138155054Y-100338623D01*
X138174104Y-100374262D01*
X138185835Y-100412932D01*
X138190400Y-100459288D01*
X138190400Y-101110512D01*
X138185835Y-101156868D01*
X138174104Y-101195538D01*
X138155054Y-101231177D01*
X138129417Y-101262417D01*
X138098177Y-101288054D01*
X138062538Y-101307104D01*
X138023868Y-101318835D01*
X137977512Y-101323400D01*
X136901288Y-101323400D01*
X136854932Y-101318835D01*
X136816262Y-101307104D01*
X136780623Y-101288054D01*
X136749383Y-101262417D01*
X136723746Y-101231177D01*
X136704696Y-101195538D01*
X136692965Y-101156868D01*
X136688400Y-101110512D01*
X136688400Y-100459288D01*
X136692965Y-100412932D01*
X136704696Y-100374262D01*
X136723746Y-100338623D01*
X136749383Y-100307383D01*
X136780623Y-100281746D01*
X136816262Y-100262696D01*
X136854932Y-100250965D01*
X136901288Y-100246400D01*
X137977512Y-100246400D01*
X138023868Y-100250965D01*
G37*
G36*
X141336028Y-99829085D02*
G01*
X141374698Y-99840816D01*
X141410337Y-99859866D01*
X141441577Y-99885503D01*
X141467214Y-99916743D01*
X141486264Y-99952382D01*
X141497995Y-99991052D01*
X141502560Y-100037408D01*
X141502560Y-100688632D01*
X141497995Y-100734988D01*
X141486264Y-100773658D01*
X141467214Y-100809297D01*
X141441577Y-100840537D01*
X141410337Y-100866174D01*
X141374698Y-100885224D01*
X141336028Y-100896955D01*
X141289672Y-100901520D01*
X140213448Y-100901520D01*
X140167092Y-100896955D01*
X140128422Y-100885224D01*
X140092783Y-100866174D01*
X140061543Y-100840537D01*
X140035906Y-100809297D01*
X140016856Y-100773658D01*
X140005125Y-100734988D01*
X140000560Y-100688632D01*
X140000560Y-100037408D01*
X140005125Y-99991052D01*
X140016856Y-99952382D01*
X140035906Y-99916743D01*
X140061543Y-99885503D01*
X140092783Y-99859866D01*
X140128422Y-99840816D01*
X140167092Y-99829085D01*
X140213448Y-99824520D01*
X141289672Y-99824520D01*
X141336028Y-99829085D01*
G37*
G36*
X112127512Y-97935327D02*
G01*
X112276812Y-97965024D01*
X112440784Y-98032944D01*
X112588354Y-98131547D01*
X112713853Y-98257046D01*
X112812456Y-98404616D01*
X112880376Y-98568588D01*
X112915000Y-98742659D01*
X112915000Y-98920141D01*
X112880376Y-99094212D01*
X112812456Y-99258184D01*
X112713853Y-99405754D01*
X112588354Y-99531253D01*
X112440784Y-99629856D01*
X112276812Y-99697776D01*
X112127512Y-99727473D01*
X112102742Y-99732400D01*
X111925258Y-99732400D01*
X111900488Y-99727473D01*
X111751188Y-99697776D01*
X111587216Y-99629856D01*
X111439646Y-99531253D01*
X111314147Y-99405754D01*
X111215544Y-99258184D01*
X111147624Y-99094212D01*
X111113000Y-98920141D01*
X111113000Y-98742659D01*
X111147624Y-98568588D01*
X111215544Y-98404616D01*
X111314147Y-98257046D01*
X111439646Y-98131547D01*
X111587216Y-98032944D01*
X111751188Y-97965024D01*
X111900488Y-97935327D01*
X111925258Y-97930400D01*
X112102742Y-97930400D01*
X112127512Y-97935327D01*
G37*
G36*
X114667512Y-97935327D02*
G01*
X114816812Y-97965024D01*
X114980784Y-98032944D01*
X115128354Y-98131547D01*
X115253853Y-98257046D01*
X115352456Y-98404616D01*
X115420376Y-98568588D01*
X115455000Y-98742659D01*
X115455000Y-98920141D01*
X115420376Y-99094212D01*
X115352456Y-99258184D01*
X115253853Y-99405754D01*
X115128354Y-99531253D01*
X114980784Y-99629856D01*
X114816812Y-99697776D01*
X114667512Y-99727473D01*
X114642742Y-99732400D01*
X114465258Y-99732400D01*
X114440488Y-99727473D01*
X114291188Y-99697776D01*
X114127216Y-99629856D01*
X113979646Y-99531253D01*
X113854147Y-99405754D01*
X113755544Y-99258184D01*
X113687624Y-99094212D01*
X113653000Y-98920141D01*
X113653000Y-98742659D01*
X113687624Y-98568588D01*
X113755544Y-98404616D01*
X113854147Y-98257046D01*
X113979646Y-98131547D01*
X114127216Y-98032944D01*
X114291188Y-97965024D01*
X114440488Y-97935327D01*
X114465258Y-97930400D01*
X114642742Y-97930400D01*
X114667512Y-97935327D01*
G37*
G36*
X109587512Y-97935327D02*
G01*
X109736812Y-97965024D01*
X109900784Y-98032944D01*
X110048354Y-98131547D01*
X110173853Y-98257046D01*
X110272456Y-98404616D01*
X110340376Y-98568588D01*
X110375000Y-98742659D01*
X110375000Y-98920141D01*
X110340376Y-99094212D01*
X110272456Y-99258184D01*
X110173853Y-99405754D01*
X110048354Y-99531253D01*
X109900784Y-99629856D01*
X109736812Y-99697776D01*
X109587512Y-99727473D01*
X109562742Y-99732400D01*
X109385258Y-99732400D01*
X109360488Y-99727473D01*
X109211188Y-99697776D01*
X109047216Y-99629856D01*
X108899646Y-99531253D01*
X108774147Y-99405754D01*
X108675544Y-99258184D01*
X108607624Y-99094212D01*
X108573000Y-98920141D01*
X108573000Y-98742659D01*
X108607624Y-98568588D01*
X108675544Y-98404616D01*
X108774147Y-98257046D01*
X108899646Y-98131547D01*
X109047216Y-98032944D01*
X109211188Y-97965024D01*
X109360488Y-97935327D01*
X109385258Y-97930400D01*
X109562742Y-97930400D01*
X109587512Y-97935327D01*
G37*
G36*
X146773112Y-97825727D02*
G01*
X146922412Y-97855424D01*
X147086384Y-97923344D01*
X147233954Y-98021947D01*
X147359453Y-98147446D01*
X147458056Y-98295016D01*
X147525976Y-98458988D01*
X147560600Y-98633059D01*
X147560600Y-98810541D01*
X147525976Y-98984612D01*
X147458056Y-99148584D01*
X147359453Y-99296154D01*
X147233954Y-99421653D01*
X147086384Y-99520256D01*
X146922412Y-99588176D01*
X146773112Y-99617873D01*
X146748342Y-99622800D01*
X146570858Y-99622800D01*
X146546088Y-99617873D01*
X146396788Y-99588176D01*
X146232816Y-99520256D01*
X146085246Y-99421653D01*
X145959747Y-99296154D01*
X145861144Y-99148584D01*
X145793224Y-98984612D01*
X145758600Y-98810541D01*
X145758600Y-98633059D01*
X145793224Y-98458988D01*
X145861144Y-98295016D01*
X145959747Y-98147446D01*
X146085246Y-98021947D01*
X146232816Y-97923344D01*
X146396788Y-97855424D01*
X146546088Y-97825727D01*
X146570858Y-97820800D01*
X146748342Y-97820800D01*
X146773112Y-97825727D01*
G37*
G36*
X138023868Y-98375965D02*
G01*
X138062538Y-98387696D01*
X138098177Y-98406746D01*
X138129417Y-98432383D01*
X138155054Y-98463623D01*
X138174104Y-98499262D01*
X138185835Y-98537932D01*
X138190400Y-98584288D01*
X138190400Y-99235512D01*
X138185835Y-99281868D01*
X138174104Y-99320538D01*
X138155054Y-99356177D01*
X138129417Y-99387417D01*
X138098177Y-99413054D01*
X138062538Y-99432104D01*
X138023868Y-99443835D01*
X137977512Y-99448400D01*
X136901288Y-99448400D01*
X136854932Y-99443835D01*
X136816262Y-99432104D01*
X136780623Y-99413054D01*
X136749383Y-99387417D01*
X136723746Y-99356177D01*
X136704696Y-99320538D01*
X136692965Y-99281868D01*
X136688400Y-99235512D01*
X136688400Y-98584288D01*
X136692965Y-98537932D01*
X136704696Y-98499262D01*
X136723746Y-98463623D01*
X136749383Y-98432383D01*
X136780623Y-98406746D01*
X136816262Y-98387696D01*
X136854932Y-98375965D01*
X136901288Y-98371400D01*
X137977512Y-98371400D01*
X138023868Y-98375965D01*
G37*
G36*
X135839468Y-98375965D02*
G01*
X135878138Y-98387696D01*
X135913777Y-98406746D01*
X135945017Y-98432383D01*
X135970654Y-98463623D01*
X135989704Y-98499262D01*
X136001435Y-98537932D01*
X136006000Y-98584288D01*
X136006000Y-99235512D01*
X136001435Y-99281868D01*
X135989704Y-99320538D01*
X135970654Y-99356177D01*
X135945017Y-99387417D01*
X135913777Y-99413054D01*
X135878138Y-99432104D01*
X135839468Y-99443835D01*
X135793112Y-99448400D01*
X134716888Y-99448400D01*
X134670532Y-99443835D01*
X134631862Y-99432104D01*
X134596223Y-99413054D01*
X134564983Y-99387417D01*
X134539346Y-99356177D01*
X134520296Y-99320538D01*
X134508565Y-99281868D01*
X134504000Y-99235512D01*
X134504000Y-98584288D01*
X134508565Y-98537932D01*
X134520296Y-98499262D01*
X134539346Y-98463623D01*
X134564983Y-98432383D01*
X134596223Y-98406746D01*
X134631862Y-98387696D01*
X134670532Y-98375965D01*
X134716888Y-98371400D01*
X135793112Y-98371400D01*
X135839468Y-98375965D01*
G37*
G36*
X107289868Y-98375965D02*
G01*
X107328538Y-98387696D01*
X107364177Y-98406746D01*
X107395417Y-98432383D01*
X107421054Y-98463623D01*
X107440104Y-98499262D01*
X107451835Y-98537932D01*
X107456400Y-98584288D01*
X107456400Y-99235512D01*
X107451835Y-99281868D01*
X107440104Y-99320538D01*
X107421054Y-99356177D01*
X107395417Y-99387417D01*
X107364177Y-99413054D01*
X107328538Y-99432104D01*
X107289868Y-99443835D01*
X107243512Y-99448400D01*
X106167288Y-99448400D01*
X106120932Y-99443835D01*
X106082262Y-99432104D01*
X106046623Y-99413054D01*
X106015383Y-99387417D01*
X105989746Y-99356177D01*
X105970696Y-99320538D01*
X105958965Y-99281868D01*
X105954400Y-99235512D01*
X105954400Y-98584288D01*
X105958965Y-98537932D01*
X105970696Y-98499262D01*
X105989746Y-98463623D01*
X106015383Y-98432383D01*
X106046623Y-98406746D01*
X106082262Y-98387696D01*
X106120932Y-98375965D01*
X106167288Y-98371400D01*
X107243512Y-98371400D01*
X107289868Y-98375965D01*
G37*
G36*
X141336028Y-97954085D02*
G01*
X141374698Y-97965816D01*
X141410337Y-97984866D01*
X141441577Y-98010503D01*
X141467214Y-98041743D01*
X141486264Y-98077382D01*
X141497995Y-98116052D01*
X141502560Y-98162408D01*
X141502560Y-98813632D01*
X141497995Y-98859988D01*
X141486264Y-98898658D01*
X141467214Y-98934297D01*
X141441577Y-98965537D01*
X141410337Y-98991174D01*
X141374698Y-99010224D01*
X141336028Y-99021955D01*
X141289672Y-99026520D01*
X140213448Y-99026520D01*
X140167092Y-99021955D01*
X140128422Y-99010224D01*
X140092783Y-98991174D01*
X140061543Y-98965537D01*
X140035906Y-98934297D01*
X140016856Y-98898658D01*
X140005125Y-98859988D01*
X140000560Y-98813632D01*
X140000560Y-98162408D01*
X140005125Y-98116052D01*
X140016856Y-98077382D01*
X140035906Y-98041743D01*
X140061543Y-98010503D01*
X140092783Y-97984866D01*
X140128422Y-97965816D01*
X140167092Y-97954085D01*
X140213448Y-97949520D01*
X141289672Y-97949520D01*
X141336028Y-97954085D01*
G37*
G36*
X103704091Y-97686528D02*
G01*
X103763420Y-97711103D01*
X103816810Y-97746777D01*
X103862223Y-97792190D01*
X103897897Y-97845580D01*
X103922472Y-97904909D01*
X103935000Y-97967892D01*
X103935000Y-98032108D01*
X103922472Y-98095091D01*
X103897897Y-98154420D01*
X103862223Y-98207810D01*
X103816810Y-98253223D01*
X103763420Y-98288897D01*
X103704091Y-98313472D01*
X103641108Y-98326000D01*
X103576892Y-98326000D01*
X103513909Y-98313472D01*
X103454580Y-98288897D01*
X103401190Y-98253223D01*
X103355777Y-98207810D01*
X103320103Y-98154420D01*
X103295528Y-98095091D01*
X103283000Y-98032108D01*
X103283000Y-97967892D01*
X103295528Y-97904909D01*
X103320103Y-97845580D01*
X103355777Y-97792190D01*
X103401190Y-97746777D01*
X103454580Y-97711103D01*
X103513909Y-97686528D01*
X103576892Y-97674000D01*
X103641108Y-97674000D01*
X103704091Y-97686528D01*
G37*
G36*
X133253442Y-96711781D02*
G01*
X133399214Y-96772162D01*
X133399216Y-96772163D01*
X133530408Y-96859822D01*
X133641978Y-96971392D01*
X133721132Y-97089856D01*
X133729638Y-97102586D01*
X133790019Y-97248358D01*
X133820800Y-97403107D01*
X133820800Y-97560893D01*
X133790019Y-97715642D01*
X133736196Y-97845581D01*
X133729637Y-97861416D01*
X133641978Y-97992608D01*
X133530408Y-98104178D01*
X133399216Y-98191837D01*
X133399215Y-98191838D01*
X133399214Y-98191838D01*
X133253442Y-98252219D01*
X133098693Y-98283000D01*
X132940907Y-98283000D01*
X132786158Y-98252219D01*
X132640386Y-98191838D01*
X132640385Y-98191838D01*
X132640384Y-98191837D01*
X132509192Y-98104178D01*
X132397622Y-97992608D01*
X132309963Y-97861416D01*
X132303404Y-97845581D01*
X132249581Y-97715642D01*
X132218800Y-97560893D01*
X132218800Y-97403107D01*
X132249581Y-97248358D01*
X132309962Y-97102586D01*
X132318468Y-97089856D01*
X132397622Y-96971392D01*
X132509192Y-96859822D01*
X132640384Y-96772163D01*
X132640386Y-96772162D01*
X132786158Y-96711781D01*
X132940907Y-96681000D01*
X133098693Y-96681000D01*
X133253442Y-96711781D01*
G37*
G36*
X117851568Y-96586365D02*
G01*
X117890238Y-96598096D01*
X117925877Y-96617146D01*
X117957117Y-96642783D01*
X117982754Y-96674023D01*
X118001804Y-96709662D01*
X118013535Y-96748332D01*
X118018100Y-96794688D01*
X118018100Y-97870912D01*
X118013535Y-97917268D01*
X118001804Y-97955938D01*
X117982754Y-97991577D01*
X117957117Y-98022817D01*
X117925877Y-98048454D01*
X117890238Y-98067504D01*
X117851568Y-98079235D01*
X117805212Y-98083800D01*
X117153988Y-98083800D01*
X117107632Y-98079235D01*
X117068962Y-98067504D01*
X117033323Y-98048454D01*
X117002083Y-98022817D01*
X116976446Y-97991577D01*
X116957396Y-97955938D01*
X116945665Y-97917268D01*
X116941100Y-97870912D01*
X116941100Y-96794688D01*
X116945665Y-96748332D01*
X116957396Y-96709662D01*
X116976446Y-96674023D01*
X117002083Y-96642783D01*
X117033323Y-96617146D01*
X117068962Y-96598096D01*
X117107632Y-96586365D01*
X117153988Y-96581800D01*
X117805212Y-96581800D01*
X117851568Y-96586365D01*
G37*
G36*
X119726568Y-96586365D02*
G01*
X119765238Y-96598096D01*
X119800877Y-96617146D01*
X119832117Y-96642783D01*
X119857754Y-96674023D01*
X119876804Y-96709662D01*
X119888535Y-96748332D01*
X119893100Y-96794688D01*
X119893100Y-97870912D01*
X119888535Y-97917268D01*
X119876804Y-97955938D01*
X119857754Y-97991577D01*
X119832117Y-98022817D01*
X119800877Y-98048454D01*
X119765238Y-98067504D01*
X119726568Y-98079235D01*
X119680212Y-98083800D01*
X119028988Y-98083800D01*
X118982632Y-98079235D01*
X118943962Y-98067504D01*
X118908323Y-98048454D01*
X118877083Y-98022817D01*
X118851446Y-97991577D01*
X118832396Y-97955938D01*
X118820665Y-97917268D01*
X118816100Y-97870912D01*
X118816100Y-96794688D01*
X118820665Y-96748332D01*
X118832396Y-96709662D01*
X118851446Y-96674023D01*
X118877083Y-96642783D01*
X118908323Y-96617146D01*
X118943962Y-96598096D01*
X118982632Y-96586365D01*
X119028988Y-96581800D01*
X119680212Y-96581800D01*
X119726568Y-96586365D01*
G37*
G36*
X105786568Y-96230765D02*
G01*
X105825238Y-96242496D01*
X105860877Y-96261546D01*
X105892117Y-96287183D01*
X105917754Y-96318423D01*
X105936804Y-96354062D01*
X105948535Y-96392732D01*
X105953100Y-96439088D01*
X105953100Y-97515312D01*
X105948535Y-97561668D01*
X105936804Y-97600338D01*
X105917754Y-97635977D01*
X105892117Y-97667217D01*
X105860877Y-97692854D01*
X105825238Y-97711904D01*
X105786568Y-97723635D01*
X105740212Y-97728200D01*
X105088988Y-97728200D01*
X105042632Y-97723635D01*
X105003962Y-97711904D01*
X104968323Y-97692854D01*
X104937083Y-97667217D01*
X104911446Y-97635977D01*
X104892396Y-97600338D01*
X104880665Y-97561668D01*
X104876100Y-97515312D01*
X104876100Y-96439088D01*
X104880665Y-96392732D01*
X104892396Y-96354062D01*
X104911446Y-96318423D01*
X104937083Y-96287183D01*
X104968323Y-96261546D01*
X105003962Y-96242496D01*
X105042632Y-96230765D01*
X105088988Y-96226200D01*
X105740212Y-96226200D01*
X105786568Y-96230765D01*
G37*
G36*
X107661568Y-96230765D02*
G01*
X107700238Y-96242496D01*
X107735877Y-96261546D01*
X107767117Y-96287183D01*
X107792754Y-96318423D01*
X107811804Y-96354062D01*
X107823535Y-96392732D01*
X107828100Y-96439088D01*
X107828100Y-97515312D01*
X107823535Y-97561668D01*
X107811804Y-97600338D01*
X107792754Y-97635977D01*
X107767117Y-97667217D01*
X107735877Y-97692854D01*
X107700238Y-97711904D01*
X107661568Y-97723635D01*
X107615212Y-97728200D01*
X106963988Y-97728200D01*
X106917632Y-97723635D01*
X106878962Y-97711904D01*
X106843323Y-97692854D01*
X106812083Y-97667217D01*
X106786446Y-97635977D01*
X106767396Y-97600338D01*
X106755665Y-97561668D01*
X106751100Y-97515312D01*
X106751100Y-96439088D01*
X106755665Y-96392732D01*
X106767396Y-96354062D01*
X106786446Y-96318423D01*
X106812083Y-96287183D01*
X106843323Y-96261546D01*
X106878962Y-96242496D01*
X106917632Y-96230765D01*
X106963988Y-96226200D01*
X107615212Y-96226200D01*
X107661568Y-96230765D01*
G37*
G36*
X141402068Y-96390165D02*
G01*
X141440738Y-96401896D01*
X141476377Y-96420946D01*
X141507617Y-96446583D01*
X141533254Y-96477823D01*
X141552304Y-96513462D01*
X141564035Y-96552132D01*
X141568600Y-96598488D01*
X141568600Y-97249712D01*
X141564035Y-97296068D01*
X141552304Y-97334738D01*
X141533254Y-97370377D01*
X141507617Y-97401617D01*
X141476377Y-97427254D01*
X141440738Y-97446304D01*
X141402068Y-97458035D01*
X141355712Y-97462600D01*
X140279488Y-97462600D01*
X140233132Y-97458035D01*
X140194462Y-97446304D01*
X140158823Y-97427254D01*
X140127583Y-97401617D01*
X140101946Y-97370377D01*
X140082896Y-97334738D01*
X140071165Y-97296068D01*
X140066600Y-97249712D01*
X140066600Y-96598488D01*
X140071165Y-96552132D01*
X140082896Y-96513462D01*
X140101946Y-96477823D01*
X140127583Y-96446583D01*
X140158823Y-96420946D01*
X140194462Y-96401896D01*
X140233132Y-96390165D01*
X140279488Y-96385600D01*
X141355712Y-96385600D01*
X141402068Y-96390165D01*
G37*
G36*
X109587512Y-95395327D02*
G01*
X109736812Y-95425024D01*
X109900784Y-95492944D01*
X110048354Y-95591547D01*
X110173853Y-95717046D01*
X110272456Y-95864616D01*
X110340376Y-96028588D01*
X110375000Y-96202659D01*
X110375000Y-96380141D01*
X110340376Y-96554212D01*
X110272456Y-96718184D01*
X110173853Y-96865754D01*
X110048354Y-96991253D01*
X109900784Y-97089856D01*
X109736812Y-97157776D01*
X109587512Y-97187473D01*
X109562742Y-97192400D01*
X109385258Y-97192400D01*
X109360488Y-97187473D01*
X109211188Y-97157776D01*
X109047216Y-97089856D01*
X108899646Y-96991253D01*
X108774147Y-96865754D01*
X108675544Y-96718184D01*
X108607624Y-96554212D01*
X108573000Y-96380141D01*
X108573000Y-96202659D01*
X108607624Y-96028588D01*
X108675544Y-95864616D01*
X108774147Y-95717046D01*
X108899646Y-95591547D01*
X109047216Y-95492944D01*
X109211188Y-95425024D01*
X109360488Y-95395327D01*
X109385258Y-95390400D01*
X109562742Y-95390400D01*
X109587512Y-95395327D01*
G37*
G36*
X112127512Y-95395327D02*
G01*
X112276812Y-95425024D01*
X112440784Y-95492944D01*
X112588354Y-95591547D01*
X112713853Y-95717046D01*
X112812456Y-95864616D01*
X112880376Y-96028588D01*
X112915000Y-96202659D01*
X112915000Y-96380141D01*
X112880376Y-96554212D01*
X112812456Y-96718184D01*
X112713853Y-96865754D01*
X112588354Y-96991253D01*
X112440784Y-97089856D01*
X112276812Y-97157776D01*
X112127512Y-97187473D01*
X112102742Y-97192400D01*
X111925258Y-97192400D01*
X111900488Y-97187473D01*
X111751188Y-97157776D01*
X111587216Y-97089856D01*
X111439646Y-96991253D01*
X111314147Y-96865754D01*
X111215544Y-96718184D01*
X111147624Y-96554212D01*
X111113000Y-96380141D01*
X111113000Y-96202659D01*
X111147624Y-96028588D01*
X111215544Y-95864616D01*
X111314147Y-95717046D01*
X111439646Y-95591547D01*
X111587216Y-95492944D01*
X111751188Y-95425024D01*
X111900488Y-95395327D01*
X111925258Y-95390400D01*
X112102742Y-95390400D01*
X112127512Y-95395327D01*
G37*
G36*
X115455000Y-97192400D02*
G01*
X113653000Y-97192400D01*
X113653000Y-95390400D01*
X115455000Y-95390400D01*
X115455000Y-97192400D01*
G37*
G36*
X147560600Y-97082800D02*
G01*
X145758600Y-97082800D01*
X145758600Y-95280800D01*
X147560600Y-95280800D01*
X147560600Y-97082800D01*
G37*
G36*
X132119468Y-94503565D02*
G01*
X132158138Y-94515296D01*
X132193777Y-94534346D01*
X132225017Y-94559983D01*
X132250654Y-94591223D01*
X132269704Y-94626862D01*
X132281435Y-94665532D01*
X132286000Y-94711888D01*
X132286000Y-95788112D01*
X132281435Y-95834468D01*
X132269704Y-95873138D01*
X132250654Y-95908777D01*
X132225017Y-95940017D01*
X132193777Y-95965654D01*
X132158138Y-95984704D01*
X132119468Y-95996435D01*
X132073112Y-96001000D01*
X131421888Y-96001000D01*
X131375532Y-95996435D01*
X131336862Y-95984704D01*
X131301223Y-95965654D01*
X131269983Y-95940017D01*
X131244346Y-95908777D01*
X131225296Y-95873138D01*
X131213565Y-95834468D01*
X131209000Y-95788112D01*
X131209000Y-94711888D01*
X131213565Y-94665532D01*
X131225296Y-94626862D01*
X131244346Y-94591223D01*
X131269983Y-94559983D01*
X131301223Y-94534346D01*
X131336862Y-94515296D01*
X131375532Y-94503565D01*
X131421888Y-94499000D01*
X132073112Y-94499000D01*
X132119468Y-94503565D01*
G37*
G36*
X130244468Y-94503565D02*
G01*
X130283138Y-94515296D01*
X130318777Y-94534346D01*
X130350017Y-94559983D01*
X130375654Y-94591223D01*
X130394704Y-94626862D01*
X130406435Y-94665532D01*
X130411000Y-94711888D01*
X130411000Y-95788112D01*
X130406435Y-95834468D01*
X130394704Y-95873138D01*
X130375654Y-95908777D01*
X130350017Y-95940017D01*
X130318777Y-95965654D01*
X130283138Y-95984704D01*
X130244468Y-95996435D01*
X130198112Y-96001000D01*
X129546888Y-96001000D01*
X129500532Y-95996435D01*
X129461862Y-95984704D01*
X129426223Y-95965654D01*
X129394983Y-95940017D01*
X129369346Y-95908777D01*
X129350296Y-95873138D01*
X129338565Y-95834468D01*
X129334000Y-95788112D01*
X129334000Y-94711888D01*
X129338565Y-94665532D01*
X129350296Y-94626862D01*
X129369346Y-94591223D01*
X129394983Y-94559983D01*
X129426223Y-94534346D01*
X129461862Y-94515296D01*
X129500532Y-94503565D01*
X129546888Y-94499000D01*
X130198112Y-94499000D01*
X130244468Y-94503565D01*
G37*
G36*
X119724268Y-94478165D02*
G01*
X119762938Y-94489896D01*
X119798577Y-94508946D01*
X119829817Y-94534583D01*
X119855454Y-94565823D01*
X119874504Y-94601462D01*
X119886235Y-94640132D01*
X119890800Y-94686488D01*
X119890800Y-95762712D01*
X119886235Y-95809068D01*
X119874504Y-95847738D01*
X119855454Y-95883377D01*
X119829817Y-95914617D01*
X119798577Y-95940254D01*
X119762938Y-95959304D01*
X119724268Y-95971035D01*
X119677912Y-95975600D01*
X119026688Y-95975600D01*
X118980332Y-95971035D01*
X118941662Y-95959304D01*
X118906023Y-95940254D01*
X118874783Y-95914617D01*
X118849146Y-95883377D01*
X118830096Y-95847738D01*
X118818365Y-95809068D01*
X118813800Y-95762712D01*
X118813800Y-94686488D01*
X118818365Y-94640132D01*
X118830096Y-94601462D01*
X118849146Y-94565823D01*
X118874783Y-94534583D01*
X118906023Y-94508946D01*
X118941662Y-94489896D01*
X118980332Y-94478165D01*
X119026688Y-94473600D01*
X119677912Y-94473600D01*
X119724268Y-94478165D01*
G37*
G36*
X117849268Y-94478165D02*
G01*
X117887938Y-94489896D01*
X117923577Y-94508946D01*
X117954817Y-94534583D01*
X117980454Y-94565823D01*
X117999504Y-94601462D01*
X118011235Y-94640132D01*
X118015800Y-94686488D01*
X118015800Y-95762712D01*
X118011235Y-95809068D01*
X117999504Y-95847738D01*
X117980454Y-95883377D01*
X117954817Y-95914617D01*
X117923577Y-95940254D01*
X117887938Y-95959304D01*
X117849268Y-95971035D01*
X117802912Y-95975600D01*
X117151688Y-95975600D01*
X117105332Y-95971035D01*
X117066662Y-95959304D01*
X117031023Y-95940254D01*
X116999783Y-95914617D01*
X116974146Y-95883377D01*
X116955096Y-95847738D01*
X116943365Y-95809068D01*
X116938800Y-95762712D01*
X116938800Y-94686488D01*
X116943365Y-94640132D01*
X116955096Y-94601462D01*
X116974146Y-94565823D01*
X116999783Y-94534583D01*
X117031023Y-94508946D01*
X117066662Y-94489896D01*
X117105332Y-94478165D01*
X117151688Y-94473600D01*
X117802912Y-94473600D01*
X117849268Y-94478165D01*
G37*
G36*
X107684668Y-94147965D02*
G01*
X107723338Y-94159696D01*
X107758977Y-94178746D01*
X107790217Y-94204383D01*
X107815854Y-94235623D01*
X107834904Y-94271262D01*
X107846635Y-94309932D01*
X107851200Y-94356288D01*
X107851200Y-95432512D01*
X107846635Y-95478868D01*
X107834904Y-95517538D01*
X107815854Y-95553177D01*
X107790217Y-95584417D01*
X107758977Y-95610054D01*
X107723338Y-95629104D01*
X107684668Y-95640835D01*
X107638312Y-95645400D01*
X106987088Y-95645400D01*
X106940732Y-95640835D01*
X106902062Y-95629104D01*
X106866423Y-95610054D01*
X106835183Y-95584417D01*
X106809546Y-95553177D01*
X106790496Y-95517538D01*
X106778765Y-95478868D01*
X106774200Y-95432512D01*
X106774200Y-94356288D01*
X106778765Y-94309932D01*
X106790496Y-94271262D01*
X106809546Y-94235623D01*
X106835183Y-94204383D01*
X106866423Y-94178746D01*
X106902062Y-94159696D01*
X106940732Y-94147965D01*
X106987088Y-94143400D01*
X107638312Y-94143400D01*
X107684668Y-94147965D01*
G37*
G36*
X105809668Y-94147965D02*
G01*
X105848338Y-94159696D01*
X105883977Y-94178746D01*
X105915217Y-94204383D01*
X105940854Y-94235623D01*
X105959904Y-94271262D01*
X105971635Y-94309932D01*
X105976200Y-94356288D01*
X105976200Y-95432512D01*
X105971635Y-95478868D01*
X105959904Y-95517538D01*
X105940854Y-95553177D01*
X105915217Y-95584417D01*
X105883977Y-95610054D01*
X105848338Y-95629104D01*
X105809668Y-95640835D01*
X105763312Y-95645400D01*
X105112088Y-95645400D01*
X105065732Y-95640835D01*
X105027062Y-95629104D01*
X104991423Y-95610054D01*
X104960183Y-95584417D01*
X104934546Y-95553177D01*
X104915496Y-95517538D01*
X104903765Y-95478868D01*
X104899200Y-95432512D01*
X104899200Y-94356288D01*
X104903765Y-94309932D01*
X104915496Y-94271262D01*
X104934546Y-94235623D01*
X104960183Y-94204383D01*
X104991423Y-94178746D01*
X105027062Y-94159696D01*
X105065732Y-94147965D01*
X105112088Y-94143400D01*
X105763312Y-94143400D01*
X105809668Y-94147965D01*
G37*
G36*
X141402068Y-94515165D02*
G01*
X141440738Y-94526896D01*
X141476377Y-94545946D01*
X141507617Y-94571583D01*
X141533254Y-94602823D01*
X141552304Y-94638462D01*
X141564035Y-94677132D01*
X141568600Y-94723488D01*
X141568600Y-95374712D01*
X141564035Y-95421068D01*
X141552304Y-95459738D01*
X141533254Y-95495377D01*
X141507617Y-95526617D01*
X141476377Y-95552254D01*
X141440738Y-95571304D01*
X141402068Y-95583035D01*
X141355712Y-95587600D01*
X140279488Y-95587600D01*
X140233132Y-95583035D01*
X140194462Y-95571304D01*
X140158823Y-95552254D01*
X140127583Y-95526617D01*
X140101946Y-95495377D01*
X140082896Y-95459738D01*
X140071165Y-95421068D01*
X140066600Y-95374712D01*
X140066600Y-94723488D01*
X140071165Y-94677132D01*
X140082896Y-94638462D01*
X140101946Y-94602823D01*
X140127583Y-94571583D01*
X140158823Y-94545946D01*
X140194462Y-94526896D01*
X140233132Y-94515165D01*
X140279488Y-94510600D01*
X141355712Y-94510600D01*
X141402068Y-94515165D01*
G37*
G36*
X145808512Y-91483927D02*
G01*
X145957812Y-91513624D01*
X146121784Y-91581544D01*
X146269354Y-91680147D01*
X146394853Y-91805646D01*
X146493456Y-91953216D01*
X146561376Y-92117188D01*
X146596000Y-92291259D01*
X146596000Y-92468741D01*
X146561376Y-92642812D01*
X146493456Y-92806784D01*
X146394853Y-92954354D01*
X146269354Y-93079853D01*
X146121784Y-93178456D01*
X145957812Y-93246376D01*
X145808512Y-93276073D01*
X145783742Y-93281000D01*
X145606258Y-93281000D01*
X145581488Y-93276073D01*
X145432188Y-93246376D01*
X145268216Y-93178456D01*
X145120646Y-93079853D01*
X144995147Y-92954354D01*
X144896544Y-92806784D01*
X144828624Y-92642812D01*
X144794000Y-92468741D01*
X144794000Y-92291259D01*
X144828624Y-92117188D01*
X144896544Y-91953216D01*
X144995147Y-91805646D01*
X145120646Y-91680147D01*
X145268216Y-91581544D01*
X145432188Y-91513624D01*
X145581488Y-91483927D01*
X145606258Y-91479000D01*
X145783742Y-91479000D01*
X145808512Y-91483927D01*
G37*
G36*
X148348512Y-91483927D02*
G01*
X148497812Y-91513624D01*
X148661784Y-91581544D01*
X148809354Y-91680147D01*
X148934853Y-91805646D01*
X149033456Y-91953216D01*
X149101376Y-92117188D01*
X149136000Y-92291259D01*
X149136000Y-92468741D01*
X149101376Y-92642812D01*
X149033456Y-92806784D01*
X148934853Y-92954354D01*
X148809354Y-93079853D01*
X148661784Y-93178456D01*
X148497812Y-93246376D01*
X148348512Y-93276073D01*
X148323742Y-93281000D01*
X148146258Y-93281000D01*
X148121488Y-93276073D01*
X147972188Y-93246376D01*
X147808216Y-93178456D01*
X147660646Y-93079853D01*
X147535147Y-92954354D01*
X147436544Y-92806784D01*
X147368624Y-92642812D01*
X147334000Y-92468741D01*
X147334000Y-92291259D01*
X147368624Y-92117188D01*
X147436544Y-91953216D01*
X147535147Y-91805646D01*
X147660646Y-91680147D01*
X147808216Y-91581544D01*
X147972188Y-91513624D01*
X148121488Y-91483927D01*
X148146258Y-91479000D01*
X148323742Y-91479000D01*
X148348512Y-91483927D01*
G37*
G36*
X151676000Y-93281000D02*
G01*
X149874000Y-93281000D01*
X149874000Y-91479000D01*
X151676000Y-91479000D01*
X151676000Y-93281000D01*
G37*
G36*
X138188512Y-91483927D02*
G01*
X138337812Y-91513624D01*
X138501784Y-91581544D01*
X138649354Y-91680147D01*
X138774853Y-91805646D01*
X138873456Y-91953216D01*
X138941376Y-92117188D01*
X138976000Y-92291259D01*
X138976000Y-92468741D01*
X138941376Y-92642812D01*
X138873456Y-92806784D01*
X138774853Y-92954354D01*
X138649354Y-93079853D01*
X138501784Y-93178456D01*
X138337812Y-93246376D01*
X138188512Y-93276073D01*
X138163742Y-93281000D01*
X137986258Y-93281000D01*
X137961488Y-93276073D01*
X137812188Y-93246376D01*
X137648216Y-93178456D01*
X137500646Y-93079853D01*
X137375147Y-92954354D01*
X137276544Y-92806784D01*
X137208624Y-92642812D01*
X137174000Y-92468741D01*
X137174000Y-92291259D01*
X137208624Y-92117188D01*
X137276544Y-91953216D01*
X137375147Y-91805646D01*
X137500646Y-91680147D01*
X137648216Y-91581544D01*
X137812188Y-91513624D01*
X137961488Y-91483927D01*
X137986258Y-91479000D01*
X138163742Y-91479000D01*
X138188512Y-91483927D01*
G37*
G36*
X102628512Y-91483927D02*
G01*
X102777812Y-91513624D01*
X102941784Y-91581544D01*
X103089354Y-91680147D01*
X103214853Y-91805646D01*
X103313456Y-91953216D01*
X103381376Y-92117188D01*
X103416000Y-92291259D01*
X103416000Y-92468741D01*
X103381376Y-92642812D01*
X103313456Y-92806784D01*
X103214853Y-92954354D01*
X103089354Y-93079853D01*
X102941784Y-93178456D01*
X102777812Y-93246376D01*
X102628512Y-93276073D01*
X102603742Y-93281000D01*
X102426258Y-93281000D01*
X102401488Y-93276073D01*
X102252188Y-93246376D01*
X102088216Y-93178456D01*
X101940646Y-93079853D01*
X101815147Y-92954354D01*
X101716544Y-92806784D01*
X101648624Y-92642812D01*
X101614000Y-92468741D01*
X101614000Y-92291259D01*
X101648624Y-92117188D01*
X101716544Y-91953216D01*
X101815147Y-91805646D01*
X101940646Y-91680147D01*
X102088216Y-91581544D01*
X102252188Y-91513624D01*
X102401488Y-91483927D01*
X102426258Y-91479000D01*
X102603742Y-91479000D01*
X102628512Y-91483927D01*
G37*
G36*
X105168512Y-91483927D02*
G01*
X105317812Y-91513624D01*
X105481784Y-91581544D01*
X105629354Y-91680147D01*
X105754853Y-91805646D01*
X105853456Y-91953216D01*
X105921376Y-92117188D01*
X105956000Y-92291259D01*
X105956000Y-92468741D01*
X105921376Y-92642812D01*
X105853456Y-92806784D01*
X105754853Y-92954354D01*
X105629354Y-93079853D01*
X105481784Y-93178456D01*
X105317812Y-93246376D01*
X105168512Y-93276073D01*
X105143742Y-93281000D01*
X104966258Y-93281000D01*
X104941488Y-93276073D01*
X104792188Y-93246376D01*
X104628216Y-93178456D01*
X104480646Y-93079853D01*
X104355147Y-92954354D01*
X104256544Y-92806784D01*
X104188624Y-92642812D01*
X104154000Y-92468741D01*
X104154000Y-92291259D01*
X104188624Y-92117188D01*
X104256544Y-91953216D01*
X104355147Y-91805646D01*
X104480646Y-91680147D01*
X104628216Y-91581544D01*
X104792188Y-91513624D01*
X104941488Y-91483927D01*
X104966258Y-91479000D01*
X105143742Y-91479000D01*
X105168512Y-91483927D01*
G37*
G36*
X107708512Y-91483927D02*
G01*
X107857812Y-91513624D01*
X108021784Y-91581544D01*
X108169354Y-91680147D01*
X108294853Y-91805646D01*
X108393456Y-91953216D01*
X108461376Y-92117188D01*
X108496000Y-92291259D01*
X108496000Y-92468741D01*
X108461376Y-92642812D01*
X108393456Y-92806784D01*
X108294853Y-92954354D01*
X108169354Y-93079853D01*
X108021784Y-93178456D01*
X107857812Y-93246376D01*
X107708512Y-93276073D01*
X107683742Y-93281000D01*
X107506258Y-93281000D01*
X107481488Y-93276073D01*
X107332188Y-93246376D01*
X107168216Y-93178456D01*
X107020646Y-93079853D01*
X106895147Y-92954354D01*
X106796544Y-92806784D01*
X106728624Y-92642812D01*
X106694000Y-92468741D01*
X106694000Y-92291259D01*
X106728624Y-92117188D01*
X106796544Y-91953216D01*
X106895147Y-91805646D01*
X107020646Y-91680147D01*
X107168216Y-91581544D01*
X107332188Y-91513624D01*
X107481488Y-91483927D01*
X107506258Y-91479000D01*
X107683742Y-91479000D01*
X107708512Y-91483927D01*
G37*
G36*
X110248512Y-91483927D02*
G01*
X110397812Y-91513624D01*
X110561784Y-91581544D01*
X110709354Y-91680147D01*
X110834853Y-91805646D01*
X110933456Y-91953216D01*
X111001376Y-92117188D01*
X111036000Y-92291259D01*
X111036000Y-92468741D01*
X111001376Y-92642812D01*
X110933456Y-92806784D01*
X110834853Y-92954354D01*
X110709354Y-93079853D01*
X110561784Y-93178456D01*
X110397812Y-93246376D01*
X110248512Y-93276073D01*
X110223742Y-93281000D01*
X110046258Y-93281000D01*
X110021488Y-93276073D01*
X109872188Y-93246376D01*
X109708216Y-93178456D01*
X109560646Y-93079853D01*
X109435147Y-92954354D01*
X109336544Y-92806784D01*
X109268624Y-92642812D01*
X109234000Y-92468741D01*
X109234000Y-92291259D01*
X109268624Y-92117188D01*
X109336544Y-91953216D01*
X109435147Y-91805646D01*
X109560646Y-91680147D01*
X109708216Y-91581544D01*
X109872188Y-91513624D01*
X110021488Y-91483927D01*
X110046258Y-91479000D01*
X110223742Y-91479000D01*
X110248512Y-91483927D01*
G37*
G36*
X112788512Y-91483927D02*
G01*
X112937812Y-91513624D01*
X113101784Y-91581544D01*
X113249354Y-91680147D01*
X113374853Y-91805646D01*
X113473456Y-91953216D01*
X113541376Y-92117188D01*
X113576000Y-92291259D01*
X113576000Y-92468741D01*
X113541376Y-92642812D01*
X113473456Y-92806784D01*
X113374853Y-92954354D01*
X113249354Y-93079853D01*
X113101784Y-93178456D01*
X112937812Y-93246376D01*
X112788512Y-93276073D01*
X112763742Y-93281000D01*
X112586258Y-93281000D01*
X112561488Y-93276073D01*
X112412188Y-93246376D01*
X112248216Y-93178456D01*
X112100646Y-93079853D01*
X111975147Y-92954354D01*
X111876544Y-92806784D01*
X111808624Y-92642812D01*
X111774000Y-92468741D01*
X111774000Y-92291259D01*
X111808624Y-92117188D01*
X111876544Y-91953216D01*
X111975147Y-91805646D01*
X112100646Y-91680147D01*
X112248216Y-91581544D01*
X112412188Y-91513624D01*
X112561488Y-91483927D01*
X112586258Y-91479000D01*
X112763742Y-91479000D01*
X112788512Y-91483927D01*
G37*
G36*
X115328512Y-91483927D02*
G01*
X115477812Y-91513624D01*
X115641784Y-91581544D01*
X115789354Y-91680147D01*
X115914853Y-91805646D01*
X116013456Y-91953216D01*
X116081376Y-92117188D01*
X116116000Y-92291259D01*
X116116000Y-92468741D01*
X116081376Y-92642812D01*
X116013456Y-92806784D01*
X115914853Y-92954354D01*
X115789354Y-93079853D01*
X115641784Y-93178456D01*
X115477812Y-93246376D01*
X115328512Y-93276073D01*
X115303742Y-93281000D01*
X115126258Y-93281000D01*
X115101488Y-93276073D01*
X114952188Y-93246376D01*
X114788216Y-93178456D01*
X114640646Y-93079853D01*
X114515147Y-92954354D01*
X114416544Y-92806784D01*
X114348624Y-92642812D01*
X114314000Y-92468741D01*
X114314000Y-92291259D01*
X114348624Y-92117188D01*
X114416544Y-91953216D01*
X114515147Y-91805646D01*
X114640646Y-91680147D01*
X114788216Y-91581544D01*
X114952188Y-91513624D01*
X115101488Y-91483927D01*
X115126258Y-91479000D01*
X115303742Y-91479000D01*
X115328512Y-91483927D01*
G37*
G36*
X117868512Y-91483927D02*
G01*
X118017812Y-91513624D01*
X118181784Y-91581544D01*
X118329354Y-91680147D01*
X118454853Y-91805646D01*
X118553456Y-91953216D01*
X118621376Y-92117188D01*
X118656000Y-92291259D01*
X118656000Y-92468741D01*
X118621376Y-92642812D01*
X118553456Y-92806784D01*
X118454853Y-92954354D01*
X118329354Y-93079853D01*
X118181784Y-93178456D01*
X118017812Y-93246376D01*
X117868512Y-93276073D01*
X117843742Y-93281000D01*
X117666258Y-93281000D01*
X117641488Y-93276073D01*
X117492188Y-93246376D01*
X117328216Y-93178456D01*
X117180646Y-93079853D01*
X117055147Y-92954354D01*
X116956544Y-92806784D01*
X116888624Y-92642812D01*
X116854000Y-92468741D01*
X116854000Y-92291259D01*
X116888624Y-92117188D01*
X116956544Y-91953216D01*
X117055147Y-91805646D01*
X117180646Y-91680147D01*
X117328216Y-91581544D01*
X117492188Y-91513624D01*
X117641488Y-91483927D01*
X117666258Y-91479000D01*
X117843742Y-91479000D01*
X117868512Y-91483927D01*
G37*
G36*
X120408512Y-91483927D02*
G01*
X120557812Y-91513624D01*
X120721784Y-91581544D01*
X120869354Y-91680147D01*
X120994853Y-91805646D01*
X121093456Y-91953216D01*
X121161376Y-92117188D01*
X121196000Y-92291259D01*
X121196000Y-92468741D01*
X121161376Y-92642812D01*
X121093456Y-92806784D01*
X120994853Y-92954354D01*
X120869354Y-93079853D01*
X120721784Y-93178456D01*
X120557812Y-93246376D01*
X120408512Y-93276073D01*
X120383742Y-93281000D01*
X120206258Y-93281000D01*
X120181488Y-93276073D01*
X120032188Y-93246376D01*
X119868216Y-93178456D01*
X119720646Y-93079853D01*
X119595147Y-92954354D01*
X119496544Y-92806784D01*
X119428624Y-92642812D01*
X119394000Y-92468741D01*
X119394000Y-92291259D01*
X119428624Y-92117188D01*
X119496544Y-91953216D01*
X119595147Y-91805646D01*
X119720646Y-91680147D01*
X119868216Y-91581544D01*
X120032188Y-91513624D01*
X120181488Y-91483927D01*
X120206258Y-91479000D01*
X120383742Y-91479000D01*
X120408512Y-91483927D01*
G37*
G36*
X122948512Y-91483927D02*
G01*
X123097812Y-91513624D01*
X123261784Y-91581544D01*
X123409354Y-91680147D01*
X123534853Y-91805646D01*
X123633456Y-91953216D01*
X123701376Y-92117188D01*
X123736000Y-92291259D01*
X123736000Y-92468741D01*
X123701376Y-92642812D01*
X123633456Y-92806784D01*
X123534853Y-92954354D01*
X123409354Y-93079853D01*
X123261784Y-93178456D01*
X123097812Y-93246376D01*
X122948512Y-93276073D01*
X122923742Y-93281000D01*
X122746258Y-93281000D01*
X122721488Y-93276073D01*
X122572188Y-93246376D01*
X122408216Y-93178456D01*
X122260646Y-93079853D01*
X122135147Y-92954354D01*
X122036544Y-92806784D01*
X121968624Y-92642812D01*
X121934000Y-92468741D01*
X121934000Y-92291259D01*
X121968624Y-92117188D01*
X122036544Y-91953216D01*
X122135147Y-91805646D01*
X122260646Y-91680147D01*
X122408216Y-91581544D01*
X122572188Y-91513624D01*
X122721488Y-91483927D01*
X122746258Y-91479000D01*
X122923742Y-91479000D01*
X122948512Y-91483927D01*
G37*
G36*
X125488512Y-91483927D02*
G01*
X125637812Y-91513624D01*
X125801784Y-91581544D01*
X125949354Y-91680147D01*
X126074853Y-91805646D01*
X126173456Y-91953216D01*
X126241376Y-92117188D01*
X126276000Y-92291259D01*
X126276000Y-92468741D01*
X126241376Y-92642812D01*
X126173456Y-92806784D01*
X126074853Y-92954354D01*
X125949354Y-93079853D01*
X125801784Y-93178456D01*
X125637812Y-93246376D01*
X125488512Y-93276073D01*
X125463742Y-93281000D01*
X125286258Y-93281000D01*
X125261488Y-93276073D01*
X125112188Y-93246376D01*
X124948216Y-93178456D01*
X124800646Y-93079853D01*
X124675147Y-92954354D01*
X124576544Y-92806784D01*
X124508624Y-92642812D01*
X124474000Y-92468741D01*
X124474000Y-92291259D01*
X124508624Y-92117188D01*
X124576544Y-91953216D01*
X124675147Y-91805646D01*
X124800646Y-91680147D01*
X124948216Y-91581544D01*
X125112188Y-91513624D01*
X125261488Y-91483927D01*
X125286258Y-91479000D01*
X125463742Y-91479000D01*
X125488512Y-91483927D01*
G37*
G36*
X128028512Y-91483927D02*
G01*
X128177812Y-91513624D01*
X128341784Y-91581544D01*
X128489354Y-91680147D01*
X128614853Y-91805646D01*
X128713456Y-91953216D01*
X128781376Y-92117188D01*
X128816000Y-92291259D01*
X128816000Y-92468741D01*
X128781376Y-92642812D01*
X128713456Y-92806784D01*
X128614853Y-92954354D01*
X128489354Y-93079853D01*
X128341784Y-93178456D01*
X128177812Y-93246376D01*
X128028512Y-93276073D01*
X128003742Y-93281000D01*
X127826258Y-93281000D01*
X127801488Y-93276073D01*
X127652188Y-93246376D01*
X127488216Y-93178456D01*
X127340646Y-93079853D01*
X127215147Y-92954354D01*
X127116544Y-92806784D01*
X127048624Y-92642812D01*
X127014000Y-92468741D01*
X127014000Y-92291259D01*
X127048624Y-92117188D01*
X127116544Y-91953216D01*
X127215147Y-91805646D01*
X127340646Y-91680147D01*
X127488216Y-91581544D01*
X127652188Y-91513624D01*
X127801488Y-91483927D01*
X127826258Y-91479000D01*
X128003742Y-91479000D01*
X128028512Y-91483927D01*
G37*
G36*
X130568512Y-91483927D02*
G01*
X130717812Y-91513624D01*
X130881784Y-91581544D01*
X131029354Y-91680147D01*
X131154853Y-91805646D01*
X131253456Y-91953216D01*
X131321376Y-92117188D01*
X131356000Y-92291259D01*
X131356000Y-92468741D01*
X131321376Y-92642812D01*
X131253456Y-92806784D01*
X131154853Y-92954354D01*
X131029354Y-93079853D01*
X130881784Y-93178456D01*
X130717812Y-93246376D01*
X130568512Y-93276073D01*
X130543742Y-93281000D01*
X130366258Y-93281000D01*
X130341488Y-93276073D01*
X130192188Y-93246376D01*
X130028216Y-93178456D01*
X129880646Y-93079853D01*
X129755147Y-92954354D01*
X129656544Y-92806784D01*
X129588624Y-92642812D01*
X129554000Y-92468741D01*
X129554000Y-92291259D01*
X129588624Y-92117188D01*
X129656544Y-91953216D01*
X129755147Y-91805646D01*
X129880646Y-91680147D01*
X130028216Y-91581544D01*
X130192188Y-91513624D01*
X130341488Y-91483927D01*
X130366258Y-91479000D01*
X130543742Y-91479000D01*
X130568512Y-91483927D01*
G37*
G36*
X140728512Y-91483927D02*
G01*
X140877812Y-91513624D01*
X141041784Y-91581544D01*
X141189354Y-91680147D01*
X141314853Y-91805646D01*
X141413456Y-91953216D01*
X141481376Y-92117188D01*
X141516000Y-92291259D01*
X141516000Y-92468741D01*
X141481376Y-92642812D01*
X141413456Y-92806784D01*
X141314853Y-92954354D01*
X141189354Y-93079853D01*
X141041784Y-93178456D01*
X140877812Y-93246376D01*
X140728512Y-93276073D01*
X140703742Y-93281000D01*
X140526258Y-93281000D01*
X140501488Y-93276073D01*
X140352188Y-93246376D01*
X140188216Y-93178456D01*
X140040646Y-93079853D01*
X139915147Y-92954354D01*
X139816544Y-92806784D01*
X139748624Y-92642812D01*
X139714000Y-92468741D01*
X139714000Y-92291259D01*
X139748624Y-92117188D01*
X139816544Y-91953216D01*
X139915147Y-91805646D01*
X140040646Y-91680147D01*
X140188216Y-91581544D01*
X140352188Y-91513624D01*
X140501488Y-91483927D01*
X140526258Y-91479000D01*
X140703742Y-91479000D01*
X140728512Y-91483927D01*
G37*
G36*
X143268512Y-91483927D02*
G01*
X143417812Y-91513624D01*
X143581784Y-91581544D01*
X143729354Y-91680147D01*
X143854853Y-91805646D01*
X143953456Y-91953216D01*
X144021376Y-92117188D01*
X144056000Y-92291259D01*
X144056000Y-92468741D01*
X144021376Y-92642812D01*
X143953456Y-92806784D01*
X143854853Y-92954354D01*
X143729354Y-93079853D01*
X143581784Y-93178456D01*
X143417812Y-93246376D01*
X143268512Y-93276073D01*
X143243742Y-93281000D01*
X143066258Y-93281000D01*
X143041488Y-93276073D01*
X142892188Y-93246376D01*
X142728216Y-93178456D01*
X142580646Y-93079853D01*
X142455147Y-92954354D01*
X142356544Y-92806784D01*
X142288624Y-92642812D01*
X142254000Y-92468741D01*
X142254000Y-92291259D01*
X142288624Y-92117188D01*
X142356544Y-91953216D01*
X142455147Y-91805646D01*
X142580646Y-91680147D01*
X142728216Y-91581544D01*
X142892188Y-91513624D01*
X143041488Y-91483927D01*
X143066258Y-91479000D01*
X143243742Y-91479000D01*
X143268512Y-91483927D01*
G37*
G36*
X133108512Y-91483927D02*
G01*
X133257812Y-91513624D01*
X133421784Y-91581544D01*
X133569354Y-91680147D01*
X133694853Y-91805646D01*
X133793456Y-91953216D01*
X133861376Y-92117188D01*
X133896000Y-92291259D01*
X133896000Y-92468741D01*
X133861376Y-92642812D01*
X133793456Y-92806784D01*
X133694853Y-92954354D01*
X133569354Y-93079853D01*
X133421784Y-93178456D01*
X133257812Y-93246376D01*
X133108512Y-93276073D01*
X133083742Y-93281000D01*
X132906258Y-93281000D01*
X132881488Y-93276073D01*
X132732188Y-93246376D01*
X132568216Y-93178456D01*
X132420646Y-93079853D01*
X132295147Y-92954354D01*
X132196544Y-92806784D01*
X132128624Y-92642812D01*
X132094000Y-92468741D01*
X132094000Y-92291259D01*
X132128624Y-92117188D01*
X132196544Y-91953216D01*
X132295147Y-91805646D01*
X132420646Y-91680147D01*
X132568216Y-91581544D01*
X132732188Y-91513624D01*
X132881488Y-91483927D01*
X132906258Y-91479000D01*
X133083742Y-91479000D01*
X133108512Y-91483927D01*
G37*
G36*
X135648512Y-91483927D02*
G01*
X135797812Y-91513624D01*
X135961784Y-91581544D01*
X136109354Y-91680147D01*
X136234853Y-91805646D01*
X136333456Y-91953216D01*
X136401376Y-92117188D01*
X136436000Y-92291259D01*
X136436000Y-92468741D01*
X136401376Y-92642812D01*
X136333456Y-92806784D01*
X136234853Y-92954354D01*
X136109354Y-93079853D01*
X135961784Y-93178456D01*
X135797812Y-93246376D01*
X135648512Y-93276073D01*
X135623742Y-93281000D01*
X135446258Y-93281000D01*
X135421488Y-93276073D01*
X135272188Y-93246376D01*
X135108216Y-93178456D01*
X134960646Y-93079853D01*
X134835147Y-92954354D01*
X134736544Y-92806784D01*
X134668624Y-92642812D01*
X134634000Y-92468741D01*
X134634000Y-92291259D01*
X134668624Y-92117188D01*
X134736544Y-91953216D01*
X134835147Y-91805646D01*
X134960646Y-91680147D01*
X135108216Y-91581544D01*
X135272188Y-91513624D01*
X135421488Y-91483927D01*
X135446258Y-91479000D01*
X135623742Y-91479000D01*
X135648512Y-91483927D01*
G37*
M02*
