M48
; DRILL file {KiCad 5.1.6+dfsg1-1} date Sun Nov  1 22:24:21 2020
; FORMAT={-:-/ absolute / inch / decimal}
; #@! TF.CreationDate,2020-11-01T22:24:21+03:00
; #@! TF.GenerationSoftware,Kicad,Pcbnew,5.1.6+dfsg1-1
; #@! TF.FileFunction,Plated,1,2,PTH
FMAT,2
INCH
T1C0.0118
T2C0.0315
T3C0.0394
%
G90
G05
T1
X4.0523Y-3.9345
X4.074Y-3.813
X4.1658Y-3.932
X4.21Y-3.94
X4.25Y-3.88
X4.255Y-3.93
X4.2705Y-3.9666
X4.3408Y-4.1161
X4.3464Y-4.0128
X4.401Y-4.0234
X4.46Y-3.85
X4.5892Y-3.7866
X4.62Y-4.1
X4.62Y-4.1
X4.7258Y-3.6913
X4.7597Y-3.8897
X4.7612Y-3.7038
X4.7872Y-3.607
X4.86Y-3.87
X4.8609Y-3.7903
X4.87Y-4.18
X4.886Y-4.2849
X4.886Y-3.5892
X4.8959Y-3.9653
X4.9025Y-4.0148
X4.904Y-3.7013
X4.9148Y-3.8445
X4.9321Y-3.9556
X4.937Y-3.8827
X4.95Y-4.18
X4.9644Y-3.7029
X4.9653Y-3.994
X4.9816Y-3.95
X4.9866Y-3.6591
X4.987Y-3.6115
X4.9994Y-3.7181
X5.0367Y-3.7267
X5.1001Y-3.8515
X5.1024Y-3.802
X5.11Y-4.02
X5.1479Y-3.7957
X5.1911Y-3.7265
X5.23Y-3.75
X5.2606Y-3.9673
X5.3209Y-3.7537
X5.3909Y-3.6847
X5.4117Y-4.1032
X5.46Y-3.98
X5.4843Y-3.682
X5.5983Y-4.0794
X5.6Y-3.82
X5.602Y-3.8983
X5.66Y-3.99
X5.6688Y-3.8972
X5.6981Y-3.7089
X5.7141Y-3.8611
X5.7223Y-4.0416
X5.7298Y-3.9372
X5.83Y-3.72
X5.84Y-3.78
T2
X5.237Y-3.8379
X5.237Y-4.03
T3
X4.036Y-4.237
X4.136Y-4.237
X4.236Y-4.237
X4.336Y-4.237
X4.436Y-4.237
X4.536Y-4.237
X4.636Y-4.237
X4.736Y-4.237
X4.836Y-4.237
X4.936Y-4.237
X5.036Y-4.237
X5.136Y-4.237
X5.236Y-4.237
X5.336Y-4.237
X5.436Y-4.237
X5.536Y-4.237
X5.636Y-4.237
X5.736Y-4.237
X5.836Y-4.237
X5.936Y-4.237
X4.036Y-3.637
X4.136Y-3.637
X4.236Y-3.637
X4.336Y-3.637
X4.436Y-3.637
X4.536Y-3.637
X4.636Y-3.637
X4.736Y-3.637
X4.836Y-3.637
X4.936Y-3.637
X5.036Y-3.637
X5.136Y-3.637
X5.236Y-3.637
X5.336Y-3.637
X5.436Y-3.637
X5.536Y-3.637
X5.636Y-3.637
X5.736Y-3.637
X5.836Y-3.637
X5.936Y-3.637
X5.774Y-3.7867
X5.774Y-3.8867
X5.774Y-3.9867
X5.774Y-4.0867
X4.31Y-3.791
X4.31Y-3.891
X4.41Y-3.791
X4.41Y-3.891
X4.51Y-3.791
X4.51Y-3.891
T0
M30
