G04 #@! TF.GenerationSoftware,KiCad,Pcbnew,5.1.6+dfsg1-1*
G04 #@! TF.CreationDate,2020-11-01T22:24:16+03:00*
G04 #@! TF.ProjectId,WhitePill,57686974-6550-4696-9c6c-2e6b69636164,rev?*
G04 #@! TF.SameCoordinates,Original*
G04 #@! TF.FileFunction,Legend,Top*
G04 #@! TF.FilePolarity,Positive*
%FSLAX46Y46*%
G04 Gerber Fmt 4.6, Leading zero omitted, Abs format (unit mm)*
G04 Created by KiCad (PCBNEW 5.1.6+dfsg1-1) date 2020-11-01 22:24:16*
%MOMM*%
%LPD*%
G01*
G04 APERTURE LIST*
%ADD10C,0.150000*%
%ADD11C,0.120000*%
%ADD12C,0.080000*%
G04 APERTURE END LIST*
D10*
X149634714Y-109452380D02*
X150191857Y-109452380D01*
X149891857Y-109833333D01*
X150020428Y-109833333D01*
X150106142Y-109880952D01*
X150149000Y-109928571D01*
X150191857Y-110023809D01*
X150191857Y-110261904D01*
X150149000Y-110357142D01*
X150106142Y-110404761D01*
X150020428Y-110452380D01*
X149763285Y-110452380D01*
X149677571Y-110404761D01*
X149634714Y-110357142D01*
X150449000Y-109452380D02*
X150749000Y-110452380D01*
X151049000Y-109452380D01*
X151263285Y-109452380D02*
X151820428Y-109452380D01*
X151520428Y-109833333D01*
X151649000Y-109833333D01*
X151734714Y-109880952D01*
X151777571Y-109928571D01*
X151820428Y-110023809D01*
X151820428Y-110261904D01*
X151777571Y-110357142D01*
X151734714Y-110404761D01*
X151649000Y-110452380D01*
X151391857Y-110452380D01*
X151306142Y-110404761D01*
X151263285Y-110357142D01*
X147525825Y-109500000D02*
X147440111Y-109452380D01*
X147311540Y-109452380D01*
X147182968Y-109500000D01*
X147097254Y-109595238D01*
X147054397Y-109690476D01*
X147011540Y-109880952D01*
X147011540Y-110023809D01*
X147054397Y-110214285D01*
X147097254Y-110309523D01*
X147182968Y-110404761D01*
X147311540Y-110452380D01*
X147397254Y-110452380D01*
X147525825Y-110404761D01*
X147568682Y-110357142D01*
X147568682Y-110023809D01*
X147397254Y-110023809D01*
X147954397Y-110452380D02*
X147954397Y-109452380D01*
X148468682Y-110452380D01*
X148468682Y-109452380D01*
X148897254Y-110452380D02*
X148897254Y-109452380D01*
X149111540Y-109452380D01*
X149240111Y-109500000D01*
X149325825Y-109595238D01*
X149368682Y-109690476D01*
X149411540Y-109880952D01*
X149411540Y-110023809D01*
X149368682Y-110214285D01*
X149325825Y-110309523D01*
X149240111Y-110404761D01*
X149111540Y-110452380D01*
X148897254Y-110452380D01*
X144374697Y-110071428D02*
X145060411Y-110071428D01*
X144717554Y-110452380D02*
X144717554Y-109690476D01*
X145917554Y-109452380D02*
X145488982Y-109452380D01*
X145446125Y-109928571D01*
X145488982Y-109880952D01*
X145574697Y-109833333D01*
X145788982Y-109833333D01*
X145874697Y-109880952D01*
X145917554Y-109928571D01*
X145960411Y-110023809D01*
X145960411Y-110261904D01*
X145917554Y-110357142D01*
X145874697Y-110404761D01*
X145788982Y-110452380D01*
X145574697Y-110452380D01*
X145488982Y-110404761D01*
X145446125Y-110357142D01*
X146217554Y-109452380D02*
X146517554Y-110452380D01*
X146817554Y-109452380D01*
X142792654Y-109928571D02*
X142921225Y-109976190D01*
X142964082Y-110023809D01*
X143006940Y-110119047D01*
X143006940Y-110261904D01*
X142964082Y-110357142D01*
X142921225Y-110404761D01*
X142835511Y-110452380D01*
X142492654Y-110452380D01*
X142492654Y-109452380D01*
X142792654Y-109452380D01*
X142878368Y-109500000D01*
X142921225Y-109547619D01*
X142964082Y-109642857D01*
X142964082Y-109738095D01*
X142921225Y-109833333D01*
X142878368Y-109880952D01*
X142792654Y-109928571D01*
X142492654Y-109928571D01*
X143435511Y-110452380D02*
X143606940Y-110452380D01*
X143692654Y-110404761D01*
X143735511Y-110357142D01*
X143821225Y-110214285D01*
X143864082Y-110023809D01*
X143864082Y-109642857D01*
X143821225Y-109547619D01*
X143778368Y-109500000D01*
X143692654Y-109452380D01*
X143521225Y-109452380D01*
X143435511Y-109500000D01*
X143392654Y-109547619D01*
X143349797Y-109642857D01*
X143349797Y-109880952D01*
X143392654Y-109976190D01*
X143435511Y-110023809D01*
X143521225Y-110071428D01*
X143692654Y-110071428D01*
X143778368Y-110023809D01*
X143821225Y-109976190D01*
X143864082Y-109880952D01*
X140214554Y-109928571D02*
X140343125Y-109976190D01*
X140385982Y-110023809D01*
X140428840Y-110119047D01*
X140428840Y-110261904D01*
X140385982Y-110357142D01*
X140343125Y-110404761D01*
X140257411Y-110452380D01*
X139914554Y-110452380D01*
X139914554Y-109452380D01*
X140214554Y-109452380D01*
X140300268Y-109500000D01*
X140343125Y-109547619D01*
X140385982Y-109642857D01*
X140385982Y-109738095D01*
X140343125Y-109833333D01*
X140300268Y-109880952D01*
X140214554Y-109928571D01*
X139914554Y-109928571D01*
X140943125Y-109880952D02*
X140857411Y-109833333D01*
X140814554Y-109785714D01*
X140771697Y-109690476D01*
X140771697Y-109642857D01*
X140814554Y-109547619D01*
X140857411Y-109500000D01*
X140943125Y-109452380D01*
X141114554Y-109452380D01*
X141200268Y-109500000D01*
X141243125Y-109547619D01*
X141285982Y-109642857D01*
X141285982Y-109690476D01*
X141243125Y-109785714D01*
X141200268Y-109833333D01*
X141114554Y-109880952D01*
X140943125Y-109880952D01*
X140857411Y-109928571D01*
X140814554Y-109976190D01*
X140771697Y-110071428D01*
X140771697Y-110261904D01*
X140814554Y-110357142D01*
X140857411Y-110404761D01*
X140943125Y-110452380D01*
X141114554Y-110452380D01*
X141200268Y-110404761D01*
X141243125Y-110357142D01*
X141285982Y-110261904D01*
X141285982Y-110071428D01*
X141243125Y-109976190D01*
X141200268Y-109928571D01*
X141114554Y-109880952D01*
X137697414Y-109928571D02*
X137825985Y-109976190D01*
X137868842Y-110023809D01*
X137911700Y-110119047D01*
X137911700Y-110261904D01*
X137868842Y-110357142D01*
X137825985Y-110404761D01*
X137740271Y-110452380D01*
X137397414Y-110452380D01*
X137397414Y-109452380D01*
X137697414Y-109452380D01*
X137783128Y-109500000D01*
X137825985Y-109547619D01*
X137868842Y-109642857D01*
X137868842Y-109738095D01*
X137825985Y-109833333D01*
X137783128Y-109880952D01*
X137697414Y-109928571D01*
X137397414Y-109928571D01*
X138211700Y-109452380D02*
X138811700Y-109452380D01*
X138425985Y-110452380D01*
X135119314Y-109928571D02*
X135247885Y-109976190D01*
X135290742Y-110023809D01*
X135333600Y-110119047D01*
X135333600Y-110261904D01*
X135290742Y-110357142D01*
X135247885Y-110404761D01*
X135162171Y-110452380D01*
X134819314Y-110452380D01*
X134819314Y-109452380D01*
X135119314Y-109452380D01*
X135205028Y-109500000D01*
X135247885Y-109547619D01*
X135290742Y-109642857D01*
X135290742Y-109738095D01*
X135247885Y-109833333D01*
X135205028Y-109880952D01*
X135119314Y-109928571D01*
X134819314Y-109928571D01*
X136105028Y-109452380D02*
X135933600Y-109452380D01*
X135847885Y-109500000D01*
X135805028Y-109547619D01*
X135719314Y-109690476D01*
X135676457Y-109880952D01*
X135676457Y-110261904D01*
X135719314Y-110357142D01*
X135762171Y-110404761D01*
X135847885Y-110452380D01*
X136019314Y-110452380D01*
X136105028Y-110404761D01*
X136147885Y-110357142D01*
X136190742Y-110261904D01*
X136190742Y-110023809D01*
X136147885Y-109928571D01*
X136105028Y-109880952D01*
X136019314Y-109833333D01*
X135847885Y-109833333D01*
X135762171Y-109880952D01*
X135719314Y-109928571D01*
X135676457Y-110023809D01*
X132581854Y-109928571D02*
X132710425Y-109976190D01*
X132753282Y-110023809D01*
X132796140Y-110119047D01*
X132796140Y-110261904D01*
X132753282Y-110357142D01*
X132710425Y-110404761D01*
X132624711Y-110452380D01*
X132281854Y-110452380D01*
X132281854Y-109452380D01*
X132581854Y-109452380D01*
X132667568Y-109500000D01*
X132710425Y-109547619D01*
X132753282Y-109642857D01*
X132753282Y-109738095D01*
X132710425Y-109833333D01*
X132667568Y-109880952D01*
X132581854Y-109928571D01*
X132281854Y-109928571D01*
X133610425Y-109452380D02*
X133181854Y-109452380D01*
X133138997Y-109928571D01*
X133181854Y-109880952D01*
X133267568Y-109833333D01*
X133481854Y-109833333D01*
X133567568Y-109880952D01*
X133610425Y-109928571D01*
X133653282Y-110023809D01*
X133653282Y-110261904D01*
X133610425Y-110357142D01*
X133567568Y-110404761D01*
X133481854Y-110452380D01*
X133267568Y-110452380D01*
X133181854Y-110404761D01*
X133138997Y-110357142D01*
X130087574Y-109928571D02*
X130216145Y-109976190D01*
X130259002Y-110023809D01*
X130301860Y-110119047D01*
X130301860Y-110261904D01*
X130259002Y-110357142D01*
X130216145Y-110404761D01*
X130130431Y-110452380D01*
X129787574Y-110452380D01*
X129787574Y-109452380D01*
X130087574Y-109452380D01*
X130173288Y-109500000D01*
X130216145Y-109547619D01*
X130259002Y-109642857D01*
X130259002Y-109738095D01*
X130216145Y-109833333D01*
X130173288Y-109880952D01*
X130087574Y-109928571D01*
X129787574Y-109928571D01*
X131073288Y-109785714D02*
X131073288Y-110452380D01*
X130859002Y-109404761D02*
X130644717Y-110119047D01*
X131201860Y-110119047D01*
X127562814Y-109928571D02*
X127691385Y-109976190D01*
X127734242Y-110023809D01*
X127777100Y-110119047D01*
X127777100Y-110261904D01*
X127734242Y-110357142D01*
X127691385Y-110404761D01*
X127605671Y-110452380D01*
X127262814Y-110452380D01*
X127262814Y-109452380D01*
X127562814Y-109452380D01*
X127648528Y-109500000D01*
X127691385Y-109547619D01*
X127734242Y-109642857D01*
X127734242Y-109738095D01*
X127691385Y-109833333D01*
X127648528Y-109880952D01*
X127562814Y-109928571D01*
X127262814Y-109928571D01*
X128077100Y-109452380D02*
X128634242Y-109452380D01*
X128334242Y-109833333D01*
X128462814Y-109833333D01*
X128548528Y-109880952D01*
X128591385Y-109928571D01*
X128634242Y-110023809D01*
X128634242Y-110261904D01*
X128591385Y-110357142D01*
X128548528Y-110404761D01*
X128462814Y-110452380D01*
X128205671Y-110452380D01*
X128119957Y-110404761D01*
X128077100Y-110357142D01*
X124323291Y-110166666D02*
X124751862Y-110166666D01*
X124237577Y-110452380D02*
X124537577Y-109452380D01*
X124837577Y-110452380D01*
X125609005Y-110452380D02*
X125094720Y-110452380D01*
X125351862Y-110452380D02*
X125351862Y-109452380D01*
X125266148Y-109595238D01*
X125180434Y-109690476D01*
X125094720Y-109738095D01*
X126423291Y-109452380D02*
X125994720Y-109452380D01*
X125951862Y-109928571D01*
X125994720Y-109880952D01*
X126080434Y-109833333D01*
X126294720Y-109833333D01*
X126380434Y-109880952D01*
X126423291Y-109928571D01*
X126466148Y-110023809D01*
X126466148Y-110261904D01*
X126423291Y-110357142D01*
X126380434Y-110404761D01*
X126294720Y-110452380D01*
X126080434Y-110452380D01*
X125994720Y-110404761D01*
X125951862Y-110357142D01*
X121732491Y-110166666D02*
X122161062Y-110166666D01*
X121646777Y-110452380D02*
X121946777Y-109452380D01*
X122246777Y-110452380D01*
X123018205Y-110452380D02*
X122503920Y-110452380D01*
X122761062Y-110452380D02*
X122761062Y-109452380D01*
X122675348Y-109595238D01*
X122589634Y-109690476D01*
X122503920Y-109738095D01*
X123361062Y-109547619D02*
X123403920Y-109500000D01*
X123489634Y-109452380D01*
X123703920Y-109452380D01*
X123789634Y-109500000D01*
X123832491Y-109547619D01*
X123875348Y-109642857D01*
X123875348Y-109738095D01*
X123832491Y-109880952D01*
X123318205Y-110452380D01*
X123875348Y-110452380D01*
X119240751Y-110166666D02*
X119669322Y-110166666D01*
X119155037Y-110452380D02*
X119455037Y-109452380D01*
X119755037Y-110452380D01*
X120526465Y-110452380D02*
X120012180Y-110452380D01*
X120269322Y-110452380D02*
X120269322Y-109452380D01*
X120183608Y-109595238D01*
X120097894Y-109690476D01*
X120012180Y-109738095D01*
X121383608Y-110452380D02*
X120869322Y-110452380D01*
X121126465Y-110452380D02*
X121126465Y-109452380D01*
X121040751Y-109595238D01*
X120955037Y-109690476D01*
X120869322Y-109738095D01*
X116690591Y-110166666D02*
X117119162Y-110166666D01*
X116604877Y-110452380D02*
X116904877Y-109452380D01*
X117204877Y-110452380D01*
X117976305Y-110452380D02*
X117462020Y-110452380D01*
X117719162Y-110452380D02*
X117719162Y-109452380D01*
X117633448Y-109595238D01*
X117547734Y-109690476D01*
X117462020Y-109738095D01*
X118533448Y-109452380D02*
X118619162Y-109452380D01*
X118704877Y-109500000D01*
X118747734Y-109547619D01*
X118790591Y-109642857D01*
X118833448Y-109833333D01*
X118833448Y-110071428D01*
X118790591Y-110261904D01*
X118747734Y-110357142D01*
X118704877Y-110404761D01*
X118619162Y-110452380D01*
X118533448Y-110452380D01*
X118447734Y-110404761D01*
X118404877Y-110357142D01*
X118362020Y-110261904D01*
X118319162Y-110071428D01*
X118319162Y-109833333D01*
X118362020Y-109642857D01*
X118404877Y-109547619D01*
X118447734Y-109500000D01*
X118533448Y-109452380D01*
X114528362Y-110166666D02*
X114956934Y-110166666D01*
X114442648Y-110452380D02*
X114742648Y-109452380D01*
X115042648Y-110452380D01*
X115385505Y-110452380D02*
X115556934Y-110452380D01*
X115642648Y-110404761D01*
X115685505Y-110357142D01*
X115771220Y-110214285D01*
X115814077Y-110023809D01*
X115814077Y-109642857D01*
X115771220Y-109547619D01*
X115728362Y-109500000D01*
X115642648Y-109452380D01*
X115471220Y-109452380D01*
X115385505Y-109500000D01*
X115342648Y-109547619D01*
X115299791Y-109642857D01*
X115299791Y-109880952D01*
X115342648Y-109976190D01*
X115385505Y-110023809D01*
X115471220Y-110071428D01*
X115642648Y-110071428D01*
X115728362Y-110023809D01*
X115771220Y-109976190D01*
X115814077Y-109880952D01*
X112036622Y-110166666D02*
X112465194Y-110166666D01*
X111950908Y-110452380D02*
X112250908Y-109452380D01*
X112550908Y-110452380D01*
X112979480Y-109880952D02*
X112893765Y-109833333D01*
X112850908Y-109785714D01*
X112808051Y-109690476D01*
X112808051Y-109642857D01*
X112850908Y-109547619D01*
X112893765Y-109500000D01*
X112979480Y-109452380D01*
X113150908Y-109452380D01*
X113236622Y-109500000D01*
X113279480Y-109547619D01*
X113322337Y-109642857D01*
X113322337Y-109690476D01*
X113279480Y-109785714D01*
X113236622Y-109833333D01*
X113150908Y-109880952D01*
X112979480Y-109880952D01*
X112893765Y-109928571D01*
X112850908Y-109976190D01*
X112808051Y-110071428D01*
X112808051Y-110261904D01*
X112850908Y-110357142D01*
X112893765Y-110404761D01*
X112979480Y-110452380D01*
X113150908Y-110452380D01*
X113236622Y-110404761D01*
X113279480Y-110357142D01*
X113322337Y-110261904D01*
X113322337Y-110071428D01*
X113279480Y-109976190D01*
X113236622Y-109928571D01*
X113150908Y-109880952D01*
X109336462Y-109928571D02*
X109465034Y-109976190D01*
X109507891Y-110023809D01*
X109550748Y-110119047D01*
X109550748Y-110261904D01*
X109507891Y-110357142D01*
X109465034Y-110404761D01*
X109379320Y-110452380D01*
X109036462Y-110452380D01*
X109036462Y-109452380D01*
X109336462Y-109452380D01*
X109422177Y-109500000D01*
X109465034Y-109547619D01*
X109507891Y-109642857D01*
X109507891Y-109738095D01*
X109465034Y-109833333D01*
X109422177Y-109880952D01*
X109336462Y-109928571D01*
X109036462Y-109928571D01*
X110407891Y-110452380D02*
X109893605Y-110452380D01*
X110150748Y-110452380D02*
X110150748Y-109452380D01*
X110065034Y-109595238D01*
X109979320Y-109690476D01*
X109893605Y-109738095D01*
X111222177Y-109452380D02*
X110793605Y-109452380D01*
X110750748Y-109928571D01*
X110793605Y-109880952D01*
X110879320Y-109833333D01*
X111093605Y-109833333D01*
X111179320Y-109880952D01*
X111222177Y-109928571D01*
X111265034Y-110023809D01*
X111265034Y-110261904D01*
X111222177Y-110357142D01*
X111179320Y-110404761D01*
X111093605Y-110452380D01*
X110879320Y-110452380D01*
X110793605Y-110404761D01*
X110750748Y-110357142D01*
X106804082Y-109928571D02*
X106932654Y-109976190D01*
X106975511Y-110023809D01*
X107018368Y-110119047D01*
X107018368Y-110261904D01*
X106975511Y-110357142D01*
X106932654Y-110404761D01*
X106846940Y-110452380D01*
X106504082Y-110452380D01*
X106504082Y-109452380D01*
X106804082Y-109452380D01*
X106889797Y-109500000D01*
X106932654Y-109547619D01*
X106975511Y-109642857D01*
X106975511Y-109738095D01*
X106932654Y-109833333D01*
X106889797Y-109880952D01*
X106804082Y-109928571D01*
X106504082Y-109928571D01*
X107875511Y-110452380D02*
X107361225Y-110452380D01*
X107618368Y-110452380D02*
X107618368Y-109452380D01*
X107532654Y-109595238D01*
X107446940Y-109690476D01*
X107361225Y-109738095D01*
X108646940Y-109785714D02*
X108646940Y-110452380D01*
X108432654Y-109404761D02*
X108218368Y-110119047D01*
X108775511Y-110119047D01*
X104233602Y-109928571D02*
X104362174Y-109976190D01*
X104405031Y-110023809D01*
X104447888Y-110119047D01*
X104447888Y-110261904D01*
X104405031Y-110357142D01*
X104362174Y-110404761D01*
X104276460Y-110452380D01*
X103933602Y-110452380D01*
X103933602Y-109452380D01*
X104233602Y-109452380D01*
X104319317Y-109500000D01*
X104362174Y-109547619D01*
X104405031Y-109642857D01*
X104405031Y-109738095D01*
X104362174Y-109833333D01*
X104319317Y-109880952D01*
X104233602Y-109928571D01*
X103933602Y-109928571D01*
X105305031Y-110452380D02*
X104790745Y-110452380D01*
X105047888Y-110452380D02*
X105047888Y-109452380D01*
X104962174Y-109595238D01*
X104876460Y-109690476D01*
X104790745Y-109738095D01*
X105605031Y-109452380D02*
X106162174Y-109452380D01*
X105862174Y-109833333D01*
X105990745Y-109833333D01*
X106076460Y-109880952D01*
X106119317Y-109928571D01*
X106162174Y-110023809D01*
X106162174Y-110261904D01*
X106119317Y-110357142D01*
X106076460Y-110404761D01*
X105990745Y-110452380D01*
X105733602Y-110452380D01*
X105647888Y-110404761D01*
X105605031Y-110357142D01*
X101652962Y-109928571D02*
X101781534Y-109976190D01*
X101824391Y-110023809D01*
X101867248Y-110119047D01*
X101867248Y-110261904D01*
X101824391Y-110357142D01*
X101781534Y-110404761D01*
X101695820Y-110452380D01*
X101352962Y-110452380D01*
X101352962Y-109452380D01*
X101652962Y-109452380D01*
X101738677Y-109500000D01*
X101781534Y-109547619D01*
X101824391Y-109642857D01*
X101824391Y-109738095D01*
X101781534Y-109833333D01*
X101738677Y-109880952D01*
X101652962Y-109928571D01*
X101352962Y-109928571D01*
X102724391Y-110452380D02*
X102210105Y-110452380D01*
X102467248Y-110452380D02*
X102467248Y-109452380D01*
X102381534Y-109595238D01*
X102295820Y-109690476D01*
X102210105Y-109738095D01*
X103067248Y-109547619D02*
X103110105Y-109500000D01*
X103195820Y-109452380D01*
X103410105Y-109452380D01*
X103495820Y-109500000D01*
X103538677Y-109547619D01*
X103581534Y-109642857D01*
X103581534Y-109738095D01*
X103538677Y-109880952D01*
X103024391Y-110452380D01*
X103581534Y-110452380D01*
X101975986Y-89500000D02*
X101909320Y-89452380D01*
X101809320Y-89452380D01*
X101709320Y-89500000D01*
X101642653Y-89595238D01*
X101609320Y-89690476D01*
X101575986Y-89880952D01*
X101575986Y-90023809D01*
X101609320Y-90214285D01*
X101642653Y-90309523D01*
X101709320Y-90404761D01*
X101809320Y-90452380D01*
X101875986Y-90452380D01*
X101975986Y-90404761D01*
X102009320Y-90357142D01*
X102009320Y-90023809D01*
X101875986Y-90023809D01*
X102309320Y-90452380D02*
X102309320Y-89452380D01*
X102709320Y-90452380D01*
X102709320Y-89452380D01*
X103042653Y-90452380D02*
X103042653Y-89452380D01*
X103209320Y-89452380D01*
X103309320Y-89500000D01*
X103375986Y-89595238D01*
X103409320Y-89690476D01*
X103442653Y-89880952D01*
X103442653Y-90023809D01*
X103409320Y-90214285D01*
X103375986Y-90309523D01*
X103309320Y-90404761D01*
X103209320Y-90452380D01*
X103042653Y-90452380D01*
X104521066Y-89500000D02*
X104454400Y-89452380D01*
X104354400Y-89452380D01*
X104254400Y-89500000D01*
X104187733Y-89595238D01*
X104154400Y-89690476D01*
X104121066Y-89880952D01*
X104121066Y-90023809D01*
X104154400Y-90214285D01*
X104187733Y-90309523D01*
X104254400Y-90404761D01*
X104354400Y-90452380D01*
X104421066Y-90452380D01*
X104521066Y-90404761D01*
X104554400Y-90357142D01*
X104554400Y-90023809D01*
X104421066Y-90023809D01*
X104854400Y-90452380D02*
X104854400Y-89452380D01*
X105254400Y-90452380D01*
X105254400Y-89452380D01*
X105587733Y-90452380D02*
X105587733Y-89452380D01*
X105754400Y-89452380D01*
X105854400Y-89500000D01*
X105921066Y-89595238D01*
X105954400Y-89690476D01*
X105987733Y-89880952D01*
X105987733Y-90023809D01*
X105954400Y-90214285D01*
X105921066Y-90309523D01*
X105854400Y-90404761D01*
X105754400Y-90452380D01*
X105587733Y-90452380D01*
X106452174Y-89452380D02*
X107009317Y-89452380D01*
X106709317Y-89833333D01*
X106837888Y-89833333D01*
X106923602Y-89880952D01*
X106966460Y-89928571D01*
X107009317Y-90023809D01*
X107009317Y-90261904D01*
X106966460Y-90357142D01*
X106923602Y-90404761D01*
X106837888Y-90452380D01*
X106580745Y-90452380D01*
X106495031Y-90404761D01*
X106452174Y-90357142D01*
X107266460Y-89452380D02*
X107566460Y-90452380D01*
X107866460Y-89452380D01*
X108080745Y-89452380D02*
X108637888Y-89452380D01*
X108337888Y-89833333D01*
X108466460Y-89833333D01*
X108552174Y-89880952D01*
X108595031Y-89928571D01*
X108637888Y-90023809D01*
X108637888Y-90261904D01*
X108595031Y-90357142D01*
X108552174Y-90404761D01*
X108466460Y-90452380D01*
X108209317Y-90452380D01*
X108123602Y-90404761D01*
X108080745Y-90357142D01*
X109621222Y-90452380D02*
X109321222Y-89976190D01*
X109106937Y-90452380D02*
X109106937Y-89452380D01*
X109449794Y-89452380D01*
X109535508Y-89500000D01*
X109578365Y-89547619D01*
X109621222Y-89642857D01*
X109621222Y-89785714D01*
X109578365Y-89880952D01*
X109535508Y-89928571D01*
X109449794Y-89976190D01*
X109106937Y-89976190D01*
X109964080Y-90404761D02*
X110092651Y-90452380D01*
X110306937Y-90452380D01*
X110392651Y-90404761D01*
X110435508Y-90357142D01*
X110478365Y-90261904D01*
X110478365Y-90166666D01*
X110435508Y-90071428D01*
X110392651Y-90023809D01*
X110306937Y-89976190D01*
X110135508Y-89928571D01*
X110049794Y-89880952D01*
X110006937Y-89833333D01*
X109964080Y-89738095D01*
X109964080Y-89642857D01*
X110006937Y-89547619D01*
X110049794Y-89500000D01*
X110135508Y-89452380D01*
X110349794Y-89452380D01*
X110478365Y-89500000D01*
X110735508Y-89452380D02*
X111249794Y-89452380D01*
X110992651Y-90452380D02*
X110992651Y-89452380D01*
X111962822Y-89928571D02*
X112091394Y-89976190D01*
X112134251Y-90023809D01*
X112177108Y-90119047D01*
X112177108Y-90261904D01*
X112134251Y-90357142D01*
X112091394Y-90404761D01*
X112005680Y-90452380D01*
X111662822Y-90452380D01*
X111662822Y-89452380D01*
X111962822Y-89452380D01*
X112048537Y-89500000D01*
X112091394Y-89547619D01*
X112134251Y-89642857D01*
X112134251Y-89738095D01*
X112091394Y-89833333D01*
X112048537Y-89880952D01*
X111962822Y-89928571D01*
X111662822Y-89928571D01*
X113034251Y-90452380D02*
X112519965Y-90452380D01*
X112777108Y-90452380D02*
X112777108Y-89452380D01*
X112691394Y-89595238D01*
X112605680Y-89690476D01*
X112519965Y-89738095D01*
X113891394Y-90452380D02*
X113377108Y-90452380D01*
X113634251Y-90452380D02*
X113634251Y-89452380D01*
X113548537Y-89595238D01*
X113462822Y-89690476D01*
X113377108Y-89738095D01*
X114396142Y-89928571D02*
X114524714Y-89976190D01*
X114567571Y-90023809D01*
X114610428Y-90119047D01*
X114610428Y-90261904D01*
X114567571Y-90357142D01*
X114524714Y-90404761D01*
X114439000Y-90452380D01*
X114096142Y-90452380D01*
X114096142Y-89452380D01*
X114396142Y-89452380D01*
X114481857Y-89500000D01*
X114524714Y-89547619D01*
X114567571Y-89642857D01*
X114567571Y-89738095D01*
X114524714Y-89833333D01*
X114481857Y-89880952D01*
X114396142Y-89928571D01*
X114096142Y-89928571D01*
X115467571Y-90452380D02*
X114953285Y-90452380D01*
X115210428Y-90452380D02*
X115210428Y-89452380D01*
X115124714Y-89595238D01*
X115039000Y-89690476D01*
X114953285Y-89738095D01*
X116024714Y-89452380D02*
X116110428Y-89452380D01*
X116196142Y-89500000D01*
X116239000Y-89547619D01*
X116281857Y-89642857D01*
X116324714Y-89833333D01*
X116324714Y-90071428D01*
X116281857Y-90261904D01*
X116239000Y-90357142D01*
X116196142Y-90404761D01*
X116110428Y-90452380D01*
X116024714Y-90452380D01*
X115939000Y-90404761D01*
X115896142Y-90357142D01*
X115853285Y-90261904D01*
X115810428Y-90071428D01*
X115810428Y-89833333D01*
X115853285Y-89642857D01*
X115896142Y-89547619D01*
X115939000Y-89500000D01*
X116024714Y-89452380D01*
X117461234Y-89928571D02*
X117589805Y-89976190D01*
X117632662Y-90023809D01*
X117675520Y-90119047D01*
X117675520Y-90261904D01*
X117632662Y-90357142D01*
X117589805Y-90404761D01*
X117504091Y-90452380D01*
X117161234Y-90452380D01*
X117161234Y-89452380D01*
X117461234Y-89452380D01*
X117546948Y-89500000D01*
X117589805Y-89547619D01*
X117632662Y-89642857D01*
X117632662Y-89738095D01*
X117589805Y-89833333D01*
X117546948Y-89880952D01*
X117461234Y-89928571D01*
X117161234Y-89928571D01*
X118532662Y-90452380D02*
X118018377Y-90452380D01*
X118275520Y-90452380D02*
X118275520Y-89452380D01*
X118189805Y-89595238D01*
X118104091Y-89690476D01*
X118018377Y-89738095D01*
X119894554Y-89928571D02*
X120023125Y-89976190D01*
X120065982Y-90023809D01*
X120108840Y-90119047D01*
X120108840Y-90261904D01*
X120065982Y-90357142D01*
X120023125Y-90404761D01*
X119937411Y-90452380D01*
X119594554Y-90452380D01*
X119594554Y-89452380D01*
X119894554Y-89452380D01*
X119980268Y-89500000D01*
X120023125Y-89547619D01*
X120065982Y-89642857D01*
X120065982Y-89738095D01*
X120023125Y-89833333D01*
X119980268Y-89880952D01*
X119894554Y-89928571D01*
X119594554Y-89928571D01*
X120665982Y-89452380D02*
X120751697Y-89452380D01*
X120837411Y-89500000D01*
X120880268Y-89547619D01*
X120923125Y-89642857D01*
X120965982Y-89833333D01*
X120965982Y-90071428D01*
X120923125Y-90261904D01*
X120880268Y-90357142D01*
X120837411Y-90404761D01*
X120751697Y-90452380D01*
X120665982Y-90452380D01*
X120580268Y-90404761D01*
X120537411Y-90357142D01*
X120494554Y-90261904D01*
X120451697Y-90071428D01*
X120451697Y-89833333D01*
X120494554Y-89642857D01*
X120537411Y-89547619D01*
X120580268Y-89500000D01*
X120665982Y-89452380D01*
X126974636Y-105668417D02*
X127068917Y-105621276D01*
X127186768Y-105503425D01*
X127210338Y-105432715D01*
X127210338Y-105385574D01*
X127186768Y-105314863D01*
X127139628Y-105267723D01*
X127068917Y-105244153D01*
X127021776Y-105244153D01*
X126951066Y-105267723D01*
X126833215Y-105338434D01*
X126762504Y-105362004D01*
X126715364Y-105362004D01*
X126644653Y-105338434D01*
X126597512Y-105291293D01*
X126573942Y-105220583D01*
X126573942Y-105173442D01*
X126597512Y-105102731D01*
X126715364Y-104984880D01*
X126809644Y-104937740D01*
X126927496Y-104772748D02*
X127210338Y-104489906D01*
X127563892Y-105126302D02*
X127068917Y-104631327D01*
X127870305Y-104819889D02*
X127375330Y-104324914D01*
X127893875Y-104513476D01*
X127705313Y-103994931D01*
X128200288Y-104489906D01*
X127893875Y-103806369D02*
X128200288Y-103499956D01*
X128223858Y-103853509D01*
X128294569Y-103782799D01*
X128365279Y-103759229D01*
X128412420Y-103759229D01*
X128483130Y-103782799D01*
X128600982Y-103900650D01*
X128624552Y-103971361D01*
X128624552Y-104018501D01*
X128600982Y-104089212D01*
X128459560Y-104230633D01*
X128388850Y-104254203D01*
X128341709Y-104254203D01*
X128435990Y-103358535D02*
X128435990Y-103311394D01*
X128459560Y-103240684D01*
X128577411Y-103122832D01*
X128648122Y-103099262D01*
X128695263Y-103099262D01*
X128765973Y-103122832D01*
X128813114Y-103169973D01*
X128860254Y-103264254D01*
X128860254Y-103829939D01*
X129166667Y-103523526D01*
X116284239Y-105880160D02*
X115950905Y-105403970D01*
X115712810Y-105880160D02*
X115712810Y-104880160D01*
X116093762Y-104880160D01*
X116189000Y-104927780D01*
X116236620Y-104975399D01*
X116284239Y-105070637D01*
X116284239Y-105213494D01*
X116236620Y-105308732D01*
X116189000Y-105356351D01*
X116093762Y-105403970D01*
X115712810Y-105403970D01*
X116712810Y-105356351D02*
X117046143Y-105356351D01*
X117189000Y-105880160D02*
X116712810Y-105880160D01*
X116712810Y-104880160D01*
X117189000Y-104880160D01*
X117569953Y-105832541D02*
X117712810Y-105880160D01*
X117950905Y-105880160D01*
X118046143Y-105832541D01*
X118093762Y-105784922D01*
X118141381Y-105689684D01*
X118141381Y-105594446D01*
X118093762Y-105499208D01*
X118046143Y-105451589D01*
X117950905Y-105403970D01*
X117760429Y-105356351D01*
X117665191Y-105308732D01*
X117617572Y-105261113D01*
X117569953Y-105165875D01*
X117569953Y-105070637D01*
X117617572Y-104975399D01*
X117665191Y-104927780D01*
X117760429Y-104880160D01*
X117998524Y-104880160D01*
X118141381Y-104927780D01*
X118569953Y-105356351D02*
X118903286Y-105356351D01*
X119046143Y-105880160D02*
X118569953Y-105880160D01*
X118569953Y-104880160D01*
X119046143Y-104880160D01*
X119331858Y-104880160D02*
X119903286Y-104880160D01*
X119617572Y-105880160D02*
X119617572Y-104880160D01*
X138498794Y-105778560D02*
X138498794Y-104778560D01*
X138879746Y-104778560D01*
X138974984Y-104826180D01*
X139022603Y-104873799D01*
X139070222Y-104969037D01*
X139070222Y-105111894D01*
X139022603Y-105207132D01*
X138974984Y-105254751D01*
X138879746Y-105302370D01*
X138498794Y-105302370D01*
X140070222Y-105683322D02*
X140022603Y-105730941D01*
X139879746Y-105778560D01*
X139784508Y-105778560D01*
X139641651Y-105730941D01*
X139546413Y-105635703D01*
X139498794Y-105540465D01*
X139451175Y-105349989D01*
X139451175Y-105207132D01*
X139498794Y-105016656D01*
X139546413Y-104921418D01*
X139641651Y-104826180D01*
X139784508Y-104778560D01*
X139879746Y-104778560D01*
X140022603Y-104826180D01*
X140070222Y-104873799D01*
X141022603Y-105778560D02*
X140451175Y-105778560D01*
X140736889Y-105778560D02*
X140736889Y-104778560D01*
X140641651Y-104921418D01*
X140546413Y-105016656D01*
X140451175Y-105064275D01*
X141355937Y-104778560D02*
X141974984Y-104778560D01*
X141641651Y-105159513D01*
X141784508Y-105159513D01*
X141879746Y-105207132D01*
X141927365Y-105254751D01*
X141974984Y-105349989D01*
X141974984Y-105588084D01*
X141927365Y-105683322D01*
X141879746Y-105730941D01*
X141784508Y-105778560D01*
X141498794Y-105778560D01*
X141403556Y-105730941D01*
X141355937Y-105683322D01*
X137390167Y-95567760D02*
X137390167Y-94567760D01*
X137771120Y-94567760D01*
X137866358Y-94615380D01*
X137913977Y-94662999D01*
X137961596Y-94758237D01*
X137961596Y-94901094D01*
X137913977Y-94996332D01*
X137866358Y-95043951D01*
X137771120Y-95091570D01*
X137390167Y-95091570D01*
X138294929Y-94567760D02*
X138533024Y-95567760D01*
X138723500Y-94853475D01*
X138913977Y-95567760D01*
X139152072Y-94567760D01*
X140104453Y-95567760D02*
X139771120Y-95091570D01*
X139533024Y-95567760D02*
X139533024Y-94567760D01*
X139913977Y-94567760D01*
X140009215Y-94615380D01*
X140056834Y-94662999D01*
X140104453Y-94758237D01*
X140104453Y-94901094D01*
X140056834Y-94996332D01*
X140009215Y-95043951D01*
X139913977Y-95091570D01*
X139533024Y-95091570D01*
X140723500Y-94567760D02*
X140913977Y-94567760D01*
X141009215Y-94615380D01*
X141104453Y-94710618D01*
X141152072Y-94901094D01*
X141152072Y-95234427D01*
X141104453Y-95424903D01*
X141009215Y-95520141D01*
X140913977Y-95567760D01*
X140723500Y-95567760D01*
X140628262Y-95520141D01*
X140533024Y-95424903D01*
X140485405Y-95234427D01*
X140485405Y-94901094D01*
X140533024Y-94710618D01*
X140628262Y-94615380D01*
X140723500Y-94567760D01*
X141580643Y-95567760D02*
X141580643Y-94567760D01*
X142152072Y-95567760D01*
X142152072Y-94567760D01*
X122229642Y-90166666D02*
X122658214Y-90166666D01*
X122143928Y-90452380D02*
X122443928Y-89452380D01*
X122743928Y-90452380D01*
X122958214Y-89452380D02*
X123558214Y-89452380D01*
X123172500Y-90452380D01*
X124713762Y-90166666D02*
X125142334Y-90166666D01*
X124628048Y-90452380D02*
X124928048Y-89452380D01*
X125228048Y-90452380D01*
X125913762Y-89452380D02*
X125742334Y-89452380D01*
X125656620Y-89500000D01*
X125613762Y-89547619D01*
X125528048Y-89690476D01*
X125485191Y-89880952D01*
X125485191Y-90261904D01*
X125528048Y-90357142D01*
X125570905Y-90404761D01*
X125656620Y-90452380D01*
X125828048Y-90452380D01*
X125913762Y-90404761D01*
X125956620Y-90357142D01*
X125999477Y-90261904D01*
X125999477Y-90023809D01*
X125956620Y-89928571D01*
X125913762Y-89880952D01*
X125828048Y-89833333D01*
X125656620Y-89833333D01*
X125570905Y-89880952D01*
X125528048Y-89928571D01*
X125485191Y-90023809D01*
X127269002Y-90166666D02*
X127697574Y-90166666D01*
X127183288Y-90452380D02*
X127483288Y-89452380D01*
X127783288Y-90452380D01*
X128511860Y-89452380D02*
X128083288Y-89452380D01*
X128040431Y-89928571D01*
X128083288Y-89880952D01*
X128169002Y-89833333D01*
X128383288Y-89833333D01*
X128469002Y-89880952D01*
X128511860Y-89928571D01*
X128554717Y-90023809D01*
X128554717Y-90261904D01*
X128511860Y-90357142D01*
X128469002Y-90404761D01*
X128383288Y-90452380D01*
X128169002Y-90452380D01*
X128083288Y-90404761D01*
X128040431Y-90357142D01*
X129821702Y-90166666D02*
X130250274Y-90166666D01*
X129735988Y-90452380D02*
X130035988Y-89452380D01*
X130335988Y-90452380D01*
X131021702Y-89785714D02*
X131021702Y-90452380D01*
X130807417Y-89404761D02*
X130593131Y-90119047D01*
X131150274Y-90119047D01*
X132351542Y-90166666D02*
X132780114Y-90166666D01*
X132265828Y-90452380D02*
X132565828Y-89452380D01*
X132865828Y-90452380D01*
X133080114Y-89452380D02*
X133637257Y-89452380D01*
X133337257Y-89833333D01*
X133465828Y-89833333D01*
X133551542Y-89880952D01*
X133594400Y-89928571D01*
X133637257Y-90023809D01*
X133637257Y-90261904D01*
X133594400Y-90357142D01*
X133551542Y-90404761D01*
X133465828Y-90452380D01*
X133208685Y-90452380D01*
X133122971Y-90404761D01*
X133080114Y-90357142D01*
X134894082Y-90166666D02*
X135322654Y-90166666D01*
X134808368Y-90452380D02*
X135108368Y-89452380D01*
X135408368Y-90452380D01*
X135665511Y-89547619D02*
X135708368Y-89500000D01*
X135794082Y-89452380D01*
X136008368Y-89452380D01*
X136094082Y-89500000D01*
X136136940Y-89547619D01*
X136179797Y-89642857D01*
X136179797Y-89738095D01*
X136136940Y-89880952D01*
X135622654Y-90452380D01*
X136179797Y-90452380D01*
X137477262Y-90166666D02*
X137905834Y-90166666D01*
X137391548Y-90452380D02*
X137691548Y-89452380D01*
X137991548Y-90452380D01*
X138762977Y-90452380D02*
X138248691Y-90452380D01*
X138505834Y-90452380D02*
X138505834Y-89452380D01*
X138420120Y-89595238D01*
X138334405Y-89690476D01*
X138248691Y-89738095D01*
X139956302Y-90166666D02*
X140384874Y-90166666D01*
X139870588Y-90452380D02*
X140170588Y-89452380D01*
X140470588Y-90452380D01*
X140942017Y-89452380D02*
X141027731Y-89452380D01*
X141113445Y-89500000D01*
X141156302Y-89547619D01*
X141199160Y-89642857D01*
X141242017Y-89833333D01*
X141242017Y-90071428D01*
X141199160Y-90261904D01*
X141156302Y-90357142D01*
X141113445Y-90404761D01*
X141027731Y-90452380D01*
X140942017Y-90452380D01*
X140856302Y-90404761D01*
X140813445Y-90357142D01*
X140770588Y-90261904D01*
X140727731Y-90071428D01*
X140727731Y-89833333D01*
X140770588Y-89642857D01*
X140813445Y-89547619D01*
X140856302Y-89500000D01*
X140942017Y-89452380D01*
X142575828Y-90357142D02*
X142532971Y-90404761D01*
X142404400Y-90452380D01*
X142318685Y-90452380D01*
X142190114Y-90404761D01*
X142104400Y-90309523D01*
X142061542Y-90214285D01*
X142018685Y-90023809D01*
X142018685Y-89880952D01*
X142061542Y-89690476D01*
X142104400Y-89595238D01*
X142190114Y-89500000D01*
X142318685Y-89452380D01*
X142404400Y-89452380D01*
X142532971Y-89500000D01*
X142575828Y-89547619D01*
X143432971Y-90452380D02*
X142918685Y-90452380D01*
X143175828Y-90452380D02*
X143175828Y-89452380D01*
X143090114Y-89595238D01*
X143004400Y-89690476D01*
X142918685Y-89738095D01*
X144247257Y-89452380D02*
X143818685Y-89452380D01*
X143775828Y-89928571D01*
X143818685Y-89880952D01*
X143904400Y-89833333D01*
X144118685Y-89833333D01*
X144204400Y-89880952D01*
X144247257Y-89928571D01*
X144290114Y-90023809D01*
X144290114Y-90261904D01*
X144247257Y-90357142D01*
X144204400Y-90404761D01*
X144118685Y-90452380D01*
X143904400Y-90452380D01*
X143818685Y-90404761D01*
X143775828Y-90357142D01*
X145065028Y-90357142D02*
X145022171Y-90404761D01*
X144893600Y-90452380D01*
X144807885Y-90452380D01*
X144679314Y-90404761D01*
X144593600Y-90309523D01*
X144550742Y-90214285D01*
X144507885Y-90023809D01*
X144507885Y-89880952D01*
X144550742Y-89690476D01*
X144593600Y-89595238D01*
X144679314Y-89500000D01*
X144807885Y-89452380D01*
X144893600Y-89452380D01*
X145022171Y-89500000D01*
X145065028Y-89547619D01*
X145922171Y-90452380D02*
X145407885Y-90452380D01*
X145665028Y-90452380D02*
X145665028Y-89452380D01*
X145579314Y-89595238D01*
X145493600Y-89690476D01*
X145407885Y-89738095D01*
X146693600Y-89785714D02*
X146693600Y-90452380D01*
X146479314Y-89404761D02*
X146265028Y-90119047D01*
X146822171Y-90119047D01*
X147620268Y-90357142D02*
X147577411Y-90404761D01*
X147448840Y-90452380D01*
X147363125Y-90452380D01*
X147234554Y-90404761D01*
X147148840Y-90309523D01*
X147105982Y-90214285D01*
X147063125Y-90023809D01*
X147063125Y-89880952D01*
X147105982Y-89690476D01*
X147148840Y-89595238D01*
X147234554Y-89500000D01*
X147363125Y-89452380D01*
X147448840Y-89452380D01*
X147577411Y-89500000D01*
X147620268Y-89547619D01*
X148477411Y-90452380D02*
X147963125Y-90452380D01*
X148220268Y-90452380D02*
X148220268Y-89452380D01*
X148134554Y-89595238D01*
X148048840Y-89690476D01*
X147963125Y-89738095D01*
X148777411Y-89452380D02*
X149334554Y-89452380D01*
X149034554Y-89833333D01*
X149163125Y-89833333D01*
X149248840Y-89880952D01*
X149291697Y-89928571D01*
X149334554Y-90023809D01*
X149334554Y-90261904D01*
X149291697Y-90357142D01*
X149248840Y-90404761D01*
X149163125Y-90452380D01*
X148905982Y-90452380D01*
X148820268Y-90404761D01*
X148777411Y-90357142D01*
X149842840Y-89452380D02*
X150076173Y-90452380D01*
X150309506Y-89452380D01*
X150776173Y-89928571D02*
X150876173Y-89976190D01*
X150909506Y-90023809D01*
X150942840Y-90119047D01*
X150942840Y-90261904D01*
X150909506Y-90357142D01*
X150876173Y-90404761D01*
X150809506Y-90452380D01*
X150542840Y-90452380D01*
X150542840Y-89452380D01*
X150776173Y-89452380D01*
X150842840Y-89500000D01*
X150876173Y-89547619D01*
X150909506Y-89642857D01*
X150909506Y-89738095D01*
X150876173Y-89833333D01*
X150842840Y-89880952D01*
X150776173Y-89928571D01*
X150542840Y-89928571D01*
X151209506Y-90166666D02*
X151542840Y-90166666D01*
X151142840Y-90452380D02*
X151376173Y-89452380D01*
X151609506Y-90452380D01*
X151742840Y-89452380D02*
X152142840Y-89452380D01*
X151942840Y-90452380D02*
X151942840Y-89452380D01*
X110079066Y-100857057D02*
X110221923Y-100895152D01*
X110269542Y-100933247D01*
X110317161Y-101009438D01*
X110317161Y-101123723D01*
X110269542Y-101199914D01*
X110221923Y-101238009D01*
X110126685Y-101276104D01*
X109745733Y-101276104D01*
X109745733Y-100476104D01*
X110079066Y-100476104D01*
X110174304Y-100514200D01*
X110221923Y-100552295D01*
X110269542Y-100628485D01*
X110269542Y-100704676D01*
X110221923Y-100780866D01*
X110174304Y-100818961D01*
X110079066Y-100857057D01*
X109745733Y-100857057D01*
X110936209Y-100476104D02*
X111126685Y-100476104D01*
X111221923Y-100514200D01*
X111317161Y-100590390D01*
X111364780Y-100742771D01*
X111364780Y-101009438D01*
X111317161Y-101161819D01*
X111221923Y-101238009D01*
X111126685Y-101276104D01*
X110936209Y-101276104D01*
X110840971Y-101238009D01*
X110745733Y-101161819D01*
X110698114Y-101009438D01*
X110698114Y-100742771D01*
X110745733Y-100590390D01*
X110840971Y-100514200D01*
X110936209Y-100476104D01*
X111983828Y-100476104D02*
X112174304Y-100476104D01*
X112269542Y-100514200D01*
X112364780Y-100590390D01*
X112412400Y-100742771D01*
X112412400Y-101009438D01*
X112364780Y-101161819D01*
X112269542Y-101238009D01*
X112174304Y-101276104D01*
X111983828Y-101276104D01*
X111888590Y-101238009D01*
X111793352Y-101161819D01*
X111745733Y-101009438D01*
X111745733Y-100742771D01*
X111793352Y-100590390D01*
X111888590Y-100514200D01*
X111983828Y-100476104D01*
X112698114Y-100476104D02*
X113269542Y-100476104D01*
X112983828Y-101276104D02*
X112983828Y-100476104D01*
X114126685Y-101276104D02*
X113555257Y-101276104D01*
X113840971Y-101276104D02*
X113840971Y-100476104D01*
X113745733Y-100590390D01*
X113650495Y-100666580D01*
X113555257Y-100704676D01*
X110129866Y-94303857D02*
X110272723Y-94341952D01*
X110320342Y-94380047D01*
X110367961Y-94456238D01*
X110367961Y-94570523D01*
X110320342Y-94646714D01*
X110272723Y-94684809D01*
X110177485Y-94722904D01*
X109796533Y-94722904D01*
X109796533Y-93922904D01*
X110129866Y-93922904D01*
X110225104Y-93961000D01*
X110272723Y-93999095D01*
X110320342Y-94075285D01*
X110320342Y-94151476D01*
X110272723Y-94227666D01*
X110225104Y-94265761D01*
X110129866Y-94303857D01*
X109796533Y-94303857D01*
X110987009Y-93922904D02*
X111177485Y-93922904D01*
X111272723Y-93961000D01*
X111367961Y-94037190D01*
X111415580Y-94189571D01*
X111415580Y-94456238D01*
X111367961Y-94608619D01*
X111272723Y-94684809D01*
X111177485Y-94722904D01*
X110987009Y-94722904D01*
X110891771Y-94684809D01*
X110796533Y-94608619D01*
X110748914Y-94456238D01*
X110748914Y-94189571D01*
X110796533Y-94037190D01*
X110891771Y-93961000D01*
X110987009Y-93922904D01*
X112034628Y-93922904D02*
X112225104Y-93922904D01*
X112320342Y-93961000D01*
X112415580Y-94037190D01*
X112463200Y-94189571D01*
X112463200Y-94456238D01*
X112415580Y-94608619D01*
X112320342Y-94684809D01*
X112225104Y-94722904D01*
X112034628Y-94722904D01*
X111939390Y-94684809D01*
X111844152Y-94608619D01*
X111796533Y-94456238D01*
X111796533Y-94189571D01*
X111844152Y-94037190D01*
X111939390Y-93961000D01*
X112034628Y-93922904D01*
X112748914Y-93922904D02*
X113320342Y-93922904D01*
X113034628Y-94722904D02*
X113034628Y-93922904D01*
X113844152Y-93922904D02*
X113939390Y-93922904D01*
X114034628Y-93961000D01*
X114082247Y-93999095D01*
X114129866Y-94075285D01*
X114177485Y-94227666D01*
X114177485Y-94418142D01*
X114129866Y-94570523D01*
X114082247Y-94646714D01*
X114034628Y-94684809D01*
X113939390Y-94722904D01*
X113844152Y-94722904D01*
X113748914Y-94684809D01*
X113701295Y-94646714D01*
X113653676Y-94570523D01*
X113606057Y-94418142D01*
X113606057Y-94227666D01*
X113653676Y-94075285D01*
X113701295Y-93999095D01*
X113748914Y-93961000D01*
X113844152Y-93922904D01*
D11*
X145329600Y-105131800D02*
X147989600Y-105131800D01*
X145329600Y-97451800D02*
X145329600Y-105131800D01*
X147989600Y-97451800D02*
X147989600Y-105131800D01*
X145329600Y-97451800D02*
X147989600Y-97451800D01*
X145329600Y-96181800D02*
X145329600Y-94851800D01*
X145329600Y-94851800D02*
X146659600Y-94851800D01*
X115884000Y-94961400D02*
X115884000Y-96291400D01*
X114554000Y-94961400D02*
X115884000Y-94961400D01*
X115884000Y-97561400D02*
X115884000Y-100161400D01*
X113284000Y-97561400D02*
X115884000Y-97561400D01*
X113284000Y-94961400D02*
X113284000Y-97561400D01*
X115884000Y-100161400D02*
X108144000Y-100161400D01*
X113284000Y-94961400D02*
X108144000Y-94961400D01*
X108144000Y-94961400D02*
X108144000Y-100161400D01*
X142473800Y-95000000D02*
X142473800Y-97685000D01*
X142473800Y-97685000D02*
X144393800Y-97685000D01*
X144393800Y-97685000D02*
X144393800Y-95000000D01*
X144393800Y-105685000D02*
X144393800Y-103000000D01*
X142473800Y-105685000D02*
X144393800Y-105685000D01*
X142473800Y-103000000D02*
X142473800Y-105685000D01*
X100359000Y-96240000D02*
X100009000Y-96240000D01*
X100359000Y-103760000D02*
X100009000Y-103760000D01*
X104369000Y-103760000D02*
X104369000Y-102200000D01*
X102559000Y-103760000D02*
X104369000Y-103760000D01*
X104369000Y-96240000D02*
X104369000Y-97800000D01*
X102559000Y-96240000D02*
X104369000Y-96240000D01*
X101185000Y-91050000D02*
X101185000Y-93710000D01*
X149505000Y-91050000D02*
X101185000Y-91050000D01*
X149505000Y-93710000D02*
X101185000Y-93710000D01*
X149505000Y-91050000D02*
X149505000Y-93710000D01*
X150775000Y-91050000D02*
X152105000Y-91050000D01*
X152105000Y-91050000D02*
X152105000Y-92380000D01*
X152105000Y-106290000D02*
X152105000Y-107620000D01*
X150775000Y-106290000D02*
X152105000Y-106290000D01*
X149505000Y-106290000D02*
X149505000Y-108950000D01*
X149505000Y-108950000D02*
X101185000Y-108950000D01*
X149505000Y-106290000D02*
X101185000Y-106290000D01*
X101185000Y-106290000D02*
X101185000Y-108950000D01*
X108903200Y-105405800D02*
X108903200Y-101705800D01*
X115023200Y-105405800D02*
X108903200Y-105405800D01*
X115023200Y-101705800D02*
X115023200Y-105405800D01*
X108903200Y-101705800D02*
X115023200Y-101705800D01*
X128358113Y-99681802D02*
X129270281Y-98769634D01*
X128676311Y-100000000D02*
X128358113Y-99681802D01*
X128358113Y-100318198D02*
X128676311Y-100000000D01*
X123571000Y-105105311D02*
X123252802Y-104787113D01*
X123889198Y-104787113D02*
X123571000Y-105105311D01*
X123571000Y-94894689D02*
X123889198Y-95212887D01*
X123252802Y-95212887D02*
X123571000Y-94894689D01*
X118465689Y-100000000D02*
X118783887Y-100318198D01*
X118783887Y-99681802D02*
X118465689Y-100000000D01*
X135544800Y-103122000D02*
X135544800Y-96722000D01*
X130494800Y-103122000D02*
X130494800Y-96722000D01*
X135544800Y-103122000D02*
G75*
G02*
X130494800Y-103122000I-2525000J0D01*
G01*
X135544800Y-96722000D02*
G75*
G03*
X130494800Y-96722000I-2525000J0D01*
G01*
D12*
X141392041Y-104241800D02*
G75*
G03*
X141392041Y-104241800I-193441J0D01*
G01*
D11*
X136956800Y-103987800D02*
X140766800Y-103987800D01*
X136956800Y-96012200D02*
X140766800Y-96012200D01*
M02*
